<?xml version="1.0" standalone="no"?>
<!DOCTYPE svg PUBLIC "-//W3C//DTD SVG 20010904//EN"
 "http://www.w3.org/TR/2001/REC-SVG-20010904/DTD/svg10.dtd">
<svg version="1.0" xmlns="http://www.w3.org/2000/svg"
 width="260.000000pt" height="260.000000pt" viewBox="0 0 260.000000 260.000000"
 preserveAspectRatio="xMidYMid meet">
<metadata>
Created by potrace 1.11, written by Peter Selinger 2001-2013
</metadata>
<g transform="translate(0.000000,260.000000) scale(0.100000,-0.100000)"
fill="#000000" stroke="none">
<path d="M807 2433 c-30 -87 -101 -288 -157 -448 -56 -159 -172 -488 -257
-730 -85 -242 -186 -530 -225 -640 -38 -110 -87 -249 -109 -308 -21 -60 -39
-114 -39 -121 0 -10 239 -65 443 -101 12 -3 87 -18 167 -34 80 -17 160 -33
179 -36 19 -3 38 -8 43 -11 5 -3 25 -3 44 1 28 5 34 10 29 25 -3 10 -1 21 4
24 6 4 8 14 5 24 -4 12 0 11 14 -5 23 -27 32 -29 32 -9 0 8 6 17 12 20 11 5
11 7 1 12 -14 6 -18 34 -5 34 4 0 19 11 35 24 27 23 36 46 17 46 -5 0 -10 -5
-10 -11 0 -11 -25 -39 -35 -39 -10 0 -35 -27 -35 -38 0 -6 6 -12 13 -15 6 -2
9 -8 5 -12 -4 -4 -14 0 -24 9 -12 13 -13 20 -4 31 6 8 9 19 5 24 -3 7 0 8 9 5
11 -4 16 0 16 11 0 9 -4 14 -8 11 -5 -3 -9 1 -9 9 0 8 6 15 14 15 9 0 11 8 7
24 -3 14 0 29 10 39 9 8 13 23 10 31 -3 9 -1 22 5 30 6 7 10 15 8 18 -1 2 11
-9 26 -25 22 -22 31 -26 42 -17 10 8 17 6 28 -10 13 -19 18 -20 36 -8 22 13
29 38 11 38 -5 0 -10 -7 -10 -15 0 -8 -7 -15 -15 -15 -20 0 -19 10 3 26 15 12
15 15 2 23 -8 6 -11 13 -7 18 5 4 12 1 17 -7 5 -8 13 -11 17 -6 4 5 2 11 -4
13 -7 3 -13 11 -13 19 0 8 -4 14 -10 14 -5 0 -10 -7 -10 -15 0 -8 -7 -15 -16
-15 -9 0 -12 5 -8 12 5 8 2 9 -12 4 -10 -5 -24 -9 -31 -9 -6 0 -9 -6 -6 -14 6
-15 15 -17 28 -4 6 6 18 4 30 -5 17 -13 18 -16 5 -24 -11 -7 -16 -5 -18 5 -2
8 -8 15 -14 15 -5 0 -8 -7 -4 -15 9 -23 -4 -18 -35 15 l-28 29 15 53 c9 29 38
125 66 213 27 88 65 210 83 270 118 383 182 585 187 590 2 3 30 -62 62 -143
32 -81 62 -156 67 -167 35 -79 269 -679 269 -690 0 -18 17 -20 23 -2 3 9 7 9
19 0 8 -7 18 -10 22 -6 4 4 4 0 0 -10 -8 -22 -24 -22 -24 0 0 14 -4 13 -21 -6
-16 -17 -19 -25 -10 -31 7 -4 12 -11 11 -16 -1 -5 3 -10 9 -12 15 -5 14 11 -1
26 -6 6 -8 15 -4 19 4 4 11 1 16 -6 7 -12 11 -12 24 2 9 8 16 20 16 25 0 5 7
9 15 9 8 0 12 -4 9 -8 -8 -14 18 -22 27 -8 8 12 10 12 18 0 8 -12 12 -12 24
-2 11 8 17 9 22 1 4 -6 15 -8 25 -5 10 3 25 -2 35 -11 14 -15 18 -15 26 -3 6
9 11 11 17 3 4 -6 23 -10 43 -9 31 1 35 -1 31 -17 -4 -17 -6 -17 -22 -3 -21
19 -34 19 -26 -1 3 -8 2 -12 -3 -9 -11 6 -26 -13 -17 -22 3 -4 15 2 26 12 18
16 20 16 20 2 0 -10 -7 -17 -15 -17 -8 0 -15 -4 -15 -10 0 -13 13 -13 26 0 7
7 17 3 32 -10 20 -19 24 -19 37 -6 8 8 15 21 15 28 -1 8 -7 5 -16 -7 -11 -14
-18 -16 -21 -7 -3 6 -11 12 -19 12 -9 0 -12 5 -9 10 4 7 13 7 26 0 15 -9 19
-7 19 6 0 10 -5 14 -14 11 -10 -4 -13 -1 -9 9 7 19 19 18 27 -3 6 -14 8 -14
21 3 10 13 14 14 15 5 0 -9 8 -11 23 -8 12 4 29 2 36 -3 12 -7 13 -11 1 -24
-7 -9 -10 -19 -6 -23 8 -8 36 29 30 39 -13 21 26 4 40 -17 14 -22 15 -25 1
-25 -8 0 -15 8 -15 17 0 14 -4 12 -22 -7 -15 -16 -18 -25 -10 -28 7 -2 12 -10
12 -18 0 -8 5 -14 10 -14 6 0 10 6 10 13 0 8 11 20 25 27 29 15 33 30 8 30
-14 0 -14 3 -5 12 10 10 15 10 22 -1 7 -12 11 -12 24 -2 12 10 16 11 16 1 0
-7 7 -10 14 -7 10 4 13 1 9 -9 -6 -17 -20 -18 -26 -1 -3 8 -11 5 -24 -10 -11
-13 -25 -23 -32 -23 -6 0 -11 -5 -11 -11 0 -7 7 -8 18 -4 9 4 22 8 29 8 6 0 9
6 6 14 -7 17 14 17 20 1 4 -10 8 -9 16 2 8 12 13 12 23 2 9 -9 17 -7 35 10 16
15 26 19 31 11 4 -6 19 -9 33 -6 l27 5 -23 56 c-12 32 -95 235 -184 452 -90
217 -240 582 -333 810 -94 228 -214 521 -267 650 l-97 235 -410 3 -411 4 -56
-159z m789 118 l41 -1 -128 -437 c-128 -443 -177 -606 -289 -968 -34 -110
-106 -346 -161 -525 -55 -179 -113 -365 -129 -415 -15 -49 -33 -109 -40 -133
-6 -23 -15 -40 -19 -37 -9 5 -476 101 -541 111 -19 3 -43 7 -52 10 -9 3 -25 6
-35 8 -79 16 -178 38 -180 40 -2 1 15 52 37 112 34 96 118 334 355 1009 35 99
93 266 130 370 102 290 192 546 242 690 25 72 49 139 53 151 8 20 13 20 342
18 183 -1 351 -2 374 -3z m894 -2172 c0 -5 -6 -9 -13 -9 -8 0 -14 6 -14 14 0
8 6 12 14 9 7 -3 13 -9 13 -14z m-160 -19 c0 -5 -4 -10 -10 -10 -5 0 -10 5
-10 10 0 6 5 10 10 10 6 0 10 -4 10 -10z"/>
<path d="M1730 491 c0 -12 29 -35 36 -28 4 3 -1 13 -9 22 -17 17 -27 19 -27 6z"/>
<path d="M1660 478 c0 -10 -7 -18 -16 -18 -8 0 -12 5 -9 10 3 6 2 10 -4 10 -5
0 -13 -5 -16 -11 -4 -6 -13 -8 -21 -5 -21 8 -44 -4 -44 -23 -1 -14 -3 -13 -15
3 -14 19 -15 19 -35 1 -11 -10 -20 -13 -20 -7 0 7 -5 12 -11 12 -8 0 -7 -5 1
-15 7 -9 10 -18 6 -22 -3 -4 -13 2 -21 13 -11 15 -14 16 -15 4 0 -9 9 -22 20
-30 11 -8 20 -21 20 -30 1 -12 3 -12 14 3 7 9 19 17 26 17 9 0 8 -6 -4 -19
-17 -19 -16 -21 12 -51 17 -17 33 -27 36 -22 3 5 -6 20 -19 32 -26 25 -33 42
-14 38 21 -5 19 17 -2 30 -18 11 -23 12 -30 1 -4 -8 -11 -10 -16 -5 -4 4 0 12
10 17 9 6 15 14 12 20 -4 5 1 9 10 9 9 0 14 -4 11 -9 -3 -5 6 -17 19 -27 23
-17 37 -53 16 -39 -5 3 -12 1 -15 -4 -4 -5 -2 -12 2 -15 11 -7 62 49 62 66 -1
8 -6 5 -15 -6 -13 -17 -15 -17 -30 -3 -13 14 -14 20 -3 37 13 20 28 27 28 12
0 -4 -5 -13 -12 -20 -6 -6 -9 -15 -5 -18 4 -4 16 5 28 20 11 14 25 24 30 21
11 -7 12 -26 2 -22 -12 3 -15 -6 -8 -25 4 -10 12 -18 17 -18 11 0 37 30 38 43
0 4 -4 7 -10 7 -5 0 -10 -7 -10 -15 0 -8 -7 -15 -17 -15 -14 0 -14 3 3 23 10
12 20 24 21 26 2 3 10 -4 18 -15 12 -16 14 -17 15 -3 0 9 7 20 16 23 18 7 12
19 -11 22 -8 1 -11 -4 -8 -12 7 -20 -7 -17 -23 4 -13 16 -13 16 -14 0z"/>
<path d="M1720 451 c0 -10 -53 -66 -76 -79 -9 -5 -14 -15 -10 -21 4 -6 12 -9
17 -5 5 3 7 10 4 15 -4 5 0 9 9 9 8 0 16 6 19 13 2 6 8 9 12 4 5 -4 0 -13 -10
-21 -11 -8 -14 -15 -8 -19 6 -4 19 3 29 14 16 17 16 22 4 30 -13 8 -12 11 3
20 9 6 15 14 12 20 -4 5 -2 9 3 9 6 0 13 -7 16 -16 3 -8 10 -12 16 -9 6 3 7
-1 4 -9 -3 -9 -2 -16 3 -16 23 0 21 16 -4 42 -27 28 -43 35 -43 19z"/>
<path d="M1850 451 c0 -17 18 -21 24 -6 3 9 0 15 -9 15 -8 0 -15 -4 -15 -9z"/>
<path d="M1886 435 c-21 -28 -36 -32 -36 -10 0 8 -4 15 -10 15 -5 0 -10 -4
-10 -9 0 -4 -12 -20 -26 -34 -22 -22 -29 -24 -45 -14 -10 6 -19 18 -19 26 0
12 -3 12 -12 3 -10 -10 -10 -15 2 -22 13 -9 13 -11 1 -19 -12 -8 -13 -12 -1
-25 7 -9 10 -19 6 -23 -3 -4 -13 2 -21 13 -11 15 -14 16 -15 4 0 -19 -37 -43
-45 -30 -3 6 1 10 9 10 9 0 16 5 16 10 0 6 -4 10 -9 10 -6 0 -13 -4 -16 -10
-10 -16 -25 -12 -25 7 0 12 -12 4 -40 -25 -45 -46 -50 -49 -50 -27 0 8 -4 15
-10 15 -5 0 -10 -6 -10 -14 0 -8 -6 -16 -12 -19 -7 -2 -9 -8 -5 -13 4 -5 12
-2 18 6 8 13 10 13 18 1 8 -12 12 -12 26 3 10 9 20 14 24 11 3 -4 -2 -13 -12
-20 -16 -11 -16 -16 -5 -34 7 -12 17 -21 23 -21 14 0 39 41 28 49 -4 3 -17 16
-27 29 -17 19 -17 22 -3 22 10 0 17 -7 17 -15 0 -8 5 -15 10 -15 14 0 12 28
-2 33 -7 2 -10 8 -6 12 7 7 38 -17 38 -30 0 -10 28 -35 39 -35 6 0 11 5 11 10
0 6 -7 10 -15 10 -8 0 -15 7 -15 15 0 8 7 15 15 15 8 0 14 -5 12 -11 -1 -6 4
-14 11 -16 14 -6 16 13 2 22 -5 3 -10 10 -10 16 0 16 15 10 29 -12 11 -18 11
-23 -1 -31 -10 -7 -10 -11 0 -15 6 -2 12 -12 12 -21 0 -8 -3 -13 -6 -10 -3 4
-15 -3 -26 -14 -11 -11 -17 -23 -13 -26 3 -4 10 0 15 7 4 8 15 11 25 8 10 -4
14 -3 10 4 -4 5 -1 17 6 25 10 13 10 17 -2 26 -11 7 -11 11 -1 15 6 2 12 11
12 19 0 8 7 14 17 14 14 0 14 -2 -3 -21 -15 -17 -16 -22 -4 -29 12 -7 12 -12
2 -22 -15 -15 -16 -28 -2 -28 6 0 10 7 10 16 0 14 3 14 16 3 10 -8 18 -9 22
-3 4 6 22 9 40 8 17 0 32 3 32 8 0 6 11 19 25 30 26 20 34 43 13 35 -7 -2 -12
-10 -10 -16 1 -6 -4 -11 -11 -11 -8 0 -14 7 -14 15 0 8 6 15 14 15 7 0 13 5
13 10 0 18 -16 11 -45 -20 -24 -26 -27 -33 -15 -40 8 -5 11 -12 7 -17 -5 -4
-12 -1 -17 7 -8 13 -12 13 -26 -2 -16 -16 -18 -16 -31 9 -16 31 -16 34 0 27 7
-2 19 7 27 21 13 25 30 34 30 15 0 -5 -4 -10 -10 -10 -5 0 -10 -7 -10 -15 0
-8 5 -15 10 -15 6 0 10 5 10 11 0 10 11 23 41 46 13 10 20 9 37 -8 20 -18 24
-18 37 -5 8 8 15 20 15 27 0 8 6 7 18 -4 23 -21 36 -22 28 -2 -3 9 0 15 8 15
8 0 16 6 19 13 3 7 12 2 26 -16 20 -24 50 -30 35 -6 -3 5 -10 7 -15 4 -5 -4
-9 0 -9 7 0 8 -9 20 -20 28 -11 8 -20 20 -20 27 0 7 -4 13 -10 13 -5 0 -10 -7
-10 -15 0 -8 -8 -15 -17 -15 -14 0 -15 -2 -4 -12 11 -10 14 -10 18 0 3 6 9 12
14 12 16 0 10 -15 -12 -28 -17 -11 -22 -10 -38 9 -17 21 -18 21 -39 4 -19 -17
-20 -19 -4 -31 10 -7 13 -16 8 -21 -5 -4 -11 -2 -13 5 -3 6 -11 12 -19 12 -8
0 -13 3 -12 8 3 15 -15 42 -28 42 -19 0 -18 -16 3 -24 14 -6 14 -9 -6 -27 -12
-12 -25 -18 -28 -15 -4 3 2 12 12 20 13 9 15 15 6 20 -6 4 -14 0 -17 -8 -3 -9
-10 -16 -15 -16 -14 0 -11 28 4 33 9 4 8 8 -3 16 -8 5 -11 13 -7 18 5 4 12 1
18 -7 8 -13 14 -10 35 14 14 15 28 25 31 22 4 -3 1 -12 -5 -18 -15 -15 -16
-28 -2 -28 6 0 10 8 10 17 0 14 3 14 12 5 10 -10 10 -15 -2 -22 -8 -5 -11 -12
-8 -16 4 -3 15 1 24 10 12 13 14 20 5 29 -15 15 -14 27 4 27 8 0 14 -3 13 -7
-2 -5 2 -8 7 -8 6 0 9 3 8 8 -2 4 4 7 12 7 8 0 15 5 15 10 0 13 -17 13 -25 0
-5 -8 -12 -7 -22 1 -12 10 -17 10 -25 -2 -7 -11 -11 -11 -15 -1 -7 18 -16 15
-37 -13z m-56 -55 c0 -5 -4 -10 -10 -10 -14 0 -12 -27 3 -34 10 -5 10 -7 0
-12 -7 -3 -13 -13 -13 -21 0 -14 -3 -13 -20 2 -20 18 -21 18 -35 -1 -12 -16
-14 -17 -15 -3 0 9 8 20 18 24 16 6 16 7 0 16 -22 12 -23 29 -2 29 8 0 13 -4
10 -9 -7 -10 32 -47 40 -38 4 3 -2 14 -12 24 -16 17 -16 18 -1 21 9 2 17 8 17
13 0 5 5 9 10 9 6 0 10 -4 10 -10z m160 -14 c0 -2 -7 -9 -15 -16 -12 -10 -15
-10 -15 4 0 9 7 16 15 16 8 0 15 -2 15 -4z m-100 -107 c0 -5 -4 -9 -10 -9 -5
0 -10 7 -10 16 0 8 5 12 10 9 6 -3 10 -10 10 -16z m-280 -24 c0 -8 -6 -15 -13
-15 -8 0 -14 7 -14 15 0 8 6 15 14 15 7 0 13 -7 13 -15z"/>
<path d="M1395 431 c-3 -6 1 -14 9 -17 9 -3 13 -10 10 -15 -3 -5 2 -9 10 -9
21 0 20 13 -3 34 -13 11 -21 14 -26 7z"/>
<path d="M1995 420 c-10 -11 -15 -23 -12 -27 8 -7 47 25 47 39 0 14 -16 9 -35
-12z"/>
<path d="M2050 431 c0 -6 5 -13 10 -16 6 -3 10 1 10 9 0 9 -4 16 -10 16 -5 0
-10 -4 -10 -9z"/>
<path d="M1350 422 c0 -5 -14 -9 -31 -9 -17 0 -35 -6 -40 -14 -8 -12 -10 -12
-19 1 -8 12 -12 12 -18 2 -5 -7 -15 -11 -23 -9 -8 2 -11 2 -6 0 4 -3 5 -9 2
-13 -3 -5 -1 -11 5 -15 6 -3 13 1 16 9 8 21 24 21 24 0 0 -8 -4 -12 -10 -9 -5
3 -10 -1 -10 -9 0 -9 5 -16 10 -16 6 0 10 -7 10 -15 0 -8 -5 -14 -11 -13 -6 2
-14 -3 -17 -11 -3 -10 0 -12 12 -8 10 4 16 1 16 -8 0 -8 5 -15 10 -15 13 0 13
13 0 26 -7 7 -3 19 15 36 15 15 22 29 16 32 -5 4 -14 -2 -20 -11 -5 -10 -12
-15 -16 -11 -9 8 17 48 32 48 6 0 13 6 15 12 5 15 38 -13 38 -31 0 -6 5 -11
10 -11 6 0 10 7 10 15 0 8 7 15 17 15 15 0 15 -1 0 -18 -19 -21 -22 -32 -7
-32 6 0 10 8 10 18 1 16 2 16 15 -2 14 -19 41 -13 29 6 -4 6 -2 8 4 4 6 -3 14
-1 17 5 12 19 -4 23 -24 5 -18 -16 -19 -16 -25 9 -4 14 -13 25 -21 25 -8 0
-15 5 -15 10 0 6 -4 10 -10 10 -5 0 -10 -4 -10 -8z m20 -22 c0 -5 -4 -10 -10
-10 -5 0 -10 5 -10 10 0 6 5 10 10 10 6 0 10 -4 10 -10z"/>
<path d="M2206 411 c-4 -5 -2 -12 3 -15 5 -4 12 -2 15 3 4 5 2 12 -3 15 -5 4
-12 2 -15 -3z"/>
<path d="M2217 379 c-37 -40 -46 -59 -27 -59 6 0 10 7 10 15 0 8 5 15 10 15
14 0 13 -13 -2 -28 -6 -6 -8 -15 -4 -19 4 -4 11 -1 15 6 5 7 14 10 20 7 17
-11 51 3 51 21 0 8 -6 13 -12 10 -7 -2 -12 -10 -10 -16 1 -6 -5 -11 -14 -11
-8 0 -13 4 -9 9 3 6 -3 14 -12 20 -10 5 -14 13 -10 18 5 4 14 0 21 -9 7 -10
16 -15 19 -11 11 11 8 23 -6 23 -8 0 -14 6 -14 14 0 8 6 12 14 9 7 -3 13 0 13
5 0 25 -19 18 -53 -19z"/>
<path d="M1167 373 c3 -8 12 -12 19 -9 19 7 18 1 -3 -20 -13 -13 -14 -19 -5
-22 6 -2 12 -8 12 -14 0 -13 -26 -38 -39 -38 -6 0 -11 -4 -11 -10 0 -5 7 -10
15 -10 8 0 14 -3 13 -7 -2 -5 5 -19 14 -31 15 -22 17 -22 26 -6 9 16 11 16 26
2 9 -9 16 -21 16 -27 0 -6 5 -11 10 -11 17 0 11 25 -10 40 -25 18 -25 29 -2
46 11 9 13 13 4 14 -16 0 -42 24 -42 39 0 6 5 10 11 8 6 -1 14 4 16 11 6 14
-13 16 -22 2 -3 -5 -10 -10 -16 -10 -5 0 -9 5 -9 10 0 6 7 10 15 10 20 0 19
14 -1 31 -23 19 -44 20 -37 2z m51 -100 c12 -12 13 -18 4 -21 -6 -2 -12 -10
-12 -18 0 -8 -7 -14 -17 -14 -15 0 -15 1 0 18 19 21 22 32 7 32 -5 0 -10 -8
-10 -17 0 -13 -3 -14 -11 -6 -8 8 -8 15 2 27 18 19 17 19 37 -1z"/>
<path d="M1305 380 c-6 -9 1 -14 18 -11 14 2 6 -14 -18 -38 -26 -24 -33 -45
-14 -39 6 2 9 7 7 11 -2 3 7 14 20 23 22 15 24 15 37 -2 19 -25 18 -34 0 -34
-8 0 -15 -4 -15 -10 0 -5 5 -10 11 -10 14 0 39 25 39 39 0 6 5 11 10 11 14 0
12 -28 -2 -33 -7 -2 -9 -8 -5 -13 4 -5 12 -2 17 6 5 8 12 11 17 7 4 -5 1 -12
-7 -17 -8 -5 -11 -12 -7 -17 5 -4 11 -3 15 2 4 6 17 19 30 29 19 17 22 17 22
3 0 -10 -5 -17 -11 -17 -14 0 -39 -25 -39 -39 0 -6 5 -11 10 -11 6 0 10 7 10
15 0 8 5 15 11 15 11 0 23 11 47 42 12 14 9 21 -16 48 -17 17 -33 27 -36 21
-4 -5 2 -15 11 -20 17 -11 17 -11 0 -22 -9 -5 -15 -14 -12 -20 4 -5 -1 -9 -9
-9 -9 0 -16 7 -16 15 0 8 7 15 15 15 8 0 15 5 15 10 0 14 -27 12 -33 -2 -4
-10 -8 -9 -16 2 -10 13 -12 13 -20 0 -8 -12 -14 -9 -35 15 -14 17 -26 33 -26
38 0 10 -18 9 -25 -3z m195 -76 c0 -8 -4 -12 -10 -9 -5 3 -10 10 -10 16 0 5 5
9 10 9 6 0 10 -7 10 -16z"/>
<path d="M1610 381 c0 -4 -12 -20 -26 -35 -15 -14 -21 -26 -14 -26 13 0 60 49
60 63 0 4 -4 7 -10 7 -5 0 -10 -4 -10 -9z"/>
<path d="M2113 358 c2 -7 10 -12 16 -10 6 1 11 -5 11 -13 0 -8 -5 -14 -11 -12
-6 1 -14 -4 -16 -10 -6 -15 13 -17 22 -3 3 6 10 10 16 10 5 0 9 -4 9 -10 0 -5
-7 -10 -16 -10 -8 0 -12 -5 -9 -10 5 -8 11 -7 20 0 8 7 19 9 26 5 14 -9 -2 20
-30 53 -21 24 -46 30 -38 10z"/>
<path d="M2050 337 c0 -17 -37 -39 -45 -27 -8 13 -25 13 -25 0 0 -5 7 -10 15
-10 8 0 14 -5 13 -11 -2 -6 5 -16 15 -22 14 -9 19 -9 26 2 5 7 14 11 20 7 7
-5 9 -1 5 8 -3 9 -2 16 4 16 5 0 13 -7 16 -16 3 -8 11 -12 17 -8 7 4 2 14 -15
29 -14 12 -26 27 -26 34 0 6 -4 11 -10 11 -5 0 -10 -6 -10 -13z m20 -22 c0 -7
-34 -45 -41 -45 -3 0 -6 7 -6 15 0 8 6 15 14 15 7 0 13 5 13 10 0 6 5 10 10
10 6 0 10 -2 10 -5z"/>
<path d="M1015 309 c-10 -15 3 -25 16 -12 7 7 7 13 1 17 -6 3 -14 1 -17 -5z"/>
<path d="M1320 312 c0 -5 -11 -21 -25 -35 -15 -14 -22 -28 -16 -31 5 -4 14 2
20 11 5 10 13 15 17 11 4 -4 1 -14 -6 -22 -10 -13 -9 -19 4 -32 10 -9 20 -13
24 -9 4 4 1 10 -5 12 -15 5 -17 33 -3 33 6 0 10 -7 10 -16 0 -9 6 -14 13 -11
6 2 11 10 10 16 -2 6 4 11 12 11 8 0 15 5 15 10 0 13 -13 13 -27 -1 -9 -9 -16
-8 -27 4 -16 16 -22 39 -8 35 4 -2 8 1 10 7 2 5 -1 11 -7 13 -6 2 -11 -1 -11
-6z"/>
<path d="M1960 291 c0 -4 -12 -20 -26 -35 -15 -14 -22 -26 -16 -26 6 0 14 5
17 11 4 6 13 8 20 5 8 -3 11 2 8 13 -3 11 1 18 10 18 9 0 13 -6 10 -14 -3 -7
-1 -13 4 -13 20 0 22 14 6 32 -17 19 -33 24 -33 9z"/>
<path d="M1022 274 c-11 -12 -11 -18 -1 -30 6 -8 9 -17 5 -21 -3 -4 -13 2 -21
13 -12 16 -14 17 -15 2 0 -9 6 -19 13 -22 8 -3 7 -8 -6 -16 -9 -6 -15 -15 -12
-21 8 -13 25 -11 25 2 0 7 12 22 26 34 21 18 23 23 10 28 -20 8 -21 27 -1 27
8 0 15 5 15 10 0 15 -23 11 -38 -6z"/>
<path d="M1067 271 c-16 -17 -16 -19 3 -36 11 -10 23 -16 26 -12 9 9 -6 28
-17 22 -5 -3 -6 1 -3 9 8 20 24 21 24 1 0 -9 6 -12 15 -9 20 8 19 -1 -1 -21
-24 -23 -9 -31 15 -8 l21 20 -30 26 c-35 31 -30 31 -53 8z"/>
<path d="M1630 265 c0 -3 9 -15 20 -27 22 -24 26 -38 10 -38 -5 0 -10 7 -10
15 0 8 -4 15 -10 15 -5 0 -10 -6 -10 -13 0 -7 -8 -17 -19 -24 -15 -10 -22 -8
-39 8 -12 10 -26 27 -31 36 -10 17 -12 17 -21 1 -13 -22 -32 -24 -24 -3 10 24
-13 17 -35 -11 -18 -23 -22 -24 -36 -11 -8 9 -15 21 -15 27 0 6 -6 10 -12 7
-7 -2 -12 -10 -10 -16 1 -6 -3 -11 -9 -11 -14 0 -39 -26 -39 -41 0 -6 12 0 26
15 27 26 44 33 44 17 0 -5 -7 -12 -16 -15 -8 -3 -12 -11 -8 -17 5 -9 11 -7 20
6 8 10 17 15 21 10 5 -4 2 -10 -4 -12 -15 -5 -17 -33 -3 -33 6 0 10 7 10 15 0
8 5 15 10 15 16 0 12 -22 -7 -36 -13 -9 -21 -9 -31 -1 -10 8 -16 7 -23 -4 -8
-12 -10 -12 -18 0 -7 11 -13 10 -32 -8 -25 -23 -39 -27 -39 -11 0 6 -4 10 -10
10 -5 0 -10 -6 -10 -13 0 -8 -6 -14 -14 -14 -8 0 -12 6 -9 14 3 7 0 13 -5 13
-17 0 -23 -18 -10 -27 17 -10 78 -10 78 0 0 5 4 6 9 2 6 -3 14 3 20 12 9 16
12 16 21 3 7 -11 12 -12 18 -4 4 7 20 12 36 12 15 0 33 6 38 13 7 11 11 11 15
2 3 -10 10 -10 24 -2 11 5 24 7 30 3 8 -4 7 0 0 15 -10 17 -9 21 4 21 8 0 15
5 15 10 0 14 -11 12 -34 -5 -10 -7 -15 -18 -11 -24 3 -6 -1 -11 -9 -11 -19 0
-21 26 -3 34 10 5 10 7 0 12 -7 3 -13 13 -13 21 0 14 3 13 21 -3 16 -15 22
-16 29 -4 7 11 11 10 26 -4 16 -17 17 -19 1 -28 -10 -5 -15 -13 -12 -19 9 -14
25 -11 25 6 0 8 7 15 16 15 8 0 12 -4 9 -10 -3 -5 -1 -10 4 -10 6 0 11 4 11 9
0 6 9 8 19 6 14 -3 18 1 14 11 -7 20 7 18 23 -3 9 -12 13 -14 14 -5 0 7 12 24
28 37 15 13 24 27 20 31 -5 4 -17 -1 -28 -11 -13 -11 -20 -14 -20 -6 0 7 -6
19 -14 27 -15 14 -26 18 -26 9z m-160 -75 c0 -5 -4 -10 -10 -10 -5 0 -10 5
-10 10 0 6 5 10 10 10 6 0 10 -4 10 -10z"/>
<path d="M1805 260 c-3 -5 1 -10 9 -10 9 0 16 5 16 10 0 6 -4 10 -9 10 -6 0
-13 -4 -16 -10z"/>
<path d="M1253 238 c2 -7 9 -12 15 -11 6 2 9 -4 6 -12 -4 -9 0 -15 10 -15 21
0 20 13 -2 33 -22 20 -35 22 -29 5z"/>
<path d="M1050 210 c0 -5 5 -10 10 -10 16 0 12 -14 -10 -38 -11 -12 -20 -26
-20 -31 0 -6 -7 -8 -15 -5 -18 7 -20 -7 -3 -24 9 -9 6 -17 -12 -37 -13 -14
-20 -28 -16 -32 4 -4 11 -1 16 7 7 11 12 11 23 2 11 -10 17 -9 27 3 11 13 15
13 22 3 6 -9 7 -5 3 10 -4 13 -2 22 4 22 6 0 11 -7 11 -15 0 -8 5 -15 10 -15
6 0 10 4 10 9 0 15 82 91 91 85 11 -6 12 -24 2 -23 -20 3 -24 -2 -13 -16 7 -9
10 -18 6 -22 -3 -4 -12 2 -20 12 -8 12 -15 14 -20 7 -9 -16 26 -32 54 -25 20
5 21 8 8 17 -14 10 -14 14 4 36 15 18 21 21 27 11 7 -10 13 -9 29 5 12 10 19
21 16 26 -3 4 2 8 10 8 9 0 15 -5 14 -11 -2 -6 3 -14 10 -16 16 -6 15 8 -4 32
-15 20 -16 20 -41 -9 -26 -30 -26 -30 -52 14 -8 13 -12 12 -30 -4 -19 -17 -21
-17 -21 -3 0 10 -4 17 -10 17 -5 0 -10 -4 -10 -9 0 -6 5 -13 10 -16 6 -3 10
-10 10 -16 0 -16 -15 -10 -28 12 -11 18 -11 23 5 35 10 8 13 13 6 14 -17 0
-53 -32 -47 -42 3 -4 -2 -8 -10 -8 -9 0 -15 3 -14 8 0 4 -2 15 -6 25 -9 18
-36 24 -36 7z m55 -60 c4 0 14 8 21 18 13 16 13 16 14 0 0 -10 5 -18 10 -18 6
0 10 -6 10 -13 0 -8 -6 -14 -14 -14 -8 0 -12 6 -9 14 3 7 0 13 -6 13 -15 0
-14 -23 1 -38 9 -9 8 -12 -4 -12 -9 0 -19 -6 -21 -12 -4 -10 -8 -10 -15 1 -9
12 -13 12 -26 -2 -9 -8 -16 -20 -16 -26 0 -6 -6 -11 -13 -11 -8 0 -14 7 -14
15 0 8 6 15 14 15 18 0 17 18 -2 22 -12 2 -10 9 10 30 14 15 25 33 25 40 1 8
5 7 14 -4 7 -10 17 -18 21 -18z m125 13 c0 -7 -6 -13 -13 -13 -8 0 -14 6 -14
13 0 8 6 14 14 14 7 0 13 -6 13 -14z"/>
<path d="M1070 143 c1 -11 26 -43 34 -43 11 0 6 21 -8 36 -16 15 -26 18 -26 7z"/>
<path d="M1050 115 c0 -8 5 -15 10 -15 6 0 10 7 10 15 0 8 -4 15 -10 15 -5 0
-10 -7 -10 -15z"/>
<path d="M1360 165 c0 -9 5 -15 11 -13 6 2 11 8 11 13 0 5 -5 11 -11 13 -6 2
-11 -4 -11 -13z"/>
<path d="M1290 140 c0 -5 7 -10 15 -10 8 0 15 5 15 10 0 6 -7 10 -15 10 -8 0
-15 -4 -15 -10z"/>
<path d="M1135 70 c-3 -5 1 -10 10 -10 9 0 13 5 10 10 -3 6 -8 10 -10 10 -2 0
-7 -4 -10 -10z"/>
<path d="M937 53 c-12 -12 -7 -21 14 -26 17 -5 18 -3 7 11 -7 9 -13 18 -14 20
0 1 -4 -1 -7 -5z"/>
</g>
</svg>
