<?xml version="1.0" encoding="utf-8"?>
<!-- Generator: Adobe Illustrator 21.1.0, SVG Export Plug-In . SVG Version: 6.00 Build 0)  -->
<!DOCTYPE svg PUBLIC "-//W3C//DTD SVG 1.1//EN" "http://www.w3.org/Graphics/SVG/1.1/DTD/svg11.dtd">
<svg version="1.1" id="Layer_1" xmlns="http://www.w3.org/2000/svg" xmlns:xlink="http://www.w3.org/1999/xlink" x="0px" y="0px"
	 viewBox="0 0 213.8 227.6" style="enable-background:new 0 0 213.8 227.6;" xml:space="preserve">
<style type="text/css">
	.st0{fill:#3E143A;}
</style>
<title>automatique</title>
<path class="st0" d="M152.4,188.8c0.2,0,0.4-0.1,0.6-0.2l-1.3-0.2C151.8,188.6,152.1,188.8,152.4,188.8z"/>
<path class="st0" d="M144.6,188.8c0.6,0,1-0.4,1-1c0-0.1,0-0.2-0.1-0.4l-1.7-0.2c-0.1,0.2-0.2,0.4-0.2,0.6
	C143.6,188.3,144.1,188.8,144.6,188.8z"/>
<path class="st0" d="M148.5,188.8c0.4,0,0.8-0.3,0.9-0.7l-1.9-0.3l0,0C147.5,188.3,148,188.8,148.5,188.8z"/>
<path class="st0" d="M136.8,188.8c0.6,0,1-0.4,1-1c0-0.1,0-0.2-0.1-0.3l-1.9,0.3C135.8,188.3,136.2,188.8,136.8,188.8z"/>
<path class="st0" d="M140.7,188.8c0.6,0,1-0.5,0.9-1.1c0-0.3-0.2-0.6-0.5-0.8l-1.1,0.2c-0.4,0.4-0.3,1,0.1,1.4
	C140.2,188.7,140.4,188.8,140.7,188.8L140.7,188.8z"/>
<path class="st0" d="M132.8,188.8c0.4,0,0.7-0.2,0.9-0.6l-1.6,0.3C132.3,188.7,132.6,188.8,132.8,188.8z"/>
<path class="st0" d="M134.5,110.8c1.8,0.5,3.6,0.9,5.5,1c10,0.6,18.5-4.7,18.7-11.5s-8-13-17.9-13.6H140
	c-9.6-0.2-17.5,4.9-17.7,11.5c-0.1,3.1,1.5,6,4.2,8.4c0.2,0.1,0.4,0.1,0.6,0c0,0,0-0.1,0.1-0.1l2.6-4.7c0.1-0.2,0.4-0.3,0.7-0.2
	l6.7,2.7c0.2,0.1,0.3,0.3,0.3,0.5c0,0,0,0.1,0,0.1l-3.1,5.4C134.2,110.6,134.3,110.8,134.5,110.8
	C134.5,110.8,134.5,110.8,134.5,110.8z"/>
<path class="st0" d="M213.7,197.3L133.1,0.9L133,0.6c-0.1-0.2-0.2-0.3-0.3-0.3s-0.2,0.2-0.3,0.5l-11.9,40.9c-0.1,0.2,0,0.4,0.2,0.4
	c0,0,0.1,0,0.2,0l13.4,1c0.2,0,0.3-0.1,0.4-0.3c0-0.1,0-0.1,0-0.2l-4.3-11c-0.1-0.2,0-0.3,0.1-0.4c0.1,0,0.1,0,0.2,0l7.9,0.5
	c0.3,0,0.5,0.2,0.7,0.5l11.1,28.3c0.1,0.1,0,0.3-0.1,0.4c-0.1,0-0.1,0-0.2,0l-8.2-0.5c-0.3,0-0.5-0.2-0.7-0.5l-3.3-8.7
	c-0.1-0.3-0.4-0.4-0.7-0.5l-18.4-1c-0.3,0-0.5,0.2-0.6,0.5L114,64.2c-0.1,0.2,0,0.4,0.2,0.5c0,0,0.1,0,0.1,0l37.7,2.4
	c0.3,0,0.5,0.2,0.6,0.5l2.4,7.9c0.1,0.2,0,0.4-0.2,0.4c-0.1,0-0.1,0-0.2,0l-42.9-2.8c-0.3,0-0.5,0.2-0.6,0.4l-6.5,21.8
	c-0.1,0.3-0.1,0.6,0.1,0.9l36,90l0.1,0.3c0.1,0.2,0.4,0.3,0.6,0.4l12.8,1.9c-0.6,0-1,0.5-0.9,1.1c0,0.6,0.5,1,1.1,0.9s1-0.5,0.9-1.1
	c0-0.4-0.3-0.7-0.6-0.9h-0.3l6.8,1c0.1,0.5,0.6,0.9,1.2,0.8c0.3-0.1,0.6-0.2,0.7-0.5l-1.2-0.2l4.5,0.7h-0.3l-0.7-0.1
	c0.2,0.2,0.4,0.3,0.7,0.3c0.1,0,0.3,0,0.4-0.1l4.6,0.7c-0.1,0.1-0.1,0.3-0.1,0.4c0,0.6,0.4,1,1,1s1-0.4,1-1c0,0,0-0.1,0-0.1
	l-1.5-0.2l8.3,1.3l-0.4-0.1c0.1,0.1,0.3,0.1,0.4,0.1c0,0,0.1,0,0.1,0l14.9,2.2c-0.4,0.4-0.4,1,0,1.4c0.2,0.2,0.4,0.3,0.6,0.3
	c0.6,0,1-0.4,1-1c0-0.2-0.1-0.3-0.1-0.5l-1.2-0.2l7.4,1.1c0.3,0.5,0.9,0.7,1.4,0.4c0.1,0,0.2-0.1,0.2-0.2l-1.4-0.2l5.9,0.9
	c-0.3,0.4-0.2,1.1,0.2,1.4c0.1,0.1,0.3,0.2,0.5,0.2l0.5-0.1c0.3-0.2,0.5-0.5,0.5-0.9c0-0.1,0-0.3-0.1-0.4l-0.9-0.1l4.1,0.6
	C213.7,197.8,213.8,197.6,213.7,197.3z M126.3,123l-6.4-2.7c-0.2-0.1-0.3-0.3-0.2-0.5c0,0,0,0,0-0.1l3.2-5.6
	c0.1-0.2,0.1-0.5-0.2-0.7c-5.2-4-8.4-9.6-8.2-15.6c0.4-11.1,12.2-19.5,26.6-18.7s25.9,10.5,25.5,21.7c-0.4,11-11.8,19.3-25.9,18.8
	l-1.1-0.1c-3.1-0.2-6.2-0.8-9.1-1.9c-0.3-0.1-0.5,0-0.7,0.2l-2.8,4.9C126.9,123,126.6,123.1,126.3,123z M130.6,142.1l-0.6-1.4
	c-1.4-3.7-0.8-7.8,1.5-10.9c2.7-3.7,7.2-5.8,12.5-5.6h0.1l31.6,2.7c0.3,0,0.6,0.2,0.7,0.5l3.1,7c0.1,0.2,0,0.4-0.3,0.4l-35.4-2.9
	c-2.7-0.1-4.8,0.8-6,2.4c-0.8,1.1-1.1,2.5-0.6,3.8l0.6,1.4c1.5,3.9,5.6,5.5,8.9,5.7l37.4,3.5c0.3,0,0.6,0.2,0.7,0.5l2.8,7.1
	c0.1,0.3,0,0.4-0.3,0.4l-40.8-3.7C139.1,152.5,133,148.3,130.6,142.1L130.6,142.1z M200.8,189.1l-7.8-1c-0.3-0.1-0.6-0.3-0.7-0.5
	l-6.8-15.8c-0.1-0.3-0.4-0.5-0.7-0.5l-12.3-1.3c-0.3,0-0.4,0.2-0.3,0.4l5.6,14.7c0.1,0.3,0,0.4-0.3,0.4l-8-1.1
	c-0.3-0.1-0.5-0.3-0.7-0.5l-5.4-14.4c-0.1-0.3-0.4-0.5-0.7-0.5l-11.8-1.4c-0.2,0-0.3,0.1-0.3,0.2c0,0.1,0,0.1,0,0.2l5.1,13.7
	c0.1,0.3-0.1,0.4-0.3,0.4l-8-1.1c-0.3-0.1-0.5-0.3-0.7-0.5l-8.3-21.6c-0.1-0.1,0-0.3,0.1-0.4c0.1,0,0.1,0,0.2,0l52.4,5.2
	c0.3,0,0.6,0.6,0.7,0.9l9.4,24.2C201.2,189,201.1,189.1,200.8,189.1L200.8,189.1z M80.3,200.6c-0.5-0.2-1.1,0.1-1.3,0.6
	c0,0.1-0.1,0.2-0.1,0.3l0,0c0,0.6,0.4,1,1,1s1-0.4,1-1l0,0C80.9,201.1,80.7,200.8,80.3,200.6z M79.9,206.4c0.6,0,1-0.4,1-1
	s-0.4-1-1-1s-1,0.4-1,1C78.9,206,79.4,206.4,79.9,206.4L79.9,206.4z M77.9,202.5c-0.6,0-1,0.4-1,1s0.4,1,1,1s1-0.4,1-1
	C78.9,203,78.5,202.5,77.9,202.5L77.9,202.5z M81.8,202.5c-0.6,0-1,0.4-1,1s0.4,1,1,1s1-0.4,1-1C82.8,203,82.4,202.5,81.8,202.5
	L81.8,202.5z M77.9,208.4c0.6,0,1-0.4,1-1s-0.4-1-1-1s-1,0.4-1,1C76.9,208,77.4,208.4,77.9,208.4C77.9,208.4,77.9,208.4,77.9,208.4
	L77.9,208.4z M75.9,204.5c-0.6,0-1,0.4-1,1s0.4,1,1,1s1-0.4,1-1C76.9,205,76.5,204.5,75.9,204.5L75.9,204.5z M88.1,200.6
	c-0.5-0.2-1.1,0.1-1.3,0.6c0,0.1-0.1,0.2-0.1,0.3l0,0c0,0.6,0.4,1,1,1s1-0.4,1-1l0,0C88.7,201.2,88.5,200.8,88.1,200.6L88.1,200.6z
	 M87.7,206.5c0.6,0,1-0.4,1-1s-0.4-1-1-1s-1,0.4-1,1C86.7,206,87.1,206.4,87.7,206.5C87.7,206.4,87.7,206.4,87.7,206.5L87.7,206.5z
	 M85.7,202.5c-0.6,0-1,0.4-1,1s0.4,1,1,1s1-0.4,1-1c0-0.5-0.4-1-0.9-1L85.7,202.5z M81.8,220.2c0.6,0,1-0.4,1-1s-0.4-1-1-1
	s-1,0.4-1,1C80.8,219.7,81.2,220.2,81.8,220.2c0,0,0.1,0,0.1,0L81.8,220.2z M83.8,206.5c0.6,0,1-0.4,1-1s-0.4-1-1-1s-1,0.4-1,1
	C82.8,206,83.2,206.4,83.8,206.5C83.8,206.4,83.8,206.4,83.8,206.5L83.8,206.5z M95.5,204.5c-0.6,0-1,0.4-1,1s0.4,1,1,1s1-0.4,1-1
	C96.5,204.9,96.1,204.5,95.5,204.5L95.5,204.5z M76,222.1c0.6,0,1-0.4,1-1s-0.4-1-1-1s-1,0.4-1,1S75.4,222.1,76,222.1z M78,220.1
	c0.6,0,1-0.4,1-1s-0.4-1-1-1s-1,0.4-1,1C77,219.7,77.4,220.1,78,220.1L78,220.1z M77,217.2c0-0.6-0.4-1-1-1s-1,0.4-1,1l0,0
	c0,0.6,0.4,1,1,1S77,217.7,77,217.2z M78,214.2c-0.6,0-1,0.4-1,1s0.4,1,1,1s1-0.4,1-1C79,214.7,78.5,214.3,78,214.2
	C78,214.3,78,214.3,78,214.2L78,214.2z M80,218.2c0.6,0,1-0.4,1-1l0,0c0-0.6-0.4-1-1-1s-1,0.4-1,1l0,0C79,217.7,79.4,218.2,80,218.2
	L80,218.2z M74,214.3c-0.6,0-1,0.4-1,1s0.4,1,1,1s1-0.4,1-1S74.6,214.3,74,214.3z M74,212.3c0.6,0,1-0.4,1-1s-0.4-1-1-1s-1,0.4-1,1
	C73,211.8,73.4,212.3,74,212.3C74,212.3,74,212.3,74,212.3L74,212.3z M89.7,204.4c0.6,0,1-0.4,1-1s-0.4-1-1-1s-1,0.4-1,1
	C88.7,204,89.1,204.4,89.7,204.4C89.7,204.5,89.7,204.5,89.7,204.4L89.7,204.4z M74,220.2c0.6,0,1-0.4,1-1s-0.4-1-1-1s-1,0.4-1,1
	S73.4,220.2,74,220.2z M72,208.4c-0.6,0-1,0.4-1,1s0.4,1,1,1s1-0.4,1-1C73,208.9,72.6,208.4,72,208.4L72,208.4z M72,214.3
	c0.6,0,1-0.4,1-1s-0.4-1-1-1s-1,0.4-1,1C71,213.8,71.5,214.3,72,214.3C72,214.3,72,214.3,72,214.3L72,214.3z M84.1,200.6
	c-0.5-0.2-1.1,0.1-1.3,0.6c0,0.1-0.1,0.2-0.1,0.3l0,0c0,0.6,0.4,1,1,1s1-0.4,1-1l0,0C84.8,201.1,84.6,200.8,84.1,200.6L84.1,200.6z
	 M107.3,206.4c0.6,0,1-0.4,1-1s-0.4-1-1-1s-1,0.4-1,1C106.3,206,106.7,206.4,107.3,206.4C107.3,206.4,107.3,206.4,107.3,206.4
	L107.3,206.4z M105.3,202.5c-0.6,0-1,0.4-1,1s0.4,1,1,1s1-0.4,1-1c0-0.5-0.4-1-0.9-1L105.3,202.5z M105.3,208.4c0.6,0,1-0.4,1-1
	s-0.4-1-1-1s-1,0.4-1,1C104.3,208,104.7,208.4,105.3,208.4c0,0,0.1,0,0.1,0L105.3,208.4z M109.2,208.4c0.6,0,1-0.4,1-1s-0.4-1-1-1
	s-1,0.4-1,1C108.2,208,108.7,208.4,109.2,208.4c0,0,0.1,0,0.1,0L109.2,208.4z M103.3,204.5c-0.6,0-1,0.4-1,1s0.4,1,1,1s1-0.4,1-1
	c0-0.5-0.4-1-0.9-1L103.3,204.5z M107.6,200.6c-0.5-0.2-1.1,0.1-1.3,0.6c0,0.1-0.1,0.2-0.1,0.3l0,0c0,0.6,0.4,1,1,1s1-0.4,1-1l0,0
	c0-0.4-0.2-0.7-0.5-0.9L107.6,200.6z M99.4,204.5c-0.6,0-1,0.4-1,1s0.4,1,1,1s1-0.4,1-1c0-0.5-0.4-1-0.9-1L99.4,204.5z M103.3,210.4
	c0.6,0,1-0.4,1-1s-0.4-1-1-1s-1,0.4-1,1C102.3,209.9,102.8,210.4,103.3,210.4c0,0,0.1,0,0.1,0L103.3,210.4z M99.4,210.4
	c0.6,0,1-0.4,1-1s-0.4-1-1-1s-1,0.4-1,1C98.4,209.9,98.9,210.4,99.4,210.4c0,0,0.1,0,0.1,0L99.4,210.4z M97.4,208.4c0.6,0,1-0.4,1-1
	s-0.4-1-1-1s-1,0.4-1,1C96.4,207.9,96.8,208.4,97.4,208.4c0,0,0.1,0,0.2,0L97.4,208.4z M105.2,198.6c-0.6,0-1,0.4-1,1s0.4,1,1,1
	s1-0.4,1-1c0-0.5-0.4-0.9-0.9-1L105.2,198.6z M101.3,208.4c0.6,0,1-0.4,1-1s-0.4-1-1-1s-1,0.4-1,1
	C100.3,207.9,100.7,208.4,101.3,208.4c0,0,0.1,0,0.1,0L101.3,208.4z M102.3,201.5c0,0.6,0.4,1,1,1s1-0.4,1-1l0,0c0-0.6-0.4-1-1-1
	S102.3,200.9,102.3,201.5z M97.4,204.4c0.6,0,1-0.4,1-1s-0.4-1-1-1s-1,0.4-1,1C96.4,204,96.8,204.5,97.4,204.4c0,0,0.1,0,0.1,0
	L97.4,204.4z M93.5,198.6c-0.6,0-1,0.4-1,1s0.4,1,1,1s1-0.4,1-1c0-0.5-0.4-0.9-0.9-1L93.5,198.6z M95.8,200.6
	c-0.5-0.2-1.1,0.1-1.3,0.6c0,0.1-0.1,0.2-0.1,0.3l0,0c0,0.6,0.4,1,1,1s1-0.4,1-1l0,0c0-0.3-0.2-0.7-0.5-0.8L95.8,200.6z M91.9,200.6
	c-0.5-0.2-1.1,0.1-1.3,0.6c0,0.1-0.1,0.2-0.1,0.3l0,0c0,0.6,0.4,1,1,1s1-0.4,1-1l0,0C92.5,201.1,92.3,200.8,91.9,200.6L91.9,200.6z
	 M103.3,196.6c-0.6,0-1,0.4-1,1s0.4,1,1,1s1-0.4,1-1c0-0.5-0.4-0.9-0.9-0.9L103.3,196.6z M93.5,204.4c0.6,0,1-0.4,1-1s-0.4-1-1-1
	s-1,0.4-1,1C92.5,204,92.9,204.4,93.5,204.4c0,0.1,0.1,0.1,0.1,0.1L93.5,204.4z M97.4,198.5c-0.6,0-1,0.4-1,1s0.4,1,1,1s1-0.4,1-1
	c0-0.5-0.4-0.9-0.9-0.9L97.4,198.5z M101.3,198.5c-0.6,0-1,0.4-1,1s0.4,1,1,1s1-0.4,1-1c0-0.5-0.4-0.9-0.9-0.9L101.3,198.5z
	 M89.6,198.5c-0.6,0-1,0.4-1,1s0.4,1,1,1s1-0.4,1-1c0-0.5-0.4-0.9-0.9-0.9L89.6,198.5z M101.3,204.4c0.6,0,1-0.4,1-1s-0.4-1-1-1
	s-1,0.4-1,1C100.3,204,100.7,204.4,101.3,204.4c0,0.1,0.1,0.1,0.1,0.1L101.3,204.4z M99.8,200.6c-0.5-0.2-1.1,0.1-1.3,0.6
	c0,0.1-0.1,0.2-0.1,0.3l0,0c0,0.6,0.4,1,1,1s1-0.4,1-1l0,0c0-0.3-0.2-0.7-0.5-0.8L99.8,200.6z M74,208.4c0.6,0,1-0.4,1-1s-0.4-1-1-1
	s-1,0.4-1,1S73.4,208.4,74,208.4z M123,210.4c0.6,0,1-0.4,1-1s-0.4-1-1-1s-1,0.4-1,1C122,209.9,122.5,210.4,123,210.4L123,210.4z
	 M121,206.5c-0.6,0-1,0.4-1,1s0.4,1,1,1s1-0.4,1-1C122,206.9,121.6,206.5,121,206.5L121,206.5z M124.9,212.4c0.6,0,1-0.4,1-1
	s-0.4-1-1-1s-1,0.4-1,1C123.9,211.9,124.4,212.3,124.9,212.4C125,212.3,125,212.3,124.9,212.4L124.9,212.4z M126.9,210.4
	c0.6,0,1-0.4,1-1s-0.4-1-1-1s-1,0.4-1,1C125.9,209.9,126.4,210.4,126.9,210.4C126.9,210.4,127,210.4,126.9,210.4L126.9,210.4z
	 M124.9,206.4c-0.6,0-1,0.4-1,1s0.4,1,1,1s1-0.4,1-1C125.9,206.9,125.5,206.5,124.9,206.4L124.9,206.4z M121,212.3c0.6,0,1-0.4,1-1
	s-0.4-1-1-1s-1,0.4-1,1C120,211.9,120.4,212.3,121,212.3C121,212.3,121,212.3,121,212.3L121,212.3z M113.2,212.3c0.6,0,1-0.4,1-1
	s-0.4-1-1-1s-1,0.4-1,1C112.2,211.9,112.6,212.3,113.2,212.3C113.2,212.3,113.2,212.3,113.2,212.3L113.2,212.3z M119,210.3
	c0.6,0,1-0.4,1-1s-0.4-1-1-1s-1,0.4-1,1C118,209.9,118.4,210.3,119,210.3C119,210.4,119.1,210.4,119,210.3L119,210.3z M115.1,208.3
	c-0.6,0-1,0.4-1,1s0.4,1,1,1s1-0.4,1-1C116.1,208.8,115.7,208.4,115.1,208.3L115.1,208.3z M115.1,214.2c0.6,0,1-0.4,1-1s-0.4-1-1-1
	s-1,0.4-1,1C114.1,213.7,114.5,214.2,115.1,214.2C115.1,214.3,115.1,214.3,115.1,214.2L115.1,214.2z M81.8,214.2c-0.6,0-1,0.4-1,1
	s0.4,1,1,1s1-0.4,1-1C82.8,214.7,82.4,214.3,81.8,214.2L81.8,214.2z M126.9,204.4c-0.6,0-1,0.4-1,1s0.4,1,1,1s1-0.4,1-1
	c0-0.5-0.4-0.9-0.9-0.9L126.9,204.4z M117.1,212.2c0.6,0,1-0.4,1-1s-0.4-1-1-1s-1,0.4-1,1C116,211.8,116.4,212.3,117.1,212.2
	C117,212.3,117.1,212.3,117.1,212.2L117.1,212.2z M138.6,206.4c0.6,0,1-0.4,1-1s-0.4-1-1-1s-1,0.4-1,1
	C137.6,205.9,138,206.4,138.6,206.4C138.6,206.4,138.7,206.4,138.6,206.4L138.6,206.4z M136.6,202.4c-0.6,0-1,0.4-1,1s0.4,1,1,1
	s1-0.4,1-1c0-0.5-0.4-0.9-0.9-0.9L136.6,202.4z M136.6,208.3c0.6,0,1-0.4,1-1s-0.4-1-1-1s-1,0.4-1,1
	C135.6,207.9,136,208.3,136.6,208.3c0,0.1,0,0.1,0.1,0.1L136.6,208.3z M140.6,202.4c-0.6,0-1,0.4-1,1s0.4,1,1,1s1-0.4,1-1
	c0-0.5-0.4-0.9-0.9-0.9L140.6,202.4z M140.6,208.3c0.6,0,1-0.4,1-1s-0.4-1-1-1s-1,0.4-1,1C139.5,207.9,139.9,208.3,140.6,208.3
	c0,0.1,0,0.1,0.1,0.1L140.6,208.3z M128.8,208.3c0.6,0,1-0.4,1-1s-0.4-1-1-1s-1,0.4-1,1C127.8,207.9,128.2,208.3,128.8,208.3
	c0,0.1,0,0.1,0.1,0.1L128.8,208.3z M130.8,210.3c0.6,0,1-0.4,1-1s-0.4-1-1-1s-1,0.4-1,1C129.8,209.9,130.2,210.3,130.8,210.3
	C130.8,210.4,130.8,210.4,130.8,210.3L130.8,210.3z M130.8,204.4c-0.6,0-1,0.4-1,1s0.4,1,1,1s1-0.4,1-1
	C131.8,204.9,131.4,204.5,130.8,204.4L130.8,204.4z M134.7,204.4c-0.6,0-1,0.4-1,1s0.4,1,1,1s1-0.4,1-1
	C135.7,204.9,135.3,204.5,134.7,204.4L134.7,204.4z M132.7,208.4c0.6,0,1-0.4,1-1s-0.4-1-1-1s-1,0.4-1,1
	C131.7,207.9,132.1,208.4,132.7,208.4c0,0,0.1,0,0.1,0L132.7,208.4z M134.7,210.4c0.6,0,1-0.4,1-1s-0.4-1-1-1s-1,0.4-1,1
	C133.7,209.9,134.2,210.4,134.7,210.4C134.7,210.4,134.8,210.4,134.7,210.4L134.7,210.4z M117.1,206.4c-0.6,0-1,0.4-1,1s0.4,1,1,1
	s1-0.4,1-1C118.1,206.9,117.7,206.5,117.1,206.4L117.1,206.4z M89.6,216.2c0.6,0,1-0.4,1-1s-0.4-1-1-1s-1,0.4-1,1
	C88.6,215.8,89.1,216.2,89.6,216.2C89.7,216.2,89.7,216.2,89.6,216.2L89.6,216.2z M93.6,216.2c0.6,0,1-0.4,1-1s-0.4-1-1-1
	s-1,0.4-1,1C92.6,215.8,93,216.2,93.6,216.2C93.6,216.2,93.6,216.2,93.6,216.2L93.6,216.2z M91.6,218.2c0.6,0,1-0.4,1-1l0,0
	c0-0.6-0.4-1-1-1s-1,0.4-1,1l0,0C90.6,217.8,91,218.2,91.6,218.2c0.1,0,0.1,0,0.1,0L91.6,218.2z M91.6,212.4c-0.6,0-1,0.4-1,1
	s0.4,1,1,1s1-0.4,1-1c0-0.5-0.4-1-0.9-1L91.6,212.4z M95.5,212.4c-0.6,0-1,0.4-1,1s0.4,1,1,1s1-0.4,1-1c0-0.5-0.4-1-0.9-1
	L95.5,212.4z M95.5,218.2c0.6,0,1-0.4,1-1l0,0c0-0.6-0.4-1-1-1s-1,0.4-1,1l0,0C94.5,217.8,95,218.2,95.5,218.2c0.1,0,0.1,0,0.1,0
	L95.5,218.2z M87.6,212.4c-0.6,0-1,0.4-1,1s0.4,1,1,1s1-0.4,1-1c0-0.5-0.4-1-0.9-1L87.6,212.4z M83.7,218.2c0.6,0,1-0.4,1-1l0,0
	c0-0.6-0.4-1-1-1s-1,0.4-1,1l0,0C82.7,217.8,83.2,218.2,83.7,218.2c0.1,0,0.1,0,0.1,0L83.7,218.2z M85.7,220.2c0.6,0,1-0.4,1-1
	s-0.4-1-1-1s-1,0.4-1,1C84.8,219.8,85.2,220.2,85.7,220.2C85.8,220.2,85.8,220.2,85.7,220.2L85.7,220.2z M111.2,208.5
	c-0.6,0-1,0.4-1,1s0.4,1,1,1s1-0.4,1-1C112.2,208.9,111.8,208.4,111.2,208.5C111.3,208.4,111.3,208.4,111.2,208.5L111.2,208.5z
	 M97.5,216.3c0.6,0,1-0.4,1-1s-0.4-1-1-1s-1,0.4-1,1C96.5,215.9,97,216.3,97.5,216.3L97.5,216.3z M87.7,218.3c0.6,0,1-0.4,1-1l0,0
	c0-0.6-0.4-1-1-1s-1,0.4-1,1l0,0c0.1,0.5,0.5,0.9,1.1,0.9L87.7,218.3z M85.7,214.4c-0.6,0-1,0.4-1,1s0.4,1,1,1s1-0.4,1-1
	c0.1-0.5-0.3-1-0.9-1.1c0,0,0,0,0,0L85.7,214.4z M107.2,208.5c-0.6,0-1,0.4-1,1s0.4,1,1,1s1-0.4,1-1c0.1-0.5-0.3-1-0.9-1.1
	c0,0,0,0,0,0L107.2,208.5z M105.2,210.5c-0.6,0-1,0.4-1,1s0.4,1,1,1s1-0.4,1-1c0.1-0.5-0.3-1.1-0.8-1.2c0,0,0,0,0,0L105.2,210.5z
	 M107.2,214.4c0.6,0,1-0.4,1-1s-0.4-1-1-1s-1,0.4-1,1c0.1,0.5,0.6,0.9,1.1,0.8L107.2,214.4z M109.2,212.4c0.6,0,1-0.4,1-1
	s-0.4-1-1-1s-1,0.4-1,1c0.1,0.5,0.5,0.9,1.1,0.9L109.2,212.4z M111.2,214.4c0.6,0,1-0.4,1-1s-0.4-1-1-1s-1,0.4-1,1
	c0.1,0.5,0.5,0.9,1,0.8L111.2,214.4z M103.4,214.4c0.6,0,1-0.4,1-1s-0.4-1-1-1s-1,0.4-1,1c0.1,0.5,0.5,0.9,1,0.8L103.4,214.4z
	 M101.4,216.4c0.6,0,1-0.4,1-1s-0.4-1-1-1s-1,0.4-1,1c0.1,0.5,0.6,0.8,1.1,0.8L101.4,216.4z M99.4,214.4c0.6,0,1-0.4,1-1s-0.4-1-1-1
	s-1,0.4-1,1c0.1,0.5,0.6,0.9,1.1,0.8L99.4,214.4z M101.4,210.5c-0.6,0-1,0.4-1,1s0.4,1,1,1s1-0.4,1-1c0.1-0.5-0.3-1.1-0.8-1.1
	c0,0-0.1,0-0.1,0L101.4,210.5z M105.3,216.4c0.6,0,1-0.4,1-1s-0.4-1-1-1s-1,0.4-1,1c0.1,0.5,0.5,0.9,1.1,0.8L105.3,216.4z
	 M97.5,210.5c-0.6,0-1,0.4-1,1s0.4,1,1,1s1-0.4,1-1c0.1-0.5-0.3-1.1-0.8-1.1c0,0-0.1,0-0.1,0L97.5,210.5z M128.8,202.7
	c-0.6,0-1,0.4-1,1s0.4,1,1,1s1-0.4,1-1c0.1-0.5-0.3-1.1-0.8-1.1c0,0-0.1,0-0.1,0L128.8,202.7z M144.5,200.7c0.6,0,1-0.4,1-1
	s-0.4-1-1-1s-1,0.4-1,1c0.1,0.5,0.5,0.9,1.1,0.9L144.5,200.7z M148.4,194.8c-0.6,0-1,0.4-1,1s0.4,1,1,1s1-0.4,1-1
	c0.1-0.5-0.3-1-0.9-1.1c0,0,0,0-0.1,0L148.4,194.8z M150.4,196.8c-0.6,0-1,0.4-1,1s0.4,1,1,1s1-0.4,1-1c0.1-0.5-0.3-1.1-0.8-1.1
	c0,0-0.1,0-0.1,0L150.4,196.8z M146.5,196.8c-0.6,0-1,0.4-1,1s0.4,1,1,1s1-0.4,1-1c0.1-0.5-0.3-1.1-0.8-1.1c0,0-0.1,0-0.1,0
	L146.5,196.8z M152.4,200.7c0.6,0,1-0.4,1-1s-0.4-1-1-1s-1,0.4-1,1c0.1,0.5,0.5,0.9,1,0.8L152.4,200.7z M144.6,194.8
	c-0.6,0-1,0.4-1,1s0.4,1,1,1s1-0.4,1-1c0.1-0.5-0.3-1.1-0.8-1.1c0,0-0.1,0-0.1,0L144.6,194.8z M148.5,200.7c0.6,0,1-0.4,1-1
	s-0.4-1-1-1s-1,0.4-1,1c0.1,0.5,0.5,0.9,1,0.8L148.5,200.7z M72.1,222.1c0.6,0,1-0.4,1-1s-0.4-1-1-1s-1,0.4-1,1
	S71.5,222.1,72.1,222.1z M154.4,198.6c0.6,0,1-0.4,1-1s-0.4-1-1-1s-1,0.4-1,1C153.4,198.1,153.8,198.6,154.4,198.6L154.4,198.6z
	 M70.1,216.2c0.6,0,1-0.4,1-1s-0.4-1-1-1s-1,0.4-1,1S69.5,216.2,70.1,216.2z M152.4,194.7c-0.6,0-1,0.4-1,1s0.4,1,1,1s1-0.4,1-1
	S153,194.7,152.4,194.7z M73,217.2c0-0.6-0.4-1-1-1s-1,0.4-1,1l0,0c0,0.6,0.4,1,1,1S73,217.8,73,217.2z M136.7,194.7
	c-0.6,0-1,0.4-1,1s0.4,1,1,1s1-0.4,1-1C137.7,195.1,137.3,194.7,136.7,194.7L136.7,194.7z M134.7,196.7c-0.6,0-1,0.4-1,1s0.4,1,1,1
	s1-0.4,1-1C135.7,197.1,135.3,196.7,134.7,196.7L134.7,196.7z M136.7,200.6c0.6,0,1-0.4,1-1s-0.4-1-1-1s-1,0.4-1,1
	C135.7,200.1,136.2,200.6,136.7,200.6C136.7,200.6,136.7,200.6,136.7,200.6L136.7,200.6z M135.1,200.7c-0.5-0.2-1.1,0.1-1.3,0.6
	c0,0.1-0.1,0.2-0.1,0.3l0,0c0,0.6,0.4,1,1,1s1-0.4,1-1l0,0C135.8,201.2,135.5,200.8,135.1,200.7L135.1,200.7z M132.8,194.7
	c-0.6,0-1,0.4-1,1s0.4,1,1,1s1-0.4,1-1C133.8,195.1,133.4,194.7,132.8,194.7L132.8,194.7z M70.1,220.2c0.6,0,1-0.4,1-1s-0.4-1-1-1
	s-1,0.4-1,1S69.5,220.2,70.1,220.2z M143,200.6c-0.5-0.2-1.1,0.1-1.3,0.6c0,0.1-0.1,0.2-0.1,0.3l0,0c0,0.6,0.4,1,1,1s1-0.4,1-1l0,0
	C143.6,201.1,143.4,200.8,143,200.6z M139.1,200.6c-0.1-0.1-0.2-0.1-0.4-0.1c-0.6,0-1,0.4-1,1l0,0c0,0.6,0.4,1,1,1
	c0.1,0,0.3,0,0.4-0.1c0.4-0.2,0.6-0.5,0.6-0.9l0,0C139.7,201.2,139.5,200.8,139.1,200.6L139.1,200.6z M142.6,196.6c-0.6,0-1,0.4-1,1
	s0.4,1,1,1s1-0.4,1-1C143.6,197.1,143.2,196.6,142.6,196.6L142.6,196.6z M140.6,194.6c-0.6,0-1,0.4-1,1s0.4,1,1,1s1-0.4,1-1
	C141.6,195.1,141.2,194.7,140.6,194.6L140.6,194.6z M140.6,200.5c0.6,0,1-0.4,1-1s-0.4-1-1-1s-1,0.4-1,1
	C139.6,200.1,140,200.5,140.6,200.5C140.6,200.6,140.6,200.6,140.6,200.5L140.6,200.5z M138.6,196.6c-0.6,0-1,0.4-1,1s0.4,1,1,1
	s1-0.4,1-1C139.6,197.1,139.2,196.7,138.6,196.6L138.6,196.6z M179.8,198.6c-0.6,0-1,0.4-1,1s0.4,1,1,1s1-0.4,1-1
	c0-0.5-0.4-0.9-0.9-1L179.8,198.6z M176,192.7c0.4,0,0.7-0.2,0.9-0.5l-1.8-0.3C175.2,192.4,175.5,192.7,176,192.7z M176,196.6
	c0.6,0,1-0.4,1-1s-0.4-1-1-1s-1,0.4-1,1S175.4,196.6,176,196.6z M184.9,193.4c0,0.1-0.1,0.2-0.1,0.3c0,0.6,0.4,1,1,1s1-0.4,1-1l0,0
	L184.9,193.4z M124,189.8l-1.9,0.3c0.3,0.5,0.9,0.7,1.4,0.4C123.8,190.4,123.9,190.1,124,189.8z M189.7,194.7c0.3,0,0.6-0.2,0.8-0.4
	l-0.8-0.1l-0.9-0.1C188.9,194.4,189.3,194.7,189.7,194.7L189.7,194.7z M95.6,210.4c0.6,0,1-0.4,1-1s-0.4-1-1-1s-1,0.4-1,1
	S95,210.4,95.6,210.4z M189.7,198.6c0.6,0,1-0.4,1-1s-0.4-1-1-1s-1,0.4-1,1C188.7,198.1,189.1,198.6,189.7,198.6L189.7,198.6z
	 M123,194.7c0.6,0,1-0.4,1-1s-0.4-1-1-1s-1,0.4-1,1S122.4,194.7,123,194.7z M108.3,195.7c0,0.6,0.4,1,1,1s1-0.4,1-1s-0.4-1-1-1
	C108.8,194.7,108.3,195.1,108.3,195.7L108.3,195.7z M110.1,192.2l-1.5,0.2c0.4,0.4,1,0.3,1.3,0C110,192.4,110.1,192.3,110.1,192.2z
	 M119.6,190.6l-0.5,0.1h-0.2c0.1,0,0.1,0,0.2,0C119.3,190.7,119.4,190.7,119.6,190.6L119.6,190.6z M118.1,193.7c0,0.6,0.4,1,1,1
	s1-0.4,1-1s-0.4-1-1-1C118.6,192.7,118.1,193.2,118.1,193.7L118.1,193.7z M185.7,198.6c0.6,0,1-0.4,1-1s-0.4-1-1-1s-1,0.4-1,1
	C184.7,198.2,185.2,198.6,185.7,198.6C185.8,198.6,185.8,198.6,185.7,198.6L185.7,198.6z M174,198.6c0.6,0,1-0.4,1-1s-0.4-1-1-1
	s-1,0.4-1,1C173,198.2,173.4,198.6,174,198.6C174,198.6,174,198.6,174,198.6L174,198.6z M132.8,200.6c0.6,0,1-0.4,1-1s-0.4-1-1-1
	s-1,0.4-1,1C131.8,200.1,132.3,200.6,132.8,200.6L132.8,200.6z M177.9,192.8c-0.6,0-1,0.4-1,1s0.4,1,1,1s1-0.4,1-1
	C178.9,193.2,178.5,192.7,177.9,192.8C177.9,192.7,177.9,192.7,177.9,192.8L177.9,192.8z M174,192.8c-0.6,0-1,0.4-1,1s0.4,1,1,1
	s1-0.4,1-1C175,193.2,174.6,192.7,174,192.8C174,192.7,174,192.7,174,192.8L174,192.8z M176,198.7c-0.6,0-1,0.4-1,1s0.4,1,1,1
	s1-0.4,1-1C177,199.1,176.6,198.6,176,198.7C176,198.6,176,198.6,176,198.7L176,198.7z M178,198.7c0.6,0,1-0.4,1-1s-0.4-1-1-1
	s-1,0.4-1,1C177,198.2,177.4,198.6,178,198.7L178,198.7z M183.9,194.7c-0.6,0-1,0.4-1,1s0.4,1,1,1s1-0.4,1-1
	C184.9,195.2,184.5,194.7,183.9,194.7C183.9,194.7,183.8,194.7,183.9,194.7L183.9,194.7z M183.9,198.7c-0.6,0-1,0.4-1,1s0.4,1,1,1
	s1-0.4,1-1C184.9,199.1,184.5,198.6,183.9,198.7C183.9,198.6,183.8,198.6,183.9,198.7L183.9,198.7z M181.9,198.7c0.6,0,1-0.4,1-1
	s-0.4-1-1-1s-1,0.4-1,1C180.9,198.2,181.3,198.6,181.9,198.7L181.9,198.7z M179.9,194.7c-0.6,0-1,0.4-1,1s0.4,1,1,1s1-0.4,1-1
	C180.9,195.2,180.5,194.7,179.9,194.7C179.9,194.7,179.9,194.7,179.9,194.7L179.9,194.7z M181.9,193l-0.5-0.1
	c-0.3,0.2-0.4,0.5-0.5,0.8c0,0.6,0.4,1,1,1s1-0.4,1-1c0-0.2-0.1-0.4-0.2-0.6L181.9,193z M187.7,194.7c-0.6,0-1,0.4-1,1s0.4,1,1,1
	s1-0.4,1-1C188.8,195.2,188.4,194.7,187.7,194.7C187.8,194.7,187.7,194.7,187.7,194.7L187.7,194.7z M76,208.4c-0.6,0-1,0.4-1,1
	s0.4,1,1,1s1-0.4,1-1S76.6,208.4,76,208.4z M76,212.3c-0.6,0-1,0.4-1,1s0.4,1,1,1s1-0.4,1-1S76.6,212.3,76,212.3z M79.9,214.3
	c0.6,0,1-0.4,1-1s-0.4-1-1-1s-1,0.4-1,1C78.9,213.8,79.4,214.3,79.9,214.3L79.9,214.3z M77.9,212.3c0.6,0,1-0.4,1-1s-0.4-1-1-1
	s-1,0.4-1,1C76.9,211.9,77.4,212.3,77.9,212.3C77.9,212.3,77.9,212.3,77.9,212.3L77.9,212.3z M79.9,208.4c-0.6,0-1,0.4-1,1
	s0.4,1,1,1s1-0.4,1-1C80.9,208.8,80.5,208.4,79.9,208.4C79.9,208.4,79.9,208.4,79.9,208.4L79.9,208.4z M81.9,208.4c0.6,0,1-0.4,1-1
	s-0.4-1-1-1s-1,0.4-1,1C80.9,207.9,81.3,208.4,81.9,208.4L81.9,208.4z M81.9,212.3c0.6,0,1-0.4,1-1s-0.4-1-1-1s-1,0.4-1,1
	C80.9,211.8,81.3,212.3,81.9,212.3L81.9,212.3z M113.3,208.4c0.6,0,1-0.4,1-1s-0.4-1-1-1s-1,0.4-1,1
	C112.3,207.9,112.7,208.4,113.3,208.4L113.3,208.4z M111.3,204.5c-0.6,0-1,0.4-1,1s0.4,1,1,1s1-0.4,1-1
	C112.3,204.9,111.8,204.5,111.3,204.5C111.3,204.5,111.3,204.5,111.3,204.5L111.3,204.5z M111.7,200.6c-0.5-0.2-1.1,0.1-1.3,0.6
	c0,0.1-0.1,0.2-0.1,0.3l0,0c0,0.6,0.4,1,1,1s1-0.4,1-1l0,0C112.3,201.1,112,200.8,111.7,200.6L111.7,200.6z M109.3,198.6
	c-0.6,0-1,0.4-1,1s0.4,1,1,1s1-0.4,1-1C110.3,199.1,109.9,198.6,109.3,198.6C109.3,198.6,109.3,198.6,109.3,198.6L109.3,198.6z
	 M109.3,204.5c0.6,0,1-0.4,1-1s-0.4-1-1-1s-1,0.4-1,1C108.3,204,108.8,204.5,109.3,204.5L109.3,204.5z M87.8,210.4c0.6,0,1-0.4,1-1
	s-0.4-1-1-1s-1,0.4-1,1C86.8,209.9,87.2,210.3,87.8,210.4L87.8,210.4z M91.7,206.5c0.6,0,1-0.4,1-1s-0.4-1-1-1s-1,0.4-1,1
	C90.7,206,91.1,206.4,91.7,206.5L91.7,206.5z M83.8,214.3c0.6,0,1-0.4,1-1s-0.4-1-1-1s-1,0.4-1,1C82.9,213.8,83.3,214.3,83.8,214.3
	L83.8,214.3z M93.6,212.3c0.6,0,1-0.4,1-1s-0.4-1-1-1s-1,0.4-1,1C92.6,211.9,93.1,212.3,93.6,212.3L93.6,212.3z M89.7,206.4
	c-0.6,0-1,0.4-1,1s0.4,1,1,1s1-0.4,1-1C90.7,206.9,90.3,206.4,89.7,206.4C89.7,206.4,89.7,206.4,89.7,206.4L89.7,206.4z M93.6,206.4
	c-0.6,0-1,0.4-1,1s0.4,1,1,1s1-0.4,1-1C94.6,206.9,94.2,206.4,93.6,206.4C93.6,206.4,93.6,206.4,93.6,206.4L93.6,206.4z M91.6,210.4
	c0.6,0,1-0.4,1-1s-0.4-1-1-1s-1,0.4-1,1C90.6,209.9,91.1,210.4,91.6,210.4C91.6,210.4,91.7,210.4,91.6,210.4L91.6,210.4z
	 M83.8,208.4c-0.6,0-1,0.4-1,1s0.4,1,1,1s1-0.4,1-1C84.8,208.8,84.4,208.4,83.8,208.4L83.8,208.4z M132.8,204.4c0.6,0,1-0.4,1-1
	s-0.4-1-1-1s-1,0.4-1,1C131.8,204,132.2,204.4,132.8,204.4C132.8,204.5,132.8,204.5,132.8,204.4L132.8,204.4z M85.8,212.3
	c0.6,0,1-0.4,1-1s-0.4-1-1-1s-1,0.4-1,1C84.8,211.8,85.2,212.3,85.8,212.3C85.8,212.3,85.8,212.3,85.8,212.3L85.8,212.3z
	 M113.2,204.4c0.6,0,1-0.4,1-1s-0.4-1-1-1s-1,0.4-1,1C112.2,204,112.6,204.4,113.2,204.4C113.2,204.5,113.2,204.5,113.2,204.4
	L113.2,204.4z M85.8,206.4c-0.6,0-1,0.4-1,1s0.4,1,1,1s1-0.4,1-1C86.8,206.9,86.4,206.4,85.8,206.4
	C85.8,206.4,85.8,206.4,85.8,206.4L85.8,206.4z M89.7,212.3c0.6,0,1-0.4,1-1s-0.4-1-1-1s-1,0.4-1,1
	C88.7,211.9,89.2,212.3,89.7,212.3L89.7,212.3z M113.2,198.6c-0.6,0-1,0.4-1,1s0.4,1,1,1s1-0.4,1-1
	C114.2,199,113.8,198.6,113.2,198.6C113.2,198.6,113.2,198.6,113.2,198.6L113.2,198.6z M125,198.6c-0.6,0-1,0.4-1,1s0.4,1,1,1
	s1-0.4,1-1C126,199,125.6,198.6,125,198.6C125,198.6,125,198.6,125,198.6L125,198.6z M123,196.6c-0.6,0-1,0.4-1,1s0.4,1,1,1
	s1-0.4,1-1C124,197.1,123.5,196.6,123,196.6L123,196.6z M125,202.5c-0.6,0-1,0.4-1,1s0.4,1,1,1s1-0.4,1-1
	C126,202.9,125.5,202.5,125,202.5L125,202.5z M127,196.6c-0.6,0-1,0.4-1,1c0,0.6,0.4,1,1,1s1-0.4,1-1l0,0
	C128,197.1,127.5,196.6,127,196.6L127,196.6z M129,194.6c-0.6,0-1,0.4-1,1s0.4,1,1,1s1-0.4,1-1C130,195,129.5,194.6,129,194.6
	C128.9,194.7,128.9,194.7,129,194.6L129,194.6z M142.7,206.4c0.6,0,1-0.4,1-1s-0.4-1-1-1s-1,0.4-1,1
	C141.7,205.9,142.1,206.4,142.7,206.4L142.7,206.4z M131,196.6c-0.6,0-1,0.4-1,1s0.4,1,1,1s1-0.4,1-1
	C131.9,197,131.4,196.6,131,196.6C130.9,196.6,130.9,196.6,131,196.6L131,196.6z M131.3,200.6c-0.1-0.1-0.2-0.1-0.4-0.1
	c-0.6,0-1,0.4-1,1l0,0c0,0.6,0.4,1,1,1c0.1,0,0.3,0,0.4-0.1c0.4-0.2,0.6-0.5,0.6-0.9l0,0C131.9,201.1,131.6,200.8,131.3,200.6
	L131.3,200.6z M129,200.5c0.6,0,1-0.4,1-1s-0.4-1-1-1s-1,0.4-1,1C128,200,128.4,200.5,129,200.5L129,200.5z M122.1,201.5
	c0,0.6,0.4,1,1,1c0.1,0,0.3,0,0.4-0.1c0.4-0.2,0.6-0.5,0.6-0.9l0,0c0-0.4-0.2-0.7-0.6-0.9c-0.1-0.1-0.2-0.1-0.4-0.1
	C122.6,200.5,122.1,201,122.1,201.5L122.1,201.5z M126.1,201.5c0,0.6,0.4,1,1,1s1-0.4,1-1l0,0c0-0.6-0.4-1-1-1
	S126.1,200.9,126.1,201.5z M117.2,202.5c-0.6,0-1,0.4-1,1s0.4,1,1,1s1-0.4,1-1C118.2,202.9,117.8,202.5,117.2,202.5
	C117.2,202.5,117.2,202.5,117.2,202.5L117.2,202.5z M123.1,206.4c0.6,0,1-0.4,1-1s-0.4-1-1-1s-1,0.4-1,1c0,0.5,0.4,1,0.9,1
	L123.1,206.4z M117.2,198.6c-0.6,0-1,0.4-1,1s0.4,1,1,1s1-0.4,1-1C118.2,199,117.8,198.6,117.2,198.6
	C117.2,198.6,117.2,198.6,117.2,198.6L117.2,198.6z M114.3,201.5c0,0.6,0.4,1,1,1c0.1,0,0.3,0,0.4-0.1c0.4-0.2,0.6-0.5,0.6-0.9l0,0
	c0-0.4-0.2-0.7-0.6-0.9c-0.1-0.1-0.2-0.1-0.4-0.1C114.7,200.5,114.3,201,114.3,201.5L114.3,201.5z M114.3,205.4c0,0.6,0.4,1,1,1
	s1-0.4,1-1s-0.4-1-1-1C114.8,204.4,114.3,204.8,114.3,205.4C114.2,205.4,114.2,205.4,114.3,205.4L114.3,205.4z M115.3,196.6
	c-0.6,0-1,0.4-1,1s0.4,1,1,1s1-0.4,1-1C116.3,197,115.8,196.6,115.3,196.6c-0.1,0-0.1,0-0.1,0L115.3,196.6z M121.2,202.5
	c-0.6,0-1,0.4-1,1s0.4,1,1,1s1-0.4,1-1C122.2,202.9,121.7,202.5,121.2,202.5c-0.1,0-0.1,0-0.1,0L121.2,202.5z M121.2,198.6
	c-0.6,0-1,0.4-1,1s0.4,1,1,1s1-0.4,1-1C122.2,199,121.7,198.6,121.2,198.6c-0.1,0-0.1,0-0.1,0L121.2,198.6z M119.2,206.4
	c0.6,0,1-0.4,1-1s-0.4-1-1-1s-1,0.4-1,1C118.2,205.9,118.6,206.4,119.2,206.4L119.2,206.4z M119.2,196.6c-0.6,0-1,0.4-1,1s0.4,1,1,1
	s1-0.4,1-1C120.2,197,119.7,196.6,119.2,196.6C119.1,196.6,119.1,196.6,119.2,196.6L119.2,196.6z M118.2,201.5c0,0.6,0.4,1,1,1
	s1-0.4,1-1l0,0c0-0.6-0.4-1-1-1S118.2,200.9,118.2,201.5z M74.1,202.5c-0.6,0-1,0.4-1,1s0.4,1,1,1s1-0.4,1-1
	C75.1,202.9,74.6,202.5,74.1,202.5C74,202.5,74,202.5,74.1,202.5L74.1,202.5z M108.4,218.9l1.7-0.3c-0.4-0.4-1-0.5-1.4-0.1
	C108.6,218.6,108.5,218.7,108.4,218.9z M105.4,218.2c-0.6,0-1,0.4-1,1c0,0.2,0.1,0.4,0.2,0.5l1.8-0.4c0-0.1,0-0.1,0-0.2
	C106.3,218.7,105.9,218.2,105.4,218.2L105.4,218.2z M107.4,216.2c-0.6,0-1,0.4-1,1l0,0c0,0.6,0.4,1,1,1s1-0.4,1-1l0,0
	C108.4,216.6,107.9,216.2,107.4,216.2C107.4,216.2,107.4,216.2,107.4,216.2L107.4,216.2z M115.3,216.2c-0.6,0-1,0.4-1,1l0,0
	c0,0.2,0.1,0.4,0.2,0.5l1.8-0.4c0,0,0-0.1,0-0.1l0,0C116.2,216.6,115.7,216.2,115.3,216.2L115.3,216.2z M111.4,216.2
	c-0.6,0-1,0.4-1,1l0,0c0,0.6,0.4,1,1,1s1-0.4,1-1l0,0C112.3,216.6,111.8,216.2,111.4,216.2C111.3,216.2,111.3,216.2,111.4,216.2
	L111.4,216.2z M113.4,214.2c-0.6,0-1,0.4-1,1s0.4,1,1,1s1-0.4,1-1C114.3,214.6,113.8,214.2,113.4,214.2c-0.1,0.1-0.1,0.1-0.1,0.1
	L113.4,214.2z M109.4,216.2c0.6,0,1-0.4,1-1s-0.4-1-1-1s-1,0.4-1,1c0,0.5,0.4,1,0.9,1.1L109.4,216.2z M99.6,218.2c0.6,0,1-0.4,1-1
	l0,0c0-0.6-0.4-1-1-1s-1,0.4-1,1l0,0c0,0.5,0.4,1,0.9,1L99.6,218.2z M95.7,220.2c-0.6,0-1,0.4-1,1c0,0.2,0.1,0.4,0.2,0.5l0.8-0.2
	l0.9-0.2c0-0.1,0-0.1,0-0.2C96.6,220.6,96.2,220.2,95.7,220.2c-0.1,0-0.1,0-0.1,0L95.7,220.2z M101.6,218.2c-0.6,0-1,0.4-1,1
	s0.4,1,1,1s1-0.4,1-1C102.6,218.6,102.1,218.2,101.6,218.2c-0.1,0-0.1,0-0.1,0L101.6,218.2z M98.7,220.9l1.7-0.4
	c-0.4-0.4-1-0.5-1.4-0.1C98.9,220.5,98.7,220.7,98.7,220.9z M104.5,217.2c0-0.6-0.4-1-1-1s-1,0.4-1,1l0,0c0,0.6,0.4,1,1,1
	S104.5,217.7,104.5,217.2z M97.7,218.2c-0.6,0-1,0.4-1,1s0.4,1,1,1s1-0.4,1-1C98.7,218.6,98.2,218.2,97.7,218.2c0,0-0.1,0-0.1,0
	L97.7,218.2z M128,215l1.7-0.3c-0.4-0.4-1-0.4-1.4,0C128.1,214.7,128.1,214.9,128,215z M117.2,214.3c-0.6,0-1,0.4-1,1s0.4,1,1,1
	s1-0.4,1-1C118.2,214.7,117.7,214.3,117.2,214.3C117.2,214.3,117.2,214.3,117.2,214.3L117.2,214.3z M128.9,212.3c0.6,0,1-0.4,1-1
	s-0.4-1-1-1s-1,0.4-1,1C127.9,211.9,128.4,212.3,128.9,212.3C128.9,212.3,128.9,212.3,128.9,212.3L128.9,212.3z M132.8,210.3
	c-0.6,0-1,0.4-1,1s0.4,1,1,1s1-0.4,1-1C133.8,210.8,133.4,210.3,132.8,210.3L132.8,210.3z M130.8,212.3c-0.6,0-1,0.4-1,1s0.4,1,1,1
	s1-0.4,1-1C131.8,212.8,131.4,212.3,130.8,212.3L130.8,212.3z M126.9,212.3c-0.6,0-1,0.4-1,1s0.4,1,1,1s1-0.4,1-1
	C127.9,212.8,127.5,212.4,126.9,212.3L126.9,212.3z M119.1,214.3c0.6,0,1-0.4,1-1s-0.4-1-1-1s-1,0.4-1,1
	C118.1,213.9,118.6,214.3,119.1,214.3C119.1,214.3,119.1,214.3,119.1,214.3L119.1,214.3z M125,214.3c-0.6,0-1,0.4-1,1
	c0,0.2,0.1,0.3,0.2,0.5l1.8-0.4c0,0,0-0.1,0-0.1C125.9,214.8,125.5,214.3,125,214.3L125,214.3z M118.2,217l0.9-0.2l0.8-0.1
	c-0.3-0.4-0.9-0.5-1.3-0.2C118.4,216.6,118.2,216.8,118.2,217L118.2,217z M121.1,214.3c-0.6,0-1,0.4-1,1s0.4,1,1,1s1-0.4,1-1
	C122.1,214.8,121.7,214.3,121.1,214.3C121.1,214.3,121.1,214.3,121.1,214.3L121.1,214.3z M123.1,212.3c-0.6,0-1,0.4-1,1s0.4,1,1,1
	s1-0.4,1-1C124.1,212.8,123.6,212.3,123.1,212.3C123.1,212.3,123,212.3,123.1,212.3L123.1,212.3z M79.9,222.1c0.6,0,1-0.4,1-1
	s-0.4-1-1-1s-1,0.4-1,1C78.9,221.7,79.4,222.1,79.9,222.1L79.9,222.1z M70.1,224.1c0.6,0,1-0.4,1-1s-0.4-1-1-1s-1,0.4-1,1
	C69.2,223.6,69.6,224.1,70.1,224.1L70.1,224.1z M68.1,224.1c-0.6,0-1,0.4-1,1s0.4,1,1,1s1-0.4,1-1C69.2,224.6,68.7,224.1,68.1,224.1
	C68.2,224.1,68.2,224.1,68.1,224.1L68.1,224.1z M64.8,224.3l-0.6,1.7l0,0c0.6,0,1-0.4,1-1C65.2,224.7,65,224.4,64.8,224.3
	L64.8,224.3z M66.2,226c-0.6,0-1,0.4-1,1c0,0.2,0.1,0.4,0.2,0.6l1.7-0.3c0-0.1,0-0.2,0.1-0.2C67.2,226.5,66.7,226,66.2,226z
	 M70.1,226c-0.5,0-0.9,0.4-0.9,0.8l1.8-0.4C70.7,226.2,70.4,226,70.1,226L70.1,226z M93.6,218.2c-0.6,0-1,0.4-1,1s0.4,1,1,1
	s1-0.4,1-1C94.6,218.6,94.2,218.2,93.6,218.2L93.6,218.2z M74,222.1c-0.6,0-1,0.4-1,1s0.4,1,1,1s1-0.4,1-1S74.6,222.1,74,222.1z
	 M68.1,218.2c0.6,0,1-0.4,1-1l0,0c0-0.6-0.4-1-1-1s-1,0.4-1,1l0,0C67.1,217.8,67.6,218.2,68.1,218.2
	C68.1,218.2,68.1,218.2,68.1,218.2L68.1,218.2z M69.1,213.3c0-0.4-0.3-0.8-0.7-0.9l-0.6,1.9c0.1,0,0.2,0.1,0.3,0.1
	C68.7,214.3,69.1,213.8,69.1,213.3L69.1,213.3z M67.1,219.2c0-0.4-0.2-0.7-0.6-0.9l-0.6,1.8c0,0,0.1,0,0.2,0
	C66.7,220.1,67.1,219.7,67.1,219.2L67.1,219.2z M68.1,220.2c-0.6,0-1,0.4-1,1s0.4,1,1,1s1-0.4,1-1C69.1,220.6,68.7,220.2,68.1,220.2
	L68.1,220.2z M66.1,224.1c0.6,0,1-0.4,1-1s-0.4-1-1-1s-1,0.4-1,1C65.1,223.7,65.6,224.1,66.1,224.1
	C66.2,224.1,66.2,224.1,66.1,224.1L66.1,224.1z M72,224.1c-0.6,0-1,0.4-1,1s0.4,1,1,1s1-0.4,1-1C73,224.6,72.6,224.1,72,224.1
	L72,224.1z M89.6,220.2c0.6,0,1-0.4,1-1s-0.4-1-1-1s-1,0.4-1,1C88.6,219.7,89.1,220.2,89.6,220.2C89.7,220.2,89.7,220.2,89.6,220.2
	L89.6,220.2z M76,224.1c-0.6,0-1,0.4-1,1c0,0.2,0.1,0.4,0.2,0.6l1.7-0.4c0-0.1,0-0.2,0-0.2C76.9,224.6,76.5,224.1,76,224.1z
	 M88.8,222.9l1.7-0.4c-0.3-0.4-0.9-0.6-1.3-0.3C89,222.4,88.8,222.6,88.8,222.9z M91.7,220.2c-0.6,0-1,0.4-1,1s0.4,1,1,1s1-0.4,1-1
	C92.7,220.6,92.2,220.2,91.7,220.2C91.7,220.2,91.7,220.2,91.7,220.2L91.7,220.2z M85.8,222.2c-0.6,0-1,0.4-1,1
	c0,0.2,0.1,0.4,0.2,0.6l1.7-0.4c0-0.1,0-0.1,0-0.2C86.7,222.6,86.3,222.2,85.8,222.2L85.8,222.2z M87.8,220.2c-0.6,0-1,0.4-1,1
	s0.4,1,1,1s1-0.4,1-1C88.8,220.6,88.4,220.2,87.8,220.2C87.8,220.2,87.8,220.2,87.8,220.2L87.8,220.2z M83.9,220.2c-0.6,0-1,0.4-1,1
	s0.4,1,1,1s1-0.4,1-1C84.9,220.6,84.4,220.2,83.9,220.2C83.9,220.2,83.8,220.2,83.9,220.2L83.9,220.2z M78,222.2c-0.6,0-1,0.4-1,1
	s0.4,1,1,1s1-0.4,1-1C79,222.6,78.6,222.1,78,222.2C78,222.1,78,222.1,78,222.2L78,222.2z M134.9,212.4c-0.6,0-1,0.4-1,1
	c0,0.2,0.1,0.3,0.1,0.5l0.8-0.2l1-0.2c0,0,0-0.1,0-0.1C135.9,212.8,135.4,212.3,134.9,212.4C134.9,212.3,134.8,212.3,134.9,212.4
	L134.9,212.4z M79,224.9l0.9-0.2l0.8-0.2c-0.3-0.4-1-0.5-1.4-0.2C79.2,224.5,79.1,224.7,79,224.9z M81.9,222.1c-0.6,0-1,0.4-1,1
	s0.4,1,1,1s1-0.4,1-1C82.9,222.6,82.4,222.1,81.9,222.1C81.9,222.1,81.9,222.1,81.9,222.1L81.9,222.1z M162.3,204.5
	c-0.6,0-1,0.4-1,1s0.4,1,1,1s1-0.4,1-1C163.3,204.9,162.8,204.5,162.3,204.5C162.3,204.5,162.2,204.5,162.3,204.5L162.3,204.5z
	 M190.1,200.6c-0.5-0.2-1.1,0.1-1.3,0.6c0,0.1-0.1,0.2-0.1,0.3l0,0c0,0.6,0.4,1,1,1s1-0.4,1-1l0,0
	C190.7,201.1,190.4,200.8,190.1,200.6L190.1,200.6z M187.8,198.6c-0.6,0-1,0.4-1,1s0.4,1,1,1s1-0.4,1-1
	C188.8,199.1,188.3,198.6,187.8,198.6C187.8,198.6,187.7,198.6,187.8,198.6L187.8,198.6z M186.9,203.1l1.6-0.3
	c-0.4-0.4-1-0.3-1.4,0.1C186.9,203,186.9,203,186.9,203.1z M191.7,198.6c-0.6,0-1,0.4-1,1s0.4,1,1,1s1-0.4,1-1
	C192.7,199.1,192.3,198.6,191.7,198.6C191.7,198.6,191.7,198.6,191.7,198.6L191.7,198.6z M176,202.5c-0.6,0-1,0.4-1,1s0.4,1,1,1
	s1-0.4,1-1S176.6,202.5,176,202.5z M191.7,194.7c-0.6,0-1,0.4-1,1s0.4,1,1,1s1-0.4,1-1C192.7,195.1,192.2,194.7,191.7,194.7
	C191.7,194.7,191.7,194.7,191.7,194.7L191.7,194.7z M177.6,202.4c0.1,0.1,0.2,0.1,0.4,0.1c0.1,0,0.3,0,0.4-0.1
	c0.4-0.2,0.6-0.5,0.6-0.9l0,0c0-0.4-0.2-0.7-0.6-0.9c-0.1-0.1-0.2-0.1-0.4-0.1c-0.6,0-1,0.4-1,1l0,0
	C177,201.9,177.2,202.3,177.6,202.4L177.6,202.4z M193.6,198.6c0.6,0,1-0.4,1-1s-0.4-1-1-1s-1,0.4-1,1
	C192.6,198.1,193.1,198.6,193.6,198.6L193.6,198.6z M183.8,202.5c-0.6,0-1,0.5-1,1c0,0.1,0,0.2,0.1,0.3l1.9-0.4l0,0
	C184.8,203,184.4,202.5,183.8,202.5C183.8,202.5,183.8,202.5,183.8,202.5L183.8,202.5z M177,205.1l1.6-0.3c-0.4-0.4-1-0.4-1.4,0.1
	C177.1,204.9,177,205,177,205.1z M182.8,201.5c0-0.6-0.4-1-1-1s-1,0.4-1,1l0,0c0,0.6,0.4,1,1,1S182.8,202.1,182.8,201.5z
	 M179.9,202.5c-0.6,0-1,0.4-1,1s0.4,1,1,1s1-0.4,1-1C180.9,203,180.4,202.5,179.9,202.5C179.9,202.5,179.9,202.5,179.9,202.5
	L179.9,202.5z M186.1,200.6c-0.1-0.1-0.2-0.1-0.4-0.1c-0.6,0-1,0.4-1,1l0,0c0,0.6,0.4,1,1,1c0.1,0,0.3,0,0.4-0.1
	c0.4-0.2,0.6-0.5,0.6-0.9l0,0C186.7,201.2,186.5,200.8,186.1,200.6L186.1,200.6z M203.4,198.6c-0.6,0-1,0.4-1,1c0,0.1,0,0.2,0.1,0.4
	l1.9-0.4C204.4,199.1,203.9,198.6,203.4,198.6L203.4,198.6z M136.7,210.4c-0.6,0-1,0.4-1,1s0.4,1,1,1s1-0.4,1-1
	C137.8,210.9,137.3,210.4,136.7,210.4C136.8,210.4,136.8,210.4,136.7,210.4L136.7,210.4z M205.3,196.7c-0.6,0-1,0.4-1,1s0.4,1,1,1
	s1-0.4,1-1C206.4,197.1,206,196.7,205.3,196.7C205.4,196.6,205.4,196.6,205.3,196.7L205.3,196.7z M212.2,197.6
	C212.2,197.6,212.2,197.6,212.2,197.6c0,0.2,0,0.3,0.1,0.4l0.9-0.2h0.2h-0.2L212.2,197.6z M206.4,199.2l1.5-0.3
	c-0.2-0.1-0.4-0.2-0.6-0.2C207,198.7,206.6,198.8,206.4,199.2L206.4,199.2z M194,200.6c-0.1-0.1-0.2-0.1-0.4-0.1c-0.6,0-1,0.4-1,1
	l0,0c0,0.1,0,0.3,0.1,0.4l1.9-0.4l0,0C194.6,201.2,194.4,200.8,194,200.6z M195.6,198.6c-0.6,0-1,0.4-1,1s0.4,1,1,1s1-0.4,1-1
	C196.6,199.1,196.2,198.6,195.6,198.6C195.6,198.6,195.6,198.6,195.6,198.6L195.6,198.6z M197.6,200.6c-0.4,0-0.7,0.2-0.9,0.6
	l0.9-0.2l0.6-0.1C198.1,200.7,197.8,200.6,197.6,200.6L197.6,200.6z M199.6,198.6c-0.6,0-1,0.4-1,1s0.4,1,1,1l0.4-0.1
	c0.5-0.3,0.7-0.9,0.4-1.4C200.2,198.9,199.9,198.7,199.6,198.6L199.6,198.6z M199.6,196.6c0.5,0,0.9-0.4,1-0.9l-1.9-0.3
	c0,0.1,0,0.1,0,0.2c0,0.5,0.3,0.9,0.8,1H199.6z M197.6,196.6c-0.6,0-1,0.4-1,1s0.4,1,1,1s1-0.4,1-1
	C198.6,197.1,198.1,196.6,197.6,196.6C197.6,196.6,197.5,196.6,197.6,196.6L197.6,196.6z M201.5,196.6c-0.6,0-1,0.4-1,1s0.4,1,1,1
	s1-0.4,1-1C202.5,197.1,202.1,196.6,201.5,196.6C201.5,196.6,201.5,196.6,201.5,196.6L201.5,196.6z M148.6,208.4c0.6,0,1-0.4,1-1
	s-0.4-1-1-1s-1,0.4-1,1C147.6,207.9,148,208.4,148.6,208.4L148.6,208.4z M147.6,211l1.6-0.3c-0.4-0.4-1-0.4-1.4,0
	C147.7,210.8,147.7,210.9,147.6,211z M152.4,206.4c-0.6,0-1,0.4-1,1s0.4,1,1,1s1-0.4,1-1C153.4,206.9,153,206.4,152.4,206.4
	C152.4,206.4,152.4,206.4,152.4,206.4L152.4,206.4z M150.4,208.4c-0.6,0-1,0.4-1,1s0.4,1,1,1s1-0.4,1-1
	C151.5,208.9,151,208.4,150.4,208.4C150.5,208.4,150.5,208.4,150.4,208.4L150.4,208.4z M146.5,208.4c-0.6,0-1,0.4-1,1s0.4,1,1,1
	s1-0.4,1-1C147.5,208.9,147.1,208.4,146.5,208.4C146.6,208.4,146.6,208.4,146.5,208.4L146.5,208.4z M142.6,208.4c-0.6,0-1,0.4-1,1
	s0.4,1,1,1s1-0.4,1-1C143.6,208.9,143.2,208.4,142.6,208.4C142.6,208.4,142.6,208.4,142.6,208.4L142.6,208.4z M144.6,210.4
	c-0.6,0-1,0.4-1,1c0,0.2,0.1,0.3,0.1,0.5l1.8-0.4c0,0,0-0.1,0-0.1C145.6,210.9,145.2,210.4,144.6,210.4
	C144.6,210.4,144.6,210.4,144.6,210.4L144.6,210.4z M138.7,210.4c0.6,0,1-0.4,1-1s-0.4-1-1-1s-1,0.4-1,1
	C137.8,209.9,138.2,210.3,138.7,210.4L138.7,210.4z M137.8,213.1l1.6-0.3c-0.4-0.4-1-0.4-1.4,0C137.9,212.8,137.9,212.9,137.8,213.1
	z M140.7,210.4c-0.6,0-1,0.4-1,1s0.4,1,1,1s1-0.4,1-1C141.7,210.9,141.3,210.4,140.7,210.4C140.7,210.4,140.7,210.3,140.7,210.4
	L140.7,210.4z M154.4,208.4c-0.6,0-1,0.4-1,1c0,0.2,0,0.3,0.1,0.4l1.8-0.4c0,0,0-0.1,0-0.1C155.4,208.9,154.9,208.4,154.4,208.4
	L154.4,208.4z M157.4,209.1l0.9-0.2l0.7-0.1c-0.4-0.4-1-0.4-1.4,0C157.5,208.8,157.4,209,157.4,209.1L157.4,209.1z M168.1,204.5
	c0.6,0,1-0.4,1-1s-0.4-1-1-1s-1,0.4-1,1C167.1,204,167.6,204.5,168.1,204.5L168.1,204.5z M167.2,207.1l1.6-0.3c-0.4-0.4-1-0.4-1.4,0
	C167.3,206.9,167.2,207,167.2,207.1z M170.1,204.5c-0.6,0-1,0.4-1,1s0.4,1,1,1s1-0.4,1-1C171.1,204.9,170.6,204.5,170.1,204.5
	C170.1,204.5,170.1,204.5,170.1,204.5L170.1,204.5z M172.1,202.5c-0.6,0-1,0.4-1,1s0.4,1,1,1s1-0.4,1-1
	C173.1,202.9,172.6,202.5,172.1,202.5C172,202.5,172,202.5,172.1,202.5L172.1,202.5z M166.2,204.5c-0.6,0-1,0.4-1,1s0.4,1,1,1
	s1-0.4,1-1C167.2,204.9,166.8,204.5,166.2,204.5C166.2,204.5,166.2,204.5,166.2,204.5L166.2,204.5z M160.3,206.5c-0.6,0-1,0.4-1,1
	s0.4,1,1,1s1-0.4,1-1C161.3,206.9,160.9,206.5,160.3,206.5C160.3,206.4,160.3,206.4,160.3,206.5L160.3,206.5z M174,204.5
	c-0.6,0-1,0.4-1,1c0,0.1,0,0.3,0.1,0.4l0.9-0.2l1-0.2l0,0C175,205,174.6,204.5,174,204.5C174,204.5,174,204.5,174,204.5L174,204.5z
	 M164.2,206.5c-0.6,0-1,0.5-1,1c0,0.1,0,0.3,0.1,0.4l1.8-0.4c0,0,0,0,0-0.1C165.2,206.9,164.8,206.5,164.2,206.5
	C164.2,206.4,164.2,206.4,164.2,206.5L164.2,206.5z M158.3,206.5c0.6,0,1-0.4,1-1s-0.4-1-1-1s-1,0.4-1,1
	C157.4,206,157.8,206.4,158.3,206.5L158.3,206.5z M156.3,206.5c-0.6,0-1,0.4-1,1s0.4,1,1,1s1-0.4,1-1
	C157.4,206.9,157,206.5,156.3,206.5C156.4,206.4,156.4,206.4,156.3,206.5L156.3,206.5z M70.1,212.3c0.6,0,1-0.4,1-1s-0.4-1-1-1
	s-1,0.4-1,1S69.5,212.3,70.1,212.3z M142.6,188.8c-0.6,0-1,0.4-1,1s0.4,1,1,1s1-0.4,1-1C143.6,189.2,143.2,188.8,142.6,188.8
	L142.6,188.8z M164.2,190.8c-0.6,0-1,0.4-1,1s0.4,1,1,1s1-0.4,1-1C165.2,191.2,164.8,190.8,164.2,190.8
	C164.2,190.8,164.2,190.8,164.2,190.8L164.2,190.8z M164.2,196.7c0.6,0,1-0.4,1-1s-0.4-1-1-1s-1,0.4-1,1
	C163.2,196.2,163.6,196.6,164.2,196.7L164.2,196.7z M170.1,196.7c-0.6,0-1,0.4-1,1s0.4,1,1,1s1-0.4,1-1
	C171.1,197.1,170.7,196.6,170.1,196.7C170.1,196.6,170.1,196.6,170.1,196.7L170.1,196.7z M168.1,196.7c0.6,0,1-0.4,1-1s-0.4-1-1-1
	s-1,0.4-1,1C167.1,196.2,167.5,196.6,168.1,196.7C168.1,196.6,168.1,196.6,168.1,196.7L168.1,196.7z M160.2,190.8c-0.6,0-1,0.4-1,1
	s0.4,1,1,1s1-0.4,1-1C161.2,191.2,160.8,190.8,160.2,190.8L160.2,190.8z M162.2,192.8c-0.6,0-1,0.4-1,1s0.4,1,1,1s1-0.4,1-1
	C163.3,193.2,162.9,192.8,162.2,192.8C162.3,192.7,162.3,192.7,162.2,192.8L162.2,192.8z M173.6,202.5c0.5,0.2,1.1-0.1,1.3-0.6
	c0-0.1,0.1-0.2,0.1-0.3l0,0c0-0.6-0.4-1-1-1s-1,0.4-1,1l0,0C173,202,173.3,202.3,173.6,202.5L173.6,202.5z M172,200.6
	c0.6,0,1-0.4,1-1s-0.4-1-1-1s-1,0.4-1,1S171.4,200.6,172,200.6z M158.3,189.4l-0.8-0.1c-0.1,0.1-0.1,0.3-0.1,0.5c0,0.6,0.4,1,1,1
	s1-0.4,1-1c0-0.1,0-0.2,0-0.2L158.3,189.4z M170.1,192.7c-0.6,0-1,0.4-1,1s0.4,1,1,1s1-0.4,1-1C171.1,193.2,170.6,192.7,170.1,192.7
	L170.1,192.7z M172.1,194.7c-0.6,0-1,0.4-1,1s0.4,1,1,1s1-0.4,1-1C173.1,195.2,172.7,194.7,172.1,194.7
	C172.1,194.7,172,194.7,172.1,194.7L172.1,194.7z M167.8,190.9c-0.5,0.2-0.8,0.8-0.6,1.3c0.2,0.5,0.8,0.8,1.3,0.6
	c0.4-0.2,0.7-0.5,0.6-1c0-0.3-0.1-0.6-0.4-0.8L167.8,190.9z M166.2,192.7c-0.6,0-1,0.4-1,1s0.4,1,1,1s1-0.4,1-1
	C167.2,193.2,166.8,192.7,166.2,192.7C166.2,192.7,166.2,192.7,166.2,192.7L166.2,192.7z M148.6,190.7c-0.6,0-1,0.4-1,1s0.4,1,1,1
	s1-0.4,1-1C149.5,191.2,149.1,190.7,148.6,190.7C148.5,190.7,148.5,190.7,148.6,190.7L148.6,190.7z M146.6,188.7c-0.6,0-1,0.4-1,1
	s0.4,1,1,1s1-0.4,1-1C147.5,189.2,147.1,188.8,146.6,188.7L146.6,188.7z M144.6,190.7c-0.6,0-1,0.4-1,1s0.4,1,1,1s1-0.4,1-1
	C145.5,191.2,145.1,190.8,144.6,190.7L144.6,190.7z M150.4,194.7c0.6,0,1-0.4,1-1s-0.4-1-1-1s-1,0.4-1,1
	C149.4,194.2,149.9,194.7,150.4,194.7C150.4,194.7,150.5,194.7,150.4,194.7L150.4,194.7z M158.3,194.7c0.6,0,1-0.4,1-1s-0.4-1-1-1
	s-1,0.4-1,1C157.3,194.2,157.7,194.7,158.3,194.7C158.3,194.7,158.3,194.7,158.3,194.7L158.3,194.7z M146.5,194.7c0.6,0,1-0.4,1-1
	s-0.4-1-1-1s-1,0.4-1,1C145.5,194.2,145.9,194.7,146.5,194.7C146.5,194.7,146.5,194.7,146.5,194.7L146.5,194.7z M156.3,190.7
	c-0.6,0-1,0.4-1,1s0.4,1,1,1s1-0.4,1-1C157.3,191.2,156.9,190.8,156.3,190.7L156.3,190.7z M150.4,188.7c-0.6,0-1,0.4-1,1s0.4,1,1,1
	s1-0.4,1-1C151.4,189.2,151,188.8,150.4,188.7L150.4,188.7z M156.3,196.6c0.6,0,1-0.4,1-1s-0.4-1-1-1s-1,0.4-1,1
	C155.3,196.1,155.7,196.6,156.3,196.6C156.3,196.6,156.3,196.6,156.3,196.6L156.3,196.6z M152.4,190.7c-0.6,0-1,0.4-1,1s0.4,1,1,1
	s1-0.4,1-1C153.4,191.2,152.9,190.8,152.4,190.7L152.4,190.7z M154.4,192.7c-0.6,0-1,0.4-1,1s0.4,1,1,1s1-0.4,1-1
	C155.4,193.2,154.9,192.7,154.4,192.7L154.4,192.7z M165.8,202.4c0.5,0.2,1.1-0.1,1.3-0.6c0-0.1,0.1-0.2,0.1-0.3l0,0
	c0-0.6-0.4-1-1-1s-1,0.4-1,1l0,0C165.1,201.9,165.4,202.3,165.8,202.4L165.8,202.4z M154.4,206.4c0.6,0,1-0.4,1-1s-0.4-1-1-1
	s-1,0.4-1,1C153.4,206,153.8,206.4,154.4,206.4L154.4,206.4L154.4,206.4z M155.4,201.5c0-0.4-0.2-0.7-0.6-0.9
	c-0.1-0.1-0.2-0.1-0.4-0.1c-0.6,0-1,0.4-1,1l0,0c0,0.6,0.4,1,1,1c0.1,0,0.3,0,0.4-0.1C155.1,202.3,155.4,202,155.4,201.5
	L155.4,201.5z M151.5,201.5c0-0.6-0.4-1-1-1s-1,0.4-1,1l0,0c0,0.6,0.4,1,1,1S151.5,202.1,151.5,201.5z M152.5,204.5c0.6,0,1-0.4,1-1
	s-0.4-1-1-1s-1,0.4-1,1C151.5,204,151.9,204.4,152.5,204.5L152.5,204.5z M156.4,204.5c0.6,0,1-0.4,1-1s-0.4-1-1-1s-1,0.4-1,1
	C155.4,204,155.8,204.4,156.4,204.5L156.4,204.5z M156.4,198.6c-0.6,0-1,0.4-1,1s0.4,1,1,1s1-0.4,1-1
	C157.4,199,156.9,198.6,156.4,198.6C156.4,198.6,156.4,198.6,156.4,198.6L156.4,198.6z M158,202.4c0.5,0.2,1.1-0.1,1.3-0.6
	c0-0.1,0.1-0.2,0.1-0.3l0,0c0-0.6-0.4-1-1-1s-1,0.4-1,1l0,0C157.3,201.9,157.6,202.3,158,202.4L158,202.4z M144.6,202.5
	c-0.6,0-1,0.4-1,1s0.4,1,1,1s1-0.4,1-1C145.6,203,145.2,202.5,144.6,202.5C144.6,202.5,144.6,202.5,144.6,202.5L144.6,202.5z
	 M146.6,206.4c0.6,0,1-0.4,1-1s-0.4-1-1-1s-1,0.4-1,1C145.6,206,146,206.4,146.6,206.4L146.6,206.4z M148.6,204.4c0.6,0,1-0.4,1-1
	s-0.4-1-1-1s-1,0.4-1,1c0,0.5,0.4,1,0.9,1L148.6,204.4z M147.6,201.5c0-0.4-0.2-0.7-0.6-0.9c-0.1-0.1-0.2-0.1-0.4-0.1
	c-0.6,0-1,0.4-1,1l0,0c0,0.6,0.4,1,1,1c0.1,0,0.3,0,0.4-0.1C147.4,202.3,147.6,201.9,147.6,201.5L147.6,201.5z M150.6,206.4
	c0.6,0,1-0.4,1-1s-0.4-1-1-1s-1,0.4-1,1c0,0.5,0.4,1,0.9,1L150.6,206.4z M168.2,200.5c0.6,0,1-0.4,1-1s-0.4-1-1-1s-1,0.4-1,1
	C167.2,200,167.6,200.5,168.2,200.5L168.2,200.5z M144.7,208.3c0.6,0,1-0.4,1-1s-0.4-1-1-1s-1,0.4-1,1c0,0.5,0.4,1,0.9,1
	L144.7,208.3z M71.2,207.3c0-0.5-0.4-0.9-0.8-0.9l-0.6,1.8c0.1,0.1,0.3,0.1,0.4,0.1C70.7,208.3,71,207.9,71.2,207.3L71.2,207.3z
	 M169.8,202.3c0.1,0.1,0.2,0.1,0.4,0.1c0.1,0,0.3,0,0.4-0.1c0.4-0.2,0.6-0.5,0.6-0.9l0,0c0-0.4-0.2-0.7-0.6-0.9
	c-0.1-0.1-0.2-0.1-0.4-0.1c-0.6,0-1,0.4-1,1l0,0c0,0.4,0.2,0.8,0.5,1L169.8,202.3z M164.3,204.3c0.6,0,1-0.4,1-1s-0.4-1-1-1
	s-1,0.4-1,1c-0.1,0.5,0.3,1,0.9,1.1c0,0,0,0,0,0L164.3,204.3z M166.3,196.5c-0.6,0-1,0.4-1,1s0.4,1,1,1s1-0.4,1-1
	c-0.1-0.5-0.6-0.9-1.1-0.9c0,0,0,0,0,0L166.3,196.5z M162.4,198.5c0.6,0,1-0.4,1-1s-0.4-1-1-1s-1,0.4-1,1c0,0.5,0.3,1,0.9,1.1
	L162.4,198.5z M160.4,204.4c0.6,0,1-0.4,1-1s-0.4-1-1-1s-1,0.4-1,1c0,0.5,0.4,1,0.9,1.1L160.4,204.4z M160.4,198.5c-0.6,0-1,0.4-1,1
	s0.4,1,1,1s1-0.4,1-1C161.3,199,160.8,198.5,160.4,198.5c-0.1,0.1-0.1,0.1-0.1,0.1L160.4,198.5z M162,202.3c0.1,0.1,0.2,0.1,0.4,0.1
	c0.1,0,0.3,0,0.4-0.1c0.4-0.2,0.6-0.5,0.6-0.9l0,0c0-0.4-0.2-0.7-0.6-0.9c-0.1-0.1-0.2-0.1-0.4-0.1c-0.6,0-1,0.4-1,1l0,0
	c0,0.4,0.2,0.8,0.5,1L162,202.3z M160.4,194.6c-0.6,0-1,0.4-1,1s0.4,1,1,1s1-0.4,1-1C161.3,195,160.8,194.6,160.4,194.6
	c-0.1,0.1-0.1,0.1-0.1,0.1L160.4,194.6z M159.4,197.5c0-0.6-0.4-1-1-1s-1,0.4-1,1s0.4,1,1,1C158.9,198.5,159.3,198.1,159.4,197.5
	L159.4,197.5z M164.3,198.5c-0.6,0-1,0.4-1,1s0.4,1,1,1s1-0.4,1-1C165.2,199,164.8,198.6,164.3,198.5
	C164.2,198.6,164.2,198.6,164.3,198.5L164.3,198.5z M95.7,198.5c0.6,0,1-0.4,1-1s-0.4-1-1-1s-1,0.4-1,1
	C94.6,198.1,95,198.6,95.7,198.5L95.7,198.5z M93.7,196.5c0.6,0,1-0.4,1-1c0-0.3-0.1-0.6-0.4-0.7l-1.4,0.2c-0.1,0.2-0.1,0.3-0.2,0.5
	C92.7,196.1,93.1,196.6,93.7,196.5c0,0.1,0,0.1,0,0.1L93.7,196.5z M99.5,194.5c0.5,0,0.9-0.4,0.9-0.8l-1.8,0.3
	c0.1,0.4,0.4,0.6,0.8,0.7L99.5,194.5z M97.5,196.5c0.6,0,1-0.4,1-1s-0.4-1-1-1s-1,0.4-1,1c-0.1,0.5,0.3,1,0.9,1.1c0,0,0.1,0,0.1,0
	L97.5,196.5z M91.7,198.5c0.6,0,1-0.4,1-1s-0.4-1-1-1s-1,0.4-1,1C90.6,198.1,91,198.6,91.7,198.5C91.6,198.6,91.6,198.6,91.7,198.5
	L91.7,198.5z M89.7,196.5c0.6,0,1-0.4,1-1c0,0,0-0.1,0-0.1l-1.9,0.3c0,0.5,0.5,0.9,0.9,0.9L89.7,196.5z M107.3,192.6
	c-0.6,0-1,0.4-1,1s0.4,1,1,1s1-0.4,1-1c0-0.5-0.5-0.9-1-0.9L107.3,192.6z M105.3,194.6c-0.6,0-1,0.4-1,1s0.4,1,1,1s1-0.4,1-1
	C106.3,195.1,105.9,194.7,105.3,194.6L105.3,194.6z M99.4,196.6c-0.6,0-1,0.4-1,1s0.4,1,1,1s1-0.4,1-1
	C100.4,197.1,100,196.7,99.4,196.6L99.4,196.6z M87.7,198.6c0.6,0,1-0.4,1-1s-0.4-1-1-1s-1,0.4-1,1
	C86.7,198.2,87.1,198.6,87.7,198.6C87.7,198.6,87.7,198.6,87.7,198.6L87.7,198.6z M103.3,194.7c0.6,0,1-0.4,1-1
	c0-0.2-0.1-0.3-0.2-0.5l-0.8,0.1l-0.9,0.2c0,0.1,0,0.1,0,0.2C102.4,194.2,102.9,194.7,103.3,194.7
	C103.4,194.7,103.4,194.7,103.3,194.7L103.3,194.7z M142.5,194.7c0.6,0,1-0.4,1-1s-0.4-1-1-1s-1,0.4-1,1
	C141.5,194.2,142,194.7,142.5,194.7C142.6,194.7,142.6,194.7,142.5,194.7L142.5,194.7z M107.3,198.6c0.6,0,1-0.4,1-1s-0.4-1-1-1
	s-1,0.4-1,1C106.3,198.2,106.7,198.6,107.3,198.6C107.3,198.6,107.3,198.6,107.3,198.6L107.3,198.6z M86.5,196.2l-1.3,0.2
	C85.6,196.8,86.1,196.7,86.5,196.2C86.5,196.3,86.5,196.2,86.5,196.2z M76.8,197.9l-1.7,0.3c0.3,0.4,1,0.5,1.4,0.2
	C76.7,198.2,76.8,198.1,76.8,197.9z M74,200.6c0.6,0,1-0.4,1-1s-0.4-1-1-1s-1,0.4-1,1S73.4,200.6,74,200.6z M72,206.4
	c0.6,0,1-0.4,1-1s-0.4-1-1-1s-1,0.4-1,1C71,206,71.4,206.4,72,206.4C72,206.4,72,206.4,72,206.4L72,206.4z M72,202.5
	c0.6,0,1-0.4,1-1l0,0c0-0.5-0.4-1-0.9-1l-0.6,1.8l0.1,0.1C71.8,202.5,71.9,202.5,72,202.5L72,202.5z M76.3,200.6
	c-0.5-0.2-1.1,0.1-1.3,0.6c0,0.1-0.1,0.2-0.1,0.3l0,0c0,0.6,0.4,1,1,1s1-0.4,1-1l0,0C76.9,201.1,76.7,200.8,76.3,200.6L76.3,200.6z
	 M85.7,200.6c0.6,0,1-0.4,1-1s-0.4-1-1-1s-1,0.4-1,1C84.7,200.1,85.2,200.6,85.7,200.6C85.7,200.6,85.8,200.6,85.7,200.6L85.7,200.6
	z M83.7,198.6c0.6,0,1-0.4,1-1c0-0.5-0.4-0.9-0.8-1l-0.6,0.1c-0.5,0.3-0.6,0.9-0.3,1.4C83.2,198.3,83.4,198.5,83.7,198.6L83.7,198.6
	z M81.7,200.6c0.6,0,1-0.4,1-1s-0.4-1-1-1s-1,0.4-1,1C80.7,200.1,81.2,200.6,81.7,200.6c0,0,0.1,0,0.2,0H81.7z M79.7,198.6
	c0.6,0,1-0.5,1-1c0-0.1,0-0.2-0.1-0.4l-0.9,0.1l-1,0.2c-0.1,0.5,0.2,0.9,0.6,1.1C79.5,198.6,79.6,198.6,79.7,198.6z M77.7,200.6
	c0.6,0,1-0.4,1-1s-0.4-1-1-1s-1,0.4-1,1C76.7,200.1,77.1,200.6,77.7,200.6c0.1,0,0.1,0,0.2,0H77.7z M101.2,196.6c0.6,0,1-0.4,1-1
	s-0.4-1-1-1s-1,0.4-1,1C100.2,196.2,100.7,196.6,101.2,196.6c0.1,0,0.1,0,0.2,0H101.2z M132.6,190.8c-0.6,0-1,0.4-1,1s0.4,1,1,1
	s1-0.4,1-1c0-0.5-0.3-0.9-0.8-1H132.6z M130.6,188.8c-0.6,0-1,0.4-1,1s0.4,1,1,1s1-0.4,1-1c0-0.4-0.3-0.8-0.7-1L130.6,188.8z
	 M128.6,190.8c-0.6,0-1,0.4-1,1s0.4,1,1,1s1-0.4,1-1c0-0.5-0.3-0.9-0.7-1H128.6z M134.5,194.7c0.6,0,1-0.4,1-1s-0.4-1-1-1
	s-1,0.4-1,1C133.5,194.2,133.9,194.7,134.5,194.7c0.1,0.1,0.2,0,0.3,0H134.5z M130.6,194.7c0.6,0,1-0.4,1-1s-0.4-1-1-1s-1,0.4-1,1
	C129.5,194.2,130,194.7,130.6,194.7c0.1,0.1,0.2,0,0.3,0H130.6z M140.4,190.8c-0.6,0-1,0.4-1,1s0.4,1,1,1s1-0.4,1-1
	c0-0.5-0.3-0.9-0.7-1H140.4z M138.4,188.8c-0.6,0-1,0.4-1,1s0.4,1,1,1s1-0.4,1-1c0-0.4-0.3-0.8-0.7-1L138.4,188.8z M126.6,189.3
	l-0.9,0.2c0,0.1,0,0.2-0.1,0.3c0,0.6,0.4,1,1,1s1-0.4,1-1c0-0.2-0.1-0.4-0.2-0.6L126.6,189.3z M138.4,194.6c0.6,0,1-0.4,1-1
	s-0.4-1-1-1s-1,0.4-1,1c-0.1,0.5,0.3,1,0.9,1.1c0.2,0,0.3,0,0.5-0.1L138.4,194.6z M134.4,188.8c-0.6,0-1,0.4-1,1s0.4,1,1,1
	s1-0.4,1-1c0-0.4-0.3-0.8-0.7-1L134.4,188.8z M136.4,190.8c-0.6,0-1,0.4-1,1s0.4,1,1,1s1-0.4,1-1c0-0.5-0.3-0.9-0.7-1H136.4z
	 M124.7,190.8c-0.6,0-1,0.4-1,1s0.4,1,1,1s1-0.4,1-1c0-0.4-0.3-0.9-0.7-1H124.7z M116.8,196.6c0.6,0,1-0.4,1-1s-0.4-1-1-1
	s-1,0.4-1,1C115.8,196.2,116.2,196.7,116.8,196.6c0.1,0.1,0.2,0,0.3,0H116.8z M126.6,194.6c0.6,0,1-0.4,1-1s-0.4-1-1-1s-1,0.4-1,1
	c-0.1,0.5,0.3,1,0.9,1.1c0.2,0,0.3,0,0.5-0.1L126.6,194.6z M112,191.8c0.1,0.5,0.5,0.9,1,0.9c0.6,0,1-0.4,1-1c0-0.1,0-0.1,0-0.2
	L112,191.8z M113,196.6c0.6,0,1-0.4,1-1s-0.4-1-1-1s-1,0.4-1,1C111.9,196.1,112.3,196.6,113,196.6c0,0.1,0.2,0.1,0.3,0L113,196.6z
	 M111,192.7c-0.6,0-1,0.4-1,1s0.4,1,1,1s1-0.4,1-1c0-0.4-0.3-0.8-0.7-1L111,192.7z M114.9,192.7c-0.6,0-1,0.4-1,1s0.4,1,1,1
	s1-0.4,1-1c0-0.4-0.3-0.8-0.7-1L114.9,192.7z M124.7,196.6c0.6,0,1-0.4,1-1s-0.4-1-1-1s-1,0.4-1,1
	C123.6,196.1,124,196.6,124.7,196.6c0,0.1,0.2,0.1,0.3,0L124.7,196.6z M117.4,190.9l-1.3,0.2c-0.1,0.2-0.2,0.4-0.2,0.6
	c0,0.6,0.4,1,1,1s1-0.4,1-1c0-0.3,0-0.5-0.2-0.8L117.4,190.9z M111,198.5c0.6,0,1-0.4,1-1s-0.4-1-1-1s-1,0.4-1,1
	C109.9,198.1,110.3,198.6,111,198.5c0,0.1,0.2,0.1,0.3,0L111,198.5z M120.8,190.7c-0.6,0-1,0.4-1,1s0.4,1,1,1s1-0.4,1-1
	c0-0.4-0.3-0.8-0.7-1L120.8,190.7z M120.8,196.6c0.6,0,1-0.4,1-1s-0.4-1-1-1s-1,0.4-1,1C119.7,196.1,120.1,196.6,120.8,196.6
	c0,0.1,0.2,0.1,0.3,0L120.8,196.6z"/>
<path class="st0" d="M2.8,196.5L2,197.8c-2.3,3.7-2.6,8.4-0.8,12.4c2,4.7,6.4,8,12.1,9.1l40.7,6.1c0.6,0.1,1.1-0.3,1.2-0.8l2.1-7.7
	c0.1-0.5-0.1-0.9-0.6-1.1c0,0-0.1,0-0.1,0l-20.8-3.3c-0.4-0.1-0.8-0.5-0.7-0.9c0-0.1,0-0.1,0-0.2l2.9-8.8c0.2-0.5,0.7-0.9,1.3-0.8
	l20.3,2.9c0.6,0.1,1.1-0.3,1.2-0.8l2.3-7.8c0.1-0.4-0.1-0.9-0.5-1.1c-0.1,0-0.1,0-0.2,0l-40.7-6.2c-1.1-0.2-2.3-0.3-3.4-0.3
	C12.1,188.3,6.3,191.3,2.8,196.5z M22.5,210.3l-7.4-1.2c-2.2-0.4-3.8-1.5-4.5-3c-0.4-0.9-0.4-1.9,0-2.8l0.1-0.1
	c1.8-3.8,5.6-4.4,7.6-4.4c0.6,0,1.1,0.1,1.7,0.1l5.9,0.8c0.4,0,0.8,0.4,0.7,0.9c0,0.1,0,0.1,0,0.2l-2.9,8.6
	C23.5,210.1,23,210.4,22.5,210.3L22.5,210.3z"/>
<path class="st0" d="M66.3,76.3c-16.4-0.5-29.8,9.4-30.2,22.2c-0.1,5.2,1.8,10.2,5.4,14c5.4,6,14.1,9.8,23.4,10h1.2h0.2
	c15.8-0.1,28.5-9.8,28.8-22.2c0.1-5.2-1.8-10.2-5.4-14C84.3,80.3,75.6,76.6,66.3,76.3z M65.3,111.3c-6.2-0.2-12-2.6-15.3-6.3
	c-1.6-1.7-2.5-3.9-2.5-6.2c0.2-6.2,8.1-11.3,17.6-11.4H66c6.2,0.2,12,2.6,15.3,6.3c1.6,1.7,2.5,3.9,2.5,6.2
	C83.6,106.4,75.2,111.6,65.3,111.3L65.3,111.3z"/>
<path class="st0" d="M20.3,151c-0.6-0.1-1.1,0.3-1.3,0.8l-3.1,8.6c-0.2,0.4,0,0.9,0.5,1c0.1,0,0.1,0,0.2,0l40.8,5.4
	c2.1,0.4,3.7,1.4,4.3,2.9c0.4,0.8,0.4,1.7,0,2.5l0,0c-1.5,3.9-5.8,4.5-7.5,4.4c-0.6,0-1.1-0.1-1.7-0.1l-38.8-5.6
	c-0.6-0.1-1.1,0.3-1.3,0.8L9.6,180c-0.2,0.4,0.1,0.9,0.5,1c0.1,0,0.1,0,0.2,0l40.6,6.2c1.1,0.2,2.2,0.3,3.3,0.3
	c6.4,0.2,12.4-2.9,15.8-8.2l0.9-1.3c2.3-3.8,2.6-8.6,0.8-12.6c-2.1-4.8-6.6-8.1-12.3-9.2L20.3,151z"/>
<path class="st0" d="M120.9,9.6l2.3-7.6c0.2-0.4,0-0.8-0.4-0.9c-0.1,0-0.2-0.1-0.3-0.1L82.1,0c-7.8-0.4-14.6,3.4-17.7,9.7L63.6,11
	c-1.8,3.9-1.6,8.5,0.6,12.2c2.5,4.4,7.2,7.2,12.8,7.6l36.5,1.5c0.6,0,1.1-0.4,1.3-0.9l2.3-7.9c0.1-0.4,0-0.8-0.4-0.9
	c-0.1,0-0.2-0.1-0.3-0.1l-19.1-0.8c-0.4,0-0.7-0.3-0.7-0.6c0-0.1,0-0.2,0.1-0.4l3.4-9.6c0.2-0.5,0.7-0.9,1.3-0.9l18.3,0.3
	C120.2,10.5,120.7,10.2,120.9,9.6z M83.8,21.2L77.7,21c-2.3-0.2-4.1-1.1-5-2.6c-0.6-0.9-0.7-2-0.2-3c1.5-4.1,5.6-5.5,8.7-5.4h0.4
	l6.6,0.1c0.4,0,0.7,0.2,0.7,0.6c0,0.1,0,0.3-0.1,0.4l-3.7,9.4C84.9,20.9,84.4,21.2,83.8,21.2z"/>
<path class="st0" d="M55.6,44.8l27.2,9.3c0.5,0.2,0.5,0.4-0.1,0.4L50.1,58c-0.6,0.1-1.1,0.5-1.3,1l-3.6,9.6c-0.1,0.4,0,0.8,0.4,0.9
	c0.1,0,0.1,0,0.2,0.1l54.4,6.1h0.1c0.2-0.3,0.3-0.6,0.4-0.9l2.4-7.5c0.1-0.4-0.1-0.8-0.5-1c-0.1,0-0.1,0-0.2,0l-23.7-2.2
	c-0.5,0-0.5-0.1,0-0.2l25.4-2.7c0.6-0.1,1.1-0.5,1.3-1l1.9-6.2c0.1-0.5-0.1-1.1-0.7-1.2L84.4,46c-0.5-0.2-0.5-0.2,0-0.2l24,1.4
	c0.6,0,1.1-0.3,1.3-0.9l2.3-7.5c0.1-0.4-0.1-0.8-0.4-1c-0.1,0-0.2,0-0.3,0l-52-2.8c-0.6,0-1.1,0.3-1.3,0.9L55,43.5
	C54.8,44.1,55.1,44.6,55.6,44.8z"/>
<path class="st0" d="M42.4,119.2l-9.8-1.4c-0.6,0-1.1,0.3-1.3,0.8L22,145.3c-0.1,0.4,0.1,0.8,0.5,1c0.1,0,0.1,0,0.2,0l9.6,1.1
	c0.6,0,1.1-0.3,1.3-0.8l2.2-6.2c0.2-0.5,0.7-0.9,1.3-0.8l41,4.3c0.6,0,1.1-0.3,1.3-0.8l3-9.2c0.1-0.4-0.1-0.8-0.5-1
	c-0.1,0-0.1,0-0.2,0l-40.6-4.5c-0.4,0-0.7-0.4-0.7-0.8c0-0.1,0-0.1,0-0.2l2.5-7.1c0.2-0.4,0.1-0.8-0.3-1
	C42.6,119.2,42.5,119.2,42.4,119.2z"/>
</svg>
