<?xml version="1.0" encoding="utf-8"?>
<!-- Generator: Adobe Illustrator 16.2.1, SVG Export Plug-In . SVG Version: 6.00 Build 0)  -->
<!DOCTYPE svg PUBLIC "-//W3C//DTD SVG 1.1//EN" "http://www.w3.org/Graphics/SVG/1.1/DTD/svg11.dtd">
<svg version="1.1" id="Layer_1" xmlns="http://www.w3.org/2000/svg" xmlns:xlink="http://www.w3.org/1999/xlink" x="0px" y="0px"
	 width="120px" height="120px" viewBox="0 0 120 120" enable-background="new 0 0 120 120" xml:space="preserve">
<path display="none" fill="#6B326E" stroke="#6B326E" stroke-width="0.1875" stroke-linejoin="round" d="M82.607,98.733
	c0.108,0,0.203-0.041,0.285-0.101l-0.68-0.102C82.305,98.65,82.444,98.733,82.607,98.733z"/>
<path display="none" fill="#6B326E" stroke="#6B326E" stroke-width="0.1875" stroke-linejoin="round" d="M78.564,98.733
	c0.279,0,0.505-0.226,0.505-0.505c0-0.064-0.016-0.123-0.036-0.179l-0.86-0.129c-0.067,0.086-0.114,0.188-0.114,0.308
	C78.059,98.508,78.285,98.733,78.564,98.733z"/>
<path display="none" fill="#6B326E" stroke="#6B326E" stroke-width="0.1875" stroke-linejoin="round" d="M80.585,98.733
	c0.234,0,0.423-0.161,0.48-0.375l-0.981-0.148c0,0.006-0.003,0.012-0.003,0.019C80.081,98.508,80.307,98.733,80.585,98.733z"/>
<path display="none" fill="#6B326E" stroke="#6B326E" stroke-width="0.1875" stroke-linejoin="round" d="M74.521,98.733
	c0.279,0,0.505-0.226,0.505-0.505c0-0.053-0.015-0.102-0.029-0.15l-0.979,0.168C74.029,98.516,74.248,98.733,74.521,98.733z"/>
<path display="none" fill="#6B326E" stroke="#6B326E" stroke-width="0.1875" stroke-linejoin="round" d="M76.543,98.733
	c0.279,0,0.506-0.226,0.506-0.505c0-0.199-0.118-0.367-0.286-0.45l-0.582,0.1c-0.088,0.091-0.144,0.214-0.144,0.351
	C76.037,98.508,76.263,98.733,76.543,98.733z"/>
<path display="none" fill="#6B326E" stroke="#6B326E" stroke-width="0.1875" stroke-linejoin="round" d="M72.499,98.733
	c0.211,0,0.391-0.128,0.467-0.309l-0.836,0.143C72.223,98.668,72.353,98.733,72.499,98.733z"/>
<path display="none" fill="#6B326E" d="M73.352,58.544c0.893,0.261,1.841,0.436,2.828,0.496c5.16,0.318,9.538-2.401,9.658-5.921
	c0.121-3.52-4.105-6.725-9.205-7c-0.141-0.008-0.281-0.013-0.421-0.016c-4.928-0.114-9.013,2.547-9.137,5.933
	c-0.059,1.587,0.776,3.112,2.174,4.336c0.105,0.092,0.249,0.067,0.315-0.051l1.363-2.406c0.065-0.118,0.227-0.173,0.355-0.121
	l3.443,1.375c0.13,0.052,0.181,0.189,0.111,0.308l-1.607,2.781C73.163,58.375,73.217,58.504,73.352,58.544z"/>
<path display="none" fill="#6B326E" stroke="#6B326E" stroke-width="0.1875" stroke-linejoin="round" d="M114.213,103.141
	L72.648,1.876c0,0-0.028-0.067-0.063-0.151c-0.034-0.083-0.103-0.152-0.151-0.151c-0.05,0-0.121,0.106-0.158,0.236l-6.11,21.094
	c-0.039,0.13,0.043,0.237,0.181,0.237l6.922,0.53c0.138,0.001,0.213-0.103,0.165-0.23l-2.228-5.674
	c-0.047-0.127,0.026-0.229,0.165-0.228l4.068,0.245c0.139,0.001,0.291,0.107,0.341,0.234l5.704,14.612
	c0.051,0.129-0.023,0.229-0.164,0.222L77.11,32.57c-0.141-0.006-0.291-0.115-0.34-0.244l-1.688-4.458
	c-0.048-0.128-0.2-0.234-0.339-0.235l-9.504-0.564c-0.138-0.001-0.279,0.104-0.317,0.234l-2.122,7.192
	c-0.038,0.13,0.042,0.243,0.18,0.251l19.457,1.224c0.141,0.008,0.287,0.123,0.327,0.255l1.236,4.097
	c0.04,0.133-0.041,0.232-0.181,0.223l-22.104-1.443c-0.137-0.009-0.277,0.09-0.315,0.22l-3.372,11.24
	c-0.037,0.13-0.025,0.339,0.028,0.465l18.558,46.397c0,0,0.025,0.062,0.058,0.14c0.033,0.077,0.172,0.157,0.312,0.179l6.606,0.998
	c-0.267,0.016-0.479,0.23-0.479,0.5c0,0.279,0.226,0.505,0.506,0.505c0.278,0,0.505-0.226,0.505-0.505
	c0-0.212-0.129-0.391-0.314-0.467l-0.159-0.024l3.514,0.531c0.022,0.26,0.231,0.465,0.498,0.465c0.213,0,0.394-0.132,0.468-0.319
	l-0.645-0.097l2.337,0.353l-0.14-0.021l-0.339-0.051c0.09,0.083,0.208,0.136,0.339,0.136c0.079,0,0.149-0.021,0.216-0.052
	l2.355,0.356c-0.027,0.062-0.044,0.13-0.044,0.202c0,0.278,0.226,0.504,0.505,0.504c0.28,0,0.506-0.226,0.506-0.504
	c0-0.021-0.009-0.038-0.011-0.059l-0.785-0.118l4.299,0.649l-0.193-0.029c0.069,0.036,0.145,0.061,0.228,0.061
	c0.027,0,0.05-0.011,0.074-0.015l7.677,1.16c-0.104,0.092-0.17,0.223-0.17,0.372c0,0.278,0.226,0.505,0.505,0.505
	c0.28,0,0.506-0.227,0.506-0.505c0-0.096-0.034-0.181-0.08-0.257l-0.645-0.098l3.814,0.576c0.082,0.166,0.249,0.283,0.447,0.283
	c0.145,0,0.274-0.062,0.366-0.16l-0.733-0.111l3.018,0.456c-0.073,0.088-0.124,0.196-0.124,0.32c0,0.267,0.207,0.479,0.469,0.499
	l0.267-0.054c0.161-0.084,0.276-0.25,0.276-0.445c0-0.067-0.014-0.132-0.039-0.191l-0.46-0.07l2.127,0.321
	C114.197,103.366,114.27,103.275,114.213,103.141z M69.153,64.807l-3.322-1.384c-0.13-0.054-0.179-0.192-0.112-0.311l1.637-2.892
	c0.068-0.118,0.031-0.282-0.08-0.368c-2.681-2.074-4.313-4.955-4.199-8.041c0.212-5.724,6.267-10.054,13.704-9.664
	c7.426,0.385,13.351,5.408,13.155,11.201c-0.191,5.671-6.079,9.937-13.354,9.705c-0.182-0.006-0.365-0.015-0.55-0.025
	c-1.668-0.105-3.253-0.447-4.708-0.975c-0.131-0.047-0.292,0.008-0.36,0.126l-1.452,2.512C69.442,64.809,69.283,64.86,69.153,64.807
	z M71.329,74.636l-0.301-0.715c-0.708-1.871-0.42-3.98,0.771-5.646c1.374-1.917,3.728-2.966,6.464-2.875l0.074,0.003l16.316,1.39
	c0.143,0.013,0.306,0.127,0.363,0.257l1.612,3.634c0.057,0.13-0.012,0.226-0.155,0.214l-18.263-1.493
	c-1.385-0.042-2.478,0.401-3.087,1.25c-0.428,0.597-0.558,1.312-0.326,1.936l0.3,0.706c0.768,2.018,2.876,2.85,4.596,2.955
	l19.265,1.823c0.144,0.014,0.301,0.133,0.354,0.265l1.424,3.646c0.052,0.134-0.023,0.229-0.166,0.217l-21.026-1.938
	C75.729,80.021,72.573,77.862,71.329,74.636z M107.55,98.897l-4-0.531c-0.145-0.02-0.307-0.143-0.361-0.276l-3.492-8.127
	c-0.055-0.133-0.217-0.252-0.36-0.268l-6.362-0.667c-0.143-0.016-0.218,0.081-0.167,0.214l2.872,7.571
	c0.051,0.133-0.024,0.227-0.166,0.208L91.4,96.479c-0.14-0.019-0.297-0.143-0.347-0.275l-2.774-7.436
	c-0.05-0.134-0.205-0.253-0.348-0.269l-6.091-0.74c-0.142-0.015-0.216,0.081-0.167,0.214l2.612,7.084
	c0.05,0.134-0.025,0.227-0.167,0.206l-4.12-0.574c-0.141-0.019-0.295-0.142-0.346-0.274l-4.297-11.121
	c-0.05-0.131,0.022-0.226,0.162-0.212l27.024,2.668c0.145,0.016,0.302,0.328,0.353,0.463l4.825,12.477
	C107.772,98.824,107.696,98.917,107.55,98.897z M45.407,104.838c-0.061-0.024-0.127-0.038-0.197-0.038
	c-0.069,0-0.136,0.014-0.196,0.038c-0.181,0.077-0.309,0.257-0.309,0.466l0,0c0,0.21,0.127,0.39,0.309,0.467
	c0.061,0.025,0.127,0.04,0.196,0.04c0.07,0,0.137-0.015,0.197-0.04c0.181-0.077,0.308-0.257,0.308-0.467l0,0
	C45.715,105.095,45.588,104.915,45.407,104.838z M45.21,107.832c0.279,0,0.505-0.227,0.505-0.506s-0.226-0.506-0.505-0.506
	c-0.278,0-0.505,0.227-0.505,0.506S44.932,107.832,45.21,107.832z M44.199,105.811c-0.279,0-0.505,0.226-0.505,0.505
	s0.226,0.505,0.505,0.505c0.28,0,0.506-0.226,0.506-0.505S44.479,105.811,44.199,105.811z M46.221,105.811
	c-0.279,0-0.506,0.226-0.506,0.505s0.227,0.505,0.506,0.505s0.505-0.226,0.505-0.505S46.5,105.811,46.221,105.811z M44.199,108.842
	c0.28,0,0.506-0.226,0.506-0.505s-0.226-0.505-0.506-0.505c-0.279,0-0.505,0.226-0.505,0.505S43.92,108.842,44.199,108.842z
	 M43.189,106.82c-0.28,0-0.506,0.227-0.506,0.506s0.226,0.506,0.506,0.506c0.278,0,0.505-0.227,0.505-0.506
	S43.467,106.82,43.189,106.82z M49.45,104.838c-0.06-0.024-0.127-0.038-0.197-0.038c-0.069,0-0.136,0.014-0.196,0.038
	c-0.182,0.077-0.309,0.257-0.309,0.466l0,0c0,0.21,0.127,0.39,0.309,0.467c0.061,0.025,0.127,0.04,0.196,0.04
	c0.07,0,0.137-0.015,0.197-0.04c0.181-0.077,0.308-0.257,0.308-0.467l0,0C49.758,105.095,49.631,104.915,49.45,104.838z
	 M49.253,107.832c0.279,0,0.505-0.227,0.505-0.506s-0.226-0.506-0.505-0.506c-0.279,0-0.505,0.227-0.505,0.506
	S48.974,107.832,49.253,107.832z M48.242,105.811c-0.279,0-0.505,0.226-0.505,0.505s0.226,0.505,0.505,0.505
	c0.28,0,0.506-0.226,0.506-0.505S48.522,105.811,48.242,105.811z M46.221,114.908c0.279,0,0.505-0.227,0.505-0.506
	s-0.226-0.505-0.505-0.505s-0.506,0.226-0.506,0.505S45.942,114.908,46.221,114.908z M47.232,107.832
	c0.278,0,0.505-0.227,0.505-0.506s-0.227-0.506-0.505-0.506c-0.281,0-0.506,0.227-0.506,0.506S46.952,107.832,47.232,107.832z
	 M53.296,106.82c-0.278,0-0.505,0.227-0.505,0.506s0.227,0.506,0.505,0.506c0.279,0,0.505-0.227,0.505-0.506
	S53.575,106.82,53.296,106.82z M43.189,115.919c0.278,0,0.505-0.227,0.505-0.506s-0.227-0.505-0.505-0.505
	c-0.28,0-0.506,0.226-0.506,0.505S42.909,115.919,43.189,115.919z M44.199,114.908c0.28,0,0.506-0.227,0.506-0.506
	s-0.226-0.505-0.506-0.505c-0.279,0-0.505,0.226-0.505,0.505S43.92,114.908,44.199,114.908z M43.694,113.392
	c0-0.279-0.227-0.506-0.505-0.506c-0.279,0-0.505,0.227-0.506,0.506l0,0c0.001,0.28,0.227,0.506,0.506,0.506
	C43.467,113.897,43.694,113.672,43.694,113.392L43.694,113.392z M44.199,111.876c-0.279,0-0.505,0.226-0.505,0.504
	c0,0.279,0.226,0.506,0.505,0.506c0.28,0,0.506-0.227,0.506-0.506C44.705,112.102,44.479,111.876,44.199,111.876z M45.21,113.897
	c0.279,0,0.505-0.226,0.505-0.506l0,0c0-0.279-0.226-0.506-0.505-0.506c-0.278,0-0.505,0.227-0.505,0.506l0,0
	C44.705,113.672,44.932,113.897,45.21,113.897z M42.178,111.876c-0.279,0-0.506,0.226-0.506,0.504c0,0.279,0.228,0.506,0.506,0.506
	c0.279,0,0.505-0.227,0.505-0.506C42.683,112.102,42.458,111.876,42.178,111.876z M42.178,110.864c0.279,0,0.505-0.227,0.505-0.505
	c0-0.279-0.226-0.506-0.505-0.506c-0.279,0-0.506,0.227-0.506,0.506C41.672,110.638,41.899,110.864,42.178,110.864z M50.264,106.82
	c0.28,0,0.505-0.226,0.505-0.505s-0.226-0.505-0.505-0.505c-0.279,0-0.506,0.226-0.506,0.505S49.985,106.82,50.264,106.82z
	 M42.178,114.908c0.279,0,0.505-0.227,0.505-0.506s-0.226-0.505-0.505-0.505c-0.279,0-0.506,0.226-0.506,0.505
	S41.899,114.908,42.178,114.908z M41.167,108.842c-0.278,0-0.504,0.226-0.504,0.506s0.226,0.506,0.504,0.506
	c0.279,0,0.505-0.226,0.505-0.506S41.446,108.842,41.167,108.842z M41.167,111.876c0.279,0,0.505-0.228,0.505-0.507
	c0-0.278-0.226-0.505-0.505-0.505c-0.278,0-0.504,0.227-0.504,0.505C40.663,111.648,40.889,111.876,41.167,111.876z M47.429,104.838
	c-0.061-0.024-0.127-0.038-0.196-0.038c-0.07,0-0.137,0.014-0.197,0.038c-0.182,0.077-0.309,0.257-0.309,0.466l0,0
	c0,0.21,0.127,0.39,0.309,0.467c0.06,0.025,0.127,0.04,0.197,0.04c0.069,0,0.136-0.015,0.196-0.04
	c0.181-0.077,0.309-0.257,0.309-0.467l0,0C47.737,105.095,47.61,104.915,47.429,104.838z M59.361,107.832
	c0.278,0,0.505-0.227,0.505-0.506s-0.227-0.506-0.505-0.506c-0.281,0-0.506,0.227-0.506,0.506S59.08,107.832,59.361,107.832z
	 M58.35,105.811c-0.279,0-0.506,0.226-0.506,0.505s0.227,0.505,0.506,0.505c0.279,0,0.504-0.226,0.504-0.505
	S58.629,105.811,58.35,105.811z M58.35,108.842c0.279,0,0.504-0.226,0.504-0.505s-0.226-0.505-0.504-0.505
	c-0.279,0-0.506,0.226-0.506,0.505S58.071,108.842,58.35,108.842z M60.371,108.842c0.28,0,0.506-0.226,0.506-0.505
	s-0.226-0.505-0.506-0.505c-0.279,0-0.505,0.226-0.505,0.505S60.091,108.842,60.371,108.842z M57.339,106.82
	c-0.279,0-0.505,0.227-0.505,0.506s0.226,0.506,0.505,0.506c0.279,0,0.505-0.227,0.505-0.506S57.618,106.82,57.339,106.82z
	 M59.558,104.838c-0.061-0.024-0.127-0.038-0.197-0.038s-0.137,0.014-0.197,0.038c-0.182,0.077-0.309,0.257-0.31,0.466l0,0
	c0.001,0.21,0.127,0.39,0.31,0.467c0.06,0.025,0.127,0.04,0.197,0.04s0.136-0.015,0.197-0.04c0.181-0.077,0.308-0.257,0.308-0.467
	l0,0C59.866,105.095,59.739,104.915,59.558,104.838z M55.318,106.82c-0.28,0-0.506,0.227-0.506,0.506s0.226,0.506,0.506,0.506
	c0.278,0,0.505-0.227,0.505-0.506S55.596,106.82,55.318,106.82z M57.339,109.854c0.279,0,0.505-0.226,0.505-0.506
	s-0.226-0.506-0.505-0.506c-0.279,0-0.505,0.226-0.505,0.506S57.06,109.854,57.339,109.854z M55.318,109.854
	c0.278,0,0.505-0.226,0.505-0.506s-0.227-0.506-0.505-0.506c-0.28,0-0.506,0.226-0.506,0.506S55.038,109.854,55.318,109.854z
	 M54.307,108.842c0.279,0,0.505-0.226,0.505-0.505s-0.226-0.505-0.505-0.505s-0.506,0.226-0.506,0.505
	S54.028,108.842,54.307,108.842z M58.35,103.788c-0.279,0-0.506,0.227-0.506,0.505c0,0.279,0.227,0.507,0.506,0.507
	c0.279,0,0.504-0.228,0.504-0.507C58.854,104.015,58.629,103.788,58.35,103.788z M56.328,108.842c0.279,0,0.506-0.226,0.506-0.505
	s-0.227-0.505-0.506-0.505s-0.505,0.226-0.505,0.505S56.049,108.842,56.328,108.842z M56.834,105.304c0,0.21,0.127,0.39,0.309,0.467
	c0.061,0.025,0.127,0.04,0.196,0.04c0.07,0,0.137-0.015,0.197-0.04c0.181-0.077,0.308-0.257,0.308-0.467l0,0
	c0-0.209-0.127-0.389-0.308-0.466c-0.06-0.024-0.127-0.038-0.197-0.038c-0.069,0-0.136,0.014-0.196,0.038
	C56.961,104.915,56.834,105.095,56.834,105.304L56.834,105.304z M54.307,106.82c0.279,0,0.505-0.226,0.505-0.505
	s-0.226-0.505-0.505-0.505s-0.506,0.226-0.506,0.505S54.028,106.82,54.307,106.82z M52.285,103.788
	c-0.279,0-0.505,0.227-0.505,0.505c0,0.279,0.226,0.507,0.505,0.507c0.28,0,0.506-0.228,0.506-0.507
	C52.791,104.015,52.564,103.788,52.285,103.788z M53.493,104.838c-0.061-0.024-0.127-0.038-0.197-0.038
	c-0.069,0-0.136,0.014-0.196,0.038c-0.181,0.077-0.309,0.257-0.309,0.466l0,0c0,0.21,0.127,0.39,0.309,0.467
	c0.06,0.025,0.127,0.04,0.196,0.04c0.07,0,0.136-0.015,0.197-0.04c0.181-0.077,0.308-0.257,0.308-0.467l0,0
	C53.801,105.095,53.674,104.915,53.493,104.838z M51.472,104.838c-0.061-0.024-0.126-0.038-0.197-0.038
	c-0.07,0-0.137,0.014-0.197,0.038c-0.182,0.077-0.309,0.257-0.309,0.466l0,0c0,0.21,0.127,0.39,0.309,0.467
	c0.06,0.025,0.127,0.04,0.197,0.04c0.07,0,0.136-0.015,0.197-0.04c0.181-0.077,0.308-0.257,0.308-0.467l0,0
	C51.78,105.095,51.653,104.915,51.472,104.838z M57.339,102.777c-0.279,0-0.505,0.227-0.505,0.505c0,0.279,0.226,0.506,0.505,0.506
	c0.279,0,0.505-0.227,0.505-0.506C57.844,103.004,57.618,102.777,57.339,102.777z M52.285,106.82c0.28,0,0.506-0.226,0.506-0.505
	s-0.227-0.505-0.506-0.505c-0.279,0-0.505,0.226-0.505,0.505S52.005,106.82,52.285,106.82z M54.307,103.788
	c-0.279,0-0.506,0.227-0.506,0.505c0,0.279,0.227,0.507,0.506,0.507s0.505-0.228,0.505-0.507
	C54.812,104.015,54.586,103.788,54.307,103.788z M56.328,103.788c-0.279,0-0.505,0.227-0.505,0.505c0,0.279,0.226,0.507,0.505,0.507
	s0.506-0.228,0.506-0.507C56.834,104.015,56.607,103.788,56.328,103.788z M50.264,103.788c-0.279,0-0.506,0.227-0.506,0.505
	c0,0.279,0.227,0.507,0.506,0.507c0.28,0,0.505-0.228,0.505-0.507C50.769,104.015,50.543,103.788,50.264,103.788z M56.328,106.82
	c0.279,0,0.506-0.226,0.506-0.505s-0.227-0.505-0.506-0.505s-0.505,0.226-0.505,0.505S56.049,106.82,56.328,106.82z M55.514,104.838
	c-0.061-0.024-0.126-0.038-0.196-0.038s-0.137,0.014-0.197,0.038c-0.182,0.077-0.309,0.257-0.309,0.466l0,0
	c0,0.21,0.127,0.39,0.309,0.467c0.06,0.025,0.127,0.04,0.197,0.04s0.136-0.015,0.196-0.04c0.182-0.077,0.309-0.257,0.309-0.467l0,0
	C55.823,105.095,55.696,104.915,55.514,104.838z M42.178,108.842c0.279,0,0.505-0.226,0.505-0.505s-0.226-0.505-0.505-0.505
	c-0.279,0-0.506,0.226-0.506,0.505S41.899,108.842,42.178,108.842z M67.447,109.854c0.277,0,0.504-0.226,0.504-0.506
	s-0.227-0.506-0.504-0.506c-0.281,0-0.507,0.226-0.507,0.506S67.166,109.854,67.447,109.854z M66.436,107.832
	c-0.279,0-0.506,0.226-0.506,0.505s0.227,0.505,0.506,0.505s0.505-0.226,0.505-0.505S66.715,107.832,66.436,107.832z
	 M68.456,110.864c0.28,0,0.507-0.227,0.507-0.505c0-0.279-0.227-0.506-0.507-0.506c-0.279,0-0.505,0.227-0.505,0.506
	C67.951,110.638,68.177,110.864,68.456,110.864z M69.468,109.854c0.279,0,0.505-0.226,0.505-0.506s-0.226-0.506-0.505-0.506
	s-0.505,0.226-0.505,0.506S69.188,109.854,69.468,109.854z M68.456,107.832c-0.279,0-0.505,0.226-0.505,0.505
	s0.226,0.505,0.505,0.505c0.28,0,0.507-0.226,0.507-0.505S68.736,107.832,68.456,107.832z M66.436,110.864
	c0.279,0,0.505-0.227,0.505-0.505c0-0.279-0.226-0.506-0.505-0.506s-0.506,0.227-0.506,0.506
	C65.93,110.638,66.156,110.864,66.436,110.864z M62.393,110.864c0.279,0,0.505-0.227,0.505-0.505c0-0.279-0.226-0.506-0.505-0.506
	s-0.506,0.227-0.506,0.506C61.887,110.638,62.113,110.864,62.393,110.864z M65.425,109.854c0.279,0,0.505-0.226,0.505-0.506
	s-0.226-0.506-0.505-0.506c-0.278,0-0.505,0.226-0.505,0.506S65.146,109.854,65.425,109.854z M63.403,108.842
	c-0.28,0-0.506,0.226-0.506,0.506s0.226,0.506,0.506,0.506c0.278,0,0.506-0.226,0.506-0.506S63.682,108.842,63.403,108.842z
	 M63.403,111.876c0.278,0,0.506-0.228,0.506-0.507c0-0.278-0.228-0.505-0.506-0.505c-0.28,0-0.506,0.227-0.506,0.505
	C62.897,111.648,63.123,111.876,63.403,111.876z M46.221,111.876c-0.279,0-0.506,0.226-0.506,0.504c0,0.279,0.227,0.506,0.506,0.506
	s0.505-0.227,0.505-0.506C46.726,112.102,46.5,111.876,46.221,111.876z M69.468,106.82c-0.279,0-0.505,0.227-0.505,0.506
	s0.226,0.506,0.505,0.506s0.505-0.227,0.505-0.506S69.747,106.82,69.468,106.82z M64.414,110.864c0.279,0,0.506-0.227,0.506-0.505
	c0-0.279-0.227-0.506-0.506-0.506s-0.505,0.227-0.505,0.506C63.909,110.638,64.135,110.864,64.414,110.864z M75.532,107.832
	c0.278,0,0.505-0.227,0.505-0.506s-0.227-0.506-0.505-0.506c-0.28,0-0.506,0.227-0.506,0.506S75.252,107.832,75.532,107.832z
	 M74.521,105.811c-0.279,0-0.507,0.226-0.507,0.505s0.228,0.505,0.507,0.505s0.505-0.226,0.505-0.505S74.801,105.811,74.521,105.811
	z M74.521,108.842c0.279,0,0.505-0.226,0.505-0.505s-0.226-0.505-0.505-0.505s-0.507,0.226-0.507,0.505
	S74.242,108.842,74.521,108.842z M76.543,105.811c-0.28,0-0.506,0.226-0.506,0.505s0.226,0.505,0.506,0.505
	c0.279,0,0.506-0.226,0.506-0.505S76.822,105.811,76.543,105.811z M76.543,108.842c0.279,0,0.506-0.226,0.506-0.505
	s-0.227-0.505-0.506-0.505c-0.28,0-0.506,0.226-0.506,0.505S76.263,108.842,76.543,108.842z M70.479,108.842
	c0.279,0,0.505-0.226,0.505-0.505s-0.226-0.505-0.505-0.505s-0.506,0.226-0.506,0.505S70.199,108.842,70.479,108.842z
	 M71.489,109.854c0.278,0,0.505-0.226,0.505-0.506s-0.227-0.506-0.505-0.506c-0.28,0-0.506,0.226-0.506,0.506
	S71.209,109.854,71.489,109.854z M71.489,106.82c-0.28,0-0.506,0.227-0.506,0.506s0.226,0.506,0.506,0.506
	c0.278,0,0.505-0.227,0.505-0.506S71.768,106.82,71.489,106.82z M73.511,106.82c-0.279,0-0.506,0.227-0.506,0.506
	s0.227,0.506,0.506,0.506c0.278,0,0.504-0.227,0.504-0.506S73.789,106.82,73.511,106.82z M72.499,108.842
	c0.28,0,0.506-0.226,0.506-0.505s-0.226-0.505-0.506-0.505c-0.279,0-0.505,0.226-0.505,0.505S72.22,108.842,72.499,108.842z
	 M73.511,109.854c0.278,0,0.504-0.226,0.504-0.506s-0.226-0.506-0.504-0.506c-0.279,0-0.506,0.226-0.506,0.506
	S73.231,109.854,73.511,109.854z M64.414,107.832c-0.279,0-0.505,0.226-0.505,0.505s0.226,0.505,0.505,0.505
	s0.506-0.226,0.506-0.505S64.693,107.832,64.414,107.832z M50.264,112.886c0.28,0,0.505-0.227,0.505-0.506
	c0-0.278-0.226-0.504-0.505-0.504c-0.279,0-0.506,0.226-0.506,0.504C49.758,112.659,49.985,112.886,50.264,112.886z M52.285,112.886
	c0.28,0,0.506-0.227,0.506-0.506c0-0.278-0.227-0.504-0.506-0.504c-0.279,0-0.505,0.226-0.505,0.504
	C51.78,112.659,52.005,112.886,52.285,112.886z M51.275,113.897c0.278,0,0.505-0.226,0.505-0.506l0,0
	c0-0.279-0.227-0.506-0.505-0.506c-0.28,0-0.505,0.227-0.506,0.506l0,0C50.77,113.672,50.995,113.897,51.275,113.897z
	 M51.275,110.864c-0.28,0-0.506,0.227-0.506,0.505c0,0.279,0.226,0.507,0.506,0.507c0.278,0,0.505-0.228,0.505-0.507
	C51.78,111.091,51.553,110.864,51.275,110.864z M53.296,110.864c-0.278,0-0.505,0.227-0.505,0.505c0,0.279,0.227,0.507,0.505,0.507
	c0.279,0,0.505-0.228,0.505-0.507C53.801,111.091,53.575,110.864,53.296,110.864z M53.296,113.897c0.279,0,0.505-0.226,0.505-0.506
	l0,0c0-0.279-0.226-0.506-0.505-0.506c-0.278,0-0.505,0.227-0.505,0.506l0,0C52.791,113.672,53.018,113.897,53.296,113.897z
	 M49.253,110.864c-0.279,0-0.505,0.227-0.505,0.505c0,0.279,0.226,0.507,0.505,0.507c0.279,0,0.505-0.228,0.505-0.507
	C49.758,111.091,49.532,110.864,49.253,110.864z M47.232,113.897c0.278,0,0.505-0.226,0.505-0.506l0,0
	c0-0.279-0.227-0.506-0.505-0.506c-0.28,0-0.506,0.227-0.506,0.506l0,0C46.727,113.672,46.952,113.897,47.232,113.897z
	 M48.242,114.908c0.28,0,0.506-0.227,0.506-0.506s-0.226-0.505-0.506-0.505c-0.279,0-0.505,0.226-0.505,0.505
	S47.963,114.908,48.242,114.908z M61.382,108.842c-0.278,0-0.505,0.226-0.505,0.506s0.227,0.506,0.505,0.506
	c0.279,0,0.505-0.226,0.505-0.506S61.661,108.842,61.382,108.842z M54.307,112.886c0.279,0,0.505-0.227,0.505-0.506
	c0-0.278-0.226-0.504-0.505-0.504s-0.506,0.226-0.506,0.504C53.801,112.659,54.028,112.886,54.307,112.886z M49.253,113.897
	c0.279,0,0.505-0.226,0.505-0.506l0,0c0-0.279-0.226-0.506-0.505-0.506c-0.278,0-0.505,0.227-0.505,0.506l0,0
	C48.748,113.672,48.975,113.897,49.253,113.897z M48.242,111.876c-0.279,0-0.505,0.226-0.505,0.504c0,0.279,0.226,0.506,0.505,0.506
	c0.28,0,0.506-0.227,0.506-0.506C48.748,112.102,48.522,111.876,48.242,111.876z M59.361,108.842c-0.281,0-0.506,0.226-0.506,0.506
	s0.226,0.506,0.506,0.506c0.278,0,0.505-0.226,0.505-0.506S59.639,108.842,59.361,108.842z M58.35,109.854
	c-0.279,0-0.506,0.227-0.506,0.506c0,0.278,0.227,0.505,0.506,0.505c0.279,0,0.504-0.227,0.504-0.505
	C58.854,110.08,58.629,109.854,58.35,109.854z M59.361,111.876c0.278,0,0.505-0.228,0.505-0.507c0-0.278-0.227-0.505-0.505-0.505
	c-0.281,0-0.506,0.227-0.506,0.505C58.854,111.648,59.08,111.876,59.361,111.876z M60.371,110.864c0.28,0,0.506-0.227,0.506-0.505
	c0-0.279-0.226-0.506-0.506-0.506c-0.279,0-0.505,0.227-0.505,0.506C59.866,110.638,60.091,110.864,60.371,110.864z M61.382,111.876
	c0.279,0,0.505-0.228,0.505-0.507c0-0.278-0.226-0.505-0.505-0.505c-0.278,0-0.505,0.227-0.505,0.505
	C60.877,111.648,61.104,111.876,61.382,111.876z M57.339,111.876c0.279,0,0.505-0.228,0.505-0.507c0-0.278-0.226-0.505-0.505-0.505
	c-0.279,0-0.505,0.227-0.505,0.505C56.834,111.648,57.06,111.876,57.339,111.876z M56.328,112.886c0.279,0,0.506-0.227,0.506-0.506
	c0-0.278-0.227-0.504-0.506-0.504s-0.505,0.226-0.505,0.504C55.823,112.659,56.049,112.886,56.328,112.886z M55.318,111.876
	c0.278,0,0.505-0.228,0.505-0.507c0-0.278-0.227-0.505-0.505-0.505c-0.28,0-0.506,0.227-0.506,0.505
	C54.812,111.648,55.038,111.876,55.318,111.876z M56.328,109.854c-0.279,0-0.505,0.227-0.505,0.506c0,0.278,0.226,0.505,0.505,0.505
	s0.506-0.227,0.506-0.505C56.834,110.08,56.607,109.854,56.328,109.854z M58.35,112.886c0.279,0,0.504-0.227,0.504-0.506
	c0-0.278-0.226-0.504-0.504-0.504c-0.279,0-0.506,0.226-0.506,0.504C57.844,112.659,58.071,112.886,58.35,112.886z M54.307,109.854
	c-0.279,0-0.506,0.227-0.506,0.506c0,0.278,0.227,0.505,0.506,0.505s0.505-0.227,0.505-0.505
	C54.812,110.08,54.586,109.854,54.307,109.854z M70.479,105.811c-0.279,0-0.506,0.226-0.506,0.505s0.227,0.505,0.506,0.505
	s0.505-0.226,0.505-0.505S70.758,105.811,70.479,105.811z M78.564,104.8c0.279,0,0.505-0.228,0.505-0.507
	c0-0.278-0.226-0.505-0.505-0.505s-0.506,0.227-0.506,0.505C78.059,104.572,78.285,104.8,78.564,104.8z M80.585,101.766
	c-0.278,0-0.504,0.227-0.504,0.507c0,0.278,0.226,0.505,0.504,0.505c0.28,0,0.507-0.227,0.507-0.505
	C81.092,101.992,80.865,101.766,80.585,101.766z M81.596,102.777c-0.278,0-0.504,0.227-0.504,0.505c0,0.279,0.226,0.506,0.504,0.506
	c0.28,0,0.506-0.227,0.506-0.506C82.102,103.004,81.876,102.777,81.596,102.777z M79.575,102.777c-0.28,0-0.506,0.227-0.506,0.505
	c0,0.279,0.226,0.506,0.506,0.506c0.278,0,0.506-0.227,0.506-0.506C80.081,103.004,79.854,102.777,79.575,102.777z M82.607,104.8
	c0.279,0,0.505-0.228,0.505-0.507c0-0.278-0.226-0.505-0.505-0.505s-0.506,0.227-0.506,0.505
	C82.102,104.572,82.328,104.8,82.607,104.8z M78.564,101.766c-0.279,0-0.506,0.227-0.506,0.507c0,0.278,0.227,0.505,0.506,0.505
	s0.505-0.227,0.505-0.505C79.069,101.992,78.844,101.766,78.564,101.766z M80.585,104.8c0.28,0,0.507-0.228,0.507-0.507
	c0-0.278-0.227-0.505-0.507-0.505c-0.278,0-0.504,0.227-0.504,0.505C80.081,104.572,80.307,104.8,80.585,104.8z M41.167,115.919
	c0.279,0,0.505-0.227,0.505-0.506s-0.226-0.505-0.505-0.505c-0.278,0-0.504,0.226-0.504,0.505S40.889,115.919,41.167,115.919z
	 M83.618,103.788c0.278,0,0.505-0.227,0.505-0.506c0-0.278-0.227-0.505-0.505-0.505c-0.28,0-0.506,0.227-0.506,0.505
	C83.112,103.562,83.338,103.788,83.618,103.788z M40.156,112.886c0.28,0,0.506-0.227,0.506-0.506c0-0.278-0.227-0.504-0.506-0.504
	c-0.279,0-0.505,0.226-0.505,0.504C39.651,112.659,39.877,112.886,40.156,112.886z M82.607,101.766
	c-0.279,0-0.506,0.227-0.506,0.507c0,0.278,0.227,0.505,0.506,0.505s0.505-0.227,0.505-0.505
	C83.112,101.992,82.887,101.766,82.607,101.766z M41.672,113.392c0-0.279-0.226-0.506-0.505-0.506c-0.278,0-0.504,0.227-0.504,0.506
	l0,0c0,0.28,0.227,0.506,0.504,0.506C41.446,113.897,41.672,113.672,41.672,113.392L41.672,113.392z M74.521,101.766
	c-0.279,0-0.507,0.227-0.507,0.507c0,0.278,0.228,0.505,0.507,0.505s0.505-0.227,0.505-0.505
	C75.026,101.992,74.801,101.766,74.521,101.766z M73.511,102.777c-0.279,0-0.506,0.227-0.506,0.505c0,0.279,0.227,0.506,0.506,0.506
	c0.278,0,0.504-0.227,0.504-0.506C74.015,103.004,73.789,102.777,73.511,102.777z M74.521,104.8c0.279,0,0.505-0.228,0.505-0.507
	c0-0.278-0.226-0.505-0.505-0.505s-0.507,0.227-0.507,0.505C74.015,104.572,74.242,104.8,74.521,104.8z M73.707,104.838
	c-0.061-0.024-0.127-0.038-0.196-0.038s-0.136,0.014-0.197,0.038c-0.181,0.077-0.309,0.257-0.309,0.466l0,0
	c0,0.21,0.128,0.39,0.309,0.467c0.062,0.025,0.128,0.04,0.197,0.04s0.136-0.015,0.196-0.04c0.181-0.077,0.308-0.257,0.308-0.467l0,0
	C74.015,105.095,73.888,104.915,73.707,104.838z M72.499,101.766c-0.279,0-0.505,0.227-0.505,0.507c0,0.278,0.226,0.505,0.505,0.505
	c0.28,0,0.506-0.227,0.506-0.505C73.005,101.992,72.779,101.766,72.499,101.766z M40.156,114.908c0.28,0,0.506-0.227,0.506-0.506
	s-0.227-0.505-0.506-0.505c-0.279,0-0.505,0.226-0.505,0.505S39.877,114.908,40.156,114.908z M77.751,104.838
	c-0.062-0.024-0.128-0.038-0.198-0.038c-0.069,0-0.135,0.014-0.195,0.038c-0.182,0.077-0.309,0.257-0.309,0.466l0,0
	c0,0.21,0.127,0.39,0.309,0.467c0.061,0.025,0.126,0.04,0.195,0.04c0.07,0,0.137-0.015,0.198-0.04
	c0.181-0.077,0.308-0.257,0.308-0.467l0,0C78.059,105.095,77.932,104.915,77.751,104.838z M75.729,104.838
	c-0.061-0.024-0.127-0.038-0.196-0.038s-0.137,0.014-0.197,0.038c-0.181,0.077-0.309,0.257-0.309,0.466l0,0
	c0,0.21,0.128,0.39,0.309,0.467c0.061,0.025,0.128,0.04,0.197,0.04s0.136-0.015,0.196-0.04c0.182-0.077,0.309-0.257,0.309-0.467l0,0
	C76.037,105.095,75.91,104.915,75.729,104.838z M77.553,102.777c-0.277,0-0.504,0.227-0.504,0.505c0,0.279,0.227,0.506,0.504,0.506
	c0.28,0,0.506-0.227,0.506-0.506C78.059,103.004,77.833,102.777,77.553,102.777z M76.543,101.766c-0.28,0-0.506,0.227-0.506,0.507
	c0,0.278,0.226,0.505,0.506,0.505c0.279,0,0.506-0.227,0.506-0.505C77.049,101.992,76.822,101.766,76.543,101.766z M76.543,104.8
	c0.279,0,0.506-0.228,0.506-0.507c0-0.278-0.227-0.505-0.506-0.505c-0.28,0-0.506,0.227-0.506,0.505
	C76.037,104.572,76.263,104.8,76.543,104.8z M75.532,102.777c-0.28,0-0.506,0.227-0.506,0.505c0,0.279,0.226,0.506,0.506,0.506
	c0.278,0,0.505-0.227,0.505-0.506C76.037,103.004,75.811,102.777,75.532,102.777z M96.757,103.788c-0.279,0-0.505,0.227-0.505,0.505
	c0,0.279,0.226,0.507,0.505,0.507s0.506-0.228,0.506-0.507C97.263,104.015,97.036,103.788,96.757,103.788z M94.736,100.755
	c0.19,0,0.35-0.109,0.436-0.265l-0.921-0.141C94.299,100.579,94.491,100.755,94.736,100.755z M94.736,102.777
	c0.279,0,0.505-0.227,0.505-0.505c0-0.28-0.226-0.507-0.505-0.507c-0.28,0-0.506,0.227-0.506,0.507
	C94.23,102.551,94.456,102.777,94.736,102.777z M99.313,101.116c-0.015,0.045-0.03,0.093-0.03,0.146
	c0,0.278,0.226,0.504,0.506,0.504c0.278,0,0.504-0.224,0.506-0.502l-0.018-0.002L99.313,101.116z M67.944,99.279l-0.96,0.163
	c0.078,0.177,0.256,0.302,0.463,0.302C67.711,99.744,67.923,99.539,67.944,99.279z M101.811,101.766
	c0.169,0,0.309-0.087,0.401-0.212l-0.401-0.062l-0.473-0.071C101.405,101.62,101.589,101.766,101.811,101.766z M53.296,109.854
	c0.279,0,0.505-0.226,0.505-0.506s-0.226-0.506-0.505-0.506c-0.278,0-0.505,0.226-0.505,0.506S53.018,109.854,53.296,109.854z
	 M101.811,103.788c0.279,0,0.505-0.227,0.505-0.506c0-0.278-0.226-0.505-0.505-0.505c-0.278,0-0.505,0.227-0.505,0.505
	C101.306,103.562,101.532,103.788,101.811,103.788z M67.447,101.766c0.277,0,0.504-0.226,0.504-0.504
	c0-0.28-0.227-0.507-0.504-0.507c-0.281,0-0.507,0.227-0.507,0.507C66.94,101.54,67.166,101.766,67.447,101.766z M59.866,102.272
	c0,0.278,0.226,0.505,0.505,0.505c0.28,0,0.506-0.227,0.506-0.505c0-0.28-0.226-0.507-0.506-0.507
	C60.091,101.766,59.866,101.992,59.866,102.272z M60.806,100.494l-0.767,0.13c0.088,0.079,0.203,0.131,0.332,0.131
	C60.56,100.755,60.719,100.647,60.806,100.494z M65.683,99.664l-0.258,0.043l-0.1,0.017c0.033,0.008,0.064,0.021,0.1,0.021
	C65.521,99.744,65.606,99.71,65.683,99.664z M64.92,101.262c0,0.278,0.227,0.504,0.505,0.504c0.279,0,0.505-0.226,0.505-0.504
	c0-0.28-0.226-0.507-0.505-0.507C65.146,100.755,64.92,100.981,64.92,101.262z M99.789,103.788c0.278,0,0.506-0.227,0.506-0.506
	c0-0.278-0.228-0.505-0.506-0.505c-0.28,0-0.506,0.227-0.506,0.505C99.283,103.562,99.509,103.788,99.789,103.788z M93.725,103.788
	c0.28,0,0.506-0.227,0.506-0.506c0-0.278-0.226-0.505-0.506-0.505c-0.278,0-0.505,0.227-0.505,0.505
	C93.22,103.562,93.446,103.788,93.725,103.788z M72.499,104.8c0.28,0,0.506-0.228,0.506-0.507c0-0.278-0.226-0.505-0.506-0.505
	c-0.279,0-0.505,0.227-0.505,0.505C71.994,104.572,72.22,104.8,72.499,104.8z M95.747,100.755c-0.28,0-0.506,0.227-0.506,0.507
	c0,0.278,0.226,0.504,0.506,0.504c0.278,0,0.505-0.226,0.505-0.504C96.252,100.981,96.025,100.755,95.747,100.755z M93.725,100.755
	c-0.278,0-0.505,0.227-0.505,0.507c0,0.278,0.227,0.504,0.505,0.504c0.28,0,0.506-0.226,0.506-0.504
	C94.23,100.981,94.005,100.755,93.725,100.755z M94.736,103.788c-0.28,0-0.506,0.227-0.506,0.505c0,0.279,0.226,0.507,0.506,0.507
	c0.279,0,0.505-0.228,0.505-0.507C95.241,104.015,95.016,103.788,94.736,103.788z M95.747,103.788c0.278,0,0.505-0.227,0.505-0.506
	c0-0.278-0.227-0.505-0.505-0.505c-0.28,0-0.506,0.227-0.506,0.505C95.241,103.562,95.467,103.788,95.747,103.788z M98.779,101.766
	c-0.279,0-0.507,0.227-0.507,0.507c0,0.278,0.228,0.505,0.507,0.505c0.278,0,0.504-0.227,0.504-0.505
	C99.283,101.992,99.058,101.766,98.779,101.766z M98.779,103.788c-0.279,0-0.507,0.227-0.507,0.505c0,0.279,0.228,0.507,0.507,0.507
	c0.278,0,0.504-0.228,0.504-0.507C99.283,104.015,99.058,103.788,98.779,103.788z M97.768,103.788c0.279,0,0.505-0.227,0.505-0.506
	c0-0.278-0.226-0.505-0.505-0.505c-0.278,0-0.505,0.227-0.505,0.505C97.263,103.562,97.489,103.788,97.768,103.788z M96.757,101.766
	c-0.279,0-0.505,0.227-0.505,0.507c0,0.278,0.226,0.505,0.505,0.505s0.506-0.227,0.506-0.505
	C97.263,101.992,97.036,101.766,96.757,101.766z M97.768,100.882l-0.266-0.04c-0.141,0.09-0.239,0.24-0.239,0.42
	c0,0.278,0.227,0.504,0.505,0.504c0.279,0,0.505-0.226,0.505-0.504c0-0.125-0.049-0.234-0.123-0.322L97.768,100.882z M100.8,101.766
	c-0.279,0-0.505,0.227-0.505,0.507c0,0.278,0.226,0.505,0.505,0.505s0.506-0.227,0.506-0.505
	C101.306,101.992,101.079,101.766,100.8,101.766z M43.189,108.842c-0.28,0-0.506,0.226-0.506,0.506s0.226,0.506,0.506,0.506
	c0.278,0,0.505-0.226,0.505-0.506S43.467,108.842,43.189,108.842z M43.189,110.864c-0.28,0-0.506,0.227-0.506,0.505
	c0,0.279,0.226,0.507,0.506,0.507c0.278,0,0.505-0.228,0.505-0.507C43.694,111.091,43.467,110.864,43.189,110.864z M45.21,111.876
	c0.279,0,0.505-0.228,0.505-0.507c0-0.278-0.226-0.505-0.505-0.505c-0.278,0-0.505,0.227-0.505,0.505
	C44.705,111.648,44.932,111.876,45.21,111.876z M44.199,110.864c0.28,0,0.506-0.227,0.506-0.505c0-0.279-0.226-0.506-0.506-0.506
	c-0.279,0-0.505,0.227-0.505,0.506C43.694,110.638,43.92,110.864,44.199,110.864z M45.21,108.842c-0.278,0-0.505,0.226-0.505,0.506
	s0.227,0.506,0.505,0.506c0.279,0,0.505-0.226,0.505-0.506S45.489,108.842,45.21,108.842z M46.221,108.842
	c0.279,0,0.505-0.226,0.505-0.505s-0.226-0.505-0.505-0.505s-0.506,0.226-0.506,0.505S45.942,108.842,46.221,108.842z
	 M46.221,110.864c0.279,0,0.505-0.227,0.505-0.505c0-0.279-0.226-0.506-0.505-0.506s-0.506,0.227-0.506,0.506
	C45.715,110.638,45.942,110.864,46.221,110.864z M62.393,108.842c0.279,0,0.505-0.226,0.505-0.505s-0.226-0.505-0.505-0.505
	s-0.506,0.226-0.506,0.505S62.113,108.842,62.393,108.842z M61.382,106.82c-0.278,0-0.505,0.227-0.505,0.506
	s0.227,0.506,0.505,0.506c0.279,0,0.505-0.227,0.505-0.506S61.661,106.82,61.382,106.82z M61.579,104.838
	c-0.061-0.024-0.128-0.038-0.197-0.038s-0.136,0.014-0.196,0.038c-0.182,0.077-0.309,0.257-0.309,0.466l0,0
	c0,0.21,0.127,0.39,0.309,0.467c0.061,0.025,0.127,0.04,0.196,0.04s0.137-0.015,0.197-0.04c0.181-0.077,0.308-0.257,0.308-0.467l0,0
	C61.887,105.095,61.76,104.915,61.579,104.838z M60.371,103.788c-0.279,0-0.505,0.227-0.505,0.505c0,0.279,0.226,0.507,0.505,0.507
	c0.28,0,0.506-0.228,0.506-0.507C60.877,104.015,60.651,103.788,60.371,103.788z M60.371,106.82c0.28,0,0.506-0.226,0.506-0.505
	s-0.226-0.505-0.506-0.505c-0.279,0-0.505,0.226-0.505,0.505S60.091,106.82,60.371,106.82z M49.253,109.854
	c0.279,0,0.505-0.226,0.505-0.506s-0.226-0.506-0.505-0.506c-0.279,0-0.505,0.226-0.505,0.506S48.974,109.854,49.253,109.854z
	 M51.275,107.832c0.278,0,0.505-0.227,0.505-0.506s-0.227-0.506-0.505-0.506c-0.28,0-0.506,0.227-0.506,0.506
	S50.995,107.832,51.275,107.832z M47.232,111.876c0.278,0,0.505-0.228,0.505-0.507c0-0.278-0.227-0.505-0.505-0.505
	c-0.281,0-0.506,0.227-0.506,0.505C46.726,111.648,46.952,111.876,47.232,111.876z M52.285,110.864c0.28,0,0.506-0.227,0.506-0.505
	c0-0.279-0.227-0.506-0.506-0.506c-0.279,0-0.505,0.227-0.505,0.506C51.78,110.638,52.005,110.864,52.285,110.864z M50.264,107.832
	c-0.279,0-0.506,0.226-0.506,0.505s0.227,0.505,0.506,0.505c0.28,0,0.505-0.226,0.505-0.505S50.543,107.832,50.264,107.832z
	 M52.285,107.832c-0.279,0-0.505,0.226-0.505,0.505s0.226,0.505,0.505,0.505c0.28,0,0.506-0.226,0.506-0.505
	S52.564,107.832,52.285,107.832z M51.275,109.854c0.278,0,0.505-0.226,0.505-0.506s-0.227-0.506-0.505-0.506
	c-0.28,0-0.506,0.226-0.506,0.506S50.995,109.854,51.275,109.854z M47.232,108.842c-0.281,0-0.506,0.226-0.506,0.506
	s0.226,0.506,0.506,0.506c0.278,0,0.505-0.226,0.505-0.506S47.51,108.842,47.232,108.842z M72.499,106.82
	c0.28,0,0.506-0.226,0.506-0.505s-0.226-0.505-0.506-0.505c-0.279,0-0.505,0.226-0.505,0.505S72.22,106.82,72.499,106.82z
	 M48.242,110.864c0.28,0,0.506-0.227,0.506-0.505c0-0.279-0.226-0.506-0.506-0.506c-0.279,0-0.505,0.227-0.505,0.506
	C47.737,110.638,47.963,110.864,48.242,110.864z M62.393,106.82c0.279,0,0.505-0.226,0.505-0.505s-0.226-0.505-0.505-0.505
	s-0.506,0.226-0.506,0.505S62.113,106.82,62.393,106.82z M48.242,107.832c-0.279,0-0.505,0.226-0.505,0.505s0.226,0.505,0.505,0.505
	c0.28,0,0.506-0.226,0.506-0.505S48.522,107.832,48.242,107.832z M50.264,110.864c0.28,0,0.505-0.227,0.505-0.505
	c0-0.279-0.226-0.506-0.505-0.506c-0.279,0-0.506,0.227-0.506,0.506C49.758,110.638,49.985,110.864,50.264,110.864z M62.393,103.788
	c-0.279,0-0.506,0.227-0.506,0.505c0,0.279,0.227,0.507,0.506,0.507s0.505-0.228,0.505-0.507
	C62.897,104.015,62.672,103.788,62.393,103.788z M68.456,103.788c-0.279,0-0.505,0.227-0.505,0.505c0,0.279,0.226,0.507,0.505,0.507
	c0.28,0,0.507-0.228,0.507-0.507C68.963,104.015,68.736,103.788,68.456,103.788z M67.447,102.777c-0.281,0-0.507,0.227-0.507,0.505
	c0,0.279,0.226,0.506,0.507,0.506c0.277,0,0.504-0.227,0.504-0.506C67.951,103.004,67.725,102.777,67.447,102.777z M68.456,105.811
	c-0.279,0-0.505,0.226-0.505,0.505s0.226,0.505,0.505,0.505c0.28,0,0.507-0.226,0.507-0.505S68.736,105.811,68.456,105.811z
	 M69.468,102.777c-0.279,0-0.505,0.227-0.505,0.505c0,0.279,0.226,0.506,0.505,0.506s0.505-0.227,0.505-0.506
	C69.973,103.004,69.747,102.777,69.468,102.777z M70.479,101.766c-0.279,0-0.506,0.227-0.506,0.507c0,0.278,0.227,0.505,0.506,0.505
	s0.505-0.227,0.505-0.505C70.983,101.992,70.758,101.766,70.479,101.766z M77.553,107.832c0.28,0,0.506-0.227,0.506-0.506
	s-0.226-0.506-0.506-0.506c-0.277,0-0.504,0.227-0.504,0.506S77.275,107.832,77.553,107.832z M71.489,102.777
	c-0.28,0-0.506,0.227-0.506,0.505c0,0.279,0.226,0.506,0.506,0.506c0.278,0,0.505-0.227,0.505-0.506
	C71.994,103.004,71.768,102.777,71.489,102.777z M71.686,104.838c-0.06-0.024-0.126-0.038-0.196-0.038
	c-0.069,0-0.137,0.014-0.196,0.038c-0.183,0.077-0.31,0.257-0.31,0.466l0,0c0,0.21,0.127,0.39,0.31,0.467
	c0.06,0.025,0.127,0.04,0.196,0.04c0.07,0,0.137-0.015,0.196-0.04c0.182-0.077,0.309-0.257,0.309-0.467l0,0
	C71.994,105.095,71.867,104.915,71.686,104.838z M70.479,104.8c0.279,0,0.505-0.228,0.505-0.507c0-0.278-0.226-0.505-0.505-0.505
	s-0.506,0.227-0.506,0.505C69.973,104.572,70.199,104.8,70.479,104.8z M66.94,105.304c0,0.21,0.127,0.39,0.31,0.467
	c0.06,0.025,0.127,0.04,0.197,0.04c0.069,0,0.136-0.015,0.195-0.04c0.182-0.077,0.309-0.257,0.309-0.467l0,0
	c0-0.209-0.127-0.389-0.309-0.466c-0.06-0.024-0.126-0.038-0.195-0.038c-0.07,0-0.138,0.014-0.197,0.038
	C67.067,104.915,66.94,105.095,66.94,105.304L66.94,105.304z M68.963,105.304c0,0.21,0.127,0.39,0.309,0.467
	c0.061,0.025,0.127,0.04,0.196,0.04s0.136-0.015,0.196-0.04c0.181-0.077,0.309-0.257,0.309-0.467l0,0
	c0-0.209-0.128-0.389-0.309-0.466c-0.061-0.024-0.127-0.038-0.196-0.038s-0.136,0.014-0.196,0.038
	C69.09,104.915,68.963,105.095,68.963,105.304L68.963,105.304z M64.414,105.811c-0.279,0-0.505,0.226-0.505,0.505
	s0.226,0.505,0.505,0.505s0.506-0.226,0.506-0.505S64.693,105.811,64.414,105.811z M67.447,107.832c0.277,0,0.504-0.227,0.504-0.506
	s-0.227-0.506-0.504-0.506c-0.281,0-0.507,0.227-0.507,0.506S67.166,107.832,67.447,107.832z M64.414,103.788
	c-0.279,0-0.505,0.227-0.505,0.505c0,0.279,0.226,0.507,0.505,0.507s0.506-0.228,0.506-0.507
	C64.92,104.015,64.693,103.788,64.414,103.788z M62.897,105.304c0,0.21,0.128,0.39,0.31,0.467c0.06,0.025,0.127,0.04,0.196,0.04
	c0.07,0,0.137-0.015,0.196-0.04c0.182-0.077,0.31-0.257,0.31-0.467l0,0c0-0.209-0.128-0.389-0.31-0.466
	c-0.06-0.024-0.126-0.038-0.196-0.038c-0.069,0-0.137,0.014-0.196,0.038C63.025,104.915,62.897,105.095,62.897,105.304
	L62.897,105.304z M62.897,107.326c0,0.279,0.226,0.506,0.506,0.506c0.278,0,0.506-0.227,0.506-0.506s-0.228-0.506-0.506-0.506
	C63.123,106.82,62.897,107.047,62.897,107.326z M63.403,102.777c-0.28,0-0.506,0.227-0.506,0.505c0,0.279,0.226,0.506,0.506,0.506
	c0.278,0,0.506-0.227,0.506-0.506C63.909,103.004,63.682,102.777,63.403,102.777z M66.436,105.811c-0.279,0-0.506,0.226-0.506,0.505
	s0.227,0.505,0.506,0.505s0.505-0.226,0.505-0.505S66.715,105.811,66.436,105.811z M66.436,103.788
	c-0.279,0-0.506,0.227-0.506,0.505c0,0.279,0.227,0.507,0.506,0.507s0.505-0.228,0.505-0.507
	C66.94,104.015,66.715,103.788,66.436,103.788z M65.425,107.832c0.279,0,0.505-0.227,0.505-0.506s-0.226-0.506-0.505-0.506
	c-0.278,0-0.505,0.227-0.505,0.506S65.146,107.832,65.425,107.832z M65.425,102.777c-0.278,0-0.505,0.227-0.505,0.505
	c0,0.279,0.227,0.506,0.505,0.506c0.279,0,0.505-0.227,0.505-0.506C65.93,103.004,65.704,102.777,65.425,102.777z M64.92,105.304
	c0,0.21,0.127,0.39,0.309,0.467c0.061,0.025,0.127,0.04,0.196,0.04s0.137-0.015,0.197-0.04c0.181-0.077,0.308-0.257,0.308-0.467l0,0
	c0-0.209-0.127-0.389-0.308-0.466c-0.061-0.024-0.128-0.038-0.197-0.038s-0.136,0.014-0.196,0.038
	C65.047,104.915,64.92,105.095,64.92,105.304L64.92,105.304z M42.178,105.811c-0.279,0-0.506,0.226-0.506,0.505
	s0.228,0.505,0.506,0.505c0.279,0,0.505-0.226,0.505-0.505S42.458,105.811,42.178,105.811z M59.891,114.277l0.876-0.176
	c-0.092-0.121-0.232-0.204-0.396-0.204C60.136,113.897,59.948,114.061,59.891,114.277z M58.35,113.897
	c-0.279,0-0.506,0.226-0.506,0.505c0,0.103,0.039,0.192,0.09,0.271l0.903-0.183c0.005-0.03,0.018-0.058,0.018-0.089
	C58.854,114.123,58.629,113.897,58.35,113.897z M59.361,112.886c-0.281,0-0.505,0.227-0.506,0.506l0,0
	c0.001,0.28,0.226,0.506,0.506,0.506c0.278,0,0.505-0.226,0.505-0.506l0,0C59.866,113.112,59.639,112.886,59.361,112.886z
	 M63.403,112.886c-0.28,0-0.505,0.227-0.506,0.506l0,0c0,0.099,0.036,0.185,0.085,0.263l0.911-0.184
	c0.004-0.027,0.016-0.051,0.016-0.079l0,0C63.909,113.112,63.682,112.886,63.403,112.886z M61.382,112.886
	c-0.278,0-0.505,0.227-0.505,0.506l0,0c0,0.28,0.227,0.506,0.505,0.506c0.279,0,0.505-0.226,0.505-0.506l0,0
	C61.887,113.112,61.661,112.886,61.382,112.886z M62.393,111.876c-0.279,0-0.506,0.226-0.506,0.504c0,0.279,0.227,0.506,0.506,0.506
	s0.505-0.227,0.505-0.506C62.897,112.102,62.672,111.876,62.393,111.876z M60.371,112.886c0.28,0,0.506-0.227,0.506-0.506
	c0-0.278-0.226-0.504-0.506-0.504c-0.279,0-0.505,0.226-0.505,0.504C59.866,112.659,60.091,112.886,60.371,112.886z M55.318,113.897
	c0.278,0,0.505-0.226,0.505-0.506l0,0c0-0.279-0.227-0.506-0.505-0.506c-0.28,0-0.505,0.227-0.506,0.506l0,0
	C54.812,113.672,55.038,113.897,55.318,113.897z M53.296,114.908c-0.278,0-0.505,0.226-0.505,0.505c0,0.105,0.04,0.199,0.095,0.279
	l0.41-0.082l0.485-0.099c0.007-0.032,0.02-0.063,0.02-0.099C53.801,115.134,53.575,114.908,53.296,114.908z M56.328,113.897
	c-0.279,0-0.505,0.226-0.505,0.505s0.226,0.506,0.505,0.506s0.506-0.227,0.506-0.506S56.607,113.897,56.328,113.897z
	 M54.835,115.299l0.884-0.179c-0.092-0.126-0.234-0.212-0.401-0.212C55.079,114.908,54.888,115.077,54.835,115.299z M57.844,113.392
	c0-0.279-0.226-0.506-0.505-0.506c-0.278,0-0.505,0.227-0.505,0.506l0,0c0,0.28,0.227,0.506,0.505,0.506
	C57.618,113.897,57.844,113.672,57.844,113.392L57.844,113.392z M54.307,113.897c-0.279,0-0.506,0.226-0.506,0.505
	s0.227,0.506,0.506,0.506s0.505-0.227,0.505-0.506S54.586,113.897,54.307,113.897z M70.003,112.237l0.859-0.174
	c-0.094-0.112-0.228-0.188-0.384-0.188C70.251,111.876,70.064,112.029,70.003,112.237z M64.414,111.876
	c-0.279,0-0.505,0.226-0.505,0.504c0,0.279,0.226,0.506,0.505,0.506s0.506-0.227,0.506-0.506
	C64.92,112.102,64.693,111.876,64.414,111.876z M70.479,110.864c0.279,0,0.505-0.227,0.505-0.505c0-0.279-0.226-0.506-0.505-0.506
	s-0.506,0.227-0.506,0.506C69.973,110.638,70.199,110.864,70.479,110.864z M72.499,109.854c-0.279,0-0.505,0.227-0.505,0.506
	c0,0.278,0.226,0.505,0.505,0.505c0.28,0,0.506-0.227,0.506-0.505C73.005,110.08,72.779,109.854,72.499,109.854z M71.489,110.864
	c-0.28,0-0.506,0.227-0.506,0.505c0,0.279,0.226,0.507,0.506,0.507c0.278,0,0.505-0.228,0.505-0.507
	C71.994,111.091,71.768,110.864,71.489,110.864z M69.468,110.864c-0.279,0-0.505,0.227-0.505,0.505c0,0.279,0.226,0.507,0.505,0.507
	s0.505-0.228,0.505-0.507C69.973,111.091,69.747,110.864,69.468,110.864z M65.425,111.876c0.279,0,0.505-0.228,0.505-0.507
	c0-0.278-0.226-0.505-0.505-0.505c-0.278,0-0.505,0.227-0.505,0.505C64.92,111.648,65.146,111.876,65.425,111.876z M68.456,111.876
	c-0.279,0-0.505,0.226-0.505,0.504c0,0.095,0.034,0.18,0.079,0.255l0.919-0.186c0.002-0.023,0.014-0.044,0.014-0.069
	C68.963,112.102,68.736,111.876,68.456,111.876z M64.947,113.259l0.478-0.098l0.391-0.079c-0.094-0.117-0.229-0.196-0.391-0.196
	C65.193,112.886,65.007,113.045,64.947,113.259z M66.436,111.876c-0.279,0-0.506,0.226-0.506,0.504c0,0.279,0.227,0.506,0.506,0.506
	s0.505-0.227,0.505-0.506C66.94,112.102,66.715,111.876,66.436,111.876z M67.447,110.864c-0.281,0-0.507,0.227-0.507,0.505
	c0,0.279,0.226,0.507,0.507,0.507c0.277,0,0.504-0.228,0.504-0.507C67.951,111.091,67.725,110.864,67.447,110.864z M45.21,115.919
	c0.279,0,0.505-0.227,0.505-0.506s-0.226-0.505-0.505-0.505c-0.278,0-0.505,0.226-0.505,0.505S44.932,115.919,45.21,115.919z
	 M40.156,116.929c0.28,0,0.506-0.226,0.506-0.505c0-0.278-0.227-0.505-0.506-0.505c-0.279,0-0.505,0.227-0.505,0.505
	C39.651,116.703,39.877,116.929,40.156,116.929z M39.146,116.929c-0.28,0-0.506,0.227-0.506,0.507c0,0.279,0.226,0.506,0.506,0.506
	c0.278,0,0.505-0.227,0.505-0.506C39.651,117.155,39.424,116.929,39.146,116.929z M37.397,117.021l-0.285,0.918
	c0.004,0.001,0.007,0.003,0.012,0.003c0.279,0,0.505-0.227,0.505-0.506C37.629,117.259,37.534,117.111,37.397,117.021z
	 M38.135,117.941c-0.279,0-0.506,0.226-0.506,0.505c0,0.116,0.046,0.219,0.112,0.305l0.873-0.177
	c0.012-0.041,0.026-0.083,0.026-0.128C38.641,118.167,38.415,117.941,38.135,117.941z M40.156,117.941
	c-0.25,0-0.446,0.183-0.488,0.421l0.907-0.184C40.485,118.039,40.335,117.941,40.156,117.941z M52.285,113.897
	c-0.279,0-0.505,0.226-0.505,0.505s0.226,0.506,0.505,0.506c0.28,0,0.506-0.227,0.506-0.506S52.564,113.897,52.285,113.897z
	 M42.178,115.919c-0.279,0-0.506,0.227-0.506,0.505c0,0.279,0.228,0.505,0.506,0.505c0.279,0,0.505-0.226,0.505-0.505
	C42.683,116.146,42.458,115.919,42.178,115.919z M39.146,113.897c0.278,0,0.505-0.226,0.505-0.506l0,0
	c0-0.279-0.227-0.506-0.505-0.506c-0.28,0-0.506,0.227-0.506,0.506l0,0C38.641,113.672,38.866,113.897,39.146,113.897z
	 M39.651,111.369c0-0.226-0.151-0.41-0.355-0.476l-0.295,0.953c0.046,0.014,0.093,0.029,0.145,0.029
	C39.424,111.876,39.651,111.648,39.651,111.369z M38.641,114.402c0-0.202-0.12-0.373-0.291-0.453l-0.292,0.943
	c0.026,0.004,0.05,0.016,0.078,0.016C38.415,114.908,38.641,114.682,38.641,114.402z M39.146,114.908
	c-0.28,0-0.506,0.226-0.506,0.505s0.226,0.506,0.506,0.506c0.278,0,0.505-0.227,0.505-0.506S39.424,114.908,39.146,114.908z
	 M38.135,116.929c0.279,0,0.505-0.226,0.505-0.505c0-0.278-0.226-0.505-0.505-0.505s-0.506,0.227-0.506,0.505
	C37.629,116.703,37.856,116.929,38.135,116.929z M41.167,116.929c-0.278,0-0.504,0.227-0.504,0.507c0,0.279,0.226,0.506,0.504,0.506
	c0.279,0,0.505-0.227,0.505-0.506C41.672,117.155,41.446,116.929,41.167,116.929z M50.264,114.908c0.28,0,0.505-0.227,0.505-0.506
	s-0.226-0.505-0.505-0.505c-0.279,0-0.506,0.226-0.506,0.505S49.985,114.908,50.264,114.908z M43.189,116.929
	c-0.28,0-0.506,0.227-0.506,0.507c0,0.112,0.044,0.212,0.107,0.296l0.88-0.178c0.01-0.039,0.024-0.076,0.024-0.118
	C43.694,117.155,43.467,116.929,43.189,116.929z M49.779,116.32l0.891-0.18c-0.091-0.132-0.235-0.222-0.407-0.222
	C50.021,115.919,49.829,116.093,49.779,116.32z M51.275,114.908c-0.28,0-0.506,0.226-0.506,0.505s0.226,0.506,0.506,0.506
	c0.278,0,0.505-0.227,0.505-0.506S51.553,114.908,51.275,114.908z M48.242,115.919c-0.279,0-0.505,0.227-0.505,0.505
	c0,0.109,0.042,0.205,0.101,0.288l0.887-0.179c0.009-0.036,0.022-0.07,0.022-0.109C48.748,116.146,48.522,115.919,48.242,115.919z
	 M49.253,114.908c-0.279,0-0.505,0.226-0.505,0.505s0.226,0.506,0.505,0.506c0.279,0,0.505-0.227,0.505-0.506
	S49.532,114.908,49.253,114.908z M47.232,114.908c-0.281,0-0.506,0.226-0.506,0.505s0.226,0.506,0.506,0.506
	c0.278,0,0.505-0.227,0.505-0.506S47.51,114.908,47.232,114.908z M44.199,115.919c-0.279,0-0.505,0.227-0.505,0.505
	c0,0.279,0.226,0.505,0.505,0.505c0.28,0,0.506-0.226,0.506-0.505C44.705,116.146,44.479,115.919,44.199,115.919z M73.511,110.864
	c-0.279,0-0.506,0.227-0.506,0.505c0,0.092,0.031,0.173,0.073,0.247l0.433-0.088l0.494-0.1c0.002-0.021,0.01-0.038,0.01-0.06
	C74.015,111.091,73.789,110.864,73.511,110.864z M44.724,117.341l0.486-0.099l0.413-0.083c-0.091-0.135-0.237-0.23-0.413-0.23
	C44.965,116.929,44.77,117.108,44.724,117.341z M46.221,115.919c-0.279,0-0.506,0.227-0.506,0.505c0,0.279,0.227,0.505,0.506,0.505
	s0.505-0.226,0.505-0.505C46.726,116.146,46.5,115.919,46.221,115.919z M87.661,106.82c-0.28,0-0.506,0.227-0.506,0.506
	s0.226,0.506,0.506,0.506c0.277,0,0.505-0.227,0.505-0.506S87.938,106.82,87.661,106.82z M102.008,104.838
	c-0.061-0.024-0.128-0.038-0.197-0.038s-0.136,0.014-0.196,0.038c-0.182,0.077-0.309,0.257-0.309,0.466l0,0
	c0,0.21,0.127,0.39,0.309,0.467c0.061,0.025,0.127,0.04,0.196,0.04s0.137-0.015,0.197-0.04c0.181-0.077,0.308-0.257,0.308-0.467l0,0
	C102.315,105.095,102.188,104.915,102.008,104.838z M100.8,103.788c-0.279,0-0.505,0.227-0.505,0.505
	c0,0.279,0.226,0.507,0.505,0.507s0.506-0.228,0.506-0.507C101.306,104.015,101.079,103.788,100.8,103.788z M100.34,106.111
	l0.804-0.162c-0.09-0.085-0.21-0.139-0.344-0.139C100.594,105.811,100.418,105.934,100.34,106.111z M102.821,103.788
	c-0.278,0-0.506,0.227-0.506,0.505c0,0.279,0.228,0.507,0.506,0.507c0.28,0,0.506-0.228,0.506-0.507
	C103.327,104.015,103.102,103.788,102.821,103.788z M94.736,105.811c-0.28,0-0.506,0.226-0.506,0.505s0.226,0.505,0.506,0.505
	c0.279,0,0.505-0.226,0.505-0.505S95.016,105.811,94.736,105.811z M102.821,101.766c-0.278,0-0.506,0.227-0.506,0.507
	c0,0.278,0.228,0.505,0.506,0.505c0.28,0,0.506-0.227,0.506-0.505C103.327,101.992,103.102,101.766,102.821,101.766z M95.55,105.771
	c0.06,0.025,0.128,0.04,0.197,0.04c0.07,0,0.136-0.015,0.195-0.04c0.183-0.077,0.31-0.257,0.31-0.467l0,0
	c0-0.209-0.127-0.389-0.31-0.466c-0.06-0.024-0.125-0.038-0.195-0.038c-0.069,0-0.138,0.014-0.197,0.038
	c-0.182,0.077-0.309,0.257-0.309,0.466l0,0C95.241,105.514,95.368,105.693,95.55,105.771z M103.833,103.788
	c0.277,0,0.505-0.227,0.505-0.506c0-0.278-0.228-0.505-0.505-0.505c-0.28,0-0.506,0.227-0.506,0.505
	C103.327,103.562,103.553,103.788,103.833,103.788z M98.779,105.811c-0.279,0-0.507,0.226-0.507,0.505
	c0,0.072,0.018,0.141,0.045,0.204l0.965-0.195c0-0.003,0.001-0.006,0.001-0.009C99.283,106.036,99.058,105.811,98.779,105.811z
	 M95.279,107.134l0.822-0.167c-0.092-0.09-0.216-0.146-0.354-0.146C95.535,106.82,95.355,106.949,95.279,107.134z M98.272,105.304
	c0-0.209-0.127-0.389-0.308-0.466c-0.061-0.024-0.127-0.038-0.197-0.038c-0.068,0-0.136,0.014-0.196,0.038
	c-0.181,0.077-0.309,0.257-0.309,0.466l0,0c0,0.21,0.128,0.39,0.309,0.467c0.061,0.025,0.128,0.04,0.196,0.04
	c0.07,0,0.137-0.015,0.197-0.04C98.146,105.693,98.272,105.514,98.272,105.304L98.272,105.304z M96.757,105.811
	c-0.279,0-0.505,0.226-0.505,0.505s0.226,0.505,0.505,0.505s0.506-0.226,0.506-0.505S97.036,105.811,96.757,105.811z
	 M99.985,104.838c-0.06-0.024-0.126-0.038-0.196-0.038c-0.069,0-0.136,0.014-0.196,0.038c-0.182,0.077-0.31,0.257-0.31,0.466l0,0
	c0,0.21,0.128,0.39,0.31,0.467c0.061,0.025,0.127,0.04,0.196,0.04c0.07,0,0.137-0.015,0.196-0.04c0.183-0.077,0.31-0.257,0.31-0.467
	l0,0C100.295,105.095,100.168,104.915,99.985,104.838z M108.886,103.788c-0.28,0-0.506,0.227-0.506,0.505
	c0,0.066,0.016,0.129,0.038,0.188l0.972-0.197C109.384,104.009,109.162,103.788,108.886,103.788z M74.521,109.854
	c-0.279,0-0.507,0.227-0.507,0.506c0,0.278,0.228,0.505,0.507,0.505s0.505-0.227,0.505-0.505
	C75.026,110.08,74.801,109.854,74.521,109.854z M109.896,102.777c-0.278,0-0.505,0.227-0.505,0.505c0,0.279,0.227,0.506,0.505,0.506
	c0.279,0,0.505-0.227,0.505-0.506C110.401,103.004,110.176,102.777,109.896,102.777z M113.44,103.25
	c0,0.012-0.006,0.021-0.006,0.032c0,0.063,0.015,0.122,0.036,0.178l0.469-0.096l0.112-0.022l-0.112-0.016L113.44,103.25z
	 M110.461,104.067l0.769-0.155c-0.088-0.074-0.197-0.124-0.321-0.124C110.71,103.788,110.545,103.903,110.461,104.067z
	 M104.029,104.838c-0.061-0.024-0.127-0.038-0.196-0.038c-0.07,0-0.137,0.014-0.197,0.038c-0.183,0.077-0.309,0.257-0.309,0.466l0,0
	c0,0.07,0.014,0.137,0.039,0.196l0.969-0.196h0.003C104.338,105.095,104.21,104.915,104.029,104.838z M104.843,103.788
	c-0.279,0-0.505,0.227-0.505,0.505c0,0.279,0.226,0.507,0.505,0.507c0.28,0,0.506-0.228,0.506-0.507
	C105.349,104.015,105.123,103.788,104.843,103.788z M105.854,104.8c-0.069,0-0.136,0.014-0.196,0.038
	c-0.114,0.049-0.204,0.14-0.257,0.251l0.453-0.091l0.333-0.067c-0.041-0.037-0.084-0.07-0.137-0.093
	C105.99,104.813,105.924,104.8,105.854,104.8z M106.865,103.788c-0.28,0-0.507,0.227-0.507,0.505c0,0.274,0.221,0.496,0.493,0.504
	l0.222-0.045c0.174-0.08,0.296-0.254,0.296-0.459C107.369,104.015,107.144,103.788,106.865,103.788z M106.865,102.777
	c0.258,0,0.462-0.196,0.492-0.446l-0.98-0.148c-0.005,0.03-0.019,0.058-0.019,0.09C106.358,102.551,106.585,102.777,106.865,102.777
	z M105.854,102.777c-0.279,0-0.505,0.227-0.505,0.505c0,0.279,0.226,0.506,0.505,0.506s0.505-0.227,0.505-0.506
	C106.358,103.004,106.133,102.777,105.854,102.777z M107.876,102.777c-0.281,0-0.507,0.227-0.507,0.505
	c0,0.279,0.226,0.506,0.507,0.506c0.278,0,0.504-0.227,0.504-0.506C108.38,103.004,108.154,102.777,107.876,102.777z
	 M80.585,108.842c0.28,0,0.507-0.226,0.507-0.505s-0.227-0.505-0.507-0.505c-0.278,0-0.504,0.226-0.504,0.505
	S80.307,108.842,80.585,108.842z M80.114,110.195l0.845-0.171c-0.094-0.103-0.225-0.171-0.374-0.171
	C80.364,109.854,80.183,109.998,80.114,110.195z M82.607,107.832c-0.279,0-0.506,0.226-0.506,0.505s0.227,0.505,0.506,0.505
	s0.505-0.226,0.505-0.505S82.887,107.832,82.607,107.832z M81.596,108.842c-0.278,0-0.504,0.226-0.504,0.506
	s0.226,0.506,0.504,0.506c0.28,0,0.506-0.226,0.506-0.506S81.876,108.842,81.596,108.842z M79.575,108.842
	c-0.28,0-0.506,0.226-0.506,0.506s0.226,0.506,0.506,0.506c0.278,0,0.506-0.226,0.506-0.506S79.854,108.842,79.575,108.842z
	 M77.553,108.842c-0.277,0-0.504,0.226-0.504,0.506s0.227,0.506,0.504,0.506c0.28,0,0.506-0.226,0.506-0.506
	S77.833,108.842,77.553,108.842z M78.564,109.854c-0.279,0-0.506,0.227-0.506,0.506c0,0.087,0.028,0.165,0.067,0.237l0.934-0.188
	c0.002-0.018,0.01-0.031,0.01-0.049C79.069,110.08,78.844,109.854,78.564,109.854z M75.532,109.854c0.278,0,0.505-0.226,0.505-0.506
	s-0.227-0.506-0.505-0.506c-0.28,0-0.506,0.226-0.506,0.506S75.252,109.854,75.532,109.854z M75.058,111.216l0.853-0.172
	c-0.093-0.108-0.225-0.18-0.378-0.18C75.307,110.864,75.123,111.014,75.058,111.216z M76.543,109.854
	c-0.28,0-0.506,0.227-0.506,0.506c0,0.278,0.226,0.505,0.506,0.505c0.279,0,0.506-0.227,0.506-0.505
	C77.049,110.08,76.822,109.854,76.543,109.854z M83.618,108.842c-0.28,0-0.506,0.226-0.506,0.506c0,0.084,0.024,0.16,0.061,0.229
	l0.943-0.19c0.001-0.014,0.007-0.024,0.007-0.039C84.123,109.067,83.896,108.842,83.618,108.842z M85.169,109.175l0.471-0.096
	l0.367-0.074c-0.093-0.099-0.222-0.163-0.367-0.163C85.422,108.842,85.24,108.981,85.169,109.175z M90.692,106.82
	c0.28,0,0.506-0.226,0.506-0.505s-0.226-0.505-0.506-0.505c-0.278,0-0.506,0.226-0.506,0.505S90.414,106.82,90.692,106.82z
	 M90.224,108.154l0.831-0.168c-0.092-0.096-0.22-0.154-0.362-0.154C90.479,107.832,90.298,107.966,90.224,108.154z M91.704,106.82
	c-0.28,0-0.506,0.227-0.506,0.506s0.226,0.506,0.506,0.506c0.278,0,0.505-0.227,0.505-0.506S91.982,106.82,91.704,106.82z
	 M92.714,105.811c-0.279,0-0.505,0.226-0.505,0.505s0.226,0.505,0.505,0.505c0.28,0,0.506-0.226,0.506-0.505
	S92.994,105.811,92.714,105.811z M89.682,106.82c-0.278,0-0.504,0.227-0.504,0.506s0.226,0.506,0.504,0.506
	c0.279,0,0.505-0.227,0.505-0.506S89.961,106.82,89.682,106.82z M86.65,107.832c-0.279,0-0.507,0.226-0.507,0.505
	s0.228,0.505,0.507,0.505s0.505-0.226,0.505-0.505S86.93,107.832,86.65,107.832z M93.725,106.82c-0.278,0-0.505,0.227-0.505,0.506
	c0,0.076,0.021,0.147,0.051,0.212l0.454-0.092l0.502-0.101c0-0.007,0.004-0.014,0.004-0.02
	C94.23,107.047,94.005,106.82,93.725,106.82z M88.671,107.832c-0.279,0-0.505,0.226-0.505,0.505c0,0.08,0.023,0.154,0.057,0.221
	l0.948-0.191c0.001-0.011,0.007-0.019,0.007-0.029C89.178,108.058,88.951,107.832,88.671,107.832z M85.64,107.832
	c0.278,0,0.504-0.227,0.504-0.506s-0.226-0.506-0.504-0.506c-0.279,0-0.506,0.227-0.506,0.506S85.36,107.832,85.64,107.832z
	 M84.628,107.832c-0.279,0-0.505,0.226-0.505,0.505s0.226,0.505,0.505,0.505s0.506-0.226,0.506-0.505S84.907,107.832,84.628,107.832
	z M40.156,110.864c0.28,0,0.506-0.227,0.506-0.505c0-0.279-0.227-0.506-0.506-0.506c-0.279,0-0.505,0.227-0.505,0.506
	C39.651,110.638,39.877,110.864,40.156,110.864z M77.553,98.733c-0.277,0-0.504,0.227-0.504,0.506s0.227,0.505,0.504,0.505
	c0.28,0,0.506-0.226,0.506-0.505S77.833,98.733,77.553,98.733z M88.671,99.744c-0.279,0-0.505,0.227-0.505,0.507
	c0,0.278,0.226,0.504,0.505,0.504c0.28,0,0.507-0.226,0.507-0.504C89.178,99.971,88.951,99.744,88.671,99.744z M88.671,102.777
	c0.28,0,0.507-0.227,0.507-0.505c0-0.28-0.227-0.507-0.507-0.507c-0.279,0-0.505,0.227-0.505,0.507
	C88.166,102.551,88.392,102.777,88.671,102.777z M91.704,102.777c-0.28,0-0.506,0.227-0.506,0.505c0,0.279,0.226,0.506,0.506,0.506
	c0.278,0,0.505-0.227,0.505-0.506C92.209,103.004,91.982,102.777,91.704,102.777z M90.692,102.777c0.28,0,0.506-0.227,0.506-0.505
	c0-0.28-0.226-0.507-0.506-0.507c-0.278,0-0.506,0.227-0.506,0.507C90.187,102.551,90.414,102.777,90.692,102.777z M86.65,99.744
	c-0.279,0-0.507,0.227-0.507,0.507c0,0.278,0.228,0.504,0.507,0.504s0.505-0.226,0.505-0.504
	C87.155,99.971,86.93,99.744,86.65,99.744z M87.661,100.755c-0.28,0-0.506,0.227-0.506,0.507c0,0.278,0.226,0.504,0.506,0.504
	c0.277,0,0.505-0.226,0.505-0.504C88.166,100.981,87.938,100.755,87.661,100.755z M93.529,105.771c0.06,0.025,0.126,0.04,0.195,0.04
	c0.07,0,0.137-0.015,0.197-0.04c0.181-0.077,0.309-0.257,0.309-0.467l0,0c0-0.209-0.128-0.389-0.309-0.466
	c-0.061-0.024-0.127-0.038-0.197-0.038c-0.069,0-0.136,0.014-0.195,0.038c-0.182,0.077-0.31,0.257-0.31,0.466l0,0
	C93.22,105.514,93.348,105.693,93.529,105.771z M92.714,104.8c0.28,0,0.506-0.228,0.506-0.507c0-0.278-0.226-0.505-0.506-0.505
	c-0.279,0-0.505,0.227-0.505,0.505C92.209,104.572,92.435,104.8,92.714,104.8z M85.64,99.049l-0.427-0.064
	c-0.045,0.076-0.079,0.16-0.079,0.255c0,0.279,0.227,0.505,0.506,0.505c0.278,0,0.504-0.226,0.504-0.505
	c0-0.042-0.014-0.079-0.023-0.117L85.64,99.049z M91.704,100.755c-0.28,0-0.506,0.227-0.506,0.507c0,0.278,0.226,0.504,0.506,0.504
	c0.278,0,0.505-0.226,0.505-0.504C92.209,100.981,91.982,100.755,91.704,100.755z M92.714,101.766c-0.279,0-0.505,0.227-0.505,0.507
	c0,0.278,0.226,0.505,0.505,0.505c0.28,0,0.506-0.227,0.506-0.505C93.22,101.992,92.994,101.766,92.714,101.766z M90.501,99.783
	c-0.185,0.076-0.314,0.256-0.314,0.468c0,0.278,0.228,0.504,0.506,0.504c0.28,0,0.506-0.226,0.506-0.504
	c0-0.163-0.08-0.3-0.197-0.392L90.501,99.783z M89.682,100.755c-0.278,0-0.504,0.227-0.504,0.507c0,0.278,0.226,0.504,0.504,0.504
	c0.279,0,0.505-0.226,0.505-0.504C90.187,100.981,89.961,100.755,89.682,100.755z M80.585,99.744c-0.278,0-0.504,0.227-0.504,0.507
	c0,0.278,0.226,0.504,0.504,0.504c0.28,0,0.507-0.226,0.507-0.504C81.092,99.971,80.865,99.744,80.585,99.744z M79.575,98.733
	c-0.28,0-0.506,0.227-0.506,0.506s0.226,0.505,0.506,0.505c0.278,0,0.506-0.226,0.506-0.505S79.854,98.733,79.575,98.733z
	 M78.564,99.744c-0.279,0-0.506,0.227-0.506,0.507c0,0.278,0.227,0.504,0.506,0.504s0.505-0.226,0.505-0.504
	C79.069,99.971,78.844,99.744,78.564,99.744z M81.596,101.766c0.28,0,0.506-0.226,0.506-0.504c0-0.28-0.226-0.507-0.506-0.507
	c-0.278,0-0.504,0.227-0.504,0.507C81.092,101.54,81.317,101.766,81.596,101.766z M85.64,101.766c0.278,0,0.504-0.226,0.504-0.504
	c0-0.28-0.226-0.507-0.504-0.507c-0.279,0-0.506,0.227-0.506,0.507C85.134,101.54,85.36,101.766,85.64,101.766z M79.575,101.766
	c0.278,0,0.506-0.226,0.506-0.504c0-0.28-0.228-0.507-0.506-0.507c-0.28,0-0.506,0.227-0.506,0.507
	C79.069,101.54,79.295,101.766,79.575,101.766z M84.628,99.744c-0.279,0-0.505,0.227-0.505,0.507c0,0.278,0.226,0.504,0.505,0.504
	s0.506-0.226,0.506-0.504C85.134,99.971,84.907,99.744,84.628,99.744z M81.596,98.733c-0.278,0-0.504,0.227-0.504,0.506
	s0.226,0.505,0.504,0.505c0.28,0,0.506-0.226,0.506-0.505S81.876,98.733,81.596,98.733z M84.628,102.777
	c0.279,0,0.506-0.227,0.506-0.505c0-0.28-0.227-0.507-0.506-0.507s-0.505,0.227-0.505,0.507
	C84.123,102.551,84.349,102.777,84.628,102.777z M82.607,99.744c-0.279,0-0.506,0.227-0.506,0.507c0,0.278,0.227,0.504,0.506,0.504
	s0.505-0.226,0.505-0.504C83.112,99.971,82.887,99.744,82.607,99.744z M83.618,100.755c-0.28,0-0.506,0.227-0.506,0.507
	c0,0.278,0.226,0.504,0.506,0.504c0.278,0,0.505-0.226,0.505-0.504C84.123,100.981,83.896,100.755,83.618,100.755z M89.485,105.771
	c0.062,0.025,0.127,0.04,0.196,0.04c0.07,0,0.137-0.015,0.197-0.04c0.182-0.077,0.308-0.257,0.308-0.467l0,0
	c0-0.209-0.126-0.389-0.308-0.466c-0.061-0.024-0.127-0.038-0.197-0.038c-0.069,0-0.135,0.014-0.196,0.038
	c-0.182,0.077-0.308,0.257-0.308,0.466l0,0C89.178,105.514,89.304,105.693,89.485,105.771z M83.618,107.832
	c0.278,0,0.505-0.227,0.505-0.506s-0.227-0.506-0.505-0.506c-0.28,0-0.506,0.227-0.506,0.506S83.338,107.832,83.618,107.832z
	 M84.123,105.304c0-0.209-0.127-0.389-0.31-0.466c-0.059-0.024-0.125-0.038-0.195-0.038c-0.069,0-0.138,0.014-0.197,0.038
	c-0.182,0.077-0.309,0.257-0.309,0.466l0,0c0,0.21,0.127,0.39,0.309,0.467c0.06,0.025,0.128,0.04,0.197,0.04
	c0.07,0,0.137-0.015,0.195-0.04C83.996,105.693,84.123,105.514,84.123,105.304L84.123,105.304z M82.102,105.304
	c0-0.209-0.128-0.389-0.309-0.466c-0.06-0.024-0.127-0.038-0.197-0.038c-0.068,0-0.136,0.014-0.195,0.038
	c-0.182,0.077-0.309,0.257-0.309,0.466l0,0c0,0.21,0.127,0.39,0.309,0.467c0.06,0.025,0.127,0.04,0.195,0.04
	c0.07,0,0.138-0.015,0.197-0.04C81.974,105.693,82.102,105.514,82.102,105.304L82.102,105.304z M82.607,106.82
	c0.279,0,0.505-0.226,0.505-0.505s-0.226-0.505-0.505-0.505s-0.506,0.226-0.506,0.505S82.328,106.82,82.607,106.82z M84.628,106.82
	c0.279,0,0.506-0.226,0.506-0.505s-0.227-0.505-0.506-0.505s-0.505,0.226-0.505,0.505S84.349,106.82,84.628,106.82z M84.628,103.788
	c-0.279,0-0.505,0.227-0.505,0.505c0,0.279,0.226,0.507,0.505,0.507s0.506-0.228,0.506-0.507
	C85.134,104.015,84.907,103.788,84.628,103.788z M85.442,105.771c0.061,0.025,0.128,0.04,0.197,0.04s0.136-0.015,0.196-0.04
	c0.181-0.077,0.308-0.257,0.308-0.467l0,0c0-0.209-0.127-0.389-0.308-0.466c-0.061-0.024-0.127-0.038-0.196-0.038
	s-0.137,0.014-0.197,0.038c-0.181,0.077-0.309,0.257-0.309,0.466l0,0C85.134,105.514,85.262,105.693,85.442,105.771z
	 M78.564,105.811c-0.279,0-0.506,0.226-0.506,0.505s0.227,0.505,0.506,0.505s0.505-0.226,0.505-0.505S78.844,105.811,78.564,105.811
	z M79.575,107.832c0.278,0,0.506-0.227,0.506-0.506s-0.228-0.506-0.506-0.506c-0.28,0-0.506,0.227-0.506,0.506
	S79.295,107.832,79.575,107.832z M80.585,106.82c0.28,0,0.507-0.226,0.507-0.505s-0.227-0.505-0.507-0.505
	c-0.278,0-0.504,0.226-0.504,0.505S80.307,106.82,80.585,106.82z M80.081,105.304c0-0.209-0.128-0.389-0.31-0.466
	c-0.061-0.024-0.126-0.038-0.196-0.038s-0.137,0.014-0.196,0.038c-0.183,0.077-0.31,0.257-0.31,0.466l0,0
	c0,0.21,0.127,0.39,0.31,0.467c0.06,0.025,0.126,0.04,0.196,0.04s0.136-0.015,0.196-0.04
	C79.953,105.693,80.081,105.514,80.081,105.304L80.081,105.304z M81.596,107.832c0.28,0,0.506-0.227,0.506-0.506
	s-0.226-0.506-0.506-0.506c-0.278,0-0.504,0.227-0.504,0.506S81.317,107.832,81.596,107.832z M90.692,104.8
	c0.28,0,0.506-0.228,0.506-0.507c0-0.278-0.226-0.505-0.506-0.505c-0.278,0-0.506,0.227-0.506,0.505
	C90.187,104.572,90.414,104.8,90.692,104.8z M78.564,108.842c0.279,0,0.505-0.226,0.505-0.505s-0.226-0.505-0.505-0.505
	s-0.506,0.226-0.506,0.505S78.285,108.842,78.564,108.842z M40.663,108.337c0-0.249-0.184-0.446-0.422-0.488l-0.292,0.944
	c0.063,0.031,0.133,0.049,0.208,0.049C40.436,108.842,40.663,108.616,40.663,108.337z M91.507,105.771
	c0.061,0.025,0.127,0.04,0.197,0.04c0.069,0,0.136-0.015,0.196-0.04c0.181-0.077,0.309-0.257,0.309-0.467l0,0
	c0-0.209-0.128-0.389-0.309-0.466c-0.061-0.024-0.127-0.038-0.196-0.038c-0.07,0-0.137,0.014-0.197,0.038
	c-0.182,0.077-0.309,0.257-0.309,0.466l0,0C91.198,105.514,91.325,105.693,91.507,105.771z M88.671,106.82
	c0.28,0,0.507-0.226,0.507-0.505s-0.227-0.505-0.507-0.505c-0.279,0-0.505,0.226-0.505,0.505S88.392,106.82,88.671,106.82z
	 M89.682,102.777c-0.278,0-0.504,0.227-0.504,0.505c0,0.279,0.226,0.506,0.504,0.506c0.279,0,0.505-0.227,0.505-0.506
	C90.187,103.004,89.961,102.777,89.682,102.777z M87.661,103.788c0.277,0,0.505-0.227,0.505-0.506c0-0.278-0.228-0.505-0.505-0.505
	c-0.28,0-0.506,0.227-0.506,0.505C87.155,103.562,87.381,103.788,87.661,103.788z M86.65,106.82c0.279,0,0.505-0.226,0.505-0.505
	s-0.226-0.505-0.505-0.505s-0.507,0.226-0.507,0.505S86.371,106.82,86.65,106.82z M86.65,103.788c-0.279,0-0.507,0.227-0.507,0.505
	c0,0.279,0.228,0.507,0.507,0.507s0.505-0.228,0.505-0.507C87.155,104.015,86.93,103.788,86.65,103.788z M87.464,105.771
	c0.061,0.025,0.128,0.04,0.197,0.04s0.136-0.015,0.195-0.04c0.183-0.077,0.31-0.257,0.31-0.467l0,0c0-0.209-0.127-0.389-0.31-0.466
	c-0.06-0.024-0.126-0.038-0.195-0.038s-0.137,0.014-0.197,0.038c-0.182,0.077-0.309,0.257-0.309,0.466l0,0
	C87.155,105.514,87.282,105.693,87.464,105.771z M86.65,101.766c-0.279,0-0.507,0.227-0.507,0.507c0,0.278,0.228,0.505,0.507,0.505
	s0.505-0.227,0.505-0.505C87.155,101.992,86.93,101.766,86.65,101.766z M86.144,103.282c0-0.278-0.226-0.505-0.504-0.505
	c-0.279,0-0.506,0.227-0.506,0.505c0,0.279,0.227,0.506,0.506,0.506C85.918,103.788,86.144,103.562,86.144,103.282z M88.671,103.788
	c-0.279,0-0.505,0.227-0.505,0.505c0,0.279,0.226,0.507,0.505,0.507c0.28,0,0.507-0.228,0.507-0.507
	C89.178,104.015,88.951,103.788,88.671,103.788z M53.296,103.788c0.279,0,0.505-0.227,0.505-0.506c0-0.278-0.226-0.505-0.505-0.505
	c-0.278,0-0.505,0.227-0.505,0.505C52.791,103.562,53.018,103.788,53.296,103.788z M52.285,102.777c0.28,0,0.506-0.227,0.506-0.505
	c0-0.157-0.075-0.291-0.187-0.384l-0.744,0.127c-0.046,0.076-0.08,0.161-0.08,0.257C51.78,102.551,52.005,102.777,52.285,102.777z
	 M55.318,101.766c0.25,0,0.448-0.185,0.489-0.422l-0.926,0.157C54.968,101.657,55.127,101.766,55.318,101.766z M54.307,102.777
	c0.279,0,0.505-0.227,0.505-0.505c0-0.28-0.226-0.507-0.505-0.507s-0.506,0.227-0.506,0.507
	C53.801,102.551,54.028,102.777,54.307,102.777z M51.275,103.788c0.278,0,0.505-0.227,0.505-0.506c0-0.278-0.227-0.505-0.505-0.505
	c-0.28,0-0.506,0.227-0.506,0.505C50.769,103.562,50.995,103.788,51.275,103.788z M50.264,102.777c0.28,0,0.505-0.227,0.505-0.505
	c0-0.024-0.01-0.046-0.014-0.069l-0.978,0.166C49.825,102.601,50.02,102.777,50.264,102.777z M59.361,100.755
	c-0.281,0-0.506,0.227-0.506,0.507c0,0.278,0.226,0.504,0.506,0.504c0.278,0,0.505-0.226,0.505-0.504
	C59.866,100.981,59.639,100.755,59.361,100.755z M58.35,101.766c-0.279,0-0.506,0.227-0.506,0.507c0,0.278,0.227,0.505,0.506,0.505
	c0.279,0,0.504-0.227,0.504-0.505C58.854,101.992,58.629,101.766,58.35,101.766z M55.318,102.777c-0.28,0-0.506,0.227-0.506,0.505
	c0,0.279,0.226,0.506,0.506,0.506c0.278,0,0.505-0.227,0.505-0.506C55.823,103.004,55.596,102.777,55.318,102.777z M49.253,103.788
	c0.279,0,0.505-0.227,0.505-0.506c0-0.278-0.226-0.505-0.505-0.505c-0.279,0-0.505,0.227-0.505,0.505
	C48.748,103.562,48.974,103.788,49.253,103.788z M57.339,101.766c0.279,0,0.505-0.226,0.505-0.504c0-0.094-0.031-0.177-0.076-0.252
	l-0.429,0.073l-0.486,0.082c-0.006,0.033-0.019,0.062-0.019,0.097C56.834,101.54,57.06,101.766,57.339,101.766z M77.553,101.766
	c0.28,0,0.506-0.226,0.506-0.504c0-0.28-0.226-0.507-0.506-0.507c-0.277,0-0.504,0.227-0.504,0.507
	C77.049,101.54,77.275,101.766,77.553,101.766z M59.361,103.788c0.278,0,0.505-0.227,0.505-0.506c0-0.278-0.227-0.505-0.505-0.505
	c-0.281,0-0.506,0.227-0.506,0.505C58.854,103.562,59.08,103.788,59.361,103.788z M48.646,102.562l-0.687,0.116
	c0.083,0.058,0.176,0.099,0.283,0.099C48.411,102.777,48.554,102.688,48.646,102.562z M43.669,103.408l-0.892,0.152
	c0.091,0.135,0.237,0.228,0.411,0.228C43.423,103.788,43.612,103.625,43.669,103.408z M42.178,104.8
	c0.279,0,0.505-0.228,0.505-0.507c0-0.278-0.226-0.505-0.505-0.505c-0.279,0-0.506,0.227-0.506,0.505
	C41.672,104.572,41.899,104.8,42.178,104.8z M41.167,107.832c0.279,0,0.505-0.227,0.505-0.506s-0.226-0.506-0.505-0.506
	c-0.278,0-0.504,0.227-0.504,0.506S40.889,107.832,41.167,107.832z M41.167,105.811c0.07,0,0.137-0.015,0.197-0.04
	c0.181-0.077,0.308-0.257,0.308-0.467l0,0c0-0.209-0.127-0.389-0.308-0.466c-0.055-0.022-0.117-0.034-0.18-0.035l-0.286,0.924
	c0.024,0.015,0.046,0.032,0.072,0.044C41.031,105.796,41.098,105.811,41.167,105.811z M43.386,104.838
	c-0.061-0.024-0.127-0.038-0.197-0.038c-0.069,0-0.137,0.014-0.197,0.038c-0.182,0.077-0.309,0.257-0.309,0.466l0,0
	c0,0.21,0.127,0.39,0.309,0.467c0.06,0.025,0.127,0.04,0.197,0.04c0.07,0,0.136-0.015,0.197-0.04
	c0.181-0.077,0.309-0.257,0.309-0.467l0,0C43.694,105.095,43.567,104.915,43.386,104.838z M48.242,104.8
	c0.28,0,0.506-0.228,0.506-0.507c0-0.278-0.226-0.505-0.506-0.505c-0.279,0-0.505,0.227-0.505,0.505
	C47.737,104.572,47.963,104.8,48.242,104.8z M47.232,103.788c0.278,0,0.505-0.227,0.505-0.506c0-0.254-0.192-0.456-0.437-0.491
	l-0.304,0.052c-0.158,0.086-0.271,0.248-0.271,0.439C46.726,103.562,46.952,103.788,47.232,103.788z M46.221,104.8
	c0.279,0,0.505-0.228,0.505-0.507c0-0.278-0.226-0.505-0.505-0.505s-0.506,0.227-0.506,0.505
	C45.715,104.572,45.942,104.8,46.221,104.8z M45.21,103.788c0.279,0,0.505-0.227,0.505-0.506c0-0.076-0.021-0.147-0.051-0.213
	l-0.455,0.077l-0.494,0.084c-0.002,0.018-0.011,0.034-0.011,0.052C44.705,103.562,44.932,103.788,45.21,103.788z M44.199,104.8
	c0.28,0,0.506-0.228,0.506-0.507c0-0.278-0.226-0.505-0.506-0.505c-0.279,0-0.505,0.227-0.505,0.505
	C43.694,104.572,43.92,104.8,44.199,104.8z M56.328,102.777c0.279,0,0.506-0.227,0.506-0.505c0-0.28-0.227-0.507-0.506-0.507
	s-0.505,0.227-0.505,0.507C55.823,102.551,56.049,102.777,56.328,102.777z M72.499,99.744c-0.279,0-0.505,0.227-0.505,0.507
	c0,0.278,0.226,0.504,0.505,0.504c0.28,0,0.506-0.226,0.506-0.504C73.005,99.971,72.779,99.744,72.499,99.744z M71.489,98.733
	c-0.28,0-0.506,0.227-0.506,0.506s0.226,0.505,0.506,0.505c0.278,0,0.505-0.226,0.505-0.505S71.768,98.733,71.489,98.733z
	 M70.479,99.744c-0.279,0-0.506,0.227-0.506,0.507c0,0.278,0.227,0.504,0.506,0.504s0.505-0.226,0.505-0.504
	C70.983,99.971,70.758,99.744,70.479,99.744z M73.511,101.766c0.278,0,0.504-0.226,0.504-0.504c0-0.28-0.226-0.507-0.504-0.507
	c-0.279,0-0.506,0.227-0.506,0.507C73.005,101.54,73.231,101.766,73.511,101.766z M71.489,101.766c0.278,0,0.505-0.226,0.505-0.504
	c0-0.28-0.227-0.507-0.505-0.507c-0.28,0-0.506,0.227-0.506,0.507C70.983,101.54,71.209,101.766,71.489,101.766z M76.543,99.744
	c-0.28,0-0.506,0.227-0.506,0.507c0,0.278,0.226,0.504,0.506,0.504c0.279,0,0.506-0.226,0.506-0.504
	C77.049,99.971,76.822,99.744,76.543,99.744z M75.532,98.733c-0.28,0-0.506,0.227-0.506,0.506s0.226,0.505,0.506,0.505
	c0.278,0,0.505-0.226,0.505-0.505S75.811,98.733,75.532,98.733z M69.468,99.02l-0.478,0.082c-0.013,0.044-0.027,0.089-0.027,0.138
	c0,0.279,0.226,0.505,0.505,0.505s0.505-0.226,0.505-0.505c0-0.109-0.041-0.206-0.102-0.288L69.468,99.02z M75.532,101.766
	c0.278,0,0.505-0.226,0.505-0.504c0-0.28-0.227-0.507-0.505-0.507c-0.28,0-0.506,0.227-0.506,0.507
	C75.026,101.54,75.252,101.766,75.532,101.766z M73.511,98.733c-0.279,0-0.506,0.227-0.506,0.506s0.227,0.505,0.506,0.505
	c0.278,0,0.504-0.226,0.504-0.505S73.789,98.733,73.511,98.733z M74.521,99.744c-0.279,0-0.507,0.227-0.507,0.507
	c0,0.278,0.228,0.504,0.507,0.504s0.505-0.226,0.505-0.504C75.026,99.971,74.801,99.744,74.521,99.744z M68.456,99.744
	c-0.279,0-0.505,0.227-0.505,0.507c0,0.278,0.226,0.504,0.505,0.504c0.28,0,0.507-0.226,0.507-0.504
	C68.963,99.971,68.736,99.744,68.456,99.744z M64.414,102.777c0.279,0,0.506-0.227,0.506-0.505c0-0.28-0.227-0.507-0.506-0.507
	s-0.505,0.227-0.505,0.507C63.909,102.551,64.135,102.777,64.414,102.777z M69.468,101.766c0.279,0,0.505-0.226,0.505-0.504
	c0-0.28-0.226-0.507-0.505-0.507s-0.505,0.227-0.505,0.507C68.963,101.54,69.188,101.766,69.468,101.766z M61.899,100.308
	c0.029,0.251,0.234,0.447,0.493,0.447c0.279,0,0.505-0.226,0.505-0.504c0-0.039-0.014-0.074-0.021-0.11L61.899,100.308z
	 M62.393,102.777c0.279,0,0.505-0.227,0.505-0.505c0-0.28-0.226-0.507-0.505-0.507s-0.506,0.227-0.506,0.507
	C61.887,102.551,62.113,102.777,62.393,102.777z M61.382,100.755c-0.278,0-0.505,0.227-0.505,0.507c0,0.278,0.227,0.504,0.505,0.504
	c0.279,0,0.505-0.226,0.505-0.504C61.887,100.981,61.661,100.755,61.382,100.755z M63.403,100.755c-0.28,0-0.506,0.227-0.506,0.507
	c0,0.278,0.226,0.504,0.506,0.504c0.278,0,0.506-0.226,0.506-0.504C63.909,100.981,63.682,100.755,63.403,100.755z M68.456,102.777
	c0.28,0,0.507-0.227,0.507-0.505c0-0.28-0.227-0.507-0.507-0.507c-0.279,0-0.505,0.227-0.505,0.507
	C67.951,102.551,68.177,102.777,68.456,102.777z M64.685,99.834l-0.664,0.112c-0.065,0.086-0.111,0.188-0.111,0.305
	c0,0.278,0.226,0.504,0.505,0.504s0.506-0.226,0.506-0.504C64.92,100.072,64.822,99.924,64.685,99.834z M61.382,103.788
	c0.279,0,0.505-0.227,0.505-0.506c0-0.278-0.226-0.505-0.505-0.505c-0.278,0-0.505,0.227-0.505,0.505
	C60.877,103.562,61.104,103.788,61.382,103.788z M66.436,99.744c-0.279,0-0.506,0.227-0.506,0.507c0,0.278,0.227,0.504,0.506,0.504
	s0.505-0.226,0.505-0.504C66.94,99.971,66.715,99.744,66.436,99.744z M66.436,102.777c0.279,0,0.505-0.227,0.505-0.505
	c0-0.28-0.226-0.507-0.505-0.507s-0.506,0.227-0.506,0.507C65.93,102.551,66.156,102.777,66.436,102.777z"/>
<path fill="#CF4F41" d="M5.469,102.716l-0.451,0.662c-1.18,1.881-1.335,4.273-0.413,6.397c1.05,2.414,3.313,4.121,6.217,4.684
	l20.997,3.121c0.278,0.041,0.562-0.145,0.634-0.415l1.072-3.973c0.073-0.271-0.092-0.525-0.369-0.569l-10.707-1.705
	c-0.277-0.045-0.43-0.295-0.341-0.562l1.5-4.517c0.089-0.265,0.385-0.449,0.664-0.41l10.49,1.503
	c0.278,0.041,0.567-0.146,0.646-0.414l1.172-3.995c0.078-0.269-0.083-0.521-0.359-0.564l-20.996-3.214
	c-0.584-0.1-1.174-0.152-1.752-0.16C10.128,98.545,7.132,100.096,5.469,102.716z M15.609,109.83l-3.807-0.604
	c-1.146-0.229-1.963-0.788-2.303-1.571c-0.22-0.508-0.211-1.038,0.023-1.417l0.035-0.063c0.929-1.979,2.871-2.254,3.946-2.243
	c0.293,0.004,0.584,0.03,0.878,0.08l3.017,0.433c0.278,0.04,0.431,0.288,0.343,0.554l-1.471,4.431
	C16.183,109.694,15.886,109.874,15.609,109.83z"/>
<path fill="#CF4F41" d="M38.212,40.728c-8.479-0.268-15.363,4.871-15.563,11.448c-0.08,2.587,0.881,5.077,2.78,7.204
	c2.766,3.096,7.27,5.032,12.051,5.18c0.205,0.006,0.41,0.009,0.612,0.009h0.081c8.144-0.032,14.676-5.065,14.871-11.458
	c0.079-2.586-0.883-5.078-2.782-7.204C47.497,42.811,42.992,40.875,38.212,40.728z M37.659,58.785
	c-3.173-0.097-6.196-1.337-7.892-3.235c-0.891-0.999-1.345-2.103-1.311-3.195c0.099-3.211,4.177-5.839,9.09-5.858l0.053,0
	c0.145,0,0.291,0.002,0.435,0.007c3.172,0.097,6.196,1.338,7.892,3.236c0.891,0.997,1.344,2.102,1.311,3.195
	C47.133,56.25,42.799,58.941,37.659,58.785z"/>
<path fill="#CF4F41" d="M14.488,79.229c-0.278-0.037-0.575,0.146-0.664,0.414l-1.605,4.436c-0.089,0.267,0.065,0.513,0.343,0.551
	l21.029,2.798c1.105,0.216,1.892,0.745,2.218,1.489c0.205,0.469,0.201,0.954,0.009,1.271l0,0c-0.802,1.987-2.976,2.304-3.869,2.293
	c-0.286-0.003-0.575-0.028-0.872-0.078l-20-2.901c-0.278-0.041-0.571,0.144-0.655,0.411l-1.472,4.243
	c-0.085,0.269,0.072,0.52,0.349,0.562l20.914,3.207c0.576,0.096,1.159,0.146,1.729,0.153c3.407,0.04,6.453-1.544,8.135-4.217
	l0.451-0.669c1.195-1.922,1.344-4.358,0.397-6.518c-1.075-2.455-3.379-4.184-6.326-4.743L14.488,79.229z"/>
<path fill="#CF4F41" d="M66.338,6.366l1.191-3.906c0.082-0.268-0.079-0.491-0.359-0.499L46.325,1.409
	c-4.007-0.225-7.543,1.716-9.129,4.971l-0.372,0.705c-0.945,1.964-0.832,4.314,0.301,6.287c1.293,2.249,3.698,3.672,6.603,3.903
	l18.807,0.764c0.28,0.012,0.571-0.197,0.65-0.466l1.207-4.067c0.079-0.269-0.084-0.496-0.363-0.508l-9.871-0.39
	c-0.28-0.011-0.433-0.235-0.34-0.5l1.729-4.968c0.092-0.265,0.395-0.475,0.676-0.47l9.46,0.173
	C65.963,6.848,66.258,6.635,66.338,6.366z M47.222,12.331l-3.127-0.123c-1.207-0.104-2.118-0.589-2.565-1.368
	c-0.295-0.516-0.348-1.086-0.124-1.566c0.785-2.095,2.896-2.816,4.466-2.798c0.069,0.001,0.137,0.003,0.223,0.007l3.381,0.062
	c0.281,0.005,0.425,0.221,0.324,0.482l-1.887,4.85C47.812,12.14,47.503,12.343,47.222,12.331z"/>
<path fill="#CF4F41" d="M32.691,24.487l14.013,4.796c0.265,0.095,0.252,0.193-0.027,0.221l-16.851,1.764
	c-0.279,0.027-0.585,0.262-0.683,0.525l-1.843,4.93c-0.099,0.263,0.048,0.501,0.327,0.532l28.07,3.134c0,0,0.023,0.002,0.052,0.006
	c0.028,0.003,0.122-0.211,0.208-0.477l1.253-3.876c0.087-0.267-0.07-0.505-0.349-0.532l-12.199-1.166
	c-0.279-0.026-0.279-0.071-0.001-0.099l13.093-1.398c0.279-0.028,0.571-0.268,0.652-0.536l0.971-3.213
	c0.081-0.269-0.071-0.552-0.339-0.632l-11.524-3.366c-0.268-0.082-0.259-0.131,0.021-0.112l12.398,0.744
	c0.281,0.019,0.575-0.183,0.657-0.452l1.196-3.892c0.083-0.268-0.078-0.5-0.356-0.517l-26.854-1.447
	c-0.28-0.017-0.587,0.182-0.686,0.444l-1.499,3.972C32.293,24.104,32.427,24.394,32.691,24.487z"/>
<path fill="#CF4F41" d="M25.886,62.851l-5.074-0.737c-0.28-0.026-0.583,0.166-0.676,0.431l-4.78,13.745
	c-0.093,0.266,0.056,0.507,0.334,0.54l4.955,0.591c0.278,0.032,0.581-0.154,0.676-0.419l1.157-3.217
	c0.095-0.265,0.398-0.454,0.677-0.424l21.144,2.24c0.278,0.03,0.576-0.161,0.663-0.428l1.549-4.736
	c0.087-0.267-0.068-0.509-0.346-0.541l-20.927-2.326c-0.278-0.031-0.427-0.271-0.333-0.536l1.316-3.656
	C26.314,63.112,26.165,62.877,25.886,62.851z"/>
</svg>
