<?xml version="1.0" encoding="utf-8"?>
<!-- Generator: Adobe Illustrator 16.2.1, SVG Export Plug-In . SVG Version: 6.00 Build 0)  -->
<!DOCTYPE svg PUBLIC "-//W3C//DTD SVG 1.1//EN" "http://www.w3.org/Graphics/SVG/1.1/DTD/svg11.dtd">
<svg version="1.1" id="Layer_1" xmlns="http://www.w3.org/2000/svg" xmlns:xlink="http://www.w3.org/1999/xlink" x="0px" y="0px"
	 width="85.5px" height="94.917px" viewBox="-41.5 -38.75 85.5 94.917" enable-background="new -41.5 -38.75 85.5 94.917"
	 xml:space="preserve">
<g>
	<path d="M20.72,33.14c0.082,0,0.147-0.03,0.219-0.073l-0.502-0.073C20.5,33.079,20.598,33.14,20.72,33.14z"/>
	<path d="M17.743,33.14c0.21,0,0.375-0.172,0.375-0.368c0-0.048-0.013-0.094-0.031-0.131l-0.625-0.099
		c-0.049,0.062-0.082,0.142-0.082,0.229C17.372,32.968,17.544,33.14,17.743,33.14z"/>
	<path d="M19.232,33.14c0.171,0,0.31-0.115,0.347-0.276l-0.716-0.112c0,0.009-0.01,0.021-0.01,0.021
		C18.86,32.968,19.028,33.14,19.232,33.14z"/>
	<path d="M14.771,33.14c0.202,0,0.37-0.172,0.37-0.368c0-0.042-0.012-0.079-0.022-0.117l-0.724,0.122
		C14.406,32.979,14.569,33.14,14.771,33.14z"/>
	<path d="M16.254,33.14c0.208,0,0.377-0.172,0.377-0.368c0-0.147-0.091-0.273-0.213-0.341l-0.429,0.074
		c-0.068,0.068-0.104,0.161-0.104,0.267C15.886,32.968,16.052,33.14,16.254,33.14z"/>
	<path d="M13.278,33.14c0.16,0,0.286-0.09,0.349-0.228l-0.615,0.112C13.074,33.09,13.174,33.14,13.278,33.14z"/>
	<path d="M13.911,3.458c0.654,0.195,1.354,0.322,2.079,0.371c3.805,0.229,7.025-1.773,7.108-4.377
		c0.091-2.596-3.022-4.967-6.775-5.167c-0.109-0.004-0.21-0.01-0.312-0.01c-3.628-0.089-6.628,1.882-6.724,4.379
		c-0.038,1.171,0.575,2.295,1.604,3.203c0.07,0.069,0.182,0.047,0.229-0.041l1.002-1.77c0.045-0.087,0.165-0.133,0.261-0.091
		l2.532,1.012c0.102,0.039,0.139,0.146,0.083,0.225l-1.182,2.053C13.768,3.333,13.81,3.428,13.911,3.458z"/>
	<path d="M43.989,36.393L13.388-38.393c0,0-0.012-0.045-0.045-0.109c-0.024-0.062-0.076-0.113-0.107-0.113
		c-0.039,0-0.091,0.08-0.119,0.177L8.619-22.861c-0.032,0.094,0.034,0.174,0.136,0.174l5.098,0.39c0.099,0,0.153-0.079,0.119-0.168
		l-1.641-4.195c-0.036-0.089,0.013-0.167,0.12-0.167l2.996,0.184c0.101,0,0.217,0.077,0.247,0.173l4.197,10.791
		c0.04,0.094-0.015,0.17-0.115,0.166l-3.102-0.209c-0.107-0.002-0.211-0.085-0.251-0.179l-1.243-3.292
		c-0.034-0.097-0.145-0.176-0.253-0.176l-6.986-0.417c-0.108,0-0.208,0.078-0.237,0.17l-1.563,5.313
		c-0.027,0.096,0.024,0.181,0.134,0.19l14.318,0.9c0.114,0.004,0.212,0.094,0.243,0.189l0.911,3.027
		c0.028,0.099-0.037,0.165-0.134,0.161L5.341-10.899c-0.104-0.006-0.203,0.067-0.23,0.16L2.626-2.435
		C2.599-2.341,2.608-2.184,2.647-2.093l13.657,34.266c0,0,0.02,0.049,0.04,0.104c0.029,0.058,0.134,0.113,0.23,0.131l4.866,0.735
		c-0.197,0.008-0.351,0.167-0.351,0.37c0,0.206,0.161,0.368,0.364,0.368c0.21,0,0.378-0.162,0.378-0.368
		c0-0.163-0.097-0.288-0.233-0.352l-0.115-0.014l2.581,0.397c0.023,0.188,0.175,0.34,0.372,0.34c0.151,0,0.284-0.099,0.346-0.232
		l-0.479-0.069l1.721,0.258l-0.098-0.012l-0.251-0.04c0.064,0.061,0.151,0.098,0.251,0.098c0.047,0,0.109-0.009,0.157-0.037
		l1.732,0.266c-0.025,0.048-0.037,0.1-0.037,0.143c0,0.21,0.172,0.381,0.369,0.381c0.205,0,0.372-0.171,0.372-0.381
		c0-0.012-0.005-0.028-0.005-0.04l-0.583-0.085l3.166,0.474l-0.132-0.026c0.044,0.037,0.104,0.052,0.162,0.052
		c0.021,0,0.038-0.009,0.053-0.009l5.656,0.854c-0.085,0.062-0.131,0.168-0.131,0.273c0,0.203,0.165,0.372,0.369,0.372
		c0.207,0,0.373-0.169,0.373-0.372c0-0.066-0.022-0.136-0.051-0.188l-0.479-0.071l2.806,0.421c0.059,0.121,0.187,0.203,0.332,0.203
		c0.104,0,0.197-0.043,0.27-0.112l-0.544-0.081l2.228,0.336c-0.056,0.064-0.094,0.141-0.094,0.231c0,0.201,0.155,0.363,0.346,0.369
		l0.194-0.037c0.117-0.062,0.2-0.184,0.2-0.332c0-0.042-0.008-0.098-0.023-0.139l-0.346-0.046l1.569,0.234
		C43.974,36.558,44.024,36.489,43.989,36.393z M10.818,8.086L8.37,7.064C8.278,7.025,8.241,6.919,8.289,6.836l1.206-2.138
		c0.049-0.087,0.022-0.21-0.06-0.275c-1.969-1.528-3.177-3.659-3.09-5.939C6.5-5.742,10.955-8.939,16.43-8.648
		c5.467,0.284,9.829,3.996,9.683,8.271c-0.14,4.189-4.47,7.34-9.825,7.173c-0.136-0.015-0.267-0.019-0.402-0.023
		c-1.233-0.082-2.401-0.33-3.467-0.724c-0.098-0.037-0.22,0.009-0.265,0.094l-1.073,1.85C11.032,8.086,10.913,8.124,10.818,8.086z
		 M12.419,15.344l-0.22-0.525c-0.519-1.383-0.305-2.946,0.569-4.175c1.011-1.416,2.745-2.19,4.761-2.119l0.049,0.003l12.014,1.028
		c0.106,0.003,0.225,0.096,0.27,0.191l1.181,2.674c0.052,0.103-0.008,0.176-0.109,0.159l-13.446-1.105
		c-1.017-0.027-1.822,0.303-2.277,0.931c-0.31,0.437-0.398,0.966-0.236,1.423l0.223,0.526c0.564,1.491,2.116,2.104,3.38,2.176
		l14.18,1.346c0.104,0.015,0.227,0.101,0.263,0.196l1.048,2.688c0.038,0.11-0.019,0.179-0.124,0.163l-15.475-1.43
		C15.665,19.325,13.341,17.729,12.419,15.344z M39.084,33.263l-2.951-0.393c-0.099-0.016-0.217-0.107-0.267-0.204l-2.573-6.002
		c-0.039-0.103-0.156-0.189-0.26-0.196l-4.685-0.498c-0.111-0.009-0.163,0.059-0.129,0.158l2.117,5.593
		c0.037,0.103-0.019,0.17-0.127,0.153l-3.021-0.397c-0.105-0.022-0.218-0.11-0.257-0.206L24.89,25.78
		c-0.038-0.107-0.146-0.189-0.258-0.198l-4.481-0.546c-0.103-0.012-0.162,0.062-0.122,0.163l1.925,5.225
		c0.031,0.096-0.022,0.175-0.125,0.156l-3.033-0.426c-0.11-0.009-0.215-0.105-0.254-0.197l-3.166-8.219
		c-0.04-0.088,0.013-0.163,0.122-0.158l19.881,1.973c0.108,0.012,0.226,0.244,0.27,0.342l3.551,9.213
		C39.246,33.209,39.188,33.277,39.084,33.263z M-6.662,37.649c-0.045-0.014-0.093-0.028-0.141-0.028
		c-0.052,0-0.103,0.015-0.147,0.028c-0.136,0.059-0.229,0.189-0.229,0.346l0,0c0,0.148,0.093,0.281,0.229,0.34
		c0.043,0.023,0.094,0.035,0.147,0.035c0.048,0,0.096-0.012,0.141-0.035c0.135-0.056,0.228-0.191,0.228-0.34l0,0
		C-6.434,37.841-6.527,37.708-6.662,37.649z M-6.803,39.858c0.202,0,0.369-0.172,0.369-0.369c0-0.209-0.167-0.382-0.369-0.382
		c-0.207,0-0.375,0.173-0.375,0.382C-7.177,39.688-7.009,39.858-6.803,39.858z M-7.55,38.366c-0.204,0-0.373,0.171-0.373,0.369
		c0,0.204,0.169,0.372,0.373,0.372c0.206,0,0.373-0.168,0.373-0.372C-7.177,38.534-7.342,38.366-7.55,38.366z M-6.06,38.366
		c-0.208,0-0.375,0.171-0.375,0.369c0,0.204,0.167,0.372,0.375,0.372c0.202,0,0.368-0.168,0.368-0.372
		C-5.691,38.534-5.858,38.366-6.06,38.366z M-7.55,40.605c0.206,0,0.373-0.161,0.373-0.374c0-0.202-0.165-0.366-0.373-0.366
		c-0.204,0-0.373,0.164-0.373,0.366C-7.923,40.444-7.754,40.605-7.55,40.605z M-8.293,39.107c-0.208,0-0.374,0.173-0.374,0.382
		c0,0.197,0.166,0.369,0.374,0.369c0.204,0,0.372-0.172,0.372-0.369C-7.923,39.28-8.09,39.107-8.293,39.107z M-3.683,37.649
		c-0.047-0.014-0.095-0.028-0.146-0.028s-0.102,0.015-0.145,0.028c-0.132,0.059-0.23,0.189-0.23,0.346l0,0
		c0,0.148,0.098,0.281,0.23,0.34c0.043,0.023,0.093,0.035,0.145,0.035s0.1-0.012,0.146-0.035c0.129-0.056,0.227-0.191,0.227-0.34
		l0,0C-3.456,37.841-3.553,37.708-3.683,37.649z M-3.829,39.858c0.205,0,0.373-0.172,0.373-0.369c0-0.209-0.168-0.382-0.373-0.382
		c-0.208,0-0.375,0.173-0.375,0.382C-4.204,39.688-4.038,39.858-3.829,39.858z M-4.571,38.366c-0.208,0-0.375,0.171-0.375,0.369
		c0,0.204,0.167,0.372,0.375,0.372c0.203,0,0.37-0.168,0.37-0.372C-4.204,38.534-4.368,38.366-4.571,38.366z M-6.06,45.083
		c0.202,0,0.368-0.166,0.368-0.374c0-0.206-0.167-0.368-0.368-0.368c-0.208,0-0.375,0.162-0.375,0.368
		C-6.434,44.917-6.267,45.083-6.06,45.083z M-5.318,39.858c0.206,0,0.37-0.172,0.37-0.369c0-0.209-0.164-0.382-0.37-0.382
		c-0.205,0-0.374,0.173-0.374,0.382C-5.691,39.688-5.521,39.858-5.318,39.858z M-0.854,39.107c-0.206,0-0.373,0.173-0.373,0.382
		c0,0.197,0.167,0.369,0.373,0.369c0.21,0,0.372-0.172,0.372-0.369C-0.483,39.28-0.644,39.107-0.854,39.107z M-8.293,45.835
		c0.204,0,0.372-0.175,0.372-0.38c0-0.21-0.167-0.372-0.372-0.372c-0.208,0-0.374,0.162-0.374,0.372
		C-8.667,45.669-8.501,45.835-8.293,45.835z M-7.55,45.083c0.206,0,0.373-0.166,0.373-0.374c0-0.206-0.165-0.368-0.373-0.368
		c-0.204,0-0.373,0.162-0.373,0.368C-7.923,44.917-7.754,45.083-7.55,45.083z M-7.923,43.969c0-0.21-0.167-0.378-0.373-0.378
		c-0.205,0-0.372,0.168-0.372,0.378l0,0c0,0.204,0.164,0.372,0.372,0.372C-8.09,44.341-7.923,44.173-7.923,43.969L-7.923,43.969z
		 M-7.55,42.84c-0.204,0-0.373,0.161-0.373,0.381c0,0.2,0.169,0.365,0.373,0.365c0.206,0,0.373-0.165,0.373-0.365
		C-7.177,43.001-7.342,42.84-7.55,42.84z M-6.803,44.341c0.202,0,0.369-0.168,0.369-0.372l0,0c0-0.21-0.167-0.378-0.369-0.378
		c-0.207,0-0.375,0.168-0.375,0.378l0,0C-7.177,44.173-7.009,44.341-6.803,44.341z M-9.037,42.84c-0.209,0-0.373,0.161-0.373,0.381
		c0,0.2,0.163,0.365,0.373,0.365c0.203,0,0.37-0.165,0.37-0.365C-8.667,43.001-8.833,42.84-9.037,42.84z M-9.037,42.094
		c0.203,0,0.37-0.162,0.37-0.366c0-0.211-0.167-0.374-0.37-0.374c-0.209,0-0.373,0.163-0.373,0.374
		C-9.409,41.932-9.246,42.094-9.037,42.094z M-3.085,39.107c0.205,0,0.369-0.168,0.369-0.372c0-0.198-0.163-0.369-0.369-0.369
		c-0.207,0-0.371,0.171-0.371,0.369C-3.456,38.939-3.292,39.107-3.085,39.107z M-9.037,45.083c0.203,0,0.37-0.166,0.37-0.374
		c0-0.206-0.167-0.368-0.37-0.368c-0.209,0-0.373,0.162-0.373,0.368C-9.409,44.917-9.246,45.083-9.037,45.083z M-9.784,40.605
		c-0.201,0-0.371,0.166-0.371,0.377c0,0.201,0.167,0.372,0.371,0.372c0.206,0,0.375-0.171,0.375-0.372
		C-9.409,40.769-9.578,40.605-9.784,40.605z M-9.784,42.84c0.206,0,0.375-0.167,0.375-0.365c0-0.209-0.169-0.381-0.375-0.381
		c-0.201,0-0.371,0.172-0.371,0.381C-10.155,42.678-9.985,42.84-9.784,42.84z M-5.171,37.649c-0.046-0.014-0.095-0.028-0.147-0.028
		c-0.053,0-0.1,0.015-0.146,0.028c-0.133,0.059-0.228,0.189-0.228,0.346l0,0c0,0.148,0.095,0.281,0.228,0.34
		c0.045,0.023,0.093,0.035,0.146,0.035c0.052,0,0.101-0.012,0.147-0.035c0.13-0.056,0.225-0.191,0.225-0.34l0,0
		C-4.946,37.841-5.041,37.708-5.171,37.649z M3.614,39.858c0.202,0,0.368-0.172,0.368-0.369c0-0.209-0.167-0.382-0.368-0.382
		c-0.209,0-0.375,0.173-0.375,0.382C3.239,39.688,3.405,39.858,3.614,39.858z M2.868,38.366c-0.207,0-0.375,0.171-0.375,0.369
		c0,0.204,0.166,0.372,0.375,0.372c0.204,0,0.371-0.168,0.371-0.372C3.239,38.534,3.071,38.366,2.868,38.366z M2.868,40.605
		c0.204,0,0.371-0.161,0.371-0.374c0-0.202-0.167-0.366-0.371-0.366c-0.207,0-0.375,0.164-0.375,0.366
		C2.493,40.444,2.661,40.605,2.868,40.605z M4.355,40.605c0.204,0,0.373-0.161,0.373-0.374c0-0.202-0.169-0.366-0.373-0.366
		c-0.208,0-0.374,0.164-0.374,0.366C3.982,40.444,4.147,40.605,4.355,40.605z M2.119,39.107c-0.204,0-0.373,0.173-0.373,0.382
		c0,0.197,0.169,0.369,0.373,0.369c0.208,0,0.374-0.172,0.374-0.369C2.493,39.28,2.328,39.107,2.119,39.107z M3.756,37.649
		c-0.048-0.014-0.095-0.028-0.143-0.028c-0.053,0-0.106,0.015-0.15,0.028c-0.134,0.059-0.225,0.189-0.225,0.346l0,0
		c0,0.148,0.091,0.281,0.225,0.34c0.042,0.023,0.096,0.035,0.15,0.035c0.047,0,0.095-0.012,0.143-0.035
		c0.131-0.056,0.226-0.191,0.226-0.34l0,0C3.982,37.841,3.888,37.708,3.756,37.649z M0.634,39.107c-0.207,0-0.375,0.173-0.375,0.382
		c0,0.197,0.168,0.369,0.375,0.369c0.205,0,0.37-0.172,0.37-0.369C1.004,39.28,0.842,39.107,0.634,39.107z M2.119,41.354
		c0.208,0,0.374-0.171,0.374-0.372c0-0.211-0.166-0.377-0.374-0.377c-0.204,0-0.373,0.166-0.373,0.377
		C1.747,41.183,1.916,41.354,2.119,41.354z M0.634,41.354c0.205,0,0.37-0.171,0.37-0.372c0-0.211-0.163-0.377-0.37-0.377
		c-0.207,0-0.375,0.166-0.375,0.377C0.259,41.183,0.428,41.354,0.634,41.354z M-0.11,40.605c0.204,0,0.37-0.161,0.37-0.374
		c0-0.202-0.166-0.366-0.37-0.366c-0.205,0-0.373,0.164-0.373,0.366C-0.483,40.444-0.315,40.605-0.11,40.605z M2.868,36.875
		c-0.207,0-0.375,0.164-0.375,0.362c0,0.21,0.166,0.384,0.375,0.384c0.204,0,0.371-0.174,0.371-0.384
		C3.239,37.039,3.071,36.875,2.868,36.875z M1.376,40.605c0.209,0,0.373-0.161,0.373-0.374c0-0.202-0.164-0.366-0.373-0.366
		c-0.203,0-0.372,0.164-0.372,0.366C1.004,40.444,1.171,40.605,1.376,40.605z M1.747,37.995c0,0.15,0.097,0.284,0.23,0.343
		c0.043,0.023,0.091,0.034,0.141,0.034c0.053,0,0.103-0.011,0.148-0.034c0.132-0.056,0.227-0.192,0.227-0.343l0,0
		c0-0.153-0.095-0.284-0.227-0.346c-0.043-0.014-0.094-0.028-0.148-0.028c-0.05,0-0.098,0.015-0.141,0.028
		C1.844,37.708,1.747,37.841,1.747,37.995L1.747,37.995z M-0.11,39.107c0.204,0,0.37-0.168,0.37-0.372
		c0-0.198-0.166-0.369-0.37-0.369c-0.205,0-0.373,0.171-0.373,0.369C-0.483,38.939-0.315,39.107-0.11,39.107z M-1.599,36.875
		c-0.207,0-0.373,0.164-0.373,0.362c0,0.21,0.167,0.384,0.373,0.384c0.205,0,0.371-0.174,0.371-0.384
		C-1.227,37.039-1.394,36.875-1.599,36.875z M-0.71,37.649c-0.046-0.014-0.091-0.028-0.147-0.028c-0.051,0-0.094,0.015-0.141,0.028
		c-0.133,0.059-0.23,0.189-0.23,0.346l0,0c0,0.148,0.097,0.281,0.23,0.34c0.047,0.023,0.09,0.035,0.141,0.035
		c0.055,0,0.098-0.012,0.147-0.035c0.133-0.056,0.228-0.191,0.228-0.34l0,0C-0.483,37.841-0.578,37.708-0.71,37.649z M-2.198,37.649
		c-0.042-0.014-0.091-0.028-0.142-0.028c-0.053,0-0.102,0.015-0.146,0.028c-0.135,0.059-0.229,0.189-0.229,0.346l0,0
		c0,0.148,0.095,0.281,0.229,0.34c0.045,0.023,0.091,0.035,0.146,0.035c0.05,0,0.1-0.012,0.142-0.035
		c0.138-0.056,0.228-0.191,0.228-0.34l0,0C-1.972,37.841-2.06,37.708-2.198,37.649z M2.119,36.124c-0.204,0-0.373,0.167-0.373,0.37
		c0,0.207,0.169,0.381,0.373,0.381c0.208,0,0.374-0.174,0.374-0.381C2.493,36.291,2.328,36.124,2.119,36.124z M-1.599,39.107
		c0.205,0,0.371-0.168,0.371-0.372c0-0.198-0.166-0.369-0.371-0.369c-0.207,0-0.373,0.171-0.373,0.369
		C-1.972,38.939-1.804,39.107-1.599,39.107z M-0.11,36.875c-0.205,0-0.373,0.164-0.373,0.362c0,0.21,0.168,0.384,0.373,0.384
		c0.204,0,0.37-0.174,0.37-0.384C0.26,37.039,0.094,36.875-0.11,36.875z M1.376,36.875c-0.203,0-0.372,0.164-0.372,0.362
		c0,0.21,0.167,0.384,0.372,0.384c0.209,0,0.373-0.174,0.373-0.384C1.747,37.039,1.585,36.875,1.376,36.875z M-3.085,36.875
		c-0.207,0-0.371,0.164-0.371,0.362c0,0.21,0.165,0.384,0.371,0.384c0.205,0,0.369-0.174,0.369-0.384
		C-2.716,37.039-2.879,36.875-3.085,36.875z M1.376,39.107c0.209,0,0.373-0.168,0.373-0.372c0-0.198-0.164-0.369-0.373-0.369
		c-0.203,0-0.372,0.171-0.372,0.369C1.004,38.939,1.171,39.107,1.376,39.107z M0.781,37.649c-0.045-0.014-0.095-0.028-0.146-0.028
		s-0.103,0.015-0.147,0.028c-0.133,0.059-0.229,0.189-0.229,0.346l0,0c0,0.148,0.095,0.281,0.229,0.34
		c0.042,0.023,0.096,0.035,0.147,0.035s0.101-0.012,0.146-0.035c0.133-0.056,0.224-0.191,0.224-0.34l0,0
		C1.004,37.841,0.914,37.708,0.781,37.649z M-9.037,40.605c0.203,0,0.37-0.161,0.37-0.374c0-0.202-0.167-0.366-0.37-0.366
		c-0.209,0-0.373,0.164-0.373,0.366C-9.409,40.444-9.246,40.605-9.037,40.605z M9.562,41.354c0.202,0,0.371-0.171,0.371-0.372
		c0-0.211-0.169-0.377-0.371-0.377c-0.208,0-0.371,0.166-0.371,0.377C9.192,41.183,9.354,41.354,9.562,41.354z M8.819,39.858
		c-0.207,0-0.375,0.168-0.375,0.373c0,0.21,0.168,0.372,0.375,0.372c0.203,0,0.373-0.162,0.373-0.372
		C9.192,40.026,9.023,39.858,8.819,39.858z M10.304,42.094c0.209,0,0.378-0.162,0.378-0.366c0-0.211-0.169-0.374-0.378-0.374
		c-0.2,0-0.371,0.163-0.371,0.374C9.933,41.932,10.102,42.094,10.304,42.094z M11.054,41.354c0.201,0,0.371-0.171,0.371-0.372
		c0-0.211-0.167-0.377-0.371-0.377c-0.21,0-0.371,0.166-0.371,0.377C10.683,41.183,10.844,41.354,11.054,41.354z M10.304,39.858
		c-0.2,0-0.371,0.168-0.371,0.373c0,0.21,0.171,0.372,0.371,0.372c0.209,0,0.378-0.162,0.378-0.372
		C10.683,40.026,10.514,39.858,10.304,39.858z M8.819,42.094c0.203,0,0.373-0.162,0.373-0.366c0-0.211-0.169-0.374-0.373-0.374
		c-0.207,0-0.375,0.163-0.375,0.374C8.445,41.932,8.612,42.094,8.819,42.094z M5.845,42.094c0.2,0,0.371-0.162,0.371-0.366
		c0-0.211-0.171-0.374-0.371-0.374c-0.208,0-0.375,0.163-0.375,0.374C5.47,41.932,5.633,42.094,5.845,42.094z M8.074,41.354
		c0.206,0,0.371-0.171,0.371-0.372c0-0.211-0.165-0.377-0.371-0.377c-0.202,0-0.375,0.166-0.375,0.377
		C7.699,41.183,7.871,41.354,8.074,41.354z M6.586,40.605c-0.208,0-0.371,0.166-0.371,0.377c0,0.201,0.159,0.372,0.371,0.372
		c0.202,0,0.371-0.171,0.371-0.372C6.957,40.769,6.789,40.605,6.586,40.605z M6.586,42.84c0.202,0,0.371-0.167,0.371-0.365
		c0-0.209-0.168-0.381-0.371-0.381c-0.208,0-0.371,0.172-0.371,0.381C6.215,42.678,6.378,42.84,6.586,42.84z M-6.06,42.84
		c-0.208,0-0.375,0.161-0.375,0.381c0,0.2,0.167,0.365,0.375,0.365c0.202,0,0.368-0.165,0.368-0.365
		C-5.691,43.001-5.858,42.84-6.06,42.84z M11.054,39.107c-0.21,0-0.371,0.173-0.371,0.382c0,0.197,0.161,0.369,0.371,0.369
		c0.201,0,0.371-0.172,0.371-0.369C11.424,39.28,11.254,39.107,11.054,39.107z M7.329,42.094c0.21,0,0.371-0.162,0.371-0.366
		c0-0.211-0.157-0.374-0.371-0.374c-0.208,0-0.372,0.163-0.372,0.374C6.957,41.932,7.12,42.094,7.329,42.094z M15.513,39.858
		c0.207,0,0.373-0.172,0.373-0.369c0-0.209-0.166-0.382-0.373-0.382c-0.206,0-0.373,0.173-0.373,0.382
		C15.141,39.688,15.303,39.858,15.513,39.858z M14.771,38.366c-0.208,0-0.379,0.171-0.379,0.369c0,0.204,0.167,0.372,0.379,0.372
		c0.203,0,0.37-0.168,0.37-0.372C15.141,38.534,14.974,38.366,14.771,38.366z M14.771,40.605c0.202,0,0.37-0.161,0.37-0.374
		c0-0.202-0.167-0.366-0.37-0.366c-0.211,0-0.379,0.164-0.379,0.366C14.392,40.444,14.562,40.605,14.771,40.605z M16.254,38.366
		c-0.202,0-0.368,0.171-0.368,0.369c0,0.204,0.166,0.372,0.368,0.372c0.208,0,0.377-0.168,0.377-0.372
		C16.631,38.534,16.463,38.366,16.254,38.366z M16.254,40.605c0.208,0,0.377-0.161,0.377-0.374c0-0.202-0.165-0.366-0.377-0.366
		c-0.202,0-0.368,0.164-0.368,0.366C15.886,40.444,16.052,40.605,16.254,40.605z M11.795,40.605c0.205,0,0.371-0.161,0.371-0.374
		c0-0.202-0.166-0.366-0.371-0.366c-0.202,0-0.371,0.164-0.371,0.366C11.424,40.444,11.592,40.605,11.795,40.605z M12.544,41.354
		c0.198,0,0.367-0.171,0.367-0.372c0-0.211-0.167-0.377-0.367-0.377c-0.213,0-0.381,0.166-0.381,0.377
		C12.163,41.183,12.331,41.354,12.544,41.354z M12.544,39.107c-0.213,0-0.381,0.173-0.381,0.382c0,0.197,0.168,0.369,0.381,0.369
		c0.198,0,0.367-0.172,0.367-0.369C12.911,39.28,12.744,39.107,12.544,39.107z M14.026,39.107c-0.208,0-0.371,0.173-0.371,0.382
		c0,0.197,0.163,0.369,0.371,0.369c0.206,0,0.366-0.172,0.366-0.369C14.392,39.28,14.231,39.107,14.026,39.107z M13.278,40.605
		c0.206,0,0.376-0.161,0.376-0.374c0-0.202-0.171-0.366-0.376-0.366c-0.205,0-0.371,0.164-0.371,0.366
		C12.911,40.444,13.074,40.605,13.278,40.605z M14.026,41.354c0.206,0,0.366-0.171,0.366-0.372c0-0.211-0.161-0.377-0.366-0.377
		c-0.208,0-0.371,0.166-0.371,0.377C13.655,41.183,13.818,41.354,14.026,41.354z M7.329,39.858c-0.208,0-0.372,0.168-0.372,0.373
		c0,0.21,0.161,0.372,0.372,0.372c0.21,0,0.371-0.162,0.371-0.372C7.699,40.026,7.539,39.858,7.329,39.858z M-3.085,43.591
		c0.205,0,0.369-0.167,0.369-0.365c0-0.215-0.163-0.38-0.369-0.38c-0.207,0-0.371,0.165-0.371,0.38
		C-3.456,43.424-3.292,43.591-3.085,43.591z M-1.599,43.591c0.205,0,0.371-0.167,0.371-0.365c0-0.215-0.166-0.38-0.371-0.38
		c-0.207,0-0.373,0.165-0.373,0.38C-1.972,43.424-1.804,43.591-1.599,43.591z M-2.34,44.341c0.207,0,0.369-0.168,0.369-0.372l0,0
		c0-0.21-0.163-0.378-0.369-0.378c-0.208,0-0.376,0.168-0.376,0.378l0,0C-2.716,44.173-2.548,44.341-2.34,44.341z M-2.34,42.094
		c-0.208,0-0.376,0.172-0.376,0.381c0,0.198,0.168,0.365,0.376,0.365c0.207,0,0.369-0.167,0.369-0.365
		C-1.972,42.266-2.135,42.094-2.34,42.094z M-0.854,42.094c-0.206,0-0.373,0.172-0.373,0.381c0,0.198,0.167,0.365,0.373,0.365
		c0.21,0,0.372-0.167,0.372-0.365C-0.483,42.266-0.644,42.094-0.854,42.094z M-0.854,44.341c0.21,0,0.372-0.168,0.372-0.372l0,0
		c0-0.21-0.161-0.378-0.372-0.378c-0.206,0-0.373,0.168-0.373,0.378l0,0C-1.227,44.173-1.061,44.341-0.854,44.341z M-3.829,42.094
		c-0.208,0-0.375,0.172-0.375,0.381c0,0.198,0.166,0.365,0.375,0.365c0.205,0,0.373-0.167,0.373-0.365
		C-3.456,42.266-3.625,42.094-3.829,42.094z M-5.318,44.341c0.206,0,0.37-0.168,0.37-0.372l0,0c0-0.21-0.164-0.378-0.37-0.378
		c-0.205,0-0.373,0.168-0.374,0.378l0,0C-5.688,44.173-5.521,44.341-5.318,44.341z M-4.571,45.083c0.203,0,0.37-0.166,0.37-0.374
		c0-0.206-0.165-0.368-0.37-0.368c-0.208,0-0.375,0.162-0.375,0.368C-4.946,44.917-4.779,45.083-4.571,45.083z M5.097,40.605
		c-0.204,0-0.37,0.166-0.37,0.377c0,0.201,0.166,0.372,0.37,0.372c0.205,0,0.374-0.171,0.374-0.372
		C5.47,40.769,5.306,40.605,5.097,40.605z M-0.11,43.591c0.204,0,0.37-0.167,0.37-0.365c0-0.215-0.166-0.38-0.37-0.38
		c-0.205,0-0.373,0.165-0.373,0.38C-0.483,43.424-0.315,43.591-0.11,43.591z M-3.829,44.341c0.205,0,0.373-0.168,0.373-0.372l0,0
		c0-0.21-0.168-0.378-0.373-0.378c-0.208,0-0.375,0.168-0.375,0.378l0,0C-4.204,44.173-4.038,44.341-3.829,44.341z M-4.571,42.84
		c-0.208,0-0.375,0.161-0.375,0.381c0,0.2,0.167,0.365,0.375,0.365c0.203,0,0.37-0.165,0.37-0.365
		C-4.204,43.001-4.368,42.84-4.571,42.84z M3.614,40.605c-0.209,0-0.375,0.166-0.375,0.377c0,0.201,0.166,0.372,0.375,0.372
		c0.202,0,0.368-0.171,0.368-0.372C3.982,40.769,3.815,40.605,3.614,40.605z M2.868,41.354c-0.207,0-0.375,0.163-0.375,0.374
		c0,0.204,0.166,0.366,0.375,0.366c0.204,0,0.371-0.162,0.371-0.366C3.239,41.517,3.071,41.354,2.868,41.354z M3.614,42.84
		c0.202,0,0.368-0.167,0.368-0.365c0-0.209-0.167-0.381-0.368-0.381c-0.209,0-0.375,0.172-0.375,0.381
		C3.239,42.678,3.405,42.84,3.614,42.84z M4.355,42.094c0.204,0,0.373-0.162,0.373-0.366c0-0.211-0.169-0.374-0.373-0.374
		c-0.208,0-0.374,0.163-0.374,0.374C3.982,41.932,4.147,42.094,4.355,42.094z M5.097,42.84c0.205,0,0.374-0.167,0.374-0.365
		c0-0.209-0.165-0.381-0.374-0.381c-0.204,0-0.37,0.172-0.37,0.381C4.729,42.678,4.893,42.84,5.097,42.84z M2.119,42.84
		c0.208,0,0.374-0.167,0.374-0.365c0-0.209-0.166-0.381-0.374-0.381c-0.204,0-0.373,0.172-0.373,0.381
		C1.747,42.678,1.916,42.84,2.119,42.84z M1.376,43.591c0.209,0,0.373-0.167,0.373-0.365c0-0.215-0.164-0.38-0.373-0.38
		c-0.203,0-0.372,0.165-0.372,0.38C1.004,43.424,1.171,43.591,1.376,43.591z M0.634,42.84c0.205,0,0.37-0.167,0.37-0.365
		c0-0.209-0.163-0.381-0.37-0.381c-0.207,0-0.375,0.172-0.375,0.381C0.26,42.678,0.428,42.84,0.634,42.84z M1.376,41.354
		c-0.203,0-0.372,0.163-0.372,0.374c0,0.204,0.167,0.366,0.372,0.366c0.209,0,0.373-0.162,0.373-0.366
		C1.747,41.517,1.585,41.354,1.376,41.354z M2.868,43.591c0.204,0,0.371-0.167,0.371-0.365c0-0.215-0.167-0.38-0.371-0.38
		c-0.207,0-0.375,0.165-0.375,0.38C2.493,43.424,2.661,43.591,2.868,43.591z M-0.11,41.354c-0.205,0-0.373,0.163-0.373,0.374
		c0,0.204,0.168,0.366,0.373,0.366c0.204,0,0.37-0.162,0.37-0.366C0.26,41.517,0.094,41.354-0.11,41.354z M11.795,38.366
		c-0.202,0-0.371,0.171-0.371,0.369c0,0.204,0.169,0.372,0.371,0.372c0.205,0,0.371-0.168,0.371-0.372
		C12.163,38.534,12,38.366,11.795,38.366z M17.743,37.621c0.21,0,0.375-0.174,0.375-0.384c0-0.198-0.162-0.362-0.375-0.362
		c-0.198,0-0.371,0.164-0.371,0.362C17.372,37.453,17.544,37.621,17.743,37.621z M19.232,35.377c-0.206,0-0.372,0.168-0.372,0.379
		c0,0.203,0.166,0.367,0.372,0.367c0.21,0,0.375-0.164,0.375-0.367C19.607,35.541,19.442,35.377,19.232,35.377z M19.977,36.124
		c-0.208,0-0.37,0.167-0.37,0.37c0,0.207,0.162,0.381,0.37,0.381c0.205,0,0.368-0.174,0.368-0.381
		C20.345,36.291,20.182,36.124,19.977,36.124z M18.49,36.124c-0.205,0-0.373,0.167-0.373,0.37c0,0.207,0.168,0.381,0.373,0.381
		s0.37-0.174,0.37-0.381C18.86,36.291,18.695,36.124,18.49,36.124z M20.72,37.621c0.207,0,0.377-0.174,0.377-0.384
		c0-0.198-0.17-0.362-0.377-0.362c-0.201,0-0.375,0.164-0.375,0.362C20.345,37.453,20.512,37.621,20.72,37.621z M17.743,35.377
		c-0.198,0-0.371,0.168-0.371,0.379c0,0.203,0.172,0.367,0.371,0.367c0.21,0,0.375-0.164,0.375-0.367
		C18.117,35.541,17.955,35.377,17.743,35.377z M19.232,37.621c0.21,0,0.375-0.174,0.375-0.384c0-0.198-0.165-0.362-0.375-0.362
		c-0.206,0-0.372,0.164-0.372,0.362C18.86,37.453,19.028,37.621,19.232,37.621z M-9.784,45.835c0.206,0,0.375-0.175,0.375-0.38
		c0-0.21-0.169-0.372-0.375-0.372c-0.201,0-0.371,0.162-0.371,0.372C-10.155,45.669-9.985,45.835-9.784,45.835z M21.464,36.875
		c0.206,0,0.376-0.174,0.376-0.381c0-0.203-0.17-0.37-0.376-0.37c-0.207,0-0.368,0.167-0.368,0.37
		C21.097,36.701,21.257,36.875,21.464,36.875z M-10.526,43.591c0.208,0,0.372-0.167,0.372-0.365c0-0.215-0.164-0.38-0.372-0.38
		c-0.205,0-0.373,0.165-0.373,0.38C-10.899,43.424-10.731,43.591-10.526,43.591z M20.72,35.377c-0.201,0-0.375,0.168-0.375,0.379
		c0,0.203,0.167,0.367,0.375,0.367c0.207,0,0.377-0.164,0.377-0.367C21.097,35.541,20.927,35.377,20.72,35.377z M-9.409,43.969
		c0-0.21-0.169-0.378-0.375-0.378c-0.201,0-0.371,0.168-0.371,0.378l0,0c0,0.204,0.17,0.372,0.371,0.372
		C-9.578,44.341-9.409,44.173-9.409,43.969L-9.409,43.969z M14.771,35.377c-0.208,0-0.379,0.168-0.379,0.379
		c0,0.203,0.167,0.367,0.379,0.367c0.203,0,0.37-0.164,0.37-0.367C15.141,35.541,14.974,35.377,14.771,35.377z M14.026,36.124
		c-0.208,0-0.371,0.167-0.371,0.37c0,0.207,0.163,0.381,0.371,0.381c0.206,0,0.366-0.174,0.366-0.381
		C14.392,36.291,14.231,36.124,14.026,36.124z M14.771,37.621c0.202,0,0.37-0.174,0.37-0.384c0-0.198-0.167-0.362-0.37-0.362
		c-0.211,0-0.379,0.164-0.379,0.362C14.392,37.453,14.562,37.621,14.771,37.621z M14.168,37.649
		c-0.043-0.014-0.089-0.028-0.142-0.028c-0.052,0-0.099,0.015-0.146,0.028c-0.134,0.059-0.225,0.189-0.225,0.346l0,0
		c0,0.148,0.09,0.281,0.225,0.34c0.047,0.023,0.095,0.035,0.146,0.035c0.053,0,0.099-0.012,0.142-0.035
		c0.137-0.056,0.227-0.191,0.227-0.34l0,0C14.392,37.841,14.305,37.708,14.168,37.649z M13.278,35.377
		c-0.205,0-0.371,0.168-0.371,0.379c0,0.203,0.167,0.367,0.371,0.367c0.207,0,0.376-0.164,0.376-0.367
		C13.655,35.541,13.485,35.377,13.278,35.377z M-10.526,45.083c0.208,0,0.372-0.166,0.372-0.374c0-0.206-0.164-0.368-0.372-0.368
		c-0.205,0-0.373,0.162-0.373,0.368C-10.899,44.917-10.731,45.083-10.526,45.083z M17.143,37.649
		c-0.037-0.014-0.086-0.028-0.14-0.028c-0.049,0-0.1,0.015-0.147,0.028c-0.127,0.059-0.224,0.189-0.224,0.346l0,0
		c0,0.148,0.096,0.281,0.224,0.34c0.048,0.023,0.097,0.035,0.147,0.035s0.105-0.012,0.14-0.035c0.137-0.056,0.229-0.191,0.229-0.34
		l0,0C17.372,37.841,17.277,37.708,17.143,37.649z M15.665,37.649c-0.049-0.014-0.093-0.028-0.151-0.028
		c-0.044,0-0.103,0.015-0.137,0.028c-0.137,0.059-0.235,0.189-0.235,0.346l0,0c0,0.148,0.098,0.281,0.235,0.34
		c0.036,0.023,0.093,0.035,0.137,0.035c0.058,0,0.103-0.012,0.151-0.035c0.128-0.056,0.222-0.191,0.222-0.34l0,0
		C15.886,37.841,15.793,37.708,15.665,37.649z M17.003,36.124c-0.208,0-0.372,0.167-0.372,0.37c0,0.207,0.163,0.381,0.372,0.381
		c0.2,0,0.369-0.174,0.369-0.381C17.372,36.291,17.205,36.124,17.003,36.124z M16.254,35.377c-0.202,0-0.368,0.168-0.368,0.379
		c0,0.203,0.166,0.367,0.368,0.367c0.208,0,0.377-0.164,0.377-0.367C16.631,35.541,16.463,35.377,16.254,35.377z M16.254,37.621
		c0.208,0,0.377-0.174,0.377-0.384c0-0.198-0.165-0.362-0.377-0.362c-0.202,0-0.368,0.164-0.368,0.362
		C15.886,37.453,16.052,37.621,16.254,37.621z M15.513,36.124c-0.206,0-0.373,0.167-0.373,0.37c0,0.207,0.167,0.381,0.373,0.381
		c0.207,0,0.373-0.174,0.373-0.381C15.886,36.291,15.72,36.124,15.513,36.124z M31.14,36.875c-0.207,0-0.374,0.164-0.374,0.362
		c0,0.21,0.166,0.384,0.374,0.384c0.204,0,0.367-0.174,0.367-0.384C31.507,37.039,31.345,36.875,31.14,36.875z M29.649,34.63
		c0.144,0,0.263-0.082,0.323-0.19l-0.678-0.104C29.325,34.498,29.473,34.63,29.649,34.63z M29.649,36.124
		c0.204,0,0.37-0.164,0.37-0.367c0-0.211-0.166-0.379-0.37-0.379c-0.206,0-0.373,0.168-0.373,0.379
		C29.276,35.959,29.443,36.124,29.649,36.124z M33.02,34.898c-0.01,0.029-0.021,0.069-0.021,0.112c0,0.198,0.162,0.367,0.369,0.367
		c0.2,0,0.379-0.169,0.379-0.363l-0.018-0.004L33.02,34.898z M9.93,33.543l-0.71,0.113c0.061,0.134,0.189,0.223,0.344,0.223
		C9.761,33.882,9.911,33.734,9.93,33.543z M34.859,35.377c0.115,0,0.228-0.063,0.289-0.154l-0.289-0.043l-0.346-0.051
		C34.562,35.272,34.697,35.377,34.859,35.377z M-0.854,41.354c0.21,0,0.372-0.171,0.372-0.372c0-0.211-0.161-0.377-0.372-0.377
		c-0.206,0-0.373,0.166-0.373,0.377C-1.227,41.183-1.061,41.354-0.854,41.354z M34.859,36.875c0.197,0,0.37-0.174,0.37-0.381
		c0-0.203-0.173-0.37-0.37-0.37c-0.21,0-0.374,0.167-0.374,0.37C34.485,36.701,34.649,36.875,34.859,36.875z M9.562,35.377
		c0.202,0,0.371-0.169,0.371-0.367c0-0.207-0.169-0.37-0.371-0.37c-0.208,0-0.371,0.163-0.371,0.37
		C9.192,35.208,9.354,35.377,9.562,35.377z M3.982,35.756c0,0.203,0.165,0.367,0.374,0.367c0.204,0,0.373-0.164,0.373-0.367
		c0-0.211-0.169-0.379-0.373-0.379C4.147,35.377,3.982,35.541,3.982,35.756z M4.673,34.443l-0.562,0.099
		c0.064,0.052,0.146,0.099,0.241,0.099C4.494,34.63,4.611,34.548,4.673,34.443z M8.265,33.828l-0.191,0.033l-0.076,0.019
		c0.029,0.003,0.042,0.007,0.076,0.007C8.146,33.882,8.206,33.859,8.265,33.828z M7.699,35.007c0,0.198,0.17,0.37,0.372,0.37
		c0.206,0,0.371-0.172,0.371-0.37c0-0.207-0.166-0.377-0.371-0.377C7.871,34.63,7.699,34.8,7.699,35.007z M33.367,36.875
		c0.206,0,0.383-0.174,0.383-0.381c0-0.203-0.177-0.37-0.383-0.37s-0.368,0.167-0.368,0.37
		C32.999,36.701,33.161,36.875,33.367,36.875z M28.901,36.875c0.209,0,0.372-0.174,0.372-0.381c0-0.203-0.163-0.37-0.372-0.37
		c-0.196,0-0.37,0.167-0.37,0.37C28.531,36.701,28.705,36.875,28.901,36.875z M13.278,37.621c0.206,0,0.376-0.174,0.376-0.384
		c0-0.198-0.171-0.362-0.376-0.362c-0.205,0-0.371,0.164-0.371,0.362C12.911,37.453,13.074,37.621,13.278,37.621z M30.393,34.63
		c-0.205,0-0.373,0.17-0.373,0.377c0,0.198,0.168,0.37,0.373,0.37c0.202,0,0.373-0.172,0.373-0.37
		C30.766,34.8,30.595,34.63,30.393,34.63z M28.901,34.63c-0.196,0-0.37,0.17-0.37,0.377c0,0.198,0.174,0.37,0.37,0.37
		c0.209,0,0.372-0.172,0.372-0.37C29.276,34.8,29.11,34.63,28.901,34.63z M29.649,36.875c-0.206,0-0.373,0.164-0.373,0.362
		c0,0.21,0.167,0.384,0.373,0.384c0.204,0,0.37-0.174,0.37-0.384C30.02,37.039,29.854,36.875,29.649,36.875z M30.393,36.875
		c0.202,0,0.373-0.174,0.373-0.381c0-0.203-0.171-0.37-0.373-0.37c-0.205,0-0.373,0.167-0.373,0.37
		C30.02,36.701,30.188,36.875,30.393,36.875z M32.626,35.377c-0.206,0-0.368,0.168-0.368,0.379c0,0.203,0.162,0.367,0.368,0.367
		c0.21,0,0.373-0.164,0.373-0.367C32.999,35.541,32.831,35.377,32.626,35.377z M32.626,36.875c-0.206,0-0.368,0.164-0.368,0.362
		c0,0.21,0.162,0.384,0.368,0.384c0.21,0,0.373-0.174,0.373-0.384C32.999,37.039,32.831,36.875,32.626,36.875z M31.884,36.875
		c0.204,0,0.373-0.174,0.373-0.381c0-0.203-0.169-0.37-0.373-0.37c-0.209,0-0.377,0.167-0.377,0.37
		C31.507,36.701,31.675,36.875,31.884,36.875z M31.14,35.377c-0.207,0-0.374,0.168-0.374,0.379c0,0.203,0.166,0.367,0.374,0.367
		c0.204,0,0.367-0.164,0.367-0.367C31.507,35.541,31.345,35.377,31.14,35.377z M31.884,34.724l-0.202-0.028
		c-0.104,0.065-0.175,0.179-0.175,0.312c0,0.198,0.168,0.37,0.377,0.37c0.204,0,0.373-0.172,0.373-0.37
		c0-0.092-0.038-0.179-0.098-0.238L31.884,34.724z M34.109,35.377c-0.199,0-0.359,0.168-0.359,0.379c0,0.203,0.16,0.367,0.359,0.367
		c0.212,0,0.377-0.164,0.377-0.367C34.485,35.541,34.321,35.377,34.109,35.377z M-8.293,40.605c-0.208,0-0.374,0.166-0.374,0.377
		c0,0.201,0.166,0.372,0.374,0.372c0.204,0,0.372-0.171,0.372-0.372C-7.921,40.769-8.09,40.605-8.293,40.605z M-8.293,42.094
		c-0.208,0-0.374,0.172-0.374,0.381c0,0.198,0.166,0.365,0.374,0.365c0.204,0,0.372-0.167,0.372-0.365
		C-7.923,42.266-8.09,42.094-8.293,42.094z M-6.803,42.84c0.202,0,0.369-0.167,0.369-0.365c0-0.209-0.167-0.381-0.369-0.381
		c-0.207,0-0.375,0.172-0.375,0.381C-7.177,42.678-7.009,42.84-6.803,42.84z M-7.55,42.094c0.206,0,0.373-0.162,0.373-0.366
		c0-0.211-0.165-0.374-0.373-0.374c-0.204,0-0.373,0.163-0.373,0.374C-7.923,41.932-7.754,42.094-7.55,42.094z M-6.803,40.605
		c-0.207,0-0.375,0.166-0.375,0.377c0,0.201,0.168,0.372,0.375,0.372c0.202,0,0.369-0.171,0.369-0.372
		C-6.434,40.769-6.601,40.605-6.803,40.605z M-6.06,40.605c0.202,0,0.368-0.161,0.368-0.374c0-0.202-0.167-0.366-0.368-0.366
		c-0.208,0-0.375,0.164-0.375,0.366C-6.434,40.444-6.267,40.605-6.06,40.605z M-6.06,42.094c0.202,0,0.368-0.162,0.368-0.366
		c0-0.211-0.167-0.374-0.368-0.374c-0.208,0-0.375,0.163-0.375,0.374C-6.434,41.932-6.267,42.094-6.06,42.094z M5.845,40.605
		c0.2,0,0.371-0.161,0.371-0.374c0-0.202-0.171-0.366-0.371-0.366c-0.208,0-0.375,0.164-0.375,0.366
		C5.47,40.444,5.633,40.605,5.845,40.605z M5.097,39.107c-0.204,0-0.37,0.173-0.37,0.382c0,0.197,0.166,0.369,0.37,0.369
		c0.205,0,0.374-0.172,0.374-0.369C5.47,39.28,5.306,39.107,5.097,39.107z M5.24,37.649c-0.042-0.014-0.091-0.028-0.144-0.028
		c-0.053,0-0.097,0.015-0.141,0.028c-0.135,0.059-0.229,0.189-0.229,0.346l0,0c0,0.148,0.093,0.281,0.229,0.34
		C5,38.358,5.043,38.37,5.097,38.37c0.053,0,0.101-0.012,0.144-0.035c0.131-0.056,0.23-0.191,0.23-0.34l0,0
		C5.47,37.841,5.373,37.708,5.24,37.649z M4.355,36.875c-0.208,0-0.374,0.164-0.374,0.362c0,0.21,0.165,0.384,0.374,0.384
		c0.204,0,0.373-0.174,0.373-0.384C4.729,37.039,4.56,36.875,4.355,36.875z M4.355,39.107c0.204,0,0.373-0.168,0.373-0.372
		c0-0.198-0.169-0.369-0.373-0.369c-0.208,0-0.374,0.171-0.374,0.369C3.982,38.939,4.147,39.107,4.355,39.107z M-3.829,41.354
		c0.205,0,0.373-0.171,0.373-0.372c0-0.211-0.168-0.377-0.373-0.377c-0.208,0-0.375,0.166-0.375,0.377
		C-4.204,41.183-4.038,41.354-3.829,41.354z M-2.34,39.858c0.207,0,0.369-0.172,0.369-0.369c0-0.209-0.163-0.382-0.369-0.382
		c-0.208,0-0.376,0.173-0.376,0.382C-2.716,39.688-2.548,39.858-2.34,39.858z M-5.318,42.84c0.206,0,0.37-0.167,0.37-0.365
		c0-0.209-0.164-0.381-0.37-0.381c-0.205,0-0.374,0.172-0.374,0.381C-5.691,42.678-5.521,42.84-5.318,42.84z M-1.599,42.094
		c0.205,0,0.371-0.162,0.371-0.366c0-0.211-0.166-0.374-0.371-0.374c-0.207,0-0.373,0.163-0.373,0.374
		C-1.972,41.932-1.804,42.094-1.599,42.094z M-3.085,39.858c-0.207,0-0.371,0.168-0.371,0.373c0,0.21,0.165,0.372,0.371,0.372
		c0.205,0,0.369-0.162,0.369-0.372C-2.716,40.026-2.879,39.858-3.085,39.858z M-1.599,39.858c-0.207,0-0.373,0.168-0.373,0.373
		c0,0.21,0.167,0.372,0.373,0.372c0.205,0,0.371-0.162,0.371-0.372C-1.227,40.026-1.394,39.858-1.599,39.858z M-2.34,41.354
		c0.207,0,0.369-0.171,0.369-0.372c0-0.211-0.163-0.377-0.369-0.377c-0.208,0-0.376,0.166-0.376,0.377
		C-2.716,41.183-2.548,41.354-2.34,41.354z M-5.318,40.605c-0.205,0-0.374,0.166-0.374,0.377c0,0.201,0.169,0.372,0.374,0.372
		c0.206,0,0.37-0.171,0.37-0.372C-4.949,40.769-5.113,40.605-5.318,40.605z M13.278,39.107c0.206,0,0.376-0.168,0.376-0.372
		c0-0.198-0.171-0.369-0.376-0.369c-0.205,0-0.371,0.171-0.371,0.369C12.911,38.939,13.074,39.107,13.278,39.107z M-4.571,42.094
		c0.203,0,0.37-0.162,0.37-0.366c0-0.211-0.165-0.374-0.37-0.374c-0.208,0-0.375,0.163-0.375,0.374
		C-4.946,41.932-4.779,42.094-4.571,42.094z M5.845,39.107c0.2,0,0.371-0.168,0.371-0.372c0-0.198-0.171-0.369-0.371-0.369
		c-0.208,0-0.375,0.171-0.375,0.369C5.47,38.939,5.633,39.107,5.845,39.107z M-4.571,39.858c-0.208,0-0.375,0.168-0.375,0.373
		c0,0.21,0.167,0.372,0.375,0.372c0.203,0,0.37-0.162,0.37-0.372C-4.204,40.026-4.368,39.858-4.571,39.858z M-3.085,42.094
		c0.205,0,0.369-0.162,0.369-0.366c0-0.211-0.163-0.374-0.369-0.374c-0.207,0-0.371,0.163-0.371,0.374
		C-3.456,41.932-3.292,42.094-3.085,42.094z M5.845,36.875c-0.208,0-0.375,0.164-0.375,0.362c0,0.21,0.163,0.384,0.375,0.384
		c0.2,0,0.371-0.174,0.371-0.384C6.215,37.039,6.045,36.875,5.845,36.875z M10.304,36.875c-0.2,0-0.371,0.164-0.371,0.362
		c0,0.21,0.171,0.384,0.371,0.384c0.209,0,0.378-0.174,0.378-0.384C10.683,37.039,10.514,36.875,10.304,36.875z M9.562,36.124
		c-0.208,0-0.371,0.167-0.371,0.37c0,0.207,0.163,0.381,0.371,0.381c0.202,0,0.371-0.174,0.371-0.381
		C9.933,36.291,9.764,36.124,9.562,36.124z M10.304,38.366c-0.2,0-0.371,0.171-0.371,0.369c0,0.204,0.171,0.372,0.371,0.372
		c0.209,0,0.378-0.168,0.378-0.372C10.683,38.534,10.514,38.366,10.304,38.366z M11.054,36.124c-0.21,0-0.371,0.167-0.371,0.37
		c0,0.207,0.161,0.381,0.371,0.381c0.201,0,0.371-0.174,0.371-0.381C11.424,36.291,11.254,36.124,11.054,36.124z M11.795,35.377
		c-0.202,0-0.371,0.168-0.371,0.379c0,0.203,0.169,0.367,0.371,0.367c0.205,0,0.371-0.164,0.371-0.367
		C12.163,35.541,12,35.377,11.795,35.377z M17.003,39.858c0.2,0,0.369-0.172,0.369-0.369c0-0.209-0.169-0.382-0.369-0.382
		c-0.208,0-0.372,0.173-0.372,0.382C16.631,39.688,16.794,39.858,17.003,39.858z M12.544,36.124c-0.213,0-0.381,0.167-0.381,0.37
		c0,0.207,0.168,0.381,0.381,0.381c0.198,0,0.367-0.174,0.367-0.381C12.911,36.291,12.744,36.124,12.544,36.124z M12.685,37.649
		c-0.043-0.014-0.095-0.028-0.141-0.028c-0.056,0-0.109,0.015-0.156,0.028c-0.125,0.059-0.225,0.189-0.225,0.346l0,0
		c0,0.148,0.099,0.281,0.225,0.34c0.047,0.023,0.101,0.035,0.156,0.035c0.045,0,0.097-0.012,0.141-0.035
		c0.135-0.056,0.227-0.191,0.227-0.34l0,0C12.911,37.841,12.818,37.708,12.685,37.649z M11.795,37.621
		c0.205,0,0.371-0.174,0.371-0.384c0-0.198-0.166-0.362-0.371-0.362c-0.202,0-0.371,0.164-0.371,0.362
		C11.424,37.453,11.592,37.621,11.795,37.621z M9.192,37.995c0,0.15,0.089,0.284,0.222,0.343c0.043,0.023,0.096,0.034,0.148,0.034
		c0.05,0,0.102-0.011,0.144-0.034c0.133-0.056,0.227-0.192,0.227-0.343l0,0c0-0.153-0.093-0.284-0.227-0.346
		c-0.042-0.014-0.091-0.028-0.144-0.028c-0.054,0-0.105,0.015-0.148,0.028C9.281,37.708,9.192,37.841,9.192,37.995L9.192,37.995z
		 M10.683,37.995c0,0.15,0.09,0.284,0.223,0.343c0.04,0.023,0.089,0.034,0.148,0.034c0.051,0,0.096-0.011,0.141-0.034
		c0.133-0.056,0.23-0.192,0.23-0.343l0,0c0-0.153-0.097-0.284-0.23-0.346c-0.044-0.014-0.089-0.028-0.141-0.028
		c-0.059,0-0.108,0.015-0.148,0.028C10.772,37.708,10.683,37.841,10.683,37.995L10.683,37.995z M7.329,38.366
		c-0.208,0-0.372,0.171-0.372,0.369c0,0.204,0.161,0.372,0.372,0.372c0.21,0,0.371-0.168,0.371-0.372
		C7.699,38.534,7.539,38.366,7.329,38.366z M9.562,39.858c0.202,0,0.371-0.172,0.371-0.369c0-0.209-0.169-0.382-0.371-0.382
		c-0.208,0-0.371,0.173-0.371,0.382C9.192,39.688,9.354,39.858,9.562,39.858z M7.329,36.875c-0.208,0-0.372,0.164-0.372,0.362
		c0,0.21,0.161,0.384,0.372,0.384c0.21,0,0.371-0.174,0.371-0.384C7.699,37.039,7.539,36.875,7.329,36.875z M6.215,37.995
		c0,0.15,0.086,0.284,0.23,0.343c0.041,0.023,0.088,0.034,0.139,0.034c0.049,0,0.099-0.011,0.143-0.034
		c0.129-0.056,0.228-0.192,0.228-0.343l0,0c0-0.153-0.099-0.284-0.228-0.346c-0.044-0.014-0.094-0.028-0.143-0.028
		c-0.051,0-0.099,0.015-0.139,0.028C6.307,37.708,6.215,37.841,6.215,37.995L6.215,37.995z M6.215,39.489
		c0,0.197,0.159,0.369,0.371,0.369c0.202,0,0.371-0.172,0.371-0.369c0-0.209-0.168-0.382-0.371-0.382
		C6.378,39.107,6.215,39.28,6.215,39.489z M6.586,36.124c-0.208,0-0.371,0.167-0.371,0.37c0,0.207,0.159,0.381,0.371,0.381
		c0.202,0,0.371-0.174,0.371-0.381C6.957,36.291,6.789,36.124,6.586,36.124z M8.819,38.366c-0.207,0-0.375,0.171-0.375,0.369
		c0,0.204,0.168,0.372,0.375,0.372c0.203,0,0.373-0.168,0.373-0.372C9.192,38.534,9.023,38.366,8.819,38.366z M8.819,36.875
		c-0.207,0-0.375,0.164-0.375,0.362c0,0.21,0.168,0.384,0.375,0.384c0.203,0,0.373-0.174,0.373-0.384
		C9.192,37.039,9.023,36.875,8.819,36.875z M8.074,39.858c0.206,0,0.371-0.172,0.371-0.369c0-0.209-0.165-0.382-0.371-0.382
		c-0.202,0-0.375,0.173-0.375,0.382C7.699,39.688,7.871,39.858,8.074,39.858z M8.074,36.124c-0.202,0-0.375,0.167-0.375,0.37
		c0,0.207,0.173,0.381,0.375,0.381c0.206,0,0.371-0.174,0.371-0.381C8.445,36.291,8.278,36.124,8.074,36.124z M7.699,37.995
		c0,0.15,0.097,0.284,0.225,0.343c0.049,0.023,0.097,0.034,0.147,0.034c0.054,0,0.101-0.011,0.142-0.034
		c0.137-0.056,0.229-0.192,0.229-0.343l0,0c0-0.153-0.092-0.284-0.229-0.346c-0.041-0.014-0.088-0.028-0.142-0.028
		c-0.05,0-0.098,0.015-0.147,0.028C7.798,37.708,7.699,37.841,7.699,37.995L7.699,37.995z M-9.037,38.366
		c-0.209,0-0.373,0.171-0.373,0.369c0,0.204,0.163,0.372,0.373,0.372c0.203,0,0.37-0.168,0.37-0.372
		C-8.667,38.534-8.833,38.366-9.037,38.366z M4,44.616l0.645-0.131c-0.066-0.084-0.169-0.144-0.29-0.144
		C4.179,44.341,4.043,44.455,4,44.616z M2.868,44.341c-0.207,0-0.375,0.162-0.375,0.368c0,0.077,0.031,0.145,0.068,0.199
		l0.664-0.136c0.001-0.017,0.014-0.04,0.014-0.063C3.239,44.503,3.071,44.341,2.868,44.341z M3.614,43.591
		c-0.209,0-0.375,0.168-0.375,0.378l0,0c0,0.204,0.166,0.372,0.375,0.372c0.202,0,0.368-0.168,0.368-0.372l0,0
		C3.982,43.759,3.815,43.591,3.614,43.591z M6.586,43.591c-0.208,0-0.371,0.168-0.371,0.378l0,0c0,0.066,0.026,0.134,0.062,0.19
		l0.666-0.136c0-0.014,0.014-0.04,0.014-0.055l0,0C6.957,43.759,6.789,43.591,6.586,43.591z M5.097,43.591
		c-0.204,0-0.37,0.168-0.37,0.378l0,0c0,0.204,0.166,0.372,0.37,0.372c0.205,0,0.374-0.168,0.374-0.372l0,0
		C5.47,43.759,5.306,43.591,5.097,43.591z M5.845,42.84c-0.208,0-0.375,0.161-0.375,0.381c0,0.2,0.163,0.365,0.375,0.365
		c0.2,0,0.371-0.165,0.371-0.365C6.215,43.001,6.045,42.84,5.845,42.84z M4.355,43.591c0.204,0,0.373-0.167,0.373-0.365
		c0-0.215-0.169-0.38-0.373-0.38c-0.208,0-0.374,0.165-0.374,0.38C3.982,43.424,4.147,43.591,4.355,43.591z M0.634,44.341
		c0.205,0,0.37-0.168,0.37-0.372l0,0c0-0.21-0.163-0.378-0.37-0.378c-0.206,0-0.373,0.168-0.375,0.378l0,0
		C0.262,44.173,0.432,44.341,0.634,44.341z M-0.854,45.083c-0.206,0-0.373,0.162-0.373,0.372c0,0.078,0.032,0.145,0.072,0.205
		l0.3-0.061l0.357-0.07c0.005-0.022,0.014-0.049,0.014-0.074C-0.483,45.246-0.644,45.083-0.854,45.083z M1.376,44.341
		c-0.203,0-0.372,0.162-0.372,0.368c0,0.208,0.167,0.374,0.372,0.374c0.209,0,0.373-0.166,0.373-0.374
		C1.747,44.503,1.585,44.341,1.376,44.341z M0.279,45.374l0.651-0.131C0.862,45.15,0.761,45.09,0.636,45.09
		C0.458,45.083,0.318,45.214,0.279,45.374z M2.493,43.969c0-0.21-0.166-0.378-0.374-0.378c-0.204,0-0.373,0.168-0.373,0.378l0,0
		c0,0.204,0.169,0.372,0.373,0.372C2.328,44.341,2.493,44.173,2.493,43.969L2.493,43.969z M-0.11,44.341
		c-0.205,0-0.373,0.162-0.373,0.368c0,0.208,0.168,0.374,0.373,0.374c0.204,0,0.37-0.166,0.37-0.374
		C0.26,44.503,0.094,44.341-0.11,44.341z M11.441,43.11l0.636-0.122c-0.067-0.086-0.167-0.142-0.281-0.142
		C11.625,42.84,11.484,42.957,11.441,43.11z M7.329,42.84c-0.208,0-0.372,0.161-0.372,0.381c0,0.2,0.161,0.365,0.372,0.365
		c0.21,0,0.371-0.165,0.371-0.365C7.699,43.001,7.539,42.84,7.329,42.84z M11.795,42.094c0.205,0,0.371-0.162,0.371-0.366
		c0-0.211-0.166-0.374-0.371-0.374c-0.202,0-0.371,0.163-0.371,0.374C11.424,41.932,11.592,42.094,11.795,42.094z M13.278,41.354
		c-0.205,0-0.371,0.163-0.371,0.374c0,0.204,0.167,0.366,0.371,0.366c0.207,0,0.376-0.162,0.376-0.366
		C13.655,41.517,13.485,41.354,13.278,41.354z M12.544,42.094c-0.213,0-0.381,0.172-0.381,0.381c0,0.198,0.168,0.365,0.381,0.365
		c0.198,0,0.367-0.167,0.367-0.365C12.911,42.266,12.744,42.094,12.544,42.094z M11.054,42.094c-0.21,0-0.371,0.172-0.371,0.381
		c0,0.198,0.161,0.365,0.371,0.365c0.201,0,0.371-0.167,0.371-0.365C11.424,42.266,11.254,42.094,11.054,42.094z M8.074,42.84
		c0.206,0,0.371-0.167,0.371-0.365c0-0.209-0.165-0.381-0.371-0.381c-0.202,0-0.375,0.172-0.375,0.381
		C7.699,42.678,7.871,42.84,8.074,42.84z M10.304,42.84c-0.2,0-0.371,0.161-0.371,0.381c0,0.067,0.026,0.121,0.057,0.185l0.681-0.14
		c0-0.015,0.011-0.028,0.011-0.04C10.683,43.001,10.514,42.84,10.304,42.84z M7.724,43.865l0.347-0.075l0.287-0.056
		c-0.071-0.082-0.165-0.143-0.287-0.143C7.904,43.591,7.769,43.706,7.724,43.865z M8.819,42.84c-0.207,0-0.375,0.161-0.375,0.381
		c0,0.2,0.168,0.365,0.375,0.365c0.203,0,0.373-0.165,0.373-0.365C9.192,43.001,9.023,42.84,8.819,42.84z M9.562,42.094
		c-0.208,0-0.371,0.172-0.371,0.381c0,0.198,0.163,0.365,0.371,0.365c0.202,0,0.371-0.167,0.371-0.365
		C9.933,42.266,9.764,42.094,9.562,42.094z M-6.803,45.835c0.202,0,0.369-0.175,0.369-0.38c0-0.21-0.167-0.372-0.369-0.372
		c-0.207,0-0.375,0.162-0.375,0.372C-7.177,45.669-7.009,45.835-6.803,45.835z M-10.526,46.575c0.208,0,0.372-0.162,0.372-0.374
		c0-0.197-0.164-0.365-0.372-0.365c-0.205,0-0.373,0.168-0.373,0.365C-10.899,46.413-10.731,46.575-10.526,46.575z M-11.27,46.575
		c-0.205,0-0.372,0.172-0.372,0.38c0,0.198,0.167,0.365,0.372,0.365c0.205,0,0.371-0.167,0.371-0.365
		C-10.899,46.747-11.065,46.575-11.27,46.575z M-12.555,46.642l-0.212,0.678c0.004,0,0.004,0,0.007,0
		c0.207,0,0.375-0.167,0.375-0.365C-12.385,46.821-12.459,46.712-12.555,46.642z M-12.013,47.32c-0.206,0-0.372,0.167-0.372,0.374
		c0,0.091,0.034,0.17,0.08,0.222l0.644-0.122c0.006-0.037,0.019-0.061,0.019-0.1C-11.642,47.487-11.808,47.32-12.013,47.32z
		 M-10.526,47.32c-0.185,0-0.328,0.137-0.359,0.314l0.668-0.136C-10.283,47.391-10.395,47.32-10.526,47.32z M-1.599,44.341
		c-0.207,0-0.373,0.162-0.373,0.368c0,0.208,0.167,0.374,0.373,0.374c0.205,0,0.371-0.166,0.371-0.374
		C-1.227,44.503-1.394,44.341-1.599,44.341z M-9.037,45.835c-0.209,0-0.373,0.161-0.373,0.358c0,0.213,0.163,0.374,0.373,0.374
		c0.203,0,0.37-0.161,0.37-0.374C-8.667,45.997-8.833,45.835-9.037,45.835z M-11.27,44.341c0.205,0,0.371-0.168,0.371-0.372l0,0
		c0-0.21-0.166-0.378-0.371-0.378c-0.205,0-0.372,0.168-0.372,0.378l0,0C-11.642,44.173-11.475,44.341-11.27,44.341z
		 M-10.899,42.475c0-0.169-0.109-0.308-0.261-0.36l-0.219,0.711c0.036,0.012,0.069,0.021,0.106,0.021
		C-11.065,42.84-10.899,42.678-10.899,42.475z M-11.642,44.709c0-0.15-0.09-0.276-0.213-0.337l-0.215,0.699
		c0.02,0,0.038,0.012,0.057,0.012C-11.808,45.083-11.642,44.917-11.642,44.709z M-11.27,45.083c-0.205,0-0.372,0.162-0.372,0.372
		c0,0.205,0.167,0.38,0.372,0.38c0.205,0,0.371-0.175,0.371-0.38C-10.899,45.246-11.065,45.083-11.27,45.083z M-12.013,46.575
		c0.206,0,0.372-0.162,0.372-0.374c0-0.197-0.166-0.365-0.372-0.365s-0.372,0.168-0.372,0.365
		C-12.385,46.413-12.222,46.575-12.013,46.575z M-9.784,46.575c-0.201,0-0.371,0.172-0.371,0.38c0,0.198,0.167,0.365,0.371,0.365
		c0.206,0,0.375-0.167,0.375-0.365C-9.409,46.747-9.578,46.575-9.784,46.575z M-3.085,45.083c0.205,0,0.369-0.166,0.369-0.374
		c0-0.206-0.163-0.368-0.369-0.368c-0.207,0-0.371,0.162-0.371,0.368C-3.456,44.917-3.292,45.083-3.085,45.083z M-8.293,46.575
		c-0.208,0-0.374,0.172-0.374,0.38c0,0.076,0.031,0.155,0.081,0.21l0.647-0.129c0.006-0.02,0.016-0.052,0.016-0.081
		C-7.923,46.747-8.09,46.575-8.293,46.575z M-3.443,46.127l0.655-0.124c-0.065-0.099-0.173-0.168-0.297-0.168
		C-3.263,45.835-3.407,45.955-3.443,46.127z M-2.34,45.083c-0.208,0-0.376,0.162-0.376,0.372c0,0.205,0.168,0.38,0.376,0.38
		c0.207,0,0.369-0.175,0.369-0.38C-1.972,45.246-2.135,45.083-2.34,45.083z M-4.571,45.835c-0.208,0-0.375,0.161-0.375,0.358
		c0,0.088,0.033,0.161,0.075,0.219l0.657-0.131c0.004-0.028,0.013-0.052,0.013-0.088C-4.204,45.997-4.368,45.835-4.571,45.835z
		 M-3.829,45.083c-0.208,0-0.375,0.162-0.375,0.372c0,0.205,0.166,0.38,0.375,0.38c0.205,0,0.373-0.175,0.373-0.38
		C-3.456,45.246-3.625,45.083-3.829,45.083z M-5.318,45.083c-0.205,0-0.374,0.162-0.374,0.372c0,0.205,0.169,0.38,0.374,0.38
		c0.206,0,0.37-0.175,0.37-0.38C-4.946,45.246-5.113,45.083-5.318,45.083z M-7.55,45.835c-0.204,0-0.373,0.161-0.373,0.358
		c0,0.213,0.169,0.374,0.373,0.374c0.206,0,0.373-0.161,0.373-0.374C-7.177,45.997-7.342,45.835-7.55,45.835z M14.026,42.094
		c-0.208,0-0.371,0.172-0.371,0.381c0,0.064,0.023,0.119,0.049,0.177l0.32-0.061l0.361-0.076c0.007-0.015,0.007-0.026,0.007-0.038
		C14.392,42.266,14.231,42.094,14.026,42.094z M-7.167,46.883l0.365-0.077l0.3-0.06c-0.068-0.093-0.174-0.172-0.3-0.172
		C-6.985,46.575-7.13,46.712-7.167,46.883z M-6.06,45.835c-0.208,0-0.375,0.161-0.375,0.358c0,0.213,0.167,0.374,0.375,0.374
		c0.202,0,0.368-0.161,0.368-0.374C-5.691,45.997-5.858,45.835-6.06,45.835z M24.444,39.107c-0.206,0-0.371,0.173-0.371,0.382
		c0,0.197,0.165,0.369,0.371,0.369c0.203,0,0.374-0.172,0.374-0.369C24.818,39.28,24.646,39.107,24.444,39.107z M35.003,37.649
		c-0.048-0.014-0.091-0.028-0.143-0.028c-0.054,0-0.103,0.015-0.148,0.028c-0.13,0.059-0.226,0.189-0.226,0.346l0,0
		c0,0.148,0.096,0.281,0.226,0.34c0.046,0.023,0.095,0.035,0.148,0.035c0.052,0,0.095-0.012,0.143-0.035
		c0.138-0.056,0.229-0.191,0.229-0.34l0,0C35.232,37.841,35.141,37.708,35.003,37.649z M34.109,36.875
		c-0.199,0-0.359,0.164-0.359,0.362c0,0.21,0.16,0.384,0.359,0.384c0.212,0,0.377-0.174,0.377-0.384
		C34.485,37.039,34.321,36.875,34.109,36.875z M33.772,38.587l0.59-0.119c-0.063-0.065-0.152-0.103-0.254-0.103
		C33.963,38.366,33.828,38.458,33.772,38.587z M35.601,36.875c-0.209,0-0.368,0.164-0.368,0.362c0,0.21,0.159,0.384,0.368,0.384
		c0.206,0,0.37-0.174,0.37-0.384C35.971,37.039,35.807,36.875,35.601,36.875z M29.649,38.366c-0.206,0-0.373,0.171-0.373,0.369
		c0,0.204,0.167,0.372,0.373,0.372c0.204,0,0.37-0.168,0.37-0.372C30.02,38.534,29.854,38.366,29.649,38.366z M35.601,35.377
		c-0.209,0-0.368,0.168-0.368,0.379c0,0.203,0.159,0.367,0.368,0.367c0.206,0,0.37-0.164,0.37-0.367
		C35.971,35.541,35.807,35.377,35.601,35.377z M30.247,38.334c0.045,0.023,0.095,0.031,0.146,0.031c0.058,0,0.104-0.008,0.148-0.031
		c0.127-0.056,0.227-0.191,0.227-0.344l0,0c0-0.152-0.1-0.283-0.227-0.344c-0.041-0.019-0.091-0.033-0.148-0.033
		c-0.048,0-0.102,0.015-0.146,0.033c-0.132,0.056-0.228,0.188-0.228,0.344l0,0C30.02,38.145,30.115,38.279,30.247,38.334z
		 M36.352,36.875c0.194,0,0.364-0.174,0.364-0.381c0-0.203-0.17-0.37-0.364-0.37c-0.219,0-0.381,0.167-0.381,0.37
		C35.971,36.701,36.133,36.875,36.352,36.875z M32.626,38.366c-0.206,0-0.368,0.171-0.368,0.369c0,0.061,0.01,0.11,0.024,0.156
		l0.721-0.145c0-0.003,0-0.003,0-0.012C32.999,38.534,32.831,38.366,32.626,38.366z M30.051,39.343l0.603-0.117
		c-0.069-0.071-0.156-0.117-0.261-0.117C30.237,39.107,30.106,39.21,30.051,39.343z M32.257,37.995c0-0.153-0.098-0.284-0.232-0.346
		c-0.048-0.014-0.092-0.028-0.142-0.028c-0.057,0-0.101,0.015-0.149,0.028c-0.134,0.062-0.231,0.192-0.231,0.346l0,0
		c0,0.15,0.098,0.284,0.231,0.343c0.048,0.023,0.09,0.034,0.149,0.034c0.049,0,0.094-0.011,0.142-0.034
		C32.161,38.279,32.257,38.145,32.257,37.995L32.257,37.995z M31.14,38.366c-0.207,0-0.374,0.171-0.374,0.369
		c0,0.204,0.166,0.372,0.374,0.372c0.204,0,0.367-0.168,0.367-0.372C31.507,38.534,31.345,38.366,31.14,38.366z M33.512,37.649
		c-0.041-0.014-0.096-0.028-0.145-0.028c-0.048,0-0.103,0.015-0.146,0.028c-0.131,0.059-0.222,0.189-0.222,0.346l0,0
		c0,0.148,0.091,0.281,0.222,0.34c0.044,0.023,0.099,0.035,0.146,0.035c0.049,0,0.103-0.012,0.145-0.035
		c0.138-0.056,0.234-0.191,0.234-0.34l0,0C33.746,37.841,33.649,37.708,33.512,37.649z M40.068,36.875
		c-0.21,0-0.371,0.164-0.371,0.362c0,0.058,0.004,0.099,0.025,0.148l0.711-0.15C40.431,37.039,40.271,36.875,40.068,36.875z
		 M14.771,41.354c-0.208,0-0.379,0.163-0.379,0.374c0,0.204,0.167,0.366,0.379,0.366c0.203,0,0.37-0.162,0.37-0.366
		C15.141,41.517,14.974,41.354,14.771,41.354z M40.81,36.124c-0.2,0-0.372,0.167-0.372,0.37c0,0.207,0.172,0.381,0.372,0.381
		c0.202,0,0.377-0.174,0.377-0.381C41.187,36.291,41.012,36.124,40.81,36.124z M43.421,36.471c0,0.006-0.012,0.018-0.012,0.022
		c0,0.049,0.015,0.091,0.024,0.138l0.353-0.073l0.083-0.016l-0.083-0.012L43.421,36.471z M41.225,37.076l0.568-0.117
		c-0.065-0.053-0.148-0.091-0.233-0.091C41.402,36.875,41.287,36.958,41.225,37.076z M36.486,37.649
		c-0.04-0.014-0.086-0.028-0.135-0.028c-0.06,0-0.111,0.015-0.155,0.028c-0.135,0.059-0.226,0.189-0.226,0.346l0,0
		c0,0.043,0.013,0.099,0.034,0.137l0.715-0.137l0,0C36.716,37.841,36.625,37.708,36.486,37.649z M37.086,36.875
		c-0.203,0-0.369,0.164-0.369,0.362c0,0.21,0.166,0.384,0.369,0.384c0.207,0,0.376-0.174,0.376-0.384
		C37.462,37.039,37.293,36.875,37.086,36.875z M37.835,37.621c-0.048,0-0.099,0.015-0.146,0.028c-0.079,0.038-0.146,0.11-0.19,0.185
		l0.337-0.065l0.243-0.049c-0.032-0.032-0.062-0.051-0.097-0.067C37.93,37.635,37.884,37.621,37.835,37.621z M38.576,36.875
		c-0.205,0-0.372,0.164-0.372,0.362c0,0.206,0.167,0.372,0.365,0.384l0.165-0.037c0.12-0.06,0.211-0.196,0.211-0.349
		C38.945,37.039,38.783,36.875,38.576,36.875z M38.576,36.124c0.194,0,0.345-0.146,0.365-0.325l-0.717-0.115
		c-0.016,0.019-0.023,0.042-0.023,0.068C38.204,35.959,38.371,36.124,38.576,36.124z M37.835,36.124
		c-0.205,0-0.373,0.167-0.373,0.37c0,0.207,0.168,0.381,0.373,0.381c0.202,0,0.369-0.174,0.369-0.381
		C38.204,36.291,38.037,36.124,37.835,36.124z M39.324,36.124c-0.209,0-0.379,0.167-0.379,0.37c0,0.207,0.17,0.381,0.379,0.381
		c0.198,0,0.372-0.174,0.372-0.381C39.697,36.291,39.526,36.124,39.324,36.124z M19.232,40.605c0.21,0,0.375-0.161,0.375-0.374
		c0-0.202-0.165-0.366-0.375-0.366c-0.206,0-0.372,0.164-0.372,0.366C18.86,40.444,19.028,40.605,19.232,40.605z M18.888,41.598
		l0.615-0.12c-0.061-0.076-0.158-0.121-0.271-0.121C19.074,41.354,18.939,41.457,18.888,41.598z M20.72,39.858
		c-0.201,0-0.375,0.168-0.375,0.373c0,0.21,0.167,0.372,0.375,0.372c0.207,0,0.377-0.162,0.377-0.372
		C21.097,40.026,20.927,39.858,20.72,39.858z M19.977,40.605c-0.208,0-0.37,0.166-0.37,0.377c0,0.201,0.162,0.372,0.37,0.372
		c0.205,0,0.368-0.171,0.368-0.372C20.345,40.769,20.182,40.605,19.977,40.605z M18.49,40.605c-0.205,0-0.373,0.166-0.373,0.377
		c0,0.201,0.168,0.372,0.373,0.372s0.37-0.171,0.37-0.372C18.86,40.769,18.695,40.605,18.49,40.605z M17.003,40.605
		c-0.208,0-0.372,0.166-0.372,0.377c0,0.201,0.163,0.372,0.372,0.372c0.2,0,0.369-0.171,0.369-0.372
		C17.372,40.769,17.205,40.605,17.003,40.605z M17.743,41.354c-0.198,0-0.371,0.163-0.371,0.374c0,0.057,0.022,0.117,0.048,0.176
		l0.693-0.142c0-0.011,0.004-0.022,0.004-0.034C18.117,41.517,17.955,41.354,17.743,41.354z M15.513,41.354
		c0.207,0,0.373-0.171,0.373-0.372c0-0.211-0.166-0.377-0.373-0.377c-0.206,0-0.373,0.166-0.373,0.377
		C15.141,41.183,15.303,41.354,15.513,41.354z M15.161,42.361l0.63-0.13c-0.065-0.08-0.162-0.133-0.277-0.133
		C15.341,42.094,15.209,42.21,15.161,42.361z M16.254,41.354c-0.202,0-0.368,0.163-0.368,0.374c0,0.204,0.166,0.366,0.368,0.366
		c0.208,0,0.377-0.162,0.377-0.366C16.631,41.517,16.463,41.354,16.254,41.354z M21.464,40.605c-0.207,0-0.368,0.166-0.368,0.377
		c0,0.062,0.013,0.119,0.04,0.164l0.701-0.139c0-0.01,0.003-0.016,0.003-0.025C21.84,40.769,21.67,40.605,21.464,40.605z
		 M22.607,40.843l0.346-0.065l0.27-0.054c-0.069-0.071-0.154-0.119-0.27-0.119C22.795,40.605,22.66,40.712,22.607,40.843z
		 M26.674,39.107c0.204,0,0.377-0.168,0.377-0.372c0-0.198-0.173-0.369-0.377-0.369c-0.205,0-0.376,0.171-0.376,0.369
		C26.298,38.939,26.468,39.107,26.674,39.107z M26.329,40.1l0.61-0.127c-0.069-0.068-0.162-0.115-0.266-0.115
		C26.513,39.858,26.385,39.961,26.329,40.1z M27.416,39.107c-0.205,0-0.365,0.173-0.365,0.382c0,0.197,0.16,0.369,0.365,0.369
		c0.203,0,0.374-0.172,0.374-0.369C27.79,39.28,27.619,39.107,27.416,39.107z M28.16,38.366c-0.199,0-0.369,0.171-0.369,0.369
		c0,0.204,0.17,0.372,0.369,0.372c0.206,0,0.371-0.168,0.371-0.372C28.531,38.534,28.366,38.366,28.16,38.366z M25.934,39.107
		c-0.206,0-0.377,0.173-0.377,0.382c0,0.197,0.17,0.369,0.377,0.369c0.202,0,0.364-0.172,0.364-0.369
		C26.298,39.28,26.136,39.107,25.934,39.107z M23.695,39.858c-0.199,0-0.371,0.168-0.371,0.373c0,0.21,0.172,0.372,0.371,0.372
		c0.207,0,0.372-0.162,0.372-0.372C24.067,40.026,23.902,39.858,23.695,39.858z M28.901,39.107c-0.196,0-0.37,0.173-0.37,0.382
		c0,0.056,0.021,0.104,0.043,0.148l0.331-0.068l0.371-0.064c0-0.012,0-0.016,0-0.016C29.276,39.28,29.11,39.107,28.901,39.107z
		 M25.184,39.858c-0.199,0-0.365,0.168-0.365,0.373c0,0.053,0.016,0.116,0.04,0.166l0.697-0.142
		c0.004-0.009,0.004-0.009,0.004-0.024C25.557,40.026,25.395,39.858,25.184,39.858z M22.95,39.858c0.203,0,0.374-0.172,0.374-0.369
		c0-0.209-0.171-0.382-0.374-0.382c-0.199,0-0.369,0.173-0.369,0.382C22.581,39.688,22.753,39.858,22.95,39.858z M22.204,39.858
		c-0.193,0-0.364,0.168-0.364,0.373c0,0.21,0.171,0.372,0.364,0.372c0.208,0,0.377-0.162,0.377-0.372
		C22.581,40.026,22.413,39.858,22.204,39.858z M-10.526,42.094c0.208,0,0.372-0.162,0.372-0.366c0-0.211-0.164-0.374-0.372-0.374
		c-0.205,0-0.373,0.163-0.373,0.374C-10.899,41.932-10.731,42.094-10.526,42.094z M17.003,33.14c-0.208,0-0.372,0.171-0.372,0.378
		c0,0.205,0.163,0.364,0.372,0.364c0.2,0,0.369-0.159,0.369-0.364C17.372,33.311,17.205,33.14,17.003,33.14z M25.184,33.882
		c-0.199,0-0.365,0.172-0.365,0.374c0,0.206,0.166,0.374,0.365,0.374c0.211,0,0.373-0.168,0.373-0.374
		C25.557,34.054,25.395,33.882,25.184,33.882z M25.184,36.124c0.211,0,0.373-0.164,0.373-0.367c0-0.211-0.162-0.379-0.373-0.379
		c-0.199,0-0.365,0.168-0.365,0.379C24.818,35.959,24.984,36.124,25.184,36.124z M27.416,36.124c-0.205,0-0.365,0.167-0.365,0.37
		c0,0.207,0.16,0.381,0.365,0.381c0.203,0,0.374-0.174,0.374-0.381C27.79,36.291,27.619,36.124,27.416,36.124z M26.674,36.124
		c0.204,0,0.377-0.164,0.377-0.367c0-0.211-0.173-0.379-0.377-0.379c-0.205,0-0.376,0.168-0.376,0.379
		C26.298,35.959,26.468,36.124,26.674,36.124z M23.695,33.882c-0.199,0-0.371,0.172-0.371,0.374c0,0.206,0.172,0.374,0.371,0.374
		c0.207,0,0.372-0.168,0.372-0.374C24.067,34.054,23.902,33.882,23.695,33.882z M24.444,34.63c-0.206,0-0.371,0.17-0.371,0.377
		c0,0.198,0.165,0.37,0.371,0.37c0.203,0,0.374-0.172,0.374-0.37C24.818,34.8,24.646,34.63,24.444,34.63z M28.763,38.334
		c0.042,0.023,0.092,0.031,0.143,0.031c0.052,0,0.103-0.008,0.153-0.031c0.124-0.056,0.218-0.191,0.218-0.344l0,0
		c0-0.152-0.093-0.283-0.218-0.344c-0.051-0.019-0.1-0.033-0.153-0.033c-0.051,0-0.1,0.015-0.143,0.033
		c-0.135,0.056-0.231,0.188-0.231,0.344l0,0C28.531,38.145,28.628,38.279,28.763,38.334z M28.16,37.621
		c0.206,0,0.371-0.174,0.371-0.384c0-0.198-0.165-0.362-0.371-0.362c-0.199,0-0.369,0.164-0.369,0.362
		C27.79,37.453,27.961,37.621,28.16,37.621z M22.95,33.38l-0.311-0.049c-0.036,0.056-0.059,0.112-0.059,0.189
		c0,0.204,0.17,0.365,0.369,0.365c0.203,0,0.374-0.161,0.374-0.365c0-0.034-0.004-0.06-0.014-0.091L22.95,33.38z M27.416,34.63
		c-0.205,0-0.365,0.17-0.365,0.377c0,0.198,0.16,0.37,0.365,0.37c0.203,0,0.374-0.172,0.374-0.37
		C27.79,34.8,27.619,34.63,27.416,34.63z M28.16,35.377c-0.199,0-0.369,0.168-0.369,0.379c0,0.203,0.17,0.367,0.369,0.367
		c0.206,0,0.371-0.164,0.371-0.367C28.531,35.541,28.366,35.377,28.16,35.377z M26.535,33.92c-0.135,0.053-0.237,0.188-0.237,0.339
		c0,0.21,0.17,0.381,0.376,0.381c0.203,0,0.377-0.171,0.377-0.381c0-0.114-0.063-0.214-0.154-0.284L26.535,33.92z M25.934,34.63
		c-0.206,0-0.377,0.17-0.377,0.377c0,0.198,0.17,0.37,0.377,0.37c0.202,0,0.364-0.172,0.364-0.37
		C26.298,34.8,26.136,34.63,25.934,34.63z M19.232,33.882c-0.206,0-0.372,0.172-0.372,0.374c0,0.206,0.166,0.374,0.372,0.374
		c0.21,0,0.375-0.168,0.375-0.374C19.607,34.054,19.442,33.882,19.232,33.882z M18.49,33.14c-0.205,0-0.373,0.171-0.373,0.378
		c0,0.205,0.168,0.364,0.373,0.364s0.37-0.159,0.37-0.364C18.86,33.311,18.695,33.14,18.49,33.14z M17.743,33.882
		c-0.198,0-0.371,0.172-0.371,0.374c0,0.206,0.172,0.374,0.371,0.374c0.21,0,0.375-0.168,0.375-0.374
		C18.117,34.054,17.955,33.882,17.743,33.882z M19.977,35.377c0.205,0,0.368-0.169,0.368-0.367c0-0.207-0.163-0.37-0.368-0.37
		c-0.208,0-0.37,0.163-0.37,0.37C19.607,35.208,19.769,35.377,19.977,35.377z M22.95,35.377c0.203,0,0.374-0.169,0.374-0.367
		c0-0.207-0.171-0.37-0.374-0.37c-0.199,0-0.369,0.163-0.369,0.37C22.581,35.208,22.753,35.377,22.95,35.377z M18.49,35.377
		c0.205,0,0.37-0.169,0.37-0.367c0-0.207-0.166-0.37-0.37-0.37s-0.373,0.163-0.373,0.37C18.117,35.208,18.286,35.377,18.49,35.377z
		 M22.204,33.882c-0.193,0-0.364,0.172-0.364,0.374c0,0.206,0.171,0.374,0.364,0.374c0.208,0,0.377-0.168,0.377-0.374
		C22.581,34.054,22.413,33.882,22.204,33.882z M19.977,33.14c-0.208,0-0.37,0.171-0.37,0.378c0,0.205,0.162,0.364,0.37,0.364
		c0.205,0,0.368-0.159,0.368-0.364C20.345,33.311,20.182,33.14,19.977,33.14z M22.204,36.124c0.208,0,0.377-0.164,0.377-0.367
		c0-0.211-0.168-0.379-0.377-0.379c-0.193,0-0.364,0.168-0.364,0.379C21.84,35.959,22.008,36.124,22.204,36.124z M20.72,33.882
		c-0.201,0-0.375,0.172-0.375,0.374c0,0.206,0.167,0.374,0.375,0.374c0.207,0,0.377-0.168,0.377-0.374
		C21.097,34.054,20.927,33.882,20.72,33.882z M21.464,34.63c-0.207,0-0.368,0.17-0.368,0.377c0,0.198,0.161,0.37,0.368,0.37
		c0.206,0,0.376-0.172,0.376-0.37C21.84,34.8,21.67,34.63,21.464,34.63z M25.785,38.334c0.037,0.023,0.092,0.031,0.148,0.031
		c0.043,0,0.091-0.008,0.142-0.031c0.133-0.056,0.223-0.191,0.223-0.344l0,0c0-0.152-0.09-0.283-0.223-0.344
		c-0.051-0.019-0.099-0.033-0.142-0.033c-0.057,0-0.106,0.015-0.148,0.033c-0.133,0.056-0.229,0.188-0.229,0.344l0,0
		C25.557,38.145,25.652,38.279,25.785,38.334z M21.464,39.858c0.206,0,0.376-0.172,0.376-0.369c0-0.209-0.17-0.382-0.376-0.382
		c-0.207,0-0.368,0.173-0.368,0.382C21.097,39.688,21.257,39.858,21.464,39.858z M21.84,37.995c0-0.153-0.099-0.284-0.224-0.346
		c-0.052-0.014-0.097-0.028-0.152-0.028c-0.049,0-0.097,0.015-0.144,0.028c-0.134,0.062-0.228,0.192-0.228,0.346l0,0
		c0,0.15,0.094,0.284,0.228,0.343c0.042,0.023,0.093,0.034,0.144,0.034c0.055,0,0.101-0.011,0.152-0.034
		C21.742,38.279,21.84,38.145,21.84,37.995L21.84,37.995z M20.345,37.995c0-0.153-0.091-0.284-0.224-0.346
		c-0.045-0.014-0.093-0.028-0.144-0.028c-0.049,0-0.101,0.015-0.15,0.028c-0.127,0.062-0.224,0.192-0.224,0.346l0,0
		c0,0.15,0.094,0.284,0.224,0.343c0.049,0.023,0.096,0.034,0.15,0.034c0.051,0,0.096-0.011,0.144-0.034
		C20.254,38.279,20.345,38.145,20.345,37.995L20.345,37.995z M20.72,39.107c0.207,0,0.377-0.168,0.377-0.372
		c0-0.198-0.17-0.369-0.377-0.369c-0.201,0-0.375,0.171-0.375,0.369C20.345,38.939,20.512,39.107,20.72,39.107z M22.204,39.107
		c0.208,0,0.377-0.168,0.377-0.372c0-0.198-0.168-0.369-0.377-0.369c-0.193,0-0.364,0.171-0.364,0.369
		C21.84,38.939,22.008,39.107,22.204,39.107z M22.204,36.875c-0.193,0-0.364,0.164-0.364,0.362c0,0.21,0.171,0.384,0.364,0.384
		c0.208,0,0.377-0.174,0.377-0.384C22.581,37.039,22.413,36.875,22.204,36.875z M22.814,38.334c0.04,0.023,0.088,0.031,0.136,0.031
		c0.061,0,0.102-0.008,0.147-0.031c0.133-0.056,0.227-0.191,0.227-0.344l0,0c0-0.152-0.094-0.283-0.227-0.344
		c-0.04-0.019-0.087-0.033-0.147-0.033c-0.048,0-0.097,0.015-0.136,0.033c-0.135,0.056-0.233,0.188-0.233,0.344l0,0
		C22.581,38.145,22.68,38.279,22.814,38.334z M17.743,38.366c-0.198,0-0.371,0.171-0.371,0.369c0,0.204,0.172,0.372,0.371,0.372
		c0.21,0,0.375-0.168,0.375-0.372C18.117,38.534,17.955,38.366,17.743,38.366z M18.49,39.858c0.205,0,0.37-0.172,0.37-0.369
		c0-0.209-0.166-0.382-0.37-0.382s-0.373,0.173-0.373,0.382C18.117,39.688,18.286,39.858,18.49,39.858z M19.232,39.107
		c0.21,0,0.375-0.168,0.375-0.372c0-0.198-0.165-0.369-0.375-0.369c-0.206,0-0.372,0.171-0.372,0.369
		C18.86,38.939,19.028,39.107,19.232,39.107z M18.86,37.995c0-0.153-0.093-0.284-0.228-0.346c-0.045-0.014-0.095-0.028-0.144-0.028
		c-0.053,0-0.104,0.015-0.15,0.028c-0.129,0.062-0.225,0.192-0.225,0.346l0,0c0,0.15,0.096,0.284,0.225,0.343
		c0.044,0.023,0.097,0.034,0.15,0.034c0.044,0,0.099-0.011,0.144-0.034C18.767,38.279,18.86,38.145,18.86,37.995L18.86,37.995z
		 M19.977,39.858c0.205,0,0.368-0.172,0.368-0.369c0-0.209-0.163-0.382-0.368-0.382c-0.208,0-0.37,0.173-0.37,0.382
		C19.607,39.688,19.769,39.858,19.977,39.858z M26.674,37.621c0.204,0,0.377-0.174,0.377-0.384c0-0.198-0.173-0.362-0.377-0.362
		c-0.205,0-0.376,0.164-0.376,0.362C26.298,37.453,26.468,37.621,26.674,37.621z M17.743,40.605c0.21,0,0.375-0.161,0.375-0.374
		c0-0.202-0.162-0.366-0.375-0.366c-0.198,0-0.371,0.164-0.371,0.366C17.372,40.444,17.544,40.605,17.743,40.605z M-10.155,40.231
		c0-0.186-0.133-0.338-0.312-0.364l-0.212,0.704c0.046,0.022,0.096,0.034,0.152,0.034C-10.318,40.605-10.155,40.444-10.155,40.231z
		 M27.271,38.334c0.05,0.023,0.096,0.031,0.147,0.031s0.105-0.008,0.149-0.031c0.132-0.056,0.226-0.191,0.226-0.344l0,0
		c0-0.152-0.094-0.283-0.226-0.344c-0.042-0.019-0.098-0.033-0.149-0.033s-0.098,0.015-0.147,0.033
		c-0.134,0.056-0.22,0.188-0.22,0.344l0,0C27.051,38.145,27.137,38.279,27.271,38.334z M25.184,39.107
		c0.211,0,0.373-0.168,0.373-0.372c0-0.198-0.162-0.369-0.373-0.369c-0.199,0-0.365,0.171-0.365,0.369
		C24.818,38.939,24.984,39.107,25.184,39.107z M25.934,36.124c-0.206,0-0.377,0.167-0.377,0.37c0,0.207,0.17,0.381,0.377,0.381
		c0.202,0,0.364-0.174,0.364-0.381C26.298,36.291,26.136,36.124,25.934,36.124z M24.444,36.875c0.203,0,0.374-0.174,0.374-0.381
		c0-0.203-0.171-0.37-0.374-0.37c-0.206,0-0.371,0.167-0.371,0.37C24.067,36.701,24.236,36.875,24.444,36.875z M23.695,39.107
		c0.207,0,0.372-0.168,0.372-0.372c0-0.198-0.165-0.369-0.372-0.369c-0.199,0-0.371,0.171-0.371,0.369
		C23.324,38.939,23.496,39.107,23.695,39.107z M23.695,36.875c-0.199,0-0.371,0.164-0.371,0.362c0,0.21,0.172,0.384,0.371,0.384
		c0.207,0,0.372-0.174,0.372-0.384C24.067,37.039,23.902,36.875,23.695,36.875z M24.296,38.334c0.038,0.023,0.091,0.031,0.148,0.031
		c0.048,0,0.101-0.008,0.14-0.031c0.137-0.056,0.234-0.191,0.234-0.344l0,0c0-0.152-0.1-0.283-0.234-0.344
		c-0.04-0.019-0.091-0.033-0.14-0.033c-0.054,0-0.11,0.015-0.148,0.033c-0.133,0.056-0.229,0.188-0.229,0.344l0,0
		C24.067,38.145,24.163,38.279,24.296,38.334z M23.695,35.377c-0.199,0-0.371,0.168-0.371,0.379c0,0.203,0.172,0.367,0.371,0.367
		c0.207,0,0.372-0.164,0.372-0.367C24.067,35.541,23.902,35.377,23.695,35.377z M23.324,36.494c0-0.203-0.171-0.37-0.374-0.37
		c-0.199,0-0.369,0.167-0.369,0.37c0,0.207,0.17,0.381,0.369,0.381C23.153,36.875,23.324,36.701,23.324,36.494z M25.184,36.875
		c-0.199,0-0.365,0.164-0.365,0.362c0,0.21,0.166,0.384,0.365,0.384c0.211,0,0.373-0.174,0.373-0.384
		C25.557,37.039,25.395,36.875,25.184,36.875z M-0.854,36.875c0.21,0,0.372-0.174,0.372-0.381c0-0.203-0.161-0.37-0.372-0.37
		c-0.206,0-0.373,0.167-0.373,0.37C-1.227,36.701-1.061,36.875-0.854,36.875z M-1.599,36.124c0.205,0,0.371-0.164,0.371-0.367
		c0-0.116-0.052-0.219-0.137-0.289l-0.547,0.102c-0.036,0.049-0.061,0.116-0.061,0.188C-1.972,35.959-1.804,36.124-1.599,36.124z
		 M0.634,35.377c0.184,0,0.329-0.134,0.358-0.303l-0.68,0.108C0.376,35.294,0.493,35.377,0.634,35.377z M-0.11,36.124
		c0.204,0,0.37-0.164,0.37-0.367c0-0.211-0.166-0.379-0.37-0.379c-0.205,0-0.373,0.168-0.373,0.379
		C-0.483,35.959-0.315,36.124-0.11,36.124z M-2.34,36.875c0.207,0,0.369-0.174,0.369-0.381c0-0.203-0.163-0.37-0.369-0.37
		c-0.208,0-0.376,0.167-0.376,0.37C-2.716,36.701-2.548,36.875-2.34,36.875z M-3.085,36.124c0.205,0,0.369-0.164,0.369-0.367
		c0-0.02-0.006-0.04-0.009-0.055l-0.723,0.125C-3.409,35.998-3.265,36.124-3.085,36.124z M3.614,34.63
		c-0.209,0-0.375,0.17-0.375,0.377c0,0.198,0.166,0.37,0.375,0.37c0.202,0,0.368-0.172,0.368-0.37
		C3.982,34.8,3.815,34.63,3.614,34.63z M2.868,35.377c-0.207,0-0.375,0.168-0.375,0.379c0,0.203,0.166,0.367,0.375,0.367
		c0.204,0,0.371-0.164,0.371-0.367C3.239,35.541,3.071,35.377,2.868,35.377z M0.634,36.124c-0.207,0-0.375,0.167-0.375,0.37
		c0,0.207,0.168,0.381,0.375,0.381c0.205,0,0.37-0.174,0.37-0.381C1.004,36.291,0.842,36.124,0.634,36.124z M-3.829,36.875
		c0.205,0,0.373-0.174,0.373-0.381c0-0.203-0.168-0.37-0.373-0.37c-0.208,0-0.375,0.167-0.375,0.37
		C-4.204,36.701-4.038,36.875-3.829,36.875z M2.119,35.377c0.208,0,0.374-0.169,0.374-0.367c0-0.074-0.021-0.134-0.056-0.188
		l-0.318,0.052l-0.351,0.06c-0.004,0.02-0.019,0.045-0.019,0.073C1.747,35.208,1.916,35.377,2.119,35.377z M17.003,35.377
		c0.2,0,0.369-0.169,0.369-0.367c0-0.207-0.169-0.37-0.369-0.37c-0.208,0-0.372,0.163-0.372,0.37
		C16.631,35.208,16.794,35.377,17.003,35.377z M3.614,36.875c0.202,0,0.368-0.174,0.368-0.381c0-0.203-0.167-0.37-0.368-0.37
		c-0.209,0-0.375,0.167-0.375,0.37C3.239,36.701,3.405,36.875,3.614,36.875z M-4.275,35.966L-4.78,36.05
		c0.061,0.043,0.127,0.073,0.208,0.073C-4.45,36.124-4.343,36.057-4.275,35.966z M-7.939,36.593l-0.654,0.113
		c0.066,0.104,0.174,0.171,0.301,0.171C-8.122,36.875-7.983,36.752-7.939,36.593z M-9.037,37.621c0.203,0,0.37-0.174,0.37-0.384
		c0-0.198-0.167-0.362-0.37-0.362c-0.209,0-0.373,0.164-0.373,0.362C-9.409,37.453-9.246,37.621-9.037,37.621z M-9.784,39.858
		c0.206,0,0.375-0.172,0.375-0.369c0-0.209-0.169-0.382-0.375-0.382c-0.201,0-0.371,0.173-0.371,0.382
		C-10.155,39.688-9.985,39.858-9.784,39.858z M-9.784,38.366c0.054,0,0.104-0.008,0.146-0.031c0.131-0.056,0.229-0.191,0.229-0.344
		l0,0c0-0.152-0.094-0.283-0.229-0.344c-0.04-0.019-0.085-0.026-0.13-0.033l-0.213,0.685c0.018,0.014,0.032,0.029,0.055,0.033
		C-9.882,38.358-9.833,38.366-9.784,38.366z M-8.147,37.649c-0.047-0.014-0.095-0.028-0.149-0.028c-0.052,0-0.098,0.015-0.144,0.028
		c-0.136,0.059-0.228,0.189-0.228,0.346l0,0c0,0.148,0.092,0.281,0.228,0.34c0.046,0.023,0.091,0.035,0.144,0.035
		c0.054,0,0.101-0.012,0.149-0.035c0.13-0.056,0.224-0.191,0.224-0.34l0,0C-7.923,37.841-8.017,37.708-8.147,37.649z M-4.571,37.621
		c0.203,0,0.37-0.174,0.37-0.384c0-0.198-0.165-0.362-0.37-0.362c-0.208,0-0.375,0.164-0.375,0.362
		C-4.946,37.453-4.779,37.621-4.571,37.621z M-5.318,36.875c0.206,0,0.37-0.174,0.37-0.381c0-0.184-0.14-0.33-0.317-0.362
		l-0.227,0.041c-0.115,0.059-0.199,0.183-0.199,0.321C-5.691,36.701-5.521,36.875-5.318,36.875z M-6.06,37.621
		c0.202,0,0.368-0.174,0.368-0.384c0-0.198-0.167-0.362-0.368-0.362c-0.208,0-0.375,0.164-0.375,0.362
		C-6.434,37.453-6.267,37.621-6.06,37.621z M-6.803,36.875c0.202,0,0.369-0.174,0.369-0.381c0-0.055-0.014-0.11-0.037-0.155
		l-0.332,0.055l-0.366,0.066c-0.001,0.012-0.009,0.023-0.009,0.034C-7.177,36.701-7.009,36.875-6.803,36.875z M-7.55,37.621
		c0.206,0,0.373-0.174,0.373-0.384c0-0.198-0.165-0.362-0.373-0.362c-0.204,0-0.373,0.164-0.373,0.362
		C-7.923,37.453-7.754,37.621-7.55,37.621z M1.376,36.124c0.209,0,0.373-0.164,0.373-0.367c0-0.211-0.164-0.379-0.373-0.379
		c-0.203,0-0.372,0.168-0.372,0.379C1.004,35.959,1.171,36.124,1.376,36.124z M13.278,33.882c-0.205,0-0.371,0.172-0.371,0.374
		c0,0.206,0.167,0.374,0.371,0.374c0.207,0,0.376-0.168,0.376-0.374C13.655,34.054,13.485,33.882,13.278,33.882z M12.544,33.14
		c-0.213,0-0.381,0.171-0.381,0.378c0,0.205,0.168,0.364,0.381,0.364c0.198,0,0.367-0.159,0.367-0.364
		C12.911,33.311,12.744,33.14,12.544,33.14z M11.795,33.882c-0.202,0-0.371,0.172-0.371,0.374c0,0.206,0.169,0.374,0.371,0.374
		c0.205,0,0.371-0.168,0.371-0.374C12.163,34.054,12,33.882,11.795,33.882z M14.026,35.377c0.206,0,0.366-0.169,0.366-0.367
		c0-0.207-0.161-0.37-0.366-0.37c-0.208,0-0.371,0.163-0.371,0.37C13.655,35.208,13.818,35.377,14.026,35.377z M12.544,35.377
		c0.198,0,0.367-0.169,0.367-0.367c0-0.207-0.167-0.37-0.367-0.37c-0.213,0-0.381,0.163-0.381,0.37
		C12.163,35.208,12.331,35.377,12.544,35.377z M16.254,33.882c-0.202,0-0.368,0.172-0.368,0.374c0,0.206,0.166,0.374,0.368,0.374
		c0.208,0,0.377-0.168,0.377-0.374C16.631,34.054,16.463,33.882,16.254,33.882z M15.513,33.14c-0.206,0-0.373,0.171-0.373,0.378
		c0,0.205,0.167,0.364,0.373,0.364c0.207,0,0.373-0.159,0.373-0.364C15.886,33.311,15.72,33.14,15.513,33.14z M11.054,33.353
		l-0.362,0.06c-0.001,0.031-0.005,0.061-0.005,0.105c0,0.205,0.162,0.364,0.369,0.364c0.201,0,0.371-0.159,0.371-0.364
		c0-0.088-0.036-0.158-0.079-0.215L11.054,33.353z M15.513,35.377c0.207,0,0.373-0.169,0.373-0.367c0-0.207-0.166-0.37-0.373-0.37
		c-0.206,0-0.373,0.163-0.373,0.37C15.141,35.208,15.303,35.377,15.513,35.377z M14.026,33.14c-0.208,0-0.371,0.171-0.371,0.378
		c0,0.205,0.163,0.364,0.371,0.364c0.206,0,0.366-0.159,0.366-0.364C14.392,33.311,14.231,33.14,14.026,33.14z M14.771,33.882
		c-0.208,0-0.379,0.172-0.379,0.374c0,0.206,0.167,0.374,0.379,0.374c0.203,0,0.37-0.168,0.37-0.374
		C15.141,34.054,14.974,33.882,14.771,33.882z M10.304,33.882c-0.2,0-0.371,0.172-0.371,0.374c0,0.206,0.171,0.374,0.371,0.374
		c0.209,0,0.378-0.168,0.378-0.374C10.683,34.054,10.514,33.882,10.304,33.882z M7.329,36.124c0.21,0,0.371-0.164,0.371-0.367
		c0-0.211-0.157-0.379-0.371-0.379c-0.208,0-0.372,0.168-0.372,0.379C6.957,35.959,7.12,36.124,7.329,36.124z M11.054,35.377
		c0.201,0,0.371-0.169,0.371-0.367c0-0.207-0.167-0.37-0.371-0.37c-0.21,0-0.371,0.163-0.371,0.37
		C10.683,35.208,10.844,35.377,11.054,35.377z M5.478,34.303c0.021,0.186,0.174,0.337,0.367,0.337c0.198,0,0.37-0.171,0.37-0.381
		c0-0.031-0.009-0.052-0.019-0.081L5.478,34.303z M5.845,36.124c0.2,0,0.371-0.164,0.371-0.367c0-0.211-0.171-0.379-0.371-0.379
		c-0.208,0-0.375,0.168-0.375,0.379C5.47,35.959,5.633,36.124,5.845,36.124z M5.097,34.63c-0.204,0-0.37,0.17-0.37,0.377
		c0,0.198,0.166,0.37,0.37,0.37c0.205,0,0.374-0.172,0.374-0.37C5.47,34.8,5.306,34.63,5.097,34.63z M6.586,34.63
		c-0.208,0-0.371,0.17-0.371,0.377c0,0.198,0.159,0.37,0.371,0.37c0.202,0,0.371-0.172,0.371-0.37
		C6.957,34.8,6.789,34.63,6.586,34.63z M10.304,36.124c0.209,0,0.378-0.164,0.378-0.367c0-0.211-0.169-0.379-0.378-0.379
		c-0.2,0-0.371,0.168-0.371,0.379C9.933,35.959,10.102,36.124,10.304,36.124z M7.535,33.955l-0.494,0.082
		c-0.051,0.061-0.084,0.14-0.084,0.22c0,0.206,0.161,0.374,0.372,0.374c0.21,0,0.371-0.168,0.371-0.374
		C7.699,34.134,7.632,34.017,7.535,33.955z M5.097,36.875c0.205,0,0.374-0.174,0.374-0.381c0-0.203-0.165-0.37-0.374-0.37
		c-0.204,0-0.37,0.167-0.37,0.37C4.729,36.701,4.893,36.875,5.097,36.875z M8.819,33.882c-0.207,0-0.375,0.172-0.375,0.374
		c0,0.206,0.168,0.374,0.375,0.374c0.203,0,0.373-0.168,0.373-0.374C9.192,34.054,9.023,33.882,8.819,33.882z M8.819,36.124
		c0.203,0,0.373-0.164,0.373-0.367c0-0.211-0.169-0.379-0.373-0.379c-0.207,0-0.375,0.168-0.375,0.379
		C8.445,35.959,8.612,36.124,8.819,36.124z"/>
	<path d="M-36.058,36.083l-0.334,0.485c-0.866,1.39-0.982,3.155-0.303,4.729c0.773,1.781,2.44,3.035,4.576,3.459l15.456,2.306
		c0.205,0.029,0.415-0.107,0.465-0.312l0.79-2.937c0.054-0.195-0.07-0.389-0.268-0.413l-7.884-1.262
		c-0.203-0.038-0.315-0.218-0.249-0.421l1.104-3.336c0.065-0.196,0.284-0.338,0.487-0.302l7.723,1.112
		c0.206,0.031,0.42-0.112,0.474-0.303l0.863-2.958c0.061-0.2-0.06-0.391-0.264-0.424l-15.456-2.37
		c-0.43-0.072-0.864-0.116-1.291-0.116C-32.63,33.003-34.835,34.156-36.058,36.083z M-28.595,41.337l-2.806-0.452
		c-0.842-0.17-1.441-0.578-1.694-1.154c-0.161-0.378-0.153-0.771,0.019-1.047l0.026-0.043c0.682-1.462,2.112-1.666,2.906-1.659
		c0.218,0.008,0.429,0.026,0.646,0.06l2.218,0.314c0.204,0.038,0.317,0.218,0.251,0.415l-1.081,3.273
		C-28.172,41.235-28.392,41.366-28.595,41.337z"/>
	<path d="M-11.958-9.699c-6.24-0.197-11.307,3.596-11.455,8.454c-0.057,1.91,0.649,3.749,2.046,5.317
		c2.037,2.295,5.355,3.72,8.87,3.829c0.152,0.005,0.304,0.01,0.452,0.01h0.06C-5.992,7.889-1.182,4.168-1.037-0.551
		c0.058-1.916-0.652-3.753-2.051-5.324C-5.123-8.16-8.439-9.59-11.958-9.699z M-12.365,3.64c-2.337-0.075-4.561-0.99-5.81-2.393
		c-0.654-0.739-0.988-1.552-0.963-2.359c0.072-2.372,3.075-4.311,6.691-4.323h0.04c0.102,0,0.211,0,0.317,0.003
		c2.335,0.071,4.559,0.987,5.808,2.389c0.657,0.738,0.99,1.553,0.963,2.36C-5.392,1.764-8.58,3.75-12.365,3.64z"/>
	<path d="M-29.421,18.736c-0.205-0.026-0.422,0.107-0.488,0.307l-1.182,3.274c-0.066,0.194,0.048,0.381,0.253,0.403l15.482,2.063
		c0.809,0.166,1.39,0.554,1.631,1.113c0.149,0.345,0.149,0.693,0.007,0.929l0,0c-0.591,1.477-2.194,1.706-2.847,1.694
		c-0.214,0-0.424-0.021-0.645-0.054l-14.718-2.143c-0.208-0.031-0.424,0.111-0.485,0.306l-1.083,3.127
		c-0.062,0.2,0.055,0.389,0.257,0.417l15.394,2.377c0.422,0.064,0.853,0.104,1.273,0.104c2.503,0.035,4.753-1.137,5.987-3.107
		l0.332-0.5c0.881-1.421,0.99-3.219,0.293-4.809c-0.792-1.81-2.487-3.096-4.655-3.503L-29.421,18.736z"/>
	<path d="M8.747-35.077l0.873-2.88c0.069-0.202-0.056-0.367-0.258-0.372l-15.349-0.409c-2.95-0.163-5.553,1.269-6.719,3.673
		l-0.273,0.518c-0.695,1.451-0.612,3.187,0.222,4.644c0.954,1.664,2.724,2.712,4.861,2.888l13.842,0.565
		c0.212,0.004,0.421-0.153,0.483-0.351l0.885-3.003C7.379-30,7.253-30.168,7.047-30.179l-7.266-0.289
		c-0.208-0.005-0.321-0.176-0.25-0.37l1.272-3.667c0.065-0.194,0.289-0.349,0.5-0.347l6.961,0.129
		C8.471-34.72,8.688-34.878,8.747-35.077z M-5.325-30.67l-2.302-0.092c-0.889-0.08-1.559-0.436-1.887-1.009
		c-0.215-0.379-0.257-0.804-0.089-1.155c0.575-1.55,2.13-2.077,3.285-2.068c0.047,0,0.102,0.006,0.165,0.006l2.486,0.046
		c0.208,0.001,0.315,0.162,0.239,0.351l-1.389,3.586C-4.891-30.813-5.117-30.662-5.325-30.67z"/>
	<path d="M-16.019-21.692l10.312,3.538c0.193,0.076,0.187,0.149-0.02,0.167l-12.405,1.306c-0.205,0.013-0.43,0.188-0.499,0.384
		l-1.358,3.636c-0.076,0.201,0.033,0.378,0.24,0.399L0.914-9.951c0,0,0.016,0.005,0.04,0.009c0.021,0,0.087-0.158,0.149-0.357
		L2.03-13.16c0.061-0.194-0.055-0.373-0.26-0.388l-8.98-0.864c-0.206-0.018-0.206-0.049,0-0.069l9.639-1.036
		c0.204-0.021,0.421-0.198,0.481-0.393l0.713-2.38c0.059-0.194-0.053-0.402-0.253-0.467l-8.477-2.483
		c-0.197-0.062-0.19-0.096,0.014-0.085l9.124,0.554c0.207,0.011,0.423-0.135,0.484-0.339l0.879-2.868
		c0.062-0.201-0.054-0.371-0.261-0.38l-19.765-1.071c-0.206-0.014-0.434,0.135-0.503,0.331l-1.107,2.93
		C-16.312-21.976-16.217-21.759-16.019-21.692z"/>
	<path d="M-21.029,6.646L-24.764,6.1c-0.206-0.023-0.429,0.119-0.498,0.318l-3.519,10.151c-0.068,0.193,0.041,0.37,0.249,0.396
		l3.646,0.432c0.203,0.03,0.427-0.115,0.497-0.306l0.851-2.378c0.068-0.194,0.292-0.33,0.498-0.313l15.563,1.653
		c0.205,0.025,0.423-0.116,0.49-0.317l1.141-3.489c0.062-0.198-0.053-0.382-0.254-0.404l-15.405-1.722
		c-0.204-0.023-0.317-0.204-0.245-0.398l0.966-2.7C-20.713,6.836-20.824,6.664-21.029,6.646z"/>
</g>
</svg>
