<?xml version="1.0" encoding="utf-8"?>
<!-- Generator: Adobe Illustrator 16.2.1, SVG Export Plug-In . SVG Version: 6.00 Build 0)  -->
<!DOCTYPE svg PUBLIC "-//W3C//DTD SVG 1.1//EN" "http://www.w3.org/Graphics/SVG/1.1/DTD/svg11.dtd">
<svg version="1.1" id="Layer_1" xmlns="http://www.w3.org/2000/svg" xmlns:xlink="http://www.w3.org/1999/xlink" x="0px" y="0px"
	 width="44px" height="48px" viewBox="0 0 44 48" enable-background="new 0 0 44 48" xml:space="preserve">
<g>
	<path d="M31.416,39.386c0.044,0,0.08-0.015,0.119-0.04l-0.274-0.04C31.297,39.354,31.35,39.386,31.416,39.386z"/>
	<path d="M29.802,39.386c0.114,0,0.203-0.092,0.203-0.201c0-0.025-0.007-0.049-0.016-0.07l-0.341-0.053
		c-0.027,0.033-0.045,0.077-0.045,0.123C29.602,39.294,29.693,39.386,29.802,39.386z"/>
	<path d="M30.61,39.386c0.093,0,0.168-0.064,0.189-0.149l-0.389-0.062c0,0.004-0.004,0.01-0.004,0.01
		C30.407,39.294,30.499,39.386,30.61,39.386z"/>
	<path d="M28.189,39.386c0.112,0,0.202-0.092,0.202-0.201c0-0.022-0.006-0.04-0.013-0.062l-0.389,0.067
		C27.992,39.301,28.081,39.386,28.189,39.386z"/>
	<path d="M28.994,39.386c0.114,0,0.205-0.092,0.205-0.201c0-0.079-0.048-0.147-0.115-0.182l-0.233,0.04
		c-0.036,0.037-0.057,0.087-0.057,0.142C28.794,39.294,28.885,39.386,28.994,39.386z"/>
	<path d="M27.381,39.386c0.086,0,0.155-0.048,0.19-0.122l-0.335,0.058C27.27,39.359,27.324,39.386,27.381,39.386z"/>
	<path d="M27.724,23.289c0.353,0.106,0.734,0.175,1.127,0.201c2.062,0.125,3.808-0.961,3.855-2.373
		c0.049-1.408-1.64-2.693-3.675-2.802c-0.058-0.002-0.113-0.006-0.169-0.006c-1.967-0.048-3.594,1.02-3.645,2.375
		c-0.022,0.635,0.31,1.245,0.869,1.737c0.039,0.037,0.097,0.026,0.125-0.022l0.543-0.96c0.025-0.047,0.09-0.072,0.14-0.049
		l1.373,0.549c0.056,0.021,0.077,0.079,0.046,0.122l-0.64,1.114C27.647,23.222,27.669,23.274,27.724,23.289z"/>
	<path d="M44.035,41.151L27.439,0.594c0,0-0.006-0.025-0.024-0.06c-0.012-0.033-0.04-0.061-0.058-0.061
		c-0.019,0-0.048,0.043-0.064,0.096l-2.44,8.447c-0.016,0.052,0.018,0.095,0.074,0.095l2.764,0.211c0.054,0,0.084-0.042,0.065-0.091
		l-0.89-2.275c-0.019-0.049,0.009-0.091,0.066-0.091l1.624,0.1c0.055,0,0.119,0.042,0.134,0.094l2.278,5.852
		c0.021,0.051-0.009,0.092-0.064,0.09l-1.681-0.114c-0.058-0.001-0.115-0.046-0.136-0.097l-0.674-1.785
		c-0.019-0.052-0.079-0.095-0.135-0.095l-3.79-0.226c-0.059,0-0.114,0.042-0.129,0.093l-0.848,2.881
		c-0.014,0.052,0.015,0.098,0.073,0.103l7.766,0.488c0.059,0.003,0.115,0.051,0.131,0.103l0.494,1.641
		c0.015,0.054-0.019,0.09-0.073,0.088l-8.825-0.577c-0.055-0.003-0.11,0.036-0.125,0.087l-1.347,4.503
		c-0.015,0.051-0.01,0.136,0.011,0.186l7.408,18.583c0,0,0.009,0.025,0.021,0.056c0.015,0.031,0.072,0.062,0.125,0.07l2.638,0.4
		c-0.106,0.006-0.191,0.091-0.191,0.202s0.088,0.198,0.2,0.198s0.205-0.087,0.205-0.198c0-0.088-0.053-0.158-0.127-0.19
		l-0.062-0.008l1.399,0.214c0.013,0.102,0.095,0.183,0.202,0.183c0.082,0,0.155-0.052,0.188-0.125l-0.258-0.039l0.932,0.142
		l-0.053-0.007l-0.136-0.022c0.036,0.033,0.083,0.052,0.136,0.052c0.026,0,0.058-0.005,0.085-0.019l0.939,0.146
		c-0.012,0.026-0.018,0.052-0.018,0.075c0,0.115,0.092,0.205,0.2,0.205c0.111,0,0.202-0.09,0.202-0.205
		c0-0.005-0.003-0.015-0.003-0.021l-0.317-0.045l1.717,0.256l-0.072-0.012c0.025,0.019,0.056,0.027,0.089,0.027
		c0.011,0,0.021-0.005,0.028-0.005l3.067,0.464c-0.045,0.033-0.07,0.09-0.07,0.148c0,0.111,0.09,0.2,0.2,0.2
		c0.113,0,0.202-0.089,0.202-0.2c0-0.038-0.012-0.074-0.027-0.102l-0.26-0.04l1.521,0.23c0.034,0.066,0.102,0.111,0.181,0.111
		c0.056,0,0.107-0.023,0.146-0.062l-0.295-0.043l1.208,0.18c-0.031,0.036-0.052,0.078-0.052,0.128c0,0.108,0.085,0.195,0.188,0.2
		l0.106-0.021c0.064-0.034,0.108-0.1,0.108-0.18c0-0.024-0.004-0.053-0.012-0.076l-0.187-0.027l0.851,0.13
		C44.028,41.24,44.055,41.203,44.035,41.151z M26.046,25.8l-1.327-0.555c-0.05-0.02-0.071-0.078-0.044-0.123l0.653-1.159
		c0.027-0.048,0.013-0.115-0.032-0.15c-1.068-0.829-1.723-1.984-1.676-3.22c0.085-2.292,2.501-4.026,5.471-3.869
		c2.963,0.154,5.33,2.167,5.25,4.486c-0.075,2.272-2.424,3.981-5.328,3.889c-0.073-0.007-0.146-0.009-0.219-0.012
		c-0.667-0.044-1.301-0.179-1.879-0.391c-0.054-0.02-0.12,0.003-0.144,0.05l-0.582,1.003C26.162,25.8,26.097,25.821,26.046,25.8z
		 M26.915,29.737l-0.12-0.287c-0.282-0.749-0.165-1.597,0.309-2.263c0.548-0.767,1.489-1.188,2.582-1.15l0.027,0.002l6.513,0.556
		c0.058,0.003,0.123,0.053,0.148,0.104l0.64,1.452c0.028,0.054-0.004,0.094-0.059,0.085l-7.292-0.599
		c-0.551-0.015-0.988,0.164-1.235,0.503c-0.168,0.238-0.216,0.526-0.128,0.774l0.121,0.284c0.306,0.809,1.147,1.141,1.833,1.181
		l7.689,0.731c0.058,0.007,0.123,0.053,0.143,0.106l0.568,1.459c0.021,0.058-0.01,0.094-0.066,0.087l-8.393-0.776
		C28.675,31.894,27.413,31.03,26.915,29.737z M41.375,39.453l-1.6-0.214c-0.055-0.006-0.118-0.055-0.144-0.109l-1.394-3.256
		c-0.021-0.053-0.085-0.103-0.142-0.107l-2.541-0.268c-0.059-0.006-0.088,0.032-0.067,0.085l1.146,3.034
		c0.021,0.055-0.009,0.092-0.069,0.083l-1.638-0.217c-0.056-0.01-0.117-0.057-0.139-0.111l-1.108-2.976
		c-0.02-0.058-0.08-0.103-0.14-0.109l-2.43-0.296c-0.054-0.006-0.087,0.034-0.065,0.087l1.044,2.835
		c0.015,0.053-0.013,0.094-0.069,0.083l-1.645-0.229c-0.059-0.006-0.116-0.058-0.138-0.11l-1.716-4.456
		c-0.022-0.048,0.008-0.089,0.067-0.087l10.782,1.072c0.059,0.007,0.123,0.132,0.145,0.184l1.925,4.997
		C41.463,39.424,41.431,39.46,41.375,39.453z M16.567,41.831c-0.024-0.008-0.051-0.015-0.077-0.015c-0.028,0-0.055,0.007-0.08,0.015
		c-0.073,0.032-0.124,0.104-0.124,0.188l0,0c0,0.081,0.051,0.154,0.124,0.184c0.024,0.014,0.051,0.019,0.08,0.019
		c0.026,0,0.053-0.005,0.077-0.019c0.073-0.029,0.123-0.103,0.123-0.184l0,0C16.69,41.936,16.64,41.863,16.567,41.831z M16.49,43.03
		c0.11,0,0.2-0.093,0.2-0.2c0-0.114-0.09-0.207-0.2-0.207c-0.112,0-0.203,0.093-0.203,0.207C16.287,42.938,16.378,43.03,16.49,43.03
		z M16.085,42.221c-0.111,0-0.202,0.092-0.202,0.2c0,0.112,0.091,0.202,0.202,0.202c0.112,0,0.202-0.09,0.202-0.202
		C16.287,42.312,16.198,42.221,16.085,42.221z M16.893,42.221c-0.112,0-0.203,0.092-0.203,0.2c0,0.112,0.091,0.202,0.203,0.202
		c0.11,0,0.201-0.09,0.201-0.202C17.094,42.312,17.003,42.221,16.893,42.221z M16.085,43.435c0.112,0,0.202-0.088,0.202-0.202
		c0-0.112-0.089-0.202-0.202-0.202c-0.111,0-0.202,0.09-0.202,0.202C15.883,43.347,15.974,43.435,16.085,43.435z M15.682,42.623
		c-0.112,0-0.202,0.093-0.202,0.207c0,0.107,0.089,0.2,0.202,0.2c0.111,0,0.202-0.093,0.202-0.2
		C15.883,42.716,15.792,42.623,15.682,42.623z M18.182,41.831c-0.025-0.008-0.051-0.015-0.079-0.015
		c-0.028,0-0.055,0.007-0.078,0.015c-0.072,0.032-0.125,0.104-0.125,0.188l0,0c0,0.081,0.053,0.154,0.125,0.184
		c0.023,0.014,0.05,0.019,0.078,0.019c0.028,0,0.054-0.005,0.079-0.019c0.071-0.029,0.123-0.103,0.123-0.184l0,0
		C18.305,41.936,18.253,41.863,18.182,41.831z M18.103,43.03c0.111,0,0.202-0.093,0.202-0.2c0-0.114-0.091-0.207-0.202-0.207
		c-0.113,0-0.203,0.093-0.203,0.207C17.9,42.938,17.99,43.03,18.103,43.03z M17.7,42.221c-0.112,0-0.203,0.092-0.203,0.2
		c0,0.112,0.091,0.202,0.203,0.202c0.111,0,0.201-0.09,0.201-0.202C17.9,42.312,17.811,42.221,17.7,42.221z M16.893,45.865
		c0.11,0,0.201-0.091,0.201-0.204c0-0.112-0.091-0.201-0.201-0.201c-0.112,0-0.203,0.089-0.203,0.201
		C16.69,45.774,16.781,45.865,16.893,45.865z M17.296,43.03c0.111,0,0.2-0.093,0.2-0.2c0-0.114-0.089-0.207-0.2-0.207
		c-0.112,0-0.203,0.093-0.203,0.207C17.094,42.938,17.185,43.03,17.296,43.03z M19.716,42.623c-0.111,0-0.202,0.093-0.202,0.207
		c0,0.107,0.091,0.2,0.202,0.2c0.114,0,0.202-0.093,0.202-0.2C19.918,42.716,19.83,42.623,19.716,42.623z M15.682,46.271
		c0.111,0,0.202-0.093,0.202-0.205c0-0.114-0.091-0.201-0.202-0.201c-0.112,0-0.202,0.087-0.202,0.201
		C15.48,46.179,15.569,46.271,15.682,46.271z M16.085,45.865c0.112,0,0.202-0.091,0.202-0.204c0-0.112-0.089-0.201-0.202-0.201
		c-0.111,0-0.202,0.089-0.202,0.201C15.883,45.774,15.974,45.865,16.085,45.865z M15.883,45.259c0-0.114-0.091-0.205-0.202-0.205
		c-0.112,0-0.202,0.091-0.202,0.205l0,0c0,0.11,0.089,0.201,0.202,0.201C15.792,45.46,15.883,45.369,15.883,45.259L15.883,45.259z
		 M16.085,44.649c-0.111,0-0.202,0.088-0.202,0.205c0,0.11,0.091,0.199,0.202,0.199c0.112,0,0.202-0.089,0.202-0.199
		C16.287,44.737,16.198,44.649,16.085,44.649z M16.49,45.46c0.11,0,0.2-0.091,0.2-0.201l0,0c0-0.114-0.09-0.205-0.2-0.205
		c-0.112,0-0.203,0.091-0.203,0.205l0,0C16.287,45.369,16.378,45.46,16.49,45.46z M15.279,44.649c-0.113,0-0.203,0.088-0.203,0.205
		c0,0.11,0.089,0.199,0.203,0.199c0.11,0,0.201-0.089,0.201-0.199C15.48,44.737,15.389,44.649,15.279,44.649z M15.279,44.241
		c0.11,0,0.201-0.086,0.201-0.197c0-0.114-0.091-0.202-0.201-0.202c-0.113,0-0.203,0.088-0.203,0.202
		C15.077,44.155,15.166,44.241,15.279,44.241z M18.507,42.623c0.11,0,0.2-0.09,0.2-0.202c0-0.108-0.089-0.2-0.2-0.2
		c-0.112,0-0.202,0.092-0.202,0.2C18.305,42.533,18.395,42.623,18.507,42.623z M15.279,45.865c0.11,0,0.201-0.091,0.201-0.204
		c0-0.112-0.091-0.201-0.201-0.201c-0.113,0-0.203,0.089-0.203,0.201C15.077,45.774,15.166,45.865,15.279,45.865z M14.874,43.435
		c-0.11,0-0.201,0.091-0.201,0.203s0.09,0.204,0.201,0.204c0.112,0,0.203-0.092,0.203-0.204S14.986,43.435,14.874,43.435z
		 M14.874,44.649c0.112,0,0.203-0.092,0.203-0.201c0-0.112-0.091-0.207-0.203-0.207c-0.11,0-0.201,0.095-0.201,0.207
		C14.673,44.558,14.764,44.649,14.874,44.649z M17.375,41.831c-0.025-0.008-0.052-0.015-0.079-0.015
		c-0.029,0-0.055,0.007-0.08,0.015c-0.072,0.032-0.123,0.104-0.123,0.188l0,0c0,0.081,0.051,0.154,0.123,0.184
		c0.024,0.014,0.051,0.019,0.08,0.019c0.027,0,0.054-0.005,0.079-0.019c0.071-0.029,0.122-0.103,0.122-0.184l0,0
		C17.497,41.936,17.446,41.863,17.375,41.831z M22.139,43.03c0.11,0,0.2-0.093,0.2-0.2c0-0.114-0.09-0.207-0.2-0.207
		c-0.113,0-0.203,0.093-0.203,0.207C21.936,42.938,22.026,43.03,22.139,43.03z M21.735,42.221c-0.113,0-0.203,0.092-0.203,0.2
		c0,0.112,0.089,0.202,0.203,0.202c0.11,0,0.201-0.09,0.201-0.202C21.936,42.312,21.845,42.221,21.735,42.221z M21.735,43.435
		c0.11,0,0.201-0.088,0.201-0.202c0-0.112-0.091-0.202-0.201-0.202c-0.113,0-0.203,0.09-0.203,0.202
		C21.532,43.347,21.622,43.435,21.735,43.435z M22.541,43.435c0.112,0,0.203-0.088,0.203-0.202c0-0.112-0.091-0.202-0.203-0.202
		c-0.113,0-0.202,0.09-0.202,0.202C22.339,43.347,22.428,43.435,22.541,43.435z M21.329,42.623c-0.11,0-0.202,0.093-0.202,0.207
		c0,0.107,0.092,0.2,0.202,0.2c0.113,0,0.203-0.093,0.203-0.2C21.532,42.716,21.442,42.623,21.329,42.623z M22.217,41.831
		c-0.026-0.008-0.052-0.015-0.078-0.015c-0.028,0-0.057,0.007-0.081,0.015c-0.072,0.032-0.122,0.104-0.122,0.188l0,0
		c0,0.081,0.05,0.154,0.122,0.184c0.023,0.014,0.052,0.019,0.081,0.019c0.026,0,0.052-0.005,0.078-0.019
		c0.071-0.029,0.122-0.103,0.122-0.184l0,0C22.339,41.936,22.288,41.863,22.217,41.831z M20.524,42.623
		c-0.113,0-0.204,0.093-0.204,0.207c0,0.107,0.091,0.2,0.204,0.2c0.111,0,0.2-0.093,0.2-0.2
		C20.724,42.716,20.636,42.623,20.524,42.623z M21.329,43.842c0.113,0,0.203-0.092,0.203-0.204s-0.09-0.203-0.203-0.203
		c-0.11,0-0.202,0.091-0.202,0.203S21.219,43.842,21.329,43.842z M20.524,43.842c0.111,0,0.2-0.092,0.2-0.204
		s-0.088-0.203-0.2-0.203c-0.113,0-0.204,0.091-0.204,0.203S20.412,43.842,20.524,43.842z M20.12,43.435
		c0.111,0,0.201-0.088,0.201-0.202c0-0.112-0.09-0.202-0.201-0.202c-0.111,0-0.202,0.09-0.202,0.202
		C19.918,43.347,20.009,43.435,20.12,43.435z M21.735,41.412c-0.113,0-0.203,0.089-0.203,0.198c0,0.113,0.089,0.206,0.203,0.206
		c0.11,0,0.201-0.093,0.201-0.206C21.936,41.501,21.845,41.412,21.735,41.412z M20.926,43.435c0.113,0,0.202-0.088,0.202-0.202
		c0-0.112-0.089-0.202-0.202-0.202c-0.11,0-0.202,0.09-0.202,0.202C20.724,43.347,20.815,43.435,20.926,43.435z M21.127,42.019
		c0,0.081,0.052,0.154,0.125,0.184c0.023,0.014,0.049,0.019,0.076,0.019c0.029,0,0.056-0.005,0.08-0.019
		c0.072-0.029,0.124-0.103,0.124-0.184l0,0c0-0.083-0.052-0.155-0.124-0.188c-0.023-0.008-0.05-0.015-0.08-0.015
		c-0.027,0-0.053,0.007-0.076,0.015C21.18,41.863,21.127,41.936,21.127,42.019L21.127,42.019z M20.12,42.623
		c0.111,0,0.201-0.09,0.201-0.202c0-0.108-0.09-0.2-0.201-0.2c-0.111,0-0.202,0.092-0.202,0.2
		C19.918,42.533,20.009,42.623,20.12,42.623z M19.312,41.412c-0.112,0-0.202,0.089-0.202,0.198c0,0.113,0.09,0.206,0.202,0.206
		s0.201-0.093,0.201-0.206C19.514,41.501,19.424,41.412,19.312,41.412z M19.794,41.831c-0.025-0.008-0.049-0.015-0.079-0.015
		c-0.028,0-0.052,0.007-0.077,0.015c-0.072,0.032-0.125,0.104-0.125,0.188l0,0c0,0.081,0.053,0.154,0.125,0.184
		c0.025,0.014,0.049,0.019,0.077,0.019c0.029,0,0.053-0.005,0.079-0.019c0.072-0.029,0.124-0.103,0.124-0.184l0,0
		C19.918,41.936,19.866,41.863,19.794,41.831z M18.988,41.831c-0.023-0.008-0.05-0.015-0.077-0.015c-0.029,0-0.056,0.007-0.08,0.015
		c-0.073,0.032-0.124,0.104-0.124,0.188l0,0c0,0.081,0.051,0.154,0.124,0.184c0.024,0.014,0.05,0.019,0.08,0.019
		c0.027,0,0.054-0.005,0.077-0.019c0.074-0.029,0.123-0.103,0.123-0.184l0,0C19.11,41.936,19.062,41.863,18.988,41.831z
		 M21.329,41.004c-0.11,0-0.202,0.092-0.202,0.202c0,0.113,0.092,0.206,0.202,0.206c0.113,0,0.203-0.093,0.203-0.206
		C21.532,41.096,21.442,41.004,21.329,41.004z M19.312,42.623c0.112,0,0.201-0.09,0.201-0.202c0-0.108-0.089-0.2-0.201-0.2
		s-0.202,0.092-0.202,0.2C19.11,42.533,19.201,42.623,19.312,42.623z M20.12,41.412c-0.111,0-0.202,0.089-0.202,0.198
		c0,0.113,0.091,0.206,0.202,0.206c0.111,0,0.201-0.093,0.201-0.206C20.321,41.501,20.231,41.412,20.12,41.412z M20.926,41.412
		c-0.11,0-0.202,0.089-0.202,0.198c0,0.113,0.091,0.206,0.202,0.206c0.113,0,0.202-0.093,0.202-0.206
		C21.127,41.501,21.039,41.412,20.926,41.412z M18.507,41.412c-0.112,0-0.202,0.089-0.202,0.198c0,0.113,0.09,0.206,0.202,0.206
		c0.11,0,0.2-0.093,0.2-0.206C18.707,41.501,18.618,41.412,18.507,41.412z M20.926,42.623c0.113,0,0.202-0.09,0.202-0.202
		c0-0.108-0.089-0.2-0.202-0.2c-0.11,0-0.202,0.092-0.202,0.2C20.724,42.533,20.815,42.623,20.926,42.623z M20.603,41.831
		c-0.025-0.008-0.052-0.015-0.079-0.015c-0.028,0-0.056,0.007-0.08,0.015c-0.073,0.032-0.124,0.104-0.124,0.188l0,0
		c0,0.081,0.051,0.154,0.124,0.184c0.023,0.014,0.052,0.019,0.08,0.019c0.027,0,0.054-0.005,0.079-0.019
		c0.073-0.029,0.121-0.103,0.121-0.184l0,0C20.724,41.936,20.676,41.863,20.603,41.831z M15.279,43.435
		c0.11,0,0.201-0.088,0.201-0.202c0-0.112-0.091-0.202-0.201-0.202c-0.113,0-0.203,0.09-0.203,0.202
		C15.077,43.347,15.166,43.435,15.279,43.435z M25.365,43.842c0.109,0,0.202-0.092,0.202-0.204s-0.092-0.203-0.202-0.203
		c-0.112,0-0.201,0.091-0.201,0.203S25.253,43.842,25.365,43.842z M24.962,43.03c-0.113,0-0.203,0.09-0.203,0.202
		c0,0.114,0.09,0.202,0.203,0.202c0.11,0,0.202-0.088,0.202-0.202C25.164,43.12,25.073,43.03,24.962,43.03z M25.768,44.241
		c0.113,0,0.205-0.086,0.205-0.197c0-0.114-0.092-0.202-0.205-0.202c-0.11,0-0.201,0.088-0.201,0.202
		C25.567,44.155,25.658,44.241,25.768,44.241z M26.174,43.842c0.109,0,0.201-0.092,0.201-0.204s-0.091-0.203-0.201-0.203
		c-0.113,0-0.201,0.091-0.201,0.203S26.061,43.842,26.174,43.842z M25.768,43.03c-0.11,0-0.201,0.09-0.201,0.202
		c0,0.114,0.091,0.202,0.201,0.202c0.113,0,0.205-0.088,0.205-0.202C25.973,43.12,25.881,43.03,25.768,43.03z M24.962,44.241
		c0.11,0,0.202-0.086,0.202-0.197c0-0.114-0.091-0.202-0.202-0.202c-0.113,0-0.203,0.088-0.203,0.202
		C24.76,44.155,24.85,44.241,24.962,44.241z M23.349,44.241c0.109,0,0.202-0.086,0.202-0.197c0-0.114-0.093-0.202-0.202-0.202
		c-0.113,0-0.202,0.088-0.202,0.202C23.147,44.155,23.235,44.241,23.349,44.241z M24.558,43.842c0.112,0,0.202-0.092,0.202-0.204
		s-0.09-0.203-0.202-0.203c-0.11,0-0.202,0.091-0.202,0.203S24.448,43.842,24.558,43.842z M23.751,43.435
		c-0.113,0-0.201,0.091-0.201,0.203s0.087,0.204,0.201,0.204c0.111,0,0.201-0.092,0.201-0.204S23.862,43.435,23.751,43.435z
		 M23.751,44.649c0.111,0,0.201-0.092,0.201-0.201c0-0.112-0.09-0.207-0.201-0.207c-0.113,0-0.201,0.095-0.201,0.207
		C23.55,44.558,23.638,44.649,23.751,44.649z M16.893,44.649c-0.112,0-0.203,0.088-0.203,0.205c0,0.11,0.091,0.199,0.203,0.199
		c0.11,0,0.201-0.089,0.201-0.199C17.094,44.737,17.003,44.649,16.893,44.649z M26.174,42.623c-0.113,0-0.201,0.093-0.201,0.207
		c0,0.107,0.088,0.2,0.201,0.2c0.109,0,0.201-0.093,0.201-0.2C26.375,42.716,26.283,42.623,26.174,42.623z M24.154,44.241
		c0.114,0,0.202-0.086,0.202-0.197c0-0.114-0.087-0.202-0.202-0.202c-0.113,0-0.202,0.088-0.202,0.202
		C23.952,44.155,24.041,44.241,24.154,44.241z M28.593,43.03c0.112,0,0.201-0.093,0.201-0.2c0-0.114-0.089-0.207-0.201-0.207
		c-0.113,0-0.202,0.093-0.202,0.207C28.391,42.938,28.479,43.03,28.593,43.03z M28.189,42.221c-0.112,0-0.204,0.092-0.204,0.2
		c0,0.112,0.091,0.202,0.204,0.202s0.202-0.09,0.202-0.202C28.391,42.312,28.301,42.221,28.189,42.221z M28.189,43.435
		c0.112,0,0.202-0.088,0.202-0.202c0-0.112-0.089-0.202-0.202-0.202s-0.204,0.09-0.204,0.202
		C27.985,43.347,28.077,43.435,28.189,43.435z M28.994,42.221c-0.109,0-0.2,0.092-0.2,0.2c0,0.112,0.091,0.202,0.2,0.202
		c0.114,0,0.205-0.09,0.205-0.202C29.199,42.312,29.108,42.221,28.994,42.221z M28.994,43.435c0.114,0,0.205-0.088,0.205-0.202
		c0-0.112-0.09-0.202-0.205-0.202c-0.109,0-0.2,0.09-0.2,0.202C28.794,43.347,28.885,43.435,28.994,43.435z M26.576,43.435
		c0.111,0,0.201-0.088,0.201-0.202c0-0.112-0.089-0.202-0.201-0.202c-0.109,0-0.201,0.09-0.201,0.202
		C26.375,43.347,26.466,43.435,26.576,43.435z M26.982,43.842c0.109,0,0.199-0.092,0.199-0.204s-0.089-0.203-0.199-0.203
		c-0.116,0-0.206,0.091-0.206,0.203S26.866,43.842,26.982,43.842z M26.982,42.623c-0.116,0-0.206,0.093-0.206,0.207
		c0,0.107,0.09,0.2,0.206,0.2c0.109,0,0.199-0.093,0.199-0.2C27.181,42.716,27.091,42.623,26.982,42.623z M27.786,42.623
		c-0.112,0-0.201,0.093-0.201,0.207c0,0.107,0.089,0.2,0.201,0.2c0.11,0,0.199-0.093,0.199-0.2
		C27.985,42.716,27.896,42.623,27.786,42.623z M27.381,43.435c0.111,0,0.204-0.088,0.204-0.202c0-0.112-0.093-0.202-0.204-0.202
		s-0.201,0.09-0.201,0.202C27.181,43.347,27.27,43.435,27.381,43.435z M27.786,43.842c0.11,0,0.199-0.092,0.199-0.204
		s-0.089-0.203-0.199-0.203c-0.112,0-0.201,0.091-0.201,0.203S27.674,43.842,27.786,43.842z M24.154,43.03
		c-0.113,0-0.202,0.09-0.202,0.202c0,0.114,0.088,0.202,0.202,0.202c0.114,0,0.202-0.088,0.202-0.202
		C24.355,43.12,24.268,43.03,24.154,43.03z M18.507,45.054c0.11,0,0.2-0.089,0.2-0.199c0-0.117-0.089-0.205-0.2-0.205
		c-0.112,0-0.202,0.088-0.202,0.205C18.305,44.965,18.395,45.054,18.507,45.054z M19.312,45.054c0.112,0,0.201-0.089,0.201-0.199
		c0-0.117-0.089-0.205-0.201-0.205s-0.202,0.088-0.202,0.205C19.11,44.965,19.201,45.054,19.312,45.054z M18.911,45.46
		c0.112,0,0.2-0.091,0.2-0.201l0,0c0-0.114-0.088-0.205-0.2-0.205c-0.113,0-0.204,0.091-0.204,0.205l0,0
		C18.707,45.369,18.798,45.46,18.911,45.46z M18.911,44.241c-0.113,0-0.204,0.095-0.204,0.207c0,0.109,0.091,0.201,0.204,0.201
		c0.112,0,0.2-0.092,0.2-0.201C19.11,44.336,19.022,44.241,18.911,44.241z M19.716,44.241c-0.111,0-0.202,0.095-0.202,0.207
		c0,0.109,0.091,0.201,0.202,0.201c0.114,0,0.202-0.092,0.202-0.201C19.918,44.336,19.83,44.241,19.716,44.241z M19.716,45.46
		c0.114,0,0.202-0.091,0.202-0.201l0,0c0-0.114-0.088-0.205-0.202-0.205c-0.111,0-0.202,0.091-0.202,0.205l0,0
		C19.514,45.369,19.605,45.46,19.716,45.46z M18.103,44.241c-0.113,0-0.203,0.095-0.203,0.207c0,0.109,0.09,0.201,0.203,0.201
		c0.111,0,0.202-0.092,0.202-0.201C18.305,44.336,18.214,44.241,18.103,44.241z M17.296,45.46c0.111,0,0.2-0.091,0.2-0.201l0,0
		c0-0.114-0.089-0.205-0.2-0.205c-0.112,0-0.202,0.091-0.203,0.205l0,0C17.095,45.369,17.185,45.46,17.296,45.46z M17.7,45.865
		c0.111,0,0.201-0.091,0.201-0.204c0-0.112-0.089-0.201-0.201-0.201c-0.112,0-0.203,0.089-0.203,0.201
		C17.497,45.774,17.588,45.865,17.7,45.865z M22.944,43.435c-0.111,0-0.201,0.091-0.201,0.203s0.09,0.204,0.201,0.204
		c0.111,0,0.203-0.092,0.203-0.204S23.056,43.435,22.944,43.435z M20.12,45.054c0.111,0,0.201-0.089,0.201-0.199
		c0-0.117-0.09-0.205-0.201-0.205c-0.111,0-0.202,0.088-0.202,0.205C19.918,44.965,20.009,45.054,20.12,45.054z M18.103,45.46
		c0.111,0,0.202-0.091,0.202-0.201l0,0c0-0.114-0.091-0.205-0.202-0.205c-0.113,0-0.203,0.091-0.203,0.205l0,0
		C17.9,45.369,17.99,45.46,18.103,45.46z M17.7,44.649c-0.112,0-0.203,0.088-0.203,0.205c0,0.11,0.091,0.199,0.203,0.199
		c0.111,0,0.201-0.089,0.201-0.199C17.9,44.737,17.811,44.649,17.7,44.649z M22.139,43.435c-0.113,0-0.203,0.091-0.203,0.203
		s0.09,0.204,0.203,0.204c0.11,0,0.2-0.092,0.2-0.204S22.249,43.435,22.139,43.435z M21.735,43.842
		c-0.113,0-0.203,0.088-0.203,0.202c0,0.111,0.089,0.197,0.203,0.197c0.11,0,0.201-0.086,0.201-0.197
		C21.936,43.93,21.845,43.842,21.735,43.842z M22.139,44.649c0.11,0,0.2-0.092,0.2-0.201c0-0.112-0.09-0.207-0.2-0.207
		c-0.113,0-0.203,0.095-0.203,0.207C21.936,44.558,22.026,44.649,22.139,44.649z M22.541,44.241c0.112,0,0.203-0.086,0.203-0.197
		c0-0.114-0.091-0.202-0.203-0.202c-0.113,0-0.202,0.088-0.202,0.202C22.339,44.155,22.428,44.241,22.541,44.241z M22.944,44.649
		c0.111,0,0.203-0.092,0.203-0.201c0-0.112-0.091-0.207-0.203-0.207c-0.111,0-0.201,0.095-0.201,0.207
		C22.744,44.558,22.833,44.649,22.944,44.649z M21.329,44.649c0.113,0,0.203-0.092,0.203-0.201c0-0.112-0.09-0.207-0.203-0.207
		c-0.11,0-0.202,0.095-0.202,0.207C21.127,44.558,21.219,44.649,21.329,44.649z M20.926,45.054c0.113,0,0.202-0.089,0.202-0.199
		c0-0.117-0.089-0.205-0.202-0.205c-0.11,0-0.202,0.088-0.202,0.205C20.724,44.965,20.815,45.054,20.926,45.054z M20.524,44.649
		c0.111,0,0.2-0.092,0.2-0.201c0-0.112-0.088-0.207-0.2-0.207c-0.113,0-0.204,0.095-0.204,0.207
		C20.321,44.558,20.412,44.649,20.524,44.649z M20.926,43.842c-0.11,0-0.202,0.088-0.202,0.202c0,0.111,0.091,0.197,0.202,0.197
		c0.113,0,0.202-0.086,0.202-0.197C21.127,43.93,21.039,43.842,20.926,43.842z M21.735,45.054c0.11,0,0.201-0.089,0.201-0.199
		c0-0.117-0.091-0.205-0.201-0.205c-0.113,0-0.203,0.088-0.203,0.205C21.532,44.965,21.622,45.054,21.735,45.054z M20.12,43.842
		c-0.111,0-0.202,0.088-0.202,0.202c0,0.111,0.091,0.197,0.202,0.197c0.111,0,0.201-0.086,0.201-0.197
		C20.321,43.93,20.231,43.842,20.12,43.842z M26.576,42.221c-0.109,0-0.201,0.092-0.201,0.2c0,0.112,0.092,0.202,0.201,0.202
		c0.111,0,0.201-0.09,0.201-0.202C26.776,42.312,26.687,42.221,26.576,42.221z M29.802,41.816c0.114,0,0.203-0.093,0.203-0.206
		c0-0.109-0.088-0.198-0.203-0.198c-0.109,0-0.2,0.089-0.2,0.198C29.602,41.724,29.693,41.816,29.802,41.816z M30.61,40.6
		c-0.112,0-0.203,0.089-0.203,0.204c0,0.111,0.091,0.2,0.203,0.2c0.113,0,0.202-0.089,0.202-0.2
		C30.812,40.688,30.723,40.6,30.61,40.6z M31.014,41.004c-0.113,0-0.201,0.092-0.201,0.202c0,0.113,0.088,0.206,0.201,0.206
		c0.11,0,0.199-0.093,0.199-0.206C31.213,41.096,31.124,41.004,31.014,41.004z M30.207,41.004c-0.111,0-0.202,0.092-0.202,0.202
		c0,0.113,0.091,0.206,0.202,0.206s0.2-0.093,0.2-0.206C30.407,41.096,30.318,41.004,30.207,41.004z M31.416,41.816
		c0.114,0,0.203-0.093,0.203-0.206c0-0.109-0.089-0.198-0.203-0.198c-0.11,0-0.203,0.089-0.203,0.198
		C31.213,41.724,31.305,41.816,31.416,41.816z M29.802,40.6c-0.109,0-0.2,0.089-0.2,0.204c0,0.111,0.091,0.2,0.2,0.2
		c0.114,0,0.203-0.089,0.203-0.2C30.005,40.688,29.917,40.6,29.802,40.6z M30.61,41.816c0.113,0,0.202-0.093,0.202-0.206
		c0-0.109-0.089-0.198-0.202-0.198c-0.112,0-0.203,0.089-0.203,0.198C30.407,41.724,30.499,41.816,30.61,41.816z M14.874,46.271
		c0.112,0,0.203-0.093,0.203-0.205c0-0.114-0.091-0.201-0.203-0.201c-0.11,0-0.201,0.087-0.201,0.201
		C14.673,46.179,14.764,46.271,14.874,46.271z M31.819,41.412c0.112,0,0.205-0.093,0.205-0.206c0-0.11-0.093-0.202-0.205-0.202
		s-0.2,0.092-0.2,0.202C31.619,41.319,31.707,41.412,31.819,41.412z M14.471,45.054c0.113,0,0.202-0.089,0.202-0.199
		c0-0.117-0.089-0.205-0.202-0.205c-0.111,0-0.202,0.088-0.202,0.205C14.269,44.965,14.36,45.054,14.471,45.054z M31.416,40.6
		c-0.11,0-0.203,0.089-0.203,0.204c0,0.111,0.092,0.2,0.203,0.2c0.114,0,0.203-0.089,0.203-0.2
		C31.619,40.688,31.529,40.6,31.416,40.6z M15.077,45.259c0-0.114-0.091-0.205-0.203-0.205c-0.11,0-0.201,0.091-0.201,0.205l0,0
		c0,0.11,0.091,0.201,0.201,0.201C14.986,45.46,15.077,45.369,15.077,45.259L15.077,45.259z M28.189,40.6
		c-0.112,0-0.204,0.089-0.204,0.204c0,0.111,0.091,0.2,0.204,0.2s0.202-0.089,0.202-0.2C28.391,40.688,28.301,40.6,28.189,40.6z
		 M27.786,41.004c-0.112,0-0.201,0.092-0.201,0.202c0,0.113,0.089,0.206,0.201,0.206c0.11,0,0.199-0.093,0.199-0.206
		C27.985,41.096,27.896,41.004,27.786,41.004z M28.189,41.816c0.112,0,0.202-0.093,0.202-0.206c0-0.109-0.089-0.198-0.202-0.198
		s-0.204,0.089-0.204,0.198C27.985,41.724,28.077,41.816,28.189,41.816z M27.863,41.831c-0.023-0.008-0.048-0.015-0.077-0.015
		c-0.028,0-0.054,0.007-0.079,0.015c-0.073,0.032-0.122,0.104-0.122,0.188l0,0c0,0.081,0.049,0.154,0.122,0.184
		c0.025,0.014,0.051,0.019,0.079,0.019c0.028,0,0.054-0.005,0.077-0.019c0.074-0.029,0.123-0.103,0.123-0.184l0,0
		C27.985,41.936,27.937,41.863,27.863,41.831z M27.381,40.6c-0.111,0-0.201,0.089-0.201,0.204c0,0.111,0.089,0.2,0.201,0.2
		s0.204-0.089,0.204-0.2C27.585,40.688,27.493,40.6,27.381,40.6z M14.471,45.865c0.113,0,0.202-0.091,0.202-0.204
		c0-0.112-0.089-0.201-0.202-0.201c-0.111,0-0.202,0.089-0.202,0.201C14.269,45.774,14.36,45.865,14.471,45.865z M29.477,41.831
		c-0.021-0.008-0.048-0.015-0.077-0.015c-0.027,0-0.055,0.007-0.079,0.015c-0.07,0.032-0.123,0.104-0.123,0.188l0,0
		c0,0.081,0.052,0.154,0.123,0.184c0.024,0.014,0.051,0.019,0.079,0.019c0.028,0,0.056-0.005,0.077-0.019
		c0.073-0.029,0.125-0.103,0.125-0.184l0,0C29.602,41.936,29.549,41.863,29.477,41.831z M28.675,41.831
		c-0.026-0.008-0.051-0.015-0.082-0.015c-0.024,0-0.056,0.007-0.076,0.015c-0.074,0.032-0.126,0.104-0.126,0.188l0,0
		c0,0.081,0.052,0.154,0.126,0.184c0.02,0.014,0.052,0.019,0.076,0.019c0.031,0,0.056-0.005,0.082-0.019
		c0.069-0.029,0.119-0.103,0.119-0.184l0,0C28.794,41.936,28.744,41.863,28.675,41.831z M29.4,41.004
		c-0.112,0-0.201,0.092-0.201,0.202c0,0.113,0.089,0.206,0.201,0.206c0.11,0,0.202-0.093,0.202-0.206
		C29.602,41.096,29.51,41.004,29.4,41.004z M28.994,40.6c-0.109,0-0.2,0.089-0.2,0.204c0,0.111,0.091,0.2,0.2,0.2
		c0.114,0,0.205-0.089,0.205-0.2C29.199,40.688,29.108,40.6,28.994,40.6z M28.994,41.816c0.114,0,0.205-0.093,0.205-0.206
		c0-0.109-0.09-0.198-0.205-0.198c-0.109,0-0.2,0.089-0.2,0.198C28.794,41.724,28.885,41.816,28.994,41.816z M28.593,41.004
		c-0.113,0-0.202,0.092-0.202,0.202c0,0.113,0.089,0.206,0.202,0.206c0.112,0,0.201-0.093,0.201-0.206
		C28.794,41.096,28.705,41.004,28.593,41.004z M37.066,41.412c-0.111,0-0.203,0.089-0.203,0.198c0,0.113,0.091,0.206,0.203,0.206
		c0.112,0,0.199-0.093,0.199-0.206C37.265,41.501,37.178,41.412,37.066,41.412z M36.259,40.196c0.078,0,0.141-0.045,0.174-0.105
		l-0.367-0.056C36.083,40.123,36.162,40.196,36.259,40.196z M36.259,41.004c0.111,0,0.201-0.089,0.201-0.2
		c0-0.115-0.09-0.204-0.201-0.204c-0.112,0-0.203,0.089-0.203,0.204C36.056,40.915,36.147,41.004,36.259,41.004z M38.086,40.34
		c-0.006,0.016-0.012,0.038-0.012,0.061c0,0.109,0.088,0.199,0.201,0.199c0.11,0,0.206-0.09,0.206-0.197l-0.01-0.002L38.086,40.34z
		 M25.565,39.606l-0.386,0.063c0.035,0.072,0.103,0.119,0.187,0.119C25.472,39.789,25.555,39.708,25.565,39.606z M39.084,40.6
		c0.062,0,0.124-0.035,0.157-0.085l-0.157-0.023l-0.188-0.027C38.923,40.542,38.996,40.6,39.084,40.6z M19.716,43.842
		c0.114,0,0.202-0.092,0.202-0.204s-0.088-0.203-0.202-0.203c-0.111,0-0.202,0.091-0.202,0.203S19.605,43.842,19.716,43.842z
		 M39.084,41.412c0.108,0,0.201-0.093,0.201-0.206c0-0.11-0.093-0.202-0.201-0.202c-0.113,0-0.203,0.092-0.203,0.202
		C38.881,41.319,38.971,41.412,39.084,41.412z M25.365,40.6c0.109,0,0.202-0.09,0.202-0.199c0-0.114-0.092-0.204-0.202-0.204
		c-0.112,0-0.201,0.09-0.201,0.204C25.164,40.51,25.253,40.6,25.365,40.6z M22.339,40.804c0,0.111,0.089,0.2,0.202,0.2
		c0.112,0,0.203-0.089,0.203-0.2c0-0.115-0.091-0.204-0.203-0.204C22.428,40.6,22.339,40.688,22.339,40.804z M22.714,40.094
		l-0.305,0.052c0.035,0.029,0.08,0.051,0.131,0.051C22.616,40.196,22.68,40.151,22.714,40.094z M24.662,39.76l-0.104,0.018
		l-0.041,0.007c0.016,0.003,0.024,0.005,0.041,0.005C24.597,39.789,24.63,39.777,24.662,39.76z M24.355,40.4
		c0,0.109,0.092,0.199,0.202,0.199c0.112,0,0.202-0.09,0.202-0.199c0-0.114-0.09-0.204-0.202-0.204
		C24.448,40.196,24.355,40.286,24.355,40.4z M38.276,41.412c0.11,0,0.206-0.093,0.206-0.206c0-0.11-0.095-0.202-0.206-0.202
		c-0.113,0-0.201,0.092-0.201,0.202C38.075,41.319,38.163,41.412,38.276,41.412z M35.854,41.412c0.112,0,0.201-0.093,0.201-0.206
		c0-0.11-0.089-0.202-0.201-0.202c-0.109,0-0.202,0.092-0.202,0.202C35.652,41.319,35.746,41.412,35.854,41.412z M27.381,41.816
		c0.111,0,0.204-0.093,0.204-0.206c0-0.109-0.093-0.198-0.204-0.198s-0.201,0.089-0.201,0.198
		C27.181,41.724,27.27,41.816,27.381,41.816z M36.662,40.196c-0.111,0-0.202,0.09-0.202,0.204c0,0.109,0.091,0.199,0.202,0.199
		c0.109,0,0.201-0.09,0.201-0.199C36.863,40.286,36.771,40.196,36.662,40.196z M35.854,40.196c-0.109,0-0.202,0.09-0.202,0.204
		c0,0.109,0.093,0.199,0.202,0.199c0.112,0,0.201-0.09,0.201-0.199C36.056,40.286,35.966,40.196,35.854,40.196z M36.259,41.412
		c-0.112,0-0.203,0.089-0.203,0.198c0,0.113,0.091,0.206,0.203,0.206c0.111,0,0.201-0.093,0.201-0.206
		C36.46,41.501,36.37,41.412,36.259,41.412z M36.662,41.412c0.109,0,0.201-0.093,0.201-0.206c0-0.11-0.092-0.202-0.201-0.202
		c-0.111,0-0.202,0.092-0.202,0.202C36.46,41.319,36.551,41.412,36.662,41.412z M37.873,40.6c-0.112,0-0.2,0.089-0.2,0.204
		c0,0.111,0.088,0.2,0.2,0.2c0.113,0,0.202-0.089,0.202-0.2C38.075,40.688,37.985,40.6,37.873,40.6z M37.873,41.412
		c-0.112,0-0.2,0.089-0.2,0.198c0,0.113,0.088,0.206,0.2,0.206c0.113,0,0.202-0.093,0.202-0.206
		C38.075,41.501,37.985,41.412,37.873,41.412z M37.47,41.412c0.111,0,0.202-0.093,0.202-0.206c0-0.11-0.091-0.202-0.202-0.202
		c-0.112,0-0.205,0.092-0.205,0.202C37.265,41.319,37.358,41.412,37.47,41.412z M37.066,40.6c-0.111,0-0.203,0.089-0.203,0.204
		c0,0.111,0.091,0.2,0.203,0.2c0.112,0,0.199-0.089,0.199-0.2C37.265,40.688,37.178,40.6,37.066,40.6z M37.47,40.246l-0.109-0.015
		c-0.056,0.034-0.096,0.096-0.096,0.169c0,0.109,0.093,0.199,0.205,0.199c0.111,0,0.202-0.09,0.202-0.199
		c0-0.051-0.019-0.097-0.052-0.128L37.47,40.246z M38.678,40.6c-0.109,0-0.196,0.089-0.196,0.204c0,0.111,0.087,0.2,0.196,0.2
		c0.114,0,0.204-0.089,0.204-0.2C38.881,40.688,38.792,40.6,38.678,40.6z M15.682,43.435c-0.112,0-0.202,0.091-0.202,0.203
		s0.089,0.204,0.202,0.204c0.111,0,0.202-0.092,0.202-0.204S15.792,43.435,15.682,43.435z M15.682,44.241
		c-0.112,0-0.202,0.095-0.202,0.207c0,0.109,0.089,0.201,0.202,0.201c0.111,0,0.202-0.092,0.202-0.201
		C15.883,44.336,15.792,44.241,15.682,44.241z M16.49,44.649c0.11,0,0.2-0.092,0.2-0.201c0-0.112-0.09-0.207-0.2-0.207
		c-0.112,0-0.203,0.095-0.203,0.207C16.287,44.558,16.378,44.649,16.49,44.649z M16.085,44.241c0.112,0,0.202-0.086,0.202-0.197
		c0-0.114-0.089-0.202-0.202-0.202c-0.111,0-0.202,0.088-0.202,0.202C15.883,44.155,15.974,44.241,16.085,44.241z M16.49,43.435
		c-0.112,0-0.203,0.091-0.203,0.203s0.091,0.204,0.203,0.204c0.11,0,0.2-0.092,0.2-0.204S16.6,43.435,16.49,43.435z M16.893,43.435
		c0.11,0,0.201-0.088,0.201-0.202c0-0.112-0.091-0.202-0.201-0.202c-0.112,0-0.203,0.09-0.203,0.202
		C16.69,43.347,16.781,43.435,16.893,43.435z M16.893,44.241c0.11,0,0.201-0.086,0.201-0.197c0-0.114-0.091-0.202-0.201-0.202
		c-0.112,0-0.203,0.088-0.203,0.202C16.69,44.155,16.781,44.241,16.893,44.241z M23.349,43.435c0.109,0,0.202-0.088,0.202-0.202
		c0-0.112-0.093-0.202-0.202-0.202c-0.113,0-0.202,0.09-0.202,0.202C23.147,43.347,23.235,43.435,23.349,43.435z M22.944,42.623
		c-0.111,0-0.201,0.093-0.201,0.207c0,0.107,0.09,0.2,0.201,0.2c0.111,0,0.203-0.093,0.203-0.2
		C23.147,42.716,23.056,42.623,22.944,42.623z M23.022,41.831c-0.024-0.008-0.05-0.015-0.078-0.015
		c-0.029,0-0.054,0.007-0.077,0.015c-0.073,0.032-0.124,0.104-0.124,0.188l0,0c0,0.081,0.05,0.154,0.124,0.184
		c0.023,0.014,0.048,0.019,0.077,0.019c0.028,0,0.054-0.005,0.078-0.019c0.071-0.029,0.125-0.103,0.125-0.184l0,0
		C23.147,41.936,23.093,41.863,23.022,41.831z M22.541,41.412c-0.113,0-0.202,0.089-0.202,0.198c0,0.113,0.089,0.206,0.202,0.206
		c0.112,0,0.203-0.093,0.203-0.206C22.744,41.501,22.652,41.412,22.541,41.412z M22.541,42.623c0.112,0,0.203-0.09,0.203-0.202
		c0-0.108-0.091-0.2-0.203-0.2c-0.113,0-0.202,0.092-0.202,0.2C22.339,42.533,22.428,42.623,22.541,42.623z M18.103,43.842
		c0.111,0,0.202-0.092,0.202-0.204s-0.091-0.203-0.202-0.203c-0.113,0-0.203,0.091-0.203,0.203S17.99,43.842,18.103,43.842z
		 M18.911,43.03c0.112,0,0.2-0.093,0.2-0.2c0-0.114-0.088-0.207-0.2-0.207c-0.113,0-0.204,0.093-0.204,0.207
		C18.707,42.938,18.798,43.03,18.911,43.03z M17.296,44.649c0.111,0,0.2-0.092,0.2-0.201c0-0.112-0.089-0.207-0.2-0.207
		c-0.112,0-0.203,0.095-0.203,0.207C17.094,44.558,17.185,44.649,17.296,44.649z M19.312,44.241c0.112,0,0.201-0.086,0.201-0.197
		c0-0.114-0.089-0.202-0.201-0.202s-0.202,0.088-0.202,0.202C19.11,44.155,19.201,44.241,19.312,44.241z M18.507,43.03
		c-0.112,0-0.202,0.09-0.202,0.202c0,0.114,0.09,0.202,0.202,0.202c0.11,0,0.2-0.088,0.2-0.202
		C18.707,43.12,18.618,43.03,18.507,43.03z M19.312,43.03c-0.112,0-0.202,0.09-0.202,0.202c0,0.114,0.09,0.202,0.202,0.202
		s0.201-0.088,0.201-0.202C19.514,43.12,19.424,43.03,19.312,43.03z M18.911,43.842c0.112,0,0.2-0.092,0.2-0.204
		s-0.088-0.203-0.2-0.203c-0.113,0-0.204,0.091-0.204,0.203S18.798,43.842,18.911,43.842z M17.296,43.435
		c-0.112,0-0.203,0.091-0.203,0.203s0.091,0.204,0.203,0.204c0.111,0,0.2-0.092,0.2-0.204S17.407,43.435,17.296,43.435z
		 M27.381,42.623c0.111,0,0.204-0.09,0.204-0.202c0-0.108-0.093-0.2-0.204-0.2s-0.201,0.092-0.201,0.2
		C27.181,42.533,27.27,42.623,27.381,42.623z M17.7,44.241c0.111,0,0.201-0.086,0.201-0.197c0-0.114-0.089-0.202-0.201-0.202
		c-0.112,0-0.203,0.088-0.203,0.202C17.497,44.155,17.588,44.241,17.7,44.241z M23.349,42.623c0.109,0,0.202-0.09,0.202-0.202
		c0-0.108-0.093-0.2-0.202-0.2c-0.113,0-0.202,0.092-0.202,0.2C23.147,42.533,23.235,42.623,23.349,42.623z M17.7,43.03
		c-0.112,0-0.203,0.09-0.203,0.202c0,0.114,0.091,0.202,0.203,0.202c0.111,0,0.201-0.088,0.201-0.202
		C17.9,43.12,17.811,43.03,17.7,43.03z M18.507,44.241c0.11,0,0.2-0.086,0.2-0.197c0-0.114-0.089-0.202-0.2-0.202
		c-0.112,0-0.202,0.088-0.202,0.202C18.305,44.155,18.395,44.241,18.507,44.241z M23.349,41.412c-0.113,0-0.202,0.089-0.202,0.198
		c0,0.113,0.088,0.206,0.202,0.206c0.109,0,0.202-0.093,0.202-0.206C23.55,41.501,23.458,41.412,23.349,41.412z M25.768,41.412
		c-0.11,0-0.201,0.089-0.201,0.198c0,0.113,0.091,0.206,0.201,0.206c0.113,0,0.205-0.093,0.205-0.206
		C25.973,41.501,25.881,41.412,25.768,41.412z M25.365,41.004c-0.112,0-0.201,0.092-0.201,0.202c0,0.113,0.089,0.206,0.201,0.206
		c0.109,0,0.202-0.093,0.202-0.206C25.567,41.096,25.475,41.004,25.365,41.004z M25.768,42.221c-0.11,0-0.201,0.092-0.201,0.2
		c0,0.112,0.091,0.202,0.201,0.202c0.113,0,0.205-0.09,0.205-0.202C25.973,42.312,25.881,42.221,25.768,42.221z M26.174,41.004
		c-0.113,0-0.201,0.092-0.201,0.202c0,0.113,0.088,0.206,0.201,0.206c0.109,0,0.201-0.093,0.201-0.206
		C26.375,41.096,26.283,41.004,26.174,41.004z M26.576,40.6c-0.109,0-0.201,0.089-0.201,0.204c0,0.111,0.092,0.2,0.201,0.2
		c0.111,0,0.201-0.089,0.201-0.2C26.776,40.688,26.687,40.6,26.576,40.6z M29.4,43.03c0.11,0,0.202-0.093,0.202-0.2
		c0-0.114-0.092-0.207-0.202-0.207c-0.112,0-0.201,0.093-0.201,0.207C29.199,42.938,29.288,43.03,29.4,43.03z M26.982,41.004
		c-0.116,0-0.206,0.092-0.206,0.202c0,0.113,0.09,0.206,0.206,0.206c0.109,0,0.199-0.093,0.199-0.206
		C27.181,41.096,27.091,41.004,26.982,41.004z M27.058,41.831c-0.023-0.008-0.051-0.015-0.076-0.015
		c-0.031,0-0.058,0.007-0.083,0.015c-0.07,0.032-0.123,0.104-0.123,0.188l0,0c0,0.081,0.052,0.154,0.123,0.184
		c0.025,0.014,0.052,0.019,0.083,0.019c0.024,0,0.052-0.005,0.076-0.019c0.074-0.029,0.123-0.103,0.123-0.184l0,0
		C27.181,41.936,27.131,41.863,27.058,41.831z M26.576,41.816c0.111,0,0.201-0.093,0.201-0.206c0-0.109-0.089-0.198-0.201-0.198
		c-0.109,0-0.201,0.089-0.201,0.198C26.375,41.724,26.466,41.816,26.576,41.816z M25.164,42.019c0,0.081,0.049,0.154,0.121,0.184
		c0.024,0.014,0.052,0.019,0.08,0.019s0.056-0.005,0.079-0.019c0.071-0.029,0.123-0.103,0.123-0.184l0,0
		c0-0.083-0.052-0.155-0.123-0.188c-0.023-0.008-0.05-0.015-0.079-0.015s-0.056,0.007-0.08,0.015
		C25.213,41.863,25.164,41.936,25.164,42.019L25.164,42.019z M25.973,42.019c0,0.081,0.048,0.154,0.121,0.184
		c0.021,0.014,0.049,0.019,0.08,0.019c0.028,0,0.053-0.005,0.076-0.019c0.073-0.029,0.125-0.103,0.125-0.184l0,0
		c0-0.083-0.052-0.155-0.125-0.188c-0.023-0.008-0.048-0.015-0.076-0.015c-0.031,0-0.059,0.007-0.08,0.015
		C26.021,41.863,25.973,41.936,25.973,42.019L25.973,42.019z M24.154,42.221c-0.113,0-0.202,0.092-0.202,0.2
		c0,0.112,0.088,0.202,0.202,0.202c0.114,0,0.202-0.09,0.202-0.202C24.355,42.312,24.268,42.221,24.154,42.221z M25.365,43.03
		c0.109,0,0.202-0.093,0.202-0.2c0-0.114-0.092-0.207-0.202-0.207c-0.112,0-0.201,0.093-0.201,0.207
		C25.164,42.938,25.253,43.03,25.365,43.03z M24.154,41.412c-0.113,0-0.202,0.089-0.202,0.198c0,0.113,0.088,0.206,0.202,0.206
		c0.114,0,0.202-0.093,0.202-0.206C24.355,41.501,24.268,41.412,24.154,41.412z M23.55,42.019c0,0.081,0.048,0.154,0.125,0.184
		c0.022,0.014,0.047,0.019,0.075,0.019c0.027,0,0.055-0.005,0.078-0.019c0.071-0.029,0.123-0.103,0.123-0.184l0,0
		c0-0.083-0.052-0.155-0.123-0.188c-0.023-0.008-0.051-0.015-0.078-0.015c-0.028,0-0.053,0.007-0.075,0.015
		C23.599,41.863,23.55,41.936,23.55,42.019L23.55,42.019z M23.55,42.83c0,0.107,0.087,0.2,0.201,0.2c0.111,0,0.201-0.093,0.201-0.2
		c0-0.114-0.09-0.207-0.201-0.207C23.638,42.623,23.55,42.716,23.55,42.83z M23.751,41.004c-0.113,0-0.201,0.092-0.201,0.202
		c0,0.113,0.087,0.206,0.201,0.206c0.111,0,0.201-0.093,0.201-0.206C23.952,41.096,23.862,41.004,23.751,41.004z M24.962,42.221
		c-0.113,0-0.203,0.092-0.203,0.2c0,0.112,0.09,0.202,0.203,0.202c0.11,0,0.202-0.09,0.202-0.202
		C25.164,42.312,25.073,42.221,24.962,42.221z M24.962,41.412c-0.113,0-0.203,0.089-0.203,0.198c0,0.113,0.09,0.206,0.203,0.206
		c0.11,0,0.202-0.093,0.202-0.206C25.164,41.501,25.073,41.412,24.962,41.412z M24.558,43.03c0.112,0,0.202-0.093,0.202-0.2
		c0-0.114-0.09-0.207-0.202-0.207c-0.11,0-0.202,0.093-0.202,0.207C24.355,42.938,24.448,43.03,24.558,43.03z M24.558,41.004
		c-0.11,0-0.202,0.092-0.202,0.202c0,0.113,0.092,0.206,0.202,0.206c0.112,0,0.202-0.093,0.202-0.206
		C24.76,41.096,24.669,41.004,24.558,41.004z M24.355,42.019c0,0.081,0.052,0.154,0.122,0.184c0.027,0.014,0.052,0.019,0.08,0.019
		c0.03,0,0.055-0.005,0.078-0.019c0.074-0.029,0.124-0.103,0.124-0.184l0,0c0-0.083-0.05-0.155-0.124-0.188
		c-0.023-0.008-0.048-0.015-0.078-0.015c-0.028,0-0.053,0.007-0.08,0.015C24.408,41.863,24.355,41.936,24.355,42.019L24.355,42.019z
		 M15.279,42.221c-0.113,0-0.203,0.092-0.203,0.2c0,0.112,0.089,0.202,0.203,0.202c0.11,0,0.201-0.09,0.201-0.202
		C15.48,42.312,15.389,42.221,15.279,42.221z M22.349,45.612l0.35-0.071c-0.036-0.047-0.092-0.081-0.158-0.081
		C22.446,45.46,22.372,45.523,22.349,45.612z M21.735,45.46c-0.113,0-0.203,0.089-0.203,0.201c0,0.041,0.016,0.078,0.037,0.109
		l0.359-0.074c0.001-0.011,0.008-0.022,0.008-0.035C21.936,45.549,21.845,45.46,21.735,45.46z M22.139,45.054
		c-0.113,0-0.203,0.091-0.203,0.205l0,0c0,0.11,0.09,0.201,0.203,0.201c0.11,0,0.2-0.091,0.2-0.201l0,0
		C22.339,45.145,22.249,45.054,22.139,45.054z M23.751,45.054c-0.113,0-0.201,0.091-0.201,0.205l0,0
		c0,0.035,0.014,0.072,0.034,0.104l0.362-0.075c0-0.007,0.006-0.02,0.006-0.028l0,0C23.952,45.145,23.862,45.054,23.751,45.054z
		 M22.944,45.054c-0.111,0-0.201,0.091-0.201,0.205l0,0c0,0.11,0.09,0.201,0.201,0.201c0.111,0,0.203-0.091,0.203-0.201l0,0
		C23.147,45.145,23.056,45.054,22.944,45.054z M23.349,44.649c-0.113,0-0.202,0.088-0.202,0.205c0,0.11,0.088,0.199,0.202,0.199
		c0.109,0,0.202-0.089,0.202-0.199C23.55,44.737,23.458,44.649,23.349,44.649z M22.541,45.054c0.112,0,0.203-0.089,0.203-0.199
		c0-0.117-0.091-0.205-0.203-0.205c-0.113,0-0.202,0.088-0.202,0.205C22.339,44.965,22.428,45.054,22.541,45.054z M20.524,45.46
		c0.111,0,0.2-0.091,0.2-0.201l0,0c0-0.114-0.088-0.205-0.2-0.205s-0.202,0.091-0.204,0.205l0,0
		C20.322,45.369,20.413,45.46,20.524,45.46z M19.716,45.865c-0.111,0-0.202,0.087-0.202,0.201c0,0.042,0.017,0.078,0.039,0.112
		l0.163-0.034l0.194-0.039c0.003-0.011,0.008-0.026,0.008-0.039C19.918,45.952,19.83,45.865,19.716,45.865z M20.926,45.46
		c-0.11,0-0.202,0.089-0.202,0.201c0,0.113,0.091,0.204,0.202,0.204c0.113,0,0.202-0.091,0.202-0.204
		C21.127,45.549,21.039,45.46,20.926,45.46z M20.331,46.021l0.353-0.07c-0.037-0.051-0.092-0.085-0.159-0.085
		C20.428,45.865,20.352,45.934,20.331,46.021z M21.532,45.259c0-0.114-0.09-0.205-0.203-0.205c-0.11,0-0.202,0.091-0.202,0.205l0,0
		c0,0.11,0.092,0.201,0.202,0.201C21.442,45.46,21.532,45.369,21.532,45.259L21.532,45.259z M20.12,45.46
		c-0.111,0-0.202,0.089-0.202,0.201c0,0.113,0.091,0.204,0.202,0.204c0.111,0,0.201-0.091,0.201-0.204
		C20.321,45.549,20.231,45.46,20.12,45.46z M26.384,44.793l0.344-0.067c-0.035-0.046-0.09-0.076-0.152-0.076
		C26.484,44.649,26.408,44.711,26.384,44.793z M24.154,44.649c-0.113,0-0.202,0.088-0.202,0.205c0,0.11,0.088,0.199,0.202,0.199
		c0.114,0,0.202-0.089,0.202-0.199C24.355,44.737,24.268,44.649,24.154,44.649z M26.576,44.241c0.111,0,0.201-0.086,0.201-0.197
		c0-0.114-0.089-0.202-0.201-0.202c-0.109,0-0.201,0.088-0.201,0.202C26.375,44.155,26.466,44.241,26.576,44.241z M27.381,43.842
		c-0.111,0-0.201,0.088-0.201,0.202c0,0.111,0.089,0.197,0.201,0.197s0.204-0.086,0.204-0.197
		C27.585,43.93,27.493,43.842,27.381,43.842z M26.982,44.241c-0.116,0-0.206,0.095-0.206,0.207c0,0.109,0.09,0.201,0.206,0.201
		c0.109,0,0.199-0.092,0.199-0.201C27.181,44.336,27.091,44.241,26.982,44.241z M26.174,44.241c-0.113,0-0.201,0.095-0.201,0.207
		c0,0.109,0.088,0.201,0.201,0.201c0.109,0,0.201-0.092,0.201-0.201C26.375,44.336,26.283,44.241,26.174,44.241z M24.558,44.649
		c0.112,0,0.202-0.092,0.202-0.201c0-0.112-0.09-0.207-0.202-0.207c-0.11,0-0.202,0.095-0.202,0.207
		C24.355,44.558,24.448,44.649,24.558,44.649z M25.768,44.649c-0.11,0-0.201,0.088-0.201,0.205c0,0.037,0.013,0.067,0.031,0.098
		l0.369-0.074c0-0.008,0.006-0.015,0.006-0.023C25.973,44.737,25.881,44.649,25.768,44.649z M24.368,45.202l0.189-0.04l0.156-0.029
		c-0.038-0.046-0.089-0.079-0.156-0.079C24.466,45.054,24.393,45.117,24.368,45.202z M24.962,44.649
		c-0.113,0-0.203,0.088-0.203,0.205c0,0.11,0.09,0.199,0.203,0.199c0.11,0,0.202-0.089,0.202-0.199
		C25.164,44.737,25.073,44.649,24.962,44.649z M25.365,44.241c-0.112,0-0.201,0.095-0.201,0.207c0,0.109,0.089,0.201,0.201,0.201
		c0.109,0,0.202-0.092,0.202-0.201C25.567,44.336,25.475,44.241,25.365,44.241z M16.49,46.271c0.11,0,0.2-0.093,0.2-0.205
		c0-0.114-0.09-0.201-0.2-0.201c-0.112,0-0.203,0.087-0.203,0.201C16.287,46.179,16.378,46.271,16.49,46.271z M14.471,46.671
		c0.113,0,0.202-0.088,0.202-0.202c0-0.108-0.089-0.197-0.202-0.197c-0.111,0-0.202,0.089-0.202,0.197
		C14.269,46.583,14.36,46.671,14.471,46.671z M14.068,46.671c-0.111,0-0.202,0.094-0.202,0.207c0,0.109,0.091,0.2,0.202,0.2
		c0.111,0,0.201-0.091,0.201-0.2C14.269,46.765,14.179,46.671,14.068,46.671z M13.371,46.708l-0.115,0.37c0.002,0,0.002,0,0.004,0
		c0.112,0,0.203-0.091,0.203-0.2C13.463,46.804,13.423,46.745,13.371,46.708z M13.665,47.078c-0.112,0-0.202,0.09-0.202,0.203
		c0,0.048,0.019,0.089,0.044,0.119l0.349-0.067c0.004-0.019,0.01-0.033,0.01-0.052C13.866,47.168,13.776,47.078,13.665,47.078z
		 M14.471,47.078c-0.1,0-0.178,0.072-0.195,0.17l0.362-0.074C14.603,47.115,14.543,47.078,14.471,47.078z M19.312,45.46
		c-0.112,0-0.202,0.089-0.202,0.201c0,0.113,0.09,0.204,0.202,0.204s0.201-0.091,0.201-0.204
		C19.514,45.549,19.424,45.46,19.312,45.46z M15.279,46.271c-0.113,0-0.203,0.089-0.203,0.197c0,0.114,0.089,0.202,0.203,0.202
		c0.11,0,0.201-0.088,0.201-0.202C15.48,46.36,15.389,46.271,15.279,46.271z M14.068,45.46c0.111,0,0.201-0.091,0.201-0.201l0,0
		c0-0.114-0.09-0.205-0.201-0.205c-0.111,0-0.202,0.091-0.202,0.205l0,0C13.866,45.369,13.957,45.46,14.068,45.46z M14.269,44.448
		c0-0.09-0.059-0.166-0.141-0.194l-0.119,0.385c0.02,0.005,0.037,0.011,0.058,0.011C14.179,44.649,14.269,44.558,14.269,44.448z
		 M13.866,45.661c0-0.081-0.048-0.149-0.115-0.183l-0.117,0.38c0.011,0,0.021,0.007,0.031,0.007
		C13.776,45.865,13.866,45.774,13.866,45.661z M14.068,45.865c-0.111,0-0.202,0.087-0.202,0.201c0,0.112,0.091,0.205,0.202,0.205
		c0.111,0,0.201-0.093,0.201-0.205C14.269,45.952,14.179,45.865,14.068,45.865z M13.665,46.671c0.111,0,0.201-0.088,0.201-0.202
		c0-0.108-0.09-0.197-0.201-0.197c-0.112,0-0.202,0.089-0.202,0.197C13.463,46.583,13.552,46.671,13.665,46.671z M14.874,46.671
		c-0.11,0-0.201,0.094-0.201,0.207c0,0.109,0.09,0.2,0.201,0.2c0.112,0,0.203-0.091,0.203-0.2
		C15.077,46.765,14.986,46.671,14.874,46.671z M18.507,45.865c0.11,0,0.2-0.091,0.2-0.204c0-0.112-0.089-0.201-0.2-0.201
		c-0.112,0-0.202,0.089-0.202,0.201C18.305,45.774,18.395,45.865,18.507,45.865z M15.682,46.671c-0.112,0-0.202,0.094-0.202,0.207
		c0,0.041,0.016,0.085,0.043,0.113l0.351-0.068c0.003-0.012,0.009-0.029,0.009-0.045C15.883,46.765,15.792,46.671,15.682,46.671z
		 M18.312,46.43l0.356-0.069c-0.035-0.053-0.094-0.089-0.161-0.089C18.41,46.271,18.332,46.336,18.312,46.43z M18.911,45.865
		c-0.113,0-0.204,0.087-0.204,0.201c0,0.112,0.091,0.205,0.204,0.205c0.112,0,0.2-0.093,0.2-0.205
		C19.11,45.952,19.022,45.865,18.911,45.865z M17.7,46.271c-0.112,0-0.203,0.089-0.203,0.197c0,0.046,0.018,0.087,0.041,0.117
		l0.356-0.071c0.002-0.016,0.007-0.027,0.007-0.046C17.9,46.36,17.811,46.271,17.7,46.271z M18.103,45.865
		c-0.113,0-0.203,0.087-0.203,0.201c0,0.112,0.09,0.205,0.203,0.205c0.111,0,0.202-0.093,0.202-0.205
		C18.305,45.952,18.214,45.865,18.103,45.865z M17.296,45.865c-0.112,0-0.203,0.087-0.203,0.201c0,0.112,0.091,0.205,0.203,0.205
		c0.111,0,0.2-0.093,0.2-0.205C17.497,45.952,17.407,45.865,17.296,45.865z M16.085,46.271c-0.111,0-0.202,0.089-0.202,0.197
		c0,0.114,0.091,0.202,0.202,0.202c0.112,0,0.202-0.088,0.202-0.202C16.287,46.36,16.198,46.271,16.085,46.271z M27.786,44.241
		c-0.112,0-0.201,0.095-0.201,0.207c0,0.036,0.013,0.066,0.027,0.097l0.173-0.033l0.196-0.042c0.003-0.007,0.003-0.013,0.003-0.021
		C27.985,44.336,27.896,44.241,27.786,44.241z M16.293,46.84l0.197-0.041l0.163-0.034c-0.037-0.051-0.095-0.094-0.163-0.094
		C16.391,46.671,16.313,46.745,16.293,46.84z M16.893,46.271c-0.112,0-0.203,0.089-0.203,0.197c0,0.114,0.091,0.202,0.203,0.202
		c0.11,0,0.201-0.088,0.201-0.202C17.094,46.36,17.003,46.271,16.893,46.271z M33.436,42.623c-0.113,0-0.202,0.093-0.202,0.207
		c0,0.107,0.089,0.2,0.202,0.2c0.11,0,0.202-0.093,0.202-0.2C33.638,42.716,33.545,42.623,33.436,42.623z M39.162,41.831
		c-0.025-0.008-0.049-0.015-0.077-0.015c-0.031,0-0.056,0.007-0.081,0.015c-0.071,0.032-0.122,0.104-0.122,0.188l0,0
		c0,0.081,0.051,0.154,0.122,0.184c0.025,0.014,0.05,0.019,0.081,0.019c0.028,0,0.052-0.005,0.077-0.019
		c0.075-0.029,0.124-0.103,0.124-0.184l0,0C39.286,41.936,39.237,41.863,39.162,41.831z M38.678,41.412
		c-0.109,0-0.196,0.089-0.196,0.198c0,0.113,0.087,0.206,0.196,0.206c0.114,0,0.204-0.093,0.204-0.206
		C38.881,41.501,38.792,41.412,38.678,41.412z M38.494,42.34l0.321-0.065c-0.035-0.034-0.083-0.054-0.137-0.054
		C38.597,42.221,38.526,42.269,38.494,42.34z M39.487,41.412c-0.114,0-0.201,0.089-0.201,0.198c0,0.113,0.087,0.206,0.201,0.206
		c0.11,0,0.2-0.093,0.2-0.206C39.687,41.501,39.597,41.412,39.487,41.412z M36.259,42.221c-0.112,0-0.203,0.092-0.203,0.2
		c0,0.112,0.091,0.202,0.203,0.202c0.111,0,0.201-0.09,0.201-0.202C36.46,42.312,36.37,42.221,36.259,42.221z M39.487,40.6
		c-0.114,0-0.201,0.089-0.201,0.204c0,0.111,0.087,0.2,0.201,0.2c0.11,0,0.2-0.089,0.2-0.2C39.687,40.688,39.597,40.6,39.487,40.6z
		 M36.583,42.202c0.024,0.014,0.052,0.019,0.08,0.019c0.031,0,0.056-0.005,0.079-0.019c0.071-0.029,0.123-0.103,0.123-0.184l0,0
		c0-0.083-0.052-0.155-0.123-0.188c-0.022-0.008-0.048-0.015-0.079-0.015c-0.027,0-0.056,0.007-0.08,0.015
		c-0.071,0.032-0.123,0.104-0.123,0.188l0,0C36.46,42.1,36.511,42.173,36.583,42.202z M39.893,41.412
		c0.106,0,0.198-0.093,0.198-0.206c0-0.11-0.092-0.202-0.198-0.202c-0.117,0-0.206,0.092-0.206,0.202
		C39.687,41.319,39.776,41.412,39.893,41.412z M37.873,42.221c-0.112,0-0.2,0.092-0.2,0.2c0,0.032,0.005,0.06,0.014,0.085
		l0.389-0.079c0-0.002,0-0.002,0-0.006C38.075,42.312,37.985,42.221,37.873,42.221z M36.476,42.75l0.327-0.064
		c-0.038-0.037-0.084-0.062-0.141-0.062C36.577,42.623,36.507,42.678,36.476,42.75z M37.672,42.019c0-0.083-0.052-0.155-0.125-0.188
		c-0.025-0.008-0.05-0.015-0.078-0.015c-0.03,0-0.054,0.007-0.08,0.015c-0.073,0.032-0.125,0.104-0.125,0.188l0,0
		c0,0.081,0.053,0.154,0.125,0.184c0.025,0.014,0.049,0.019,0.08,0.019c0.027,0,0.053-0.005,0.078-0.019
		C37.621,42.173,37.672,42.1,37.672,42.019L37.672,42.019z M37.066,42.221c-0.111,0-0.203,0.092-0.203,0.2
		c0,0.112,0.091,0.202,0.203,0.202c0.112,0,0.199-0.09,0.199-0.202C37.265,42.312,37.178,42.221,37.066,42.221z M38.354,41.831
		c-0.024-0.008-0.052-0.015-0.079-0.015c-0.027,0-0.056,0.007-0.08,0.015c-0.072,0.032-0.121,0.104-0.121,0.188l0,0
		c0,0.081,0.049,0.154,0.121,0.184c0.024,0.014,0.053,0.019,0.08,0.019c0.027,0,0.054-0.005,0.079-0.019
		c0.074-0.029,0.127-0.103,0.127-0.184l0,0C38.481,41.936,38.428,41.863,38.354,41.831z M41.908,41.412
		c-0.113,0-0.2,0.089-0.2,0.198c0,0.03,0.002,0.052,0.013,0.079l0.386-0.082C42.106,41.501,42.019,41.412,41.908,41.412z
		 M28.189,43.842c-0.112,0-0.204,0.088-0.204,0.202c0,0.111,0.091,0.197,0.204,0.197s0.202-0.086,0.202-0.197
		C28.391,43.93,28.301,43.842,28.189,43.842z M42.311,41.004c-0.109,0-0.202,0.092-0.202,0.202c0,0.113,0.093,0.206,0.202,0.206
		s0.205-0.093,0.205-0.206C42.516,41.096,42.42,41.004,42.311,41.004z M43.726,41.193c0,0.004-0.006,0.01-0.006,0.013
		c0,0.026,0.008,0.049,0.015,0.073l0.19-0.039l0.045-0.008l-0.045-0.006L43.726,41.193z M42.536,41.521l0.308-0.061
		c-0.036-0.03-0.081-0.049-0.126-0.049C42.633,41.412,42.57,41.459,42.536,41.521z M39.967,41.831
		c-0.023-0.008-0.047-0.015-0.074-0.015c-0.032,0-0.06,0.007-0.084,0.015c-0.072,0.032-0.122,0.104-0.122,0.188l0,0
		c0,0.025,0.007,0.054,0.016,0.075l0.389-0.075l0,0C40.091,41.936,40.042,41.863,39.967,41.831z M40.292,41.412
		c-0.11,0-0.2,0.089-0.2,0.198c0,0.113,0.09,0.206,0.2,0.206c0.113,0,0.202-0.093,0.202-0.206
		C40.494,41.501,40.405,41.412,40.292,41.412z M40.697,41.816c-0.025,0-0.052,0.007-0.079,0.015
		c-0.043,0.021-0.079,0.059-0.103,0.101l0.182-0.036l0.133-0.026c-0.017-0.018-0.034-0.028-0.052-0.038
		C40.749,41.823,40.724,41.816,40.697,41.816z M41.099,41.412c-0.111,0-0.201,0.089-0.201,0.198c0,0.11,0.09,0.2,0.198,0.206
		l0.09-0.019c0.065-0.034,0.114-0.105,0.114-0.188C41.3,41.501,41.212,41.412,41.099,41.412z M41.099,41.004
		c0.106,0,0.186-0.079,0.199-0.177l-0.39-0.062c-0.007,0.012-0.011,0.024-0.011,0.038C40.898,40.915,40.988,41.004,41.099,41.004z
		 M40.697,41.004c-0.11,0-0.203,0.092-0.203,0.202c0,0.113,0.093,0.206,0.203,0.206s0.201-0.093,0.201-0.206
		C40.898,41.096,40.807,41.004,40.697,41.004z M41.506,41.004c-0.113,0-0.206,0.092-0.206,0.202c0,0.113,0.093,0.206,0.206,0.206
		c0.108,0,0.201-0.093,0.201-0.206C41.708,41.096,41.615,41.004,41.506,41.004z M30.61,43.435c0.113,0,0.202-0.088,0.202-0.202
		c0-0.112-0.089-0.202-0.202-0.202c-0.112,0-0.203,0.09-0.203,0.202C30.407,43.347,30.499,43.435,30.61,43.435z M30.423,43.973
		l0.333-0.064c-0.033-0.043-0.085-0.066-0.146-0.066C30.524,43.842,30.45,43.896,30.423,43.973z M31.416,43.03
		c-0.11,0-0.203,0.09-0.203,0.202c0,0.114,0.092,0.202,0.203,0.202c0.114,0,0.203-0.088,0.203-0.202
		C31.619,43.12,31.529,43.03,31.416,43.03z M31.014,43.435c-0.113,0-0.201,0.091-0.201,0.203s0.088,0.204,0.201,0.204
		c0.11,0,0.199-0.092,0.199-0.204S31.124,43.435,31.014,43.435z M30.207,43.435c-0.111,0-0.202,0.091-0.202,0.203
		s0.091,0.204,0.202,0.204s0.2-0.092,0.2-0.204S30.318,43.435,30.207,43.435z M29.4,43.435c-0.112,0-0.201,0.091-0.201,0.203
		s0.089,0.204,0.201,0.204c0.11,0,0.202-0.092,0.202-0.204S29.51,43.435,29.4,43.435z M29.802,43.842c-0.109,0-0.2,0.088-0.2,0.202
		c0,0.032,0.012,0.063,0.025,0.095l0.376-0.078c0-0.005,0.002-0.011,0.002-0.017C30.005,43.93,29.917,43.842,29.802,43.842z
		 M28.593,43.842c0.112,0,0.201-0.092,0.201-0.204s-0.089-0.203-0.201-0.203c-0.113,0-0.202,0.091-0.202,0.203
		S28.479,43.842,28.593,43.842z M28.403,44.387l0.34-0.071c-0.035-0.043-0.089-0.074-0.151-0.074
		C28.5,44.241,28.428,44.304,28.403,44.387z M28.994,43.842c-0.109,0-0.2,0.088-0.2,0.202c0,0.111,0.091,0.197,0.2,0.197
		c0.114,0,0.205-0.086,0.205-0.197C29.199,43.93,29.108,43.842,28.994,43.842z M31.819,43.435c-0.112,0-0.2,0.091-0.2,0.203
		c0,0.035,0.009,0.067,0.023,0.091l0.38-0.076c0-0.006,0.002-0.008,0.002-0.015C32.024,43.525,31.931,43.435,31.819,43.435z
		 M32.44,43.565l0.187-0.036l0.147-0.029c-0.037-0.039-0.085-0.065-0.147-0.065C32.542,43.435,32.469,43.494,32.44,43.565z
		 M34.644,42.623c0.112,0,0.203-0.09,0.203-0.202c0-0.108-0.091-0.2-0.203-0.2c-0.111,0-0.202,0.092-0.202,0.2
		C34.442,42.533,34.533,42.623,34.644,42.623z M34.458,43.161l0.331-0.07c-0.037-0.037-0.088-0.061-0.145-0.061
		C34.559,43.03,34.488,43.085,34.458,43.161z M35.048,42.623c-0.112,0-0.201,0.093-0.201,0.207c0,0.107,0.089,0.2,0.201,0.2
		c0.11,0,0.202-0.093,0.202-0.2C35.25,42.716,35.158,42.623,35.048,42.623z M35.451,42.221c-0.108,0-0.2,0.092-0.2,0.2
		c0,0.112,0.092,0.202,0.2,0.202c0.111,0,0.202-0.09,0.202-0.202C35.652,42.312,35.562,42.221,35.451,42.221z M34.244,42.623
		c-0.112,0-0.205,0.093-0.205,0.207c0,0.107,0.092,0.2,0.205,0.2c0.109,0,0.198-0.093,0.198-0.2
		C34.442,42.716,34.353,42.623,34.244,42.623z M33.029,43.03c-0.109,0-0.2,0.09-0.2,0.202c0,0.114,0.091,0.202,0.2,0.202
		c0.114,0,0.204-0.088,0.204-0.202C33.233,43.12,33.143,43.03,33.029,43.03z M35.854,42.623c-0.109,0-0.202,0.093-0.202,0.207
		c0,0.029,0.01,0.056,0.021,0.08l0.181-0.036l0.201-0.037c0-0.005,0-0.007,0-0.007C36.056,42.716,35.966,42.623,35.854,42.623z
		 M33.837,43.03c-0.109,0-0.199,0.09-0.199,0.202c0,0.03,0.009,0.062,0.021,0.09l0.378-0.077c0.003-0.006,0.003-0.006,0.003-0.013
		C34.039,43.12,33.951,43.03,33.837,43.03z M32.626,43.03c0.11,0,0.203-0.093,0.203-0.2c0-0.114-0.092-0.207-0.203-0.207
		c-0.108,0-0.2,0.093-0.2,0.207C32.426,42.938,32.519,43.03,32.626,43.03z M32.221,43.03c-0.106,0-0.197,0.09-0.197,0.202
		c0,0.114,0.091,0.202,0.197,0.202c0.113,0,0.205-0.088,0.205-0.202C32.426,43.12,32.334,43.03,32.221,43.03z M14.471,44.241
		c0.113,0,0.202-0.086,0.202-0.197c0-0.114-0.089-0.202-0.202-0.202c-0.111,0-0.202,0.088-0.202,0.202
		C14.269,44.155,14.36,44.241,14.471,44.241z M29.4,39.386c-0.112,0-0.201,0.092-0.201,0.205c0,0.111,0.089,0.198,0.201,0.198
		c0.11,0,0.202-0.087,0.202-0.198C29.602,39.478,29.51,39.386,29.4,39.386z M33.837,39.789c-0.109,0-0.199,0.093-0.199,0.202
		c0,0.115,0.09,0.205,0.199,0.205c0.114,0,0.202-0.09,0.202-0.205C34.039,39.882,33.951,39.789,33.837,39.789z M33.837,41.004
		c0.114,0,0.202-0.089,0.202-0.2c0-0.115-0.088-0.204-0.202-0.204c-0.109,0-0.199,0.089-0.199,0.204
		C33.638,40.915,33.728,41.004,33.837,41.004z M35.048,41.004c-0.112,0-0.201,0.092-0.201,0.202c0,0.113,0.089,0.206,0.201,0.206
		c0.11,0,0.202-0.093,0.202-0.206C35.25,41.096,35.158,41.004,35.048,41.004z M34.644,41.004c0.112,0,0.203-0.089,0.203-0.2
		c0-0.115-0.091-0.204-0.203-0.204c-0.111,0-0.202,0.089-0.202,0.204C34.442,40.915,34.533,41.004,34.644,41.004z M33.029,39.789
		c-0.109,0-0.2,0.093-0.2,0.202c0,0.115,0.091,0.205,0.2,0.205c0.114,0,0.204-0.09,0.204-0.205
		C33.233,39.882,33.143,39.789,33.029,39.789z M33.436,40.196c-0.113,0-0.202,0.09-0.202,0.204c0,0.109,0.089,0.199,0.202,0.199
		c0.11,0,0.202-0.09,0.202-0.199C33.638,40.286,33.545,40.196,33.436,40.196z M35.777,42.202c0.024,0.014,0.05,0.019,0.078,0.019
		c0.029,0,0.056-0.005,0.083-0.019c0.069-0.029,0.119-0.103,0.119-0.184l0,0c0-0.083-0.049-0.155-0.119-0.188
		c-0.027-0.008-0.053-0.015-0.083-0.015c-0.028,0-0.053,0.007-0.078,0.015c-0.072,0.032-0.125,0.104-0.125,0.188l0,0
		C35.652,42.1,35.705,42.173,35.777,42.202z M35.451,41.816c0.111,0,0.202-0.093,0.202-0.206c0-0.109-0.09-0.198-0.202-0.198
		c-0.108,0-0.2,0.089-0.2,0.198C35.25,41.724,35.343,41.816,35.451,41.816z M32.626,39.515l-0.169-0.027
		c-0.019,0.031-0.031,0.064-0.031,0.104c0,0.111,0.092,0.198,0.2,0.198c0.11,0,0.203-0.087,0.203-0.198
		c0-0.018-0.003-0.033-0.009-0.049L32.626,39.515z M35.048,40.196c-0.112,0-0.201,0.09-0.201,0.204c0,0.109,0.089,0.199,0.201,0.199
		c0.11,0,0.202-0.09,0.202-0.199C35.25,40.286,35.158,40.196,35.048,40.196z M35.451,40.6c-0.108,0-0.2,0.089-0.2,0.204
		c0,0.111,0.092,0.2,0.2,0.2c0.111,0,0.202-0.089,0.202-0.2C35.652,40.688,35.562,40.6,35.451,40.6z M34.571,39.809
		c-0.074,0.029-0.129,0.102-0.129,0.183c0,0.115,0.091,0.205,0.202,0.205c0.112,0,0.203-0.09,0.203-0.205
		c0-0.062-0.033-0.115-0.082-0.153L34.571,39.809z M34.244,40.196c-0.112,0-0.205,0.09-0.205,0.204c0,0.109,0.092,0.199,0.205,0.199
		c0.109,0,0.198-0.09,0.198-0.199C34.442,40.286,34.353,40.196,34.244,40.196z M30.61,39.789c-0.112,0-0.203,0.093-0.203,0.202
		c0,0.115,0.091,0.205,0.203,0.205c0.113,0,0.202-0.09,0.202-0.205C30.812,39.882,30.723,39.789,30.61,39.789z M30.207,39.386
		c-0.111,0-0.202,0.092-0.202,0.205c0,0.111,0.091,0.198,0.202,0.198s0.2-0.087,0.2-0.198
		C30.407,39.478,30.318,39.386,30.207,39.386z M29.802,39.789c-0.109,0-0.2,0.093-0.2,0.202c0,0.115,0.091,0.205,0.2,0.205
		c0.114,0,0.203-0.09,0.203-0.205C30.005,39.882,29.917,39.789,29.802,39.789z M31.014,40.6c0.11,0,0.199-0.09,0.199-0.199
		c0-0.114-0.089-0.204-0.199-0.204c-0.113,0-0.201,0.09-0.201,0.204C30.812,40.51,30.901,40.6,31.014,40.6z M32.626,40.6
		c0.11,0,0.203-0.09,0.203-0.199c0-0.114-0.092-0.204-0.203-0.204c-0.108,0-0.2,0.09-0.2,0.204
		C32.426,40.51,32.519,40.6,32.626,40.6z M30.207,40.6c0.111,0,0.2-0.09,0.2-0.199c0-0.114-0.089-0.204-0.2-0.204
		s-0.202,0.09-0.202,0.204C30.005,40.51,30.096,40.6,30.207,40.6z M32.221,39.789c-0.106,0-0.197,0.093-0.197,0.202
		c0,0.115,0.091,0.205,0.197,0.205c0.113,0,0.205-0.09,0.205-0.205C32.426,39.882,32.334,39.789,32.221,39.789z M31.014,39.386
		c-0.113,0-0.201,0.092-0.201,0.205c0,0.111,0.088,0.198,0.201,0.198c0.11,0,0.199-0.087,0.199-0.198
		C31.213,39.478,31.124,39.386,31.014,39.386z M32.221,41.004c0.113,0,0.205-0.089,0.205-0.2c0-0.115-0.092-0.204-0.205-0.204
		c-0.106,0-0.197,0.089-0.197,0.204C32.024,40.915,32.115,41.004,32.221,41.004z M31.416,39.789c-0.11,0-0.203,0.093-0.203,0.202
		c0,0.115,0.092,0.205,0.203,0.205c0.114,0,0.203-0.09,0.203-0.205C31.619,39.882,31.529,39.789,31.416,39.789z M31.819,40.196
		c-0.112,0-0.2,0.09-0.2,0.204c0,0.109,0.088,0.199,0.2,0.199s0.205-0.09,0.205-0.199C32.024,40.286,31.931,40.196,31.819,40.196z
		 M34.162,42.202c0.022,0.014,0.051,0.019,0.082,0.019c0.024,0,0.049-0.005,0.076-0.019c0.073-0.029,0.122-0.103,0.122-0.184l0,0
		c0-0.083-0.049-0.155-0.122-0.188c-0.027-0.008-0.052-0.015-0.076-0.015c-0.031,0-0.059,0.007-0.082,0.015
		c-0.071,0.032-0.123,0.104-0.123,0.188l0,0C34.039,42.1,34.091,42.173,34.162,42.202z M31.819,43.03c0.112,0,0.205-0.093,0.205-0.2
		c0-0.114-0.093-0.207-0.205-0.207s-0.2,0.093-0.2,0.207C31.619,42.938,31.707,43.03,31.819,43.03z M32.024,42.019
		c0-0.083-0.053-0.155-0.122-0.188c-0.028-0.008-0.052-0.015-0.083-0.015c-0.025,0-0.052,0.007-0.077,0.015
		c-0.073,0.032-0.124,0.104-0.124,0.188l0,0c0,0.081,0.051,0.154,0.124,0.184c0.024,0.014,0.051,0.019,0.077,0.019
		c0.031,0,0.056-0.005,0.083-0.019C31.971,42.173,32.024,42.1,32.024,42.019L32.024,42.019z M31.213,42.019
		c0-0.083-0.049-0.155-0.121-0.188c-0.026-0.008-0.051-0.015-0.079-0.015c-0.027,0-0.055,0.007-0.081,0.015
		c-0.069,0.032-0.121,0.104-0.121,0.188l0,0c0,0.081,0.051,0.154,0.121,0.184c0.026,0.014,0.053,0.019,0.081,0.019
		c0.028,0,0.052-0.005,0.079-0.019C31.164,42.173,31.213,42.1,31.213,42.019L31.213,42.019z M31.416,42.623
		c0.114,0,0.203-0.09,0.203-0.202c0-0.108-0.089-0.2-0.203-0.2c-0.11,0-0.203,0.092-0.203,0.2
		C31.213,42.533,31.305,42.623,31.416,42.623z M32.221,42.623c0.113,0,0.205-0.09,0.205-0.202c0-0.108-0.092-0.2-0.205-0.2
		c-0.106,0-0.197,0.092-0.197,0.2C32.024,42.533,32.115,42.623,32.221,42.623z M32.221,41.412c-0.106,0-0.197,0.089-0.197,0.198
		c0,0.113,0.091,0.206,0.197,0.206c0.113,0,0.205-0.093,0.205-0.206C32.426,41.501,32.334,41.412,32.221,41.412z M32.552,42.202
		c0.021,0.014,0.048,0.019,0.074,0.019c0.033,0,0.056-0.005,0.08-0.019c0.071-0.029,0.123-0.103,0.123-0.184l0,0
		c0-0.083-0.052-0.155-0.123-0.188c-0.023-0.008-0.047-0.015-0.08-0.015c-0.026,0-0.054,0.007-0.074,0.015
		c-0.074,0.032-0.126,0.104-0.126,0.188l0,0C32.426,42.1,32.479,42.173,32.552,42.202z M29.802,42.221c-0.109,0-0.2,0.092-0.2,0.2
		c0,0.112,0.091,0.202,0.2,0.202c0.114,0,0.203-0.09,0.203-0.202C30.005,42.312,29.917,42.221,29.802,42.221z M30.207,43.03
		c0.111,0,0.2-0.093,0.2-0.2c0-0.114-0.089-0.207-0.2-0.207s-0.202,0.093-0.202,0.207C30.005,42.938,30.096,43.03,30.207,43.03z
		 M30.61,42.623c0.113,0,0.202-0.09,0.202-0.202c0-0.108-0.089-0.2-0.202-0.2c-0.112,0-0.203,0.092-0.203,0.2
		C30.407,42.533,30.499,42.623,30.61,42.623z M30.407,42.019c0-0.083-0.049-0.155-0.123-0.188c-0.024-0.008-0.052-0.015-0.078-0.015
		c-0.028,0-0.056,0.007-0.081,0.015c-0.071,0.032-0.122,0.104-0.122,0.188l0,0c0,0.081,0.051,0.154,0.122,0.184
		c0.024,0.014,0.053,0.019,0.081,0.019c0.025,0,0.054-0.005,0.078-0.019C30.358,42.173,30.407,42.1,30.407,42.019L30.407,42.019z
		 M31.014,43.03c0.11,0,0.199-0.093,0.199-0.2c0-0.114-0.089-0.207-0.199-0.207c-0.113,0-0.201,0.093-0.201,0.207
		C30.812,42.938,30.901,43.03,31.014,43.03z M34.644,41.816c0.112,0,0.203-0.093,0.203-0.206c0-0.109-0.091-0.198-0.203-0.198
		c-0.111,0-0.202,0.089-0.202,0.198C34.442,41.724,34.533,41.816,34.644,41.816z M29.802,43.435c0.114,0,0.203-0.088,0.203-0.202
		c0-0.112-0.088-0.202-0.203-0.202c-0.109,0-0.2,0.09-0.2,0.202C29.602,43.347,29.693,43.435,29.802,43.435z M14.673,43.232
		c0-0.098-0.073-0.183-0.169-0.197l-0.116,0.38c0.025,0.013,0.053,0.02,0.083,0.02C14.584,43.435,14.673,43.347,14.673,43.232z
		 M34.969,42.202c0.026,0.014,0.052,0.019,0.08,0.019s0.057-0.005,0.08-0.019c0.072-0.029,0.123-0.103,0.123-0.184l0,0
		c0-0.083-0.051-0.155-0.123-0.188c-0.022-0.008-0.052-0.015-0.08-0.015s-0.054,0.007-0.08,0.015
		c-0.072,0.032-0.122,0.104-0.122,0.188l0,0C34.847,42.1,34.896,42.173,34.969,42.202z M33.837,42.623
		c0.114,0,0.202-0.09,0.202-0.202c0-0.108-0.088-0.2-0.202-0.2c-0.109,0-0.199,0.092-0.199,0.2
		C33.638,42.533,33.728,42.623,33.837,42.623z M34.244,41.004c-0.112,0-0.205,0.092-0.205,0.202c0,0.113,0.092,0.206,0.205,0.206
		c0.109,0,0.198-0.093,0.198-0.206C34.442,41.096,34.353,41.004,34.244,41.004z M33.436,41.412c0.11,0,0.202-0.093,0.202-0.206
		c0-0.11-0.092-0.202-0.202-0.202c-0.113,0-0.202,0.092-0.202,0.202C33.233,41.319,33.323,41.412,33.436,41.412z M33.029,42.623
		c0.114,0,0.204-0.09,0.204-0.202c0-0.108-0.09-0.2-0.204-0.2c-0.109,0-0.2,0.092-0.2,0.2C32.829,42.533,32.92,42.623,33.029,42.623
		z M33.029,41.412c-0.109,0-0.2,0.089-0.2,0.198c0,0.113,0.091,0.206,0.2,0.206c0.114,0,0.204-0.093,0.204-0.206
		C33.233,41.501,33.143,41.412,33.029,41.412z M33.355,42.202c0.021,0.014,0.05,0.019,0.081,0.019c0.027,0,0.055-0.005,0.076-0.019
		c0.075-0.029,0.126-0.103,0.126-0.184l0,0c0-0.083-0.052-0.155-0.126-0.188c-0.021-0.008-0.048-0.015-0.076-0.015
		c-0.03,0-0.059,0.007-0.081,0.015c-0.072,0.032-0.122,0.104-0.122,0.188l0,0C33.233,42.1,33.283,42.173,33.355,42.202z
		 M33.029,40.6c-0.109,0-0.2,0.089-0.2,0.204c0,0.111,0.091,0.2,0.2,0.2c0.114,0,0.204-0.089,0.204-0.2
		C33.233,40.688,33.143,40.6,33.029,40.6z M32.829,41.206c0-0.11-0.092-0.202-0.203-0.202c-0.108,0-0.2,0.092-0.2,0.202
		c0,0.113,0.092,0.206,0.2,0.206C32.737,41.412,32.829,41.319,32.829,41.206z M33.837,41.412c-0.109,0-0.199,0.089-0.199,0.198
		c0,0.113,0.09,0.206,0.199,0.206c0.114,0,0.202-0.093,0.202-0.206C34.039,41.501,33.951,41.412,33.837,41.412z M19.716,41.412
		c0.114,0,0.202-0.093,0.202-0.206c0-0.11-0.088-0.202-0.202-0.202c-0.111,0-0.202,0.092-0.202,0.202
		C19.514,41.319,19.605,41.412,19.716,41.412z M19.312,41.004c0.112,0,0.201-0.089,0.201-0.2c0-0.061-0.028-0.118-0.074-0.155
		l-0.297,0.054c-0.019,0.027-0.033,0.063-0.033,0.102C19.11,40.915,19.201,41.004,19.312,41.004z M20.524,40.6
		c0.099,0,0.178-0.072,0.194-0.165l-0.369,0.059C20.384,40.554,20.447,40.6,20.524,40.6z M20.12,41.004
		c0.111,0,0.201-0.089,0.201-0.2c0-0.115-0.09-0.204-0.201-0.204c-0.111,0-0.202,0.089-0.202,0.204
		C19.918,40.915,20.009,41.004,20.12,41.004z M18.911,41.412c0.112,0,0.2-0.093,0.2-0.206c0-0.11-0.088-0.202-0.2-0.202
		c-0.113,0-0.204,0.092-0.204,0.202C18.707,41.319,18.798,41.412,18.911,41.412z M18.507,41.004c0.11,0,0.2-0.089,0.2-0.2
		c0-0.01-0.003-0.02-0.005-0.028l-0.392,0.068C18.331,40.936,18.409,41.004,18.507,41.004z M22.139,40.196
		c-0.113,0-0.203,0.09-0.203,0.204c0,0.109,0.09,0.199,0.203,0.199c0.11,0,0.2-0.09,0.2-0.199
		C22.339,40.286,22.249,40.196,22.139,40.196z M21.735,40.6c-0.113,0-0.203,0.089-0.203,0.204c0,0.111,0.089,0.2,0.203,0.2
		c0.11,0,0.201-0.089,0.201-0.2C21.936,40.688,21.845,40.6,21.735,40.6z M20.524,41.004c-0.113,0-0.204,0.092-0.204,0.202
		c0,0.113,0.091,0.206,0.204,0.206c0.111,0,0.2-0.093,0.2-0.206C20.724,41.096,20.636,41.004,20.524,41.004z M18.103,41.412
		c0.111,0,0.202-0.093,0.202-0.206c0-0.11-0.091-0.202-0.202-0.202c-0.113,0-0.203,0.092-0.203,0.202
		C17.9,41.319,17.99,41.412,18.103,41.412z M21.329,40.6c0.113,0,0.203-0.09,0.203-0.199c0-0.041-0.012-0.073-0.03-0.103
		l-0.173,0.029l-0.191,0.032c-0.002,0.012-0.01,0.027-0.01,0.041C21.127,40.51,21.219,40.6,21.329,40.6z M29.4,40.6
		c0.11,0,0.202-0.09,0.202-0.199c0-0.114-0.092-0.204-0.202-0.204c-0.112,0-0.201,0.09-0.201,0.204
		C29.199,40.51,29.288,40.6,29.4,40.6z M22.139,41.412c0.11,0,0.2-0.093,0.2-0.206c0-0.11-0.09-0.202-0.2-0.202
		c-0.113,0-0.203,0.092-0.203,0.202C21.936,41.319,22.026,41.412,22.139,41.412z M17.861,40.92l-0.274,0.045
		c0.033,0.024,0.069,0.039,0.113,0.039C17.766,41.004,17.824,40.969,17.861,40.92z M15.874,41.259l-0.355,0.061
		c0.036,0.055,0.095,0.093,0.164,0.093C15.775,41.412,15.851,41.345,15.874,41.259z M15.279,41.816c0.11,0,0.201-0.093,0.201-0.206
		c0-0.109-0.091-0.198-0.201-0.198c-0.113,0-0.203,0.089-0.203,0.198C15.077,41.724,15.166,41.816,15.279,41.816z M14.874,43.03
		c0.112,0,0.203-0.093,0.203-0.2c0-0.114-0.091-0.207-0.203-0.207c-0.11,0-0.201,0.093-0.201,0.207
		C14.673,42.938,14.764,43.03,14.874,43.03z M14.874,42.221c0.029,0,0.056-0.005,0.079-0.019c0.072-0.029,0.124-0.103,0.124-0.184
		l0,0c0-0.083-0.051-0.155-0.124-0.188c-0.022-0.008-0.047-0.012-0.07-0.015l-0.116,0.37c0.01,0.009,0.018,0.014,0.03,0.016
		C14.821,42.216,14.847,42.221,14.874,42.221z M15.761,41.831c-0.025-0.008-0.051-0.015-0.08-0.015s-0.054,0.007-0.079,0.015
		c-0.073,0.032-0.123,0.104-0.123,0.188l0,0c0,0.081,0.05,0.154,0.123,0.184c0.025,0.014,0.05,0.019,0.079,0.019
		s0.054-0.005,0.08-0.019c0.071-0.029,0.122-0.103,0.122-0.184l0,0C15.883,41.936,15.832,41.863,15.761,41.831z M17.7,41.816
		c0.111,0,0.201-0.093,0.201-0.206c0-0.109-0.089-0.198-0.201-0.198c-0.112,0-0.203,0.089-0.203,0.198
		C17.497,41.724,17.588,41.816,17.7,41.816z M17.296,41.412c0.111,0,0.2-0.093,0.2-0.206c0-0.101-0.076-0.18-0.173-0.196
		l-0.122,0.021c-0.063,0.032-0.108,0.099-0.108,0.175C17.094,41.319,17.185,41.412,17.296,41.412z M16.893,41.816
		c0.11,0,0.201-0.093,0.201-0.206c0-0.109-0.091-0.198-0.201-0.198c-0.112,0-0.203,0.089-0.203,0.198
		C16.69,41.724,16.781,41.816,16.893,41.816z M16.49,41.412c0.11,0,0.2-0.093,0.2-0.206c0-0.031-0.007-0.059-0.02-0.085l-0.18,0.03
		l-0.198,0.036c-0.001,0.006-0.005,0.012-0.005,0.019C16.287,41.319,16.378,41.412,16.49,41.412z M16.085,41.816
		c0.112,0,0.202-0.093,0.202-0.206c0-0.109-0.089-0.198-0.202-0.198c-0.111,0-0.202,0.089-0.202,0.198
		C15.883,41.724,15.974,41.816,16.085,41.816z M20.926,41.004c0.113,0,0.202-0.089,0.202-0.2c0-0.115-0.089-0.204-0.202-0.204
		c-0.11,0-0.202,0.089-0.202,0.204C20.724,40.915,20.815,41.004,20.926,41.004z M27.381,39.789c-0.111,0-0.201,0.093-0.201,0.202
		c0,0.115,0.089,0.205,0.201,0.205s0.204-0.09,0.204-0.205C27.585,39.882,27.493,39.789,27.381,39.789z M26.982,39.386
		c-0.116,0-0.206,0.092-0.206,0.205c0,0.111,0.09,0.198,0.206,0.198c0.109,0,0.199-0.087,0.199-0.198
		C27.181,39.478,27.091,39.386,26.982,39.386z M26.576,39.789c-0.109,0-0.201,0.093-0.201,0.202c0,0.115,0.092,0.205,0.201,0.205
		c0.111,0,0.201-0.09,0.201-0.205C26.776,39.882,26.687,39.789,26.576,39.789z M27.786,40.6c0.11,0,0.199-0.09,0.199-0.199
		c0-0.114-0.089-0.204-0.199-0.204c-0.112,0-0.201,0.09-0.201,0.204C27.585,40.51,27.674,40.6,27.786,40.6z M26.982,40.6
		c0.109,0,0.199-0.09,0.199-0.199c0-0.114-0.089-0.204-0.199-0.204c-0.116,0-0.206,0.09-0.206,0.204
		C26.776,40.51,26.866,40.6,26.982,40.6z M28.994,39.789c-0.109,0-0.2,0.093-0.2,0.202c0,0.115,0.091,0.205,0.2,0.205
		c0.114,0,0.205-0.09,0.205-0.205C29.199,39.882,29.108,39.789,28.994,39.789z M28.593,39.386c-0.113,0-0.202,0.092-0.202,0.205
		c0,0.111,0.089,0.198,0.202,0.198c0.112,0,0.201-0.087,0.201-0.198C28.794,39.478,28.705,39.386,28.593,39.386z M26.174,39.503
		l-0.195,0.031c-0.003,0.018-0.005,0.035-0.005,0.057c0,0.111,0.088,0.198,0.201,0.198c0.109,0,0.201-0.087,0.201-0.198
		c0-0.046-0.018-0.085-0.042-0.117L26.174,39.503z M28.593,40.6c0.112,0,0.201-0.09,0.201-0.199c0-0.114-0.089-0.204-0.201-0.204
		c-0.113,0-0.202,0.09-0.202,0.204C28.391,40.51,28.479,40.6,28.593,40.6z M27.786,39.386c-0.112,0-0.201,0.092-0.201,0.205
		c0,0.111,0.089,0.198,0.201,0.198c0.11,0,0.199-0.087,0.199-0.198C27.985,39.478,27.896,39.386,27.786,39.386z M28.189,39.789
		c-0.112,0-0.204,0.093-0.204,0.202c0,0.115,0.091,0.205,0.204,0.205s0.202-0.09,0.202-0.205
		C28.391,39.882,28.301,39.789,28.189,39.789z M25.768,39.789c-0.11,0-0.201,0.093-0.201,0.202c0,0.115,0.091,0.205,0.201,0.205
		c0.113,0,0.205-0.09,0.205-0.205C25.973,39.882,25.881,39.789,25.768,39.789z M24.154,41.004c0.114,0,0.202-0.089,0.202-0.2
		c0-0.115-0.087-0.204-0.202-0.204c-0.113,0-0.202,0.089-0.202,0.204C23.952,40.915,24.041,41.004,24.154,41.004z M26.174,40.6
		c0.109,0,0.201-0.09,0.201-0.199c0-0.114-0.091-0.204-0.201-0.204c-0.113,0-0.201,0.09-0.201,0.204
		C25.973,40.51,26.061,40.6,26.174,40.6z M23.15,40.018c0.011,0.099,0.095,0.179,0.199,0.179c0.109,0,0.202-0.09,0.202-0.205
		c0-0.015-0.005-0.027-0.01-0.042L23.15,40.018z M23.349,41.004c0.109,0,0.202-0.089,0.202-0.2c0-0.115-0.093-0.204-0.202-0.204
		c-0.113,0-0.202,0.089-0.202,0.204C23.147,40.915,23.235,41.004,23.349,41.004z M22.944,40.196c-0.111,0-0.201,0.09-0.201,0.204
		c0,0.109,0.09,0.199,0.201,0.199c0.111,0,0.203-0.09,0.203-0.199C23.147,40.286,23.056,40.196,22.944,40.196z M23.751,40.196
		c-0.113,0-0.201,0.09-0.201,0.204c0,0.109,0.087,0.199,0.201,0.199c0.111,0,0.201-0.09,0.201-0.199
		C23.952,40.286,23.862,40.196,23.751,40.196z M25.768,41.004c0.113,0,0.205-0.089,0.205-0.2c0-0.115-0.092-0.204-0.205-0.204
		c-0.11,0-0.201,0.089-0.201,0.204C25.567,40.915,25.658,41.004,25.768,41.004z M24.266,39.829l-0.268,0.043
		c-0.028,0.034-0.046,0.077-0.046,0.119c0,0.115,0.088,0.205,0.202,0.205c0.114,0,0.202-0.09,0.202-0.205
		C24.355,39.925,24.318,39.862,24.266,39.829z M22.944,41.412c0.111,0,0.203-0.093,0.203-0.206c0-0.11-0.091-0.202-0.203-0.202
		c-0.111,0-0.201,0.092-0.201,0.202C22.744,41.319,22.833,41.412,22.944,41.412z M24.962,39.789c-0.113,0-0.203,0.093-0.203,0.202
		c0,0.115,0.09,0.205,0.203,0.205c0.11,0,0.202-0.09,0.202-0.205C25.164,39.882,25.073,39.789,24.962,39.789z M24.962,41.004
		c0.11,0,0.202-0.089,0.202-0.2c0-0.115-0.091-0.204-0.202-0.204c-0.113,0-0.203,0.089-0.203,0.204
		C24.76,40.915,24.85,41.004,24.962,41.004z"/>
	<path d="M0.625,40.983l-0.181,0.263C-0.026,42-0.089,42.957,0.28,43.81c0.419,0.966,1.323,1.647,2.481,1.876l8.382,1.25
		c0.111,0.016,0.225-0.058,0.252-0.169l0.429-1.592c0.029-0.106-0.038-0.21-0.146-0.225l-4.275-0.684
		c-0.11-0.02-0.171-0.118-0.135-0.227l0.599-1.808c0.036-0.108,0.154-0.182,0.264-0.164l4.188,0.604
		c0.111,0.014,0.228-0.062,0.257-0.166l0.468-1.602c0.033-0.108-0.033-0.213-0.143-0.228l-8.382-1.288
		c-0.233-0.04-0.468-0.062-0.7-0.062C2.484,39.312,1.288,39.937,0.625,40.983z M4.672,43.831l-1.521-0.244
		c-0.457-0.091-0.782-0.314-0.919-0.627c-0.087-0.204-0.083-0.417,0.01-0.568l0.015-0.023c0.369-0.795,1.145-0.903,1.575-0.9
		c0.118,0.003,0.233,0.013,0.351,0.033l1.203,0.17c0.11,0.019,0.172,0.118,0.136,0.225l-0.586,1.775
		C4.902,43.777,4.782,43.848,4.672,43.831z"/>
	<path d="M13.695,16.155c-3.384-0.106-6.132,1.95-6.212,4.584c-0.031,1.036,0.352,2.033,1.11,2.884
		c1.104,1.244,2.903,2.017,4.81,2.076c0.082,0.003,0.164,0.006,0.245,0.006h0.032c3.25-0.012,5.859-2.03,5.937-4.59
		c0.032-1.038-0.353-2.035-1.112-2.887C17.402,16.989,15.603,16.214,13.695,16.155z M13.474,23.388
		c-1.267-0.04-2.473-0.536-3.151-1.297c-0.354-0.401-0.536-0.842-0.522-1.28c0.039-1.286,1.668-2.338,3.628-2.344h0.022
		c0.056,0,0.115,0,0.172,0.002c1.267,0.038,2.473,0.535,3.15,1.295c0.357,0.4,0.537,0.842,0.523,1.28
		C17.256,22.371,15.527,23.448,13.474,23.388z"/>
	<path d="M4.224,31.576c-0.11-0.014-0.229,0.059-0.264,0.165l-0.641,1.776c-0.036,0.107,0.026,0.207,0.137,0.22l8.396,1.119
		c0.439,0.09,0.754,0.3,0.885,0.602c0.081,0.186,0.081,0.377,0.003,0.504l0,0c-0.32,0.799-1.189,0.925-1.543,0.919
		c-0.116,0-0.23-0.01-0.35-0.03l-7.982-1.162c-0.112-0.015-0.229,0.059-0.262,0.165l-0.587,1.698
		c-0.034,0.107,0.029,0.21,0.139,0.225l8.348,1.289c0.229,0.035,0.463,0.058,0.691,0.058c1.358,0.016,2.577-0.618,3.247-1.686
		l0.179-0.271c0.478-0.77,0.537-1.745,0.16-2.608c-0.43-0.982-1.35-1.678-2.525-1.901L4.224,31.576z"/>
	<path d="M24.923,2.392l0.473-1.562c0.037-0.109-0.031-0.199-0.139-0.201l-8.324-0.222c-1.6-0.088-3.011,0.688-3.644,1.992
		L13.141,2.68c-0.377,0.787-0.332,1.728,0.12,2.518c0.518,0.902,1.478,1.471,2.637,1.566l7.507,0.307
		c0.114,0.002,0.228-0.083,0.262-0.19l0.48-1.629c0.034-0.107-0.034-0.198-0.145-0.204l-3.94-0.156
		c-0.113-0.003-0.174-0.095-0.136-0.201l0.69-1.989c0.036-0.105,0.157-0.189,0.271-0.188l3.776,0.07
		C24.774,2.586,24.89,2.5,24.923,2.392z M17.292,4.782l-1.249-0.05c-0.482-0.043-0.845-0.236-1.023-0.547
		c-0.117-0.206-0.14-0.436-0.049-0.627c0.312-0.84,1.156-1.126,1.782-1.121c0.026,0,0.055,0.003,0.089,0.003l1.349,0.025
		c0.112,0.001,0.171,0.088,0.129,0.191L17.567,4.6C17.527,4.704,17.405,4.786,17.292,4.782z"/>
	<path d="M11.492,9.651l5.593,1.919c0.105,0.041,0.101,0.08-0.011,0.09l-6.727,0.708c-0.111,0.007-0.233,0.102-0.271,0.208
		L9.34,14.548c-0.041,0.109,0.018,0.205,0.13,0.216l11.206,1.254c0,0,0.008,0.003,0.021,0.005c0.011,0,0.047-0.086,0.081-0.194
		l0.502-1.551c0.033-0.106-0.029-0.203-0.141-0.211l-4.869-0.468c-0.112-0.01-0.112-0.027,0-0.038l5.227-0.562
		c0.111-0.011,0.228-0.107,0.261-0.213l0.387-1.291c0.032-0.105-0.029-0.218-0.137-0.253L17.41,9.896
		c-0.107-0.034-0.103-0.052,0.008-0.046l4.948,0.3c0.112,0.006,0.229-0.073,0.263-0.184l0.477-1.556
		c0.033-0.108-0.031-0.201-0.142-0.206l-10.719-0.58c-0.111-0.008-0.235,0.073-0.273,0.179l-0.6,1.589
		C11.333,9.497,11.385,9.614,11.492,9.651z"/>
	<path d="M8.775,25.017L6.75,24.723c-0.112-0.013-0.233,0.064-0.27,0.172l-1.908,5.505c-0.038,0.107,0.022,0.202,0.134,0.214
		l1.977,0.235c0.111,0.016,0.232-0.062,0.27-0.166l0.462-1.288c0.037-0.106,0.158-0.18,0.269-0.171l8.441,0.896
		c0.111,0.014,0.229-0.062,0.265-0.171l0.619-1.893c0.034-0.107-0.028-0.206-0.138-0.218l-8.354-0.933
		c-0.111-0.013-0.172-0.111-0.132-0.215l0.523-1.465C8.947,25.122,8.886,25.029,8.775,25.017z"/>
</g>
<image display="none" overflow="visible" width="420" height="88" xlink:href="../../../../../../Desktop/Schermafbeelding 2013-07-03 om 15.10.33.png"  transform="matrix(1 0 0 1 -172.52 -12.5259)">
</image>
</svg>
